G75*
%MOIN*%
%OFA0B0*%
%FSLAX25Y25*%
%IPPOS*%
%LPD*%
%AMOC8*
5,1,8,0,0,1.08239X$1,22.5*
%
%ADD10R,0.05906X0.05118*%
%ADD11R,0.05118X0.05906*%
%ADD12OC8,0.06300*%
%ADD13C,0.06300*%
%ADD14C,0.10000*%
%ADD15OC8,0.10000*%
%ADD16R,0.09449X0.06299*%
%ADD17R,0.05512X0.06299*%
%ADD18R,0.03937X0.05512*%
%ADD19R,0.09500X0.09500*%
%ADD20C,0.09500*%
%ADD21C,0.06000*%
%ADD22C,0.05200*%
%ADD23C,0.05000*%
%ADD24C,0.07874*%
%ADD25OC8,0.06000*%
%ADD26R,0.08000X0.08000*%
%ADD27C,0.08000*%
%ADD28C,0.07400*%
%ADD29R,0.04724X0.06299*%
%ADD30R,0.06299X0.04724*%
%ADD31OC8,0.05200*%
%ADD32C,0.04400*%
%ADD33R,0.05512X0.03937*%
%ADD34C,0.04400*%
%ADD35C,0.10650*%
%ADD36R,0.05150X0.05150*%
%ADD37C,0.07600*%
%ADD38C,0.07087*%
%ADD39C,0.07677*%
%ADD40C,0.05543*%
%ADD41C,0.07500*%
%ADD42C,0.10500*%
%ADD43R,0.09449X0.09449*%
%ADD44R,0.04724X0.05906*%
%ADD45C,0.07000*%
%ADD46R,0.03962X0.03962*%
%ADD47C,0.01000*%
%ADD48C,0.01600*%
%ADD49C,0.05000*%
%ADD50R,0.03569X0.03569*%
%ADD51R,0.05906X0.05906*%
%ADD52C,0.03200*%
%ADD53R,0.07677X0.07677*%
%ADD54C,0.04000*%
%ADD55R,0.05315X0.05315*%
%ADD56C,0.01200*%
%ADD57R,0.04750X0.04750*%
%ADD58C,0.02400*%
%ADD59R,0.04356X0.04356*%
%ADD60C,0.03569*%
D10*
X0092724Y0123532D03*
X0092724Y0131013D03*
X0073669Y0171839D03*
X0073669Y0179320D03*
X0056937Y0188060D03*
X0056937Y0195540D03*
X0109102Y0207627D03*
X0109102Y0215107D03*
X0130244Y0211564D03*
X0130244Y0219044D03*
X0167803Y0207351D03*
X0167803Y0199871D03*
X0149378Y0154753D03*
X0149378Y0147272D03*
X0067488Y0256879D03*
X0067488Y0264359D03*
X0055992Y0301761D03*
X0055992Y0309241D03*
X0012685Y0302745D03*
X0012685Y0295265D03*
X0292882Y0104713D03*
X0292882Y0097233D03*
X0349890Y0083769D03*
X0349890Y0076288D03*
X0360795Y0075973D03*
X0360795Y0083454D03*
X0389339Y0101957D03*
X0389339Y0109438D03*
D11*
X0366504Y0097154D03*
X0359024Y0097154D03*
X0381583Y0059831D03*
X0389063Y0059831D03*
X0364063Y0047036D03*
X0356583Y0047036D03*
X0301150Y0054831D03*
X0293669Y0054831D03*
X0357252Y0142430D03*
X0364732Y0142430D03*
X0371976Y0177233D03*
X0379457Y0177233D03*
X0231268Y0199005D03*
X0223787Y0199005D03*
X0219575Y0163493D03*
X0212094Y0163493D03*
X0197882Y0154950D03*
X0190402Y0154950D03*
X0191228Y0165540D03*
X0183748Y0165540D03*
X0173354Y0165146D03*
X0165874Y0165146D03*
X0170008Y0153532D03*
X0177488Y0153532D03*
X0133866Y0170265D03*
X0126386Y0170265D03*
X0117843Y0200737D03*
X0110362Y0200737D03*
X0125480Y0202587D03*
X0132961Y0202587D03*
X0087606Y0190855D03*
X0080126Y0190855D03*
X0079811Y0225304D03*
X0087291Y0225304D03*
X0027449Y0327863D03*
X0019969Y0327863D03*
X0108394Y0118532D03*
X0115874Y0118532D03*
X0045638Y0090619D03*
X0038157Y0090619D03*
D12*
X0137488Y0112981D03*
X0264929Y0180698D03*
X0273512Y0213847D03*
X0243906Y0227509D03*
D13*
X0233906Y0227509D03*
X0273512Y0203847D03*
X0264929Y0190698D03*
X0137488Y0122981D03*
D14*
X0078709Y0136879D03*
X0324496Y0160855D03*
X0404496Y0160855D03*
X0394496Y0280855D03*
X0324496Y0280855D03*
D15*
X0078709Y0116879D03*
D16*
X0058157Y0154202D03*
X0058157Y0166013D03*
X0088669Y0168611D03*
X0088669Y0180422D03*
X0058157Y0221800D03*
X0058157Y0233611D03*
D17*
X0067016Y0211643D03*
X0067016Y0199831D03*
D18*
X0217646Y0179162D03*
X0225126Y0179162D03*
X0221386Y0187824D03*
X0295677Y0080540D03*
X0291937Y0071879D03*
X0299417Y0071879D03*
X0348827Y0059438D03*
X0356307Y0059438D03*
X0352567Y0068099D03*
D19*
X0058669Y0338493D03*
D20*
X0072449Y0338493D03*
X0086228Y0338493D03*
D21*
X0080646Y0267745D02*
X0074646Y0267745D01*
X0074646Y0257745D02*
X0080646Y0257745D01*
X0197953Y0254438D02*
X0203953Y0254438D01*
X0203953Y0264438D02*
X0197953Y0264438D01*
X0197953Y0274438D02*
X0203953Y0274438D01*
X0203953Y0244438D02*
X0197953Y0244438D01*
X0197953Y0234438D02*
X0203953Y0234438D01*
X0203953Y0224438D02*
X0197953Y0224438D01*
X0197953Y0214438D02*
X0203953Y0214438D01*
X0071433Y0097272D02*
X0065433Y0097272D01*
X0065433Y0087272D02*
X0071433Y0087272D01*
X0037803Y0111005D02*
X0037803Y0117005D01*
X0027803Y0117005D02*
X0027803Y0111005D01*
X0017803Y0111005D02*
X0017803Y0117005D01*
D22*
X0206028Y0179792D02*
X0211228Y0179792D01*
X0211228Y0189792D02*
X0206028Y0189792D01*
X0241228Y0189792D02*
X0246428Y0189792D01*
X0246428Y0179792D02*
X0241228Y0179792D01*
X0254654Y0227269D02*
X0254654Y0232469D01*
X0264654Y0232469D02*
X0264654Y0227269D01*
X0264654Y0262469D02*
X0264654Y0267669D01*
X0254654Y0267669D02*
X0254654Y0262469D01*
X0318984Y0145268D02*
X0318984Y0140068D01*
X0328984Y0140068D02*
X0328984Y0145268D01*
X0338984Y0145268D02*
X0338984Y0140068D01*
X0348984Y0140068D02*
X0348984Y0145268D01*
X0363509Y0119556D02*
X0368709Y0119556D01*
X0368709Y0109556D02*
X0363509Y0109556D01*
X0348984Y0110068D02*
X0348984Y0104868D01*
X0338984Y0104868D02*
X0338984Y0110068D01*
X0328984Y0110068D02*
X0328984Y0104868D01*
X0318984Y0104868D02*
X0318984Y0110068D01*
X0319575Y0087038D02*
X0319575Y0081838D01*
X0309575Y0081838D02*
X0309575Y0087038D01*
X0309575Y0067038D02*
X0309575Y0061838D01*
X0319575Y0061838D02*
X0319575Y0067038D01*
X0333942Y0067154D02*
X0339142Y0067154D01*
X0339142Y0077154D02*
X0333942Y0077154D01*
X0333942Y0087154D02*
X0339142Y0087154D01*
X0369142Y0087154D02*
X0374342Y0087154D01*
X0374342Y0077154D02*
X0369142Y0077154D01*
X0369142Y0067154D02*
X0374342Y0067154D01*
X0374342Y0057154D02*
X0369142Y0057154D01*
X0339142Y0057154D02*
X0333942Y0057154D01*
X0279575Y0061838D02*
X0279575Y0067038D01*
X0279575Y0081838D02*
X0279575Y0087038D01*
X0398709Y0109556D02*
X0403909Y0109556D01*
X0403909Y0119556D02*
X0398709Y0119556D01*
X0045126Y0281523D02*
X0045126Y0286723D01*
X0035126Y0286723D02*
X0035126Y0281523D01*
X0025126Y0281523D02*
X0025126Y0286723D01*
X0015126Y0286723D02*
X0015126Y0281523D01*
X0015126Y0311523D02*
X0015126Y0316723D01*
X0025126Y0316723D02*
X0025126Y0311523D01*
X0035126Y0311523D02*
X0035126Y0316723D01*
X0045126Y0316723D02*
X0045126Y0311523D01*
D23*
X0048370Y0212414D03*
X0048370Y0202414D03*
X0048370Y0192414D03*
X0048370Y0172414D03*
X0048370Y0162414D03*
D24*
X0027488Y0086170D02*
X0019614Y0086170D01*
X0042449Y0077902D02*
X0042449Y0070028D01*
X0027488Y0062154D02*
X0019614Y0062154D01*
D25*
X0128394Y0135501D03*
X0138394Y0135501D03*
X0138394Y0145501D03*
X0128394Y0145501D03*
X0185416Y0076800D03*
X0196216Y0076800D03*
X0207016Y0076800D03*
X0217816Y0076800D03*
X0228616Y0076800D03*
X0223216Y0066800D03*
X0212416Y0066800D03*
X0201616Y0066800D03*
X0190816Y0066800D03*
D26*
X0189417Y0338493D03*
X0116543Y0338493D03*
X0015795Y0338493D03*
D27*
X0029575Y0338493D03*
X0130323Y0338493D03*
X0144102Y0338493D03*
X0157882Y0338493D03*
X0203197Y0338493D03*
X0216976Y0338493D03*
X0230756Y0338493D03*
X0244535Y0338493D03*
X0258315Y0338493D03*
D28*
X0151504Y0196328D03*
X0151504Y0186328D03*
X0151504Y0176328D03*
D29*
X0065441Y0178060D03*
X0053630Y0178060D03*
D30*
X0056465Y0202824D03*
X0056465Y0214635D03*
X0045953Y0142824D03*
X0045953Y0131013D03*
X0394378Y0176918D03*
X0394378Y0188729D03*
D31*
X0060559Y0071485D03*
X0060559Y0061485D03*
X0060559Y0053375D03*
X0060559Y0043375D03*
D32*
X0081154Y0197942D02*
X0085554Y0197942D01*
X0085554Y0217942D02*
X0081154Y0217942D01*
D33*
X0318079Y0074083D03*
X0326740Y0070343D03*
X0326740Y0077824D03*
X0370677Y0126997D03*
X0362016Y0130737D03*
X0370677Y0134477D03*
D34*
X0300992Y0193493D03*
X0290992Y0203493D03*
X0290992Y0183493D03*
X0128748Y0161800D03*
X0118748Y0171800D03*
X0108748Y0161800D03*
D35*
X0284762Y0237158D02*
X0295412Y0237158D01*
X0295412Y0255658D02*
X0284762Y0255658D01*
X0284762Y0274158D02*
X0295412Y0274158D01*
D36*
X0289220Y0148454D03*
X0289220Y0118454D03*
X0239220Y0118454D03*
X0210283Y0118454D03*
X0210283Y0148454D03*
X0239220Y0148454D03*
X0160283Y0148454D03*
X0160283Y0118454D03*
D37*
X0384496Y0280855D03*
X0404496Y0280855D03*
D38*
X0394496Y0160855D03*
X0384496Y0160855D03*
X0374496Y0160855D03*
X0364496Y0160855D03*
X0354496Y0160855D03*
X0344496Y0160855D03*
X0334496Y0160855D03*
D39*
X0397173Y0087942D03*
X0397173Y0077312D03*
X0384575Y0082036D03*
X0410165Y0084005D03*
X0410953Y0069438D03*
D40*
X0122941Y0098335D03*
X0112941Y0098335D03*
X0102941Y0098335D03*
X0107941Y0088335D03*
X0117941Y0088335D03*
X0097941Y0088335D03*
X0092941Y0098335D03*
X0087941Y0088335D03*
D41*
X0394575Y0324792D03*
D42*
X0384536Y0314753D03*
X0404614Y0314753D03*
X0404614Y0334831D03*
X0384536Y0334831D03*
D43*
X0015480Y0047981D03*
X0032803Y0047981D03*
X0027291Y0298965D03*
X0044614Y0298965D03*
X0044811Y0325737D03*
X0044811Y0343060D03*
D44*
X0158984Y0138335D03*
X0158984Y0126918D03*
D45*
X0078709Y0116879D02*
X0077724Y0115894D01*
X0071386Y0115894D01*
X0058591Y0103099D01*
X0048748Y0103099D01*
X0027094Y0103099D01*
X0027094Y0113296D01*
X0027803Y0114005D01*
X0017803Y0114005D02*
X0011346Y0107548D01*
X0011346Y0074556D01*
X0011346Y0056839D01*
X0015480Y0052706D01*
X0015480Y0047981D01*
X0023551Y0062154D02*
X0032803Y0052902D01*
X0032803Y0047981D01*
X0023551Y0086170D02*
X0023551Y0099556D01*
X0027094Y0103099D01*
D46*
X0092055Y0116879D03*
X0101898Y0118847D03*
X0105835Y0127706D03*
X0111346Y0127509D03*
X0116465Y0125146D03*
X0105835Y0105068D03*
X0148157Y0119831D03*
X0153079Y0124753D03*
X0144417Y0133808D03*
X0149142Y0141485D03*
X0163906Y0156249D03*
X0147173Y0170028D03*
X0135756Y0164123D03*
X0132409Y0157233D03*
X0127488Y0176918D03*
X0121976Y0176721D03*
X0118630Y0191682D03*
X0124535Y0192666D03*
X0129457Y0192666D03*
X0140874Y0183808D03*
X0151110Y0205461D03*
X0156031Y0211367D03*
X0156031Y0221209D03*
X0147173Y0219241D03*
X0146189Y0225146D03*
X0142252Y0230068D03*
X0156031Y0241879D03*
X0144220Y0245816D03*
X0138315Y0260580D03*
X0115677Y0239910D03*
X0111740Y0234005D03*
X0117646Y0233020D03*
X0125520Y0234989D03*
X0108787Y0239910D03*
X0099929Y0237942D03*
X0099929Y0231052D03*
X0087134Y0234005D03*
X0088118Y0238926D03*
X0099929Y0249753D03*
X0104850Y0272391D03*
X0108787Y0279280D03*
X0130441Y0285186D03*
X0094024Y0303887D03*
X0069417Y0296997D03*
X0051701Y0317666D03*
X0039890Y0276328D03*
X0021189Y0263729D03*
X0067646Y0249950D03*
X0102882Y0210383D03*
X0104850Y0198572D03*
X0109772Y0194635D03*
X0097961Y0183808D03*
X0098945Y0171013D03*
X0100913Y0146406D03*
X0168827Y0107036D03*
X0175717Y0127706D03*
X0191465Y0145422D03*
X0202291Y0142469D03*
X0214102Y0129674D03*
X0225913Y0106052D03*
X0243630Y0125737D03*
X0267252Y0118847D03*
X0273157Y0123769D03*
X0299732Y0108020D03*
X0290874Y0088335D03*
X0343039Y0116879D03*
X0352882Y0119831D03*
X0376504Y0141485D03*
X0278079Y0196603D03*
X0262331Y0213335D03*
X0251504Y0199556D03*
X0244614Y0198572D03*
X0237724Y0209398D03*
X0210165Y0198572D03*
X0181622Y0231052D03*
X0169811Y0222194D03*
X0172764Y0245816D03*
X0187528Y0243847D03*
X0187528Y0258611D03*
X0172764Y0265501D03*
X0219024Y0300934D03*
X0227882Y0302902D03*
X0239693Y0306839D03*
X0249535Y0295028D03*
X0226898Y0269438D03*
X0231819Y0256643D03*
X0224929Y0244831D03*
X0224929Y0234989D03*
X0250520Y0247784D03*
X0328276Y0229083D03*
X0245598Y0167076D03*
X0198354Y0165107D03*
X0123551Y0217272D03*
X0088118Y0205461D03*
D47*
X0084837Y0205917D02*
X0071386Y0205917D01*
X0071386Y0206916D02*
X0084837Y0206916D01*
X0084837Y0207914D02*
X0071386Y0207914D01*
X0071386Y0208913D02*
X0086018Y0208913D01*
X0086018Y0208743D02*
X0085599Y0208743D01*
X0084837Y0207981D01*
X0084837Y0202942D01*
X0085599Y0202180D01*
X0090638Y0202180D01*
X0091399Y0202942D01*
X0091399Y0207981D01*
X0090638Y0208743D01*
X0090218Y0208743D01*
X0090218Y0209513D01*
X0093909Y0213204D01*
X0094024Y0213318D01*
X0094024Y0185776D01*
X0071386Y0185776D01*
X0071386Y0231052D01*
X0084286Y0231052D01*
X0084614Y0230724D01*
X0089653Y0230724D01*
X0089982Y0231052D01*
X0090939Y0231052D01*
X0090939Y0229289D01*
X0090771Y0229457D01*
X0090429Y0229654D01*
X0090048Y0229757D01*
X0087791Y0229757D01*
X0087791Y0225804D01*
X0086791Y0225804D01*
X0086791Y0229757D01*
X0084535Y0229757D01*
X0084153Y0229654D01*
X0083811Y0229457D01*
X0083532Y0229178D01*
X0083443Y0229023D01*
X0082909Y0229557D01*
X0076713Y0229557D01*
X0075952Y0228795D01*
X0075952Y0221813D01*
X0076713Y0221051D01*
X0077911Y0221051D01*
X0077911Y0220698D01*
X0078436Y0220173D01*
X0078187Y0219924D01*
X0077654Y0218638D01*
X0077654Y0217246D01*
X0078187Y0215959D01*
X0079172Y0214975D01*
X0080458Y0214442D01*
X0086251Y0214442D01*
X0087537Y0214975D01*
X0088521Y0215959D01*
X0089054Y0217246D01*
X0089054Y0218638D01*
X0088521Y0219924D01*
X0087537Y0220909D01*
X0086791Y0221218D01*
X0086791Y0224804D01*
X0087791Y0224804D01*
X0087791Y0220851D01*
X0090048Y0220851D01*
X0090429Y0220953D01*
X0090771Y0221151D01*
X0090939Y0221319D01*
X0090939Y0216174D01*
X0087248Y0212483D01*
X0086018Y0211253D01*
X0086018Y0208743D01*
X0086018Y0209911D02*
X0071386Y0209911D01*
X0071386Y0210910D02*
X0086018Y0210910D01*
X0086674Y0211908D02*
X0071386Y0211908D01*
X0071386Y0212907D02*
X0087672Y0212907D01*
X0088671Y0213905D02*
X0071386Y0213905D01*
X0071386Y0214904D02*
X0079343Y0214904D01*
X0078244Y0215902D02*
X0071386Y0215902D01*
X0071386Y0216901D02*
X0077797Y0216901D01*
X0077654Y0217899D02*
X0071386Y0217899D01*
X0071386Y0218898D02*
X0077762Y0218898D01*
X0078176Y0219896D02*
X0071386Y0219896D01*
X0071386Y0220895D02*
X0077911Y0220895D01*
X0075952Y0221893D02*
X0071386Y0221893D01*
X0071386Y0222892D02*
X0075952Y0222892D01*
X0075952Y0223890D02*
X0071386Y0223890D01*
X0071386Y0224889D02*
X0075952Y0224889D01*
X0075952Y0225887D02*
X0071386Y0225887D01*
X0071386Y0226886D02*
X0075952Y0226886D01*
X0075952Y0227884D02*
X0071386Y0227884D01*
X0071386Y0228883D02*
X0076040Y0228883D01*
X0071386Y0229881D02*
X0090939Y0229881D01*
X0090939Y0230880D02*
X0089810Y0230880D01*
X0087791Y0228883D02*
X0086791Y0228883D01*
X0086791Y0227884D02*
X0087791Y0227884D01*
X0087791Y0226886D02*
X0086791Y0226886D01*
X0086791Y0225887D02*
X0087791Y0225887D01*
X0087791Y0223890D02*
X0086791Y0223890D01*
X0086791Y0222892D02*
X0087791Y0222892D01*
X0087791Y0221893D02*
X0086791Y0221893D01*
X0087551Y0220895D02*
X0087791Y0220895D01*
X0088533Y0219896D02*
X0090939Y0219896D01*
X0090939Y0218898D02*
X0088947Y0218898D01*
X0089054Y0217899D02*
X0090939Y0217899D01*
X0090939Y0216901D02*
X0088911Y0216901D01*
X0088464Y0215902D02*
X0090668Y0215902D01*
X0089669Y0214904D02*
X0087366Y0214904D01*
X0091615Y0210910D02*
X0094024Y0210910D01*
X0094024Y0211908D02*
X0092613Y0211908D01*
X0093612Y0212907D02*
X0094024Y0212907D01*
X0094024Y0209911D02*
X0090616Y0209911D01*
X0090218Y0208913D02*
X0094024Y0208913D01*
X0094024Y0207914D02*
X0091399Y0207914D01*
X0091399Y0206916D02*
X0094024Y0206916D01*
X0094024Y0205917D02*
X0091399Y0205917D01*
X0091399Y0204918D02*
X0094024Y0204918D01*
X0094024Y0203920D02*
X0091399Y0203920D01*
X0091379Y0202921D02*
X0094024Y0202921D01*
X0094024Y0201923D02*
X0071386Y0201923D01*
X0071386Y0202921D02*
X0084857Y0202921D01*
X0084837Y0203920D02*
X0071386Y0203920D01*
X0071386Y0204918D02*
X0084837Y0204918D01*
X0086251Y0201442D02*
X0080458Y0201442D01*
X0079172Y0200909D01*
X0078187Y0199924D01*
X0077654Y0198638D01*
X0077654Y0197246D01*
X0078187Y0195959D01*
X0078436Y0195710D01*
X0078226Y0195500D01*
X0078226Y0195108D01*
X0077028Y0195108D01*
X0076267Y0194346D01*
X0076267Y0187364D01*
X0077028Y0186602D01*
X0083224Y0186602D01*
X0083757Y0187136D01*
X0083847Y0186981D01*
X0084126Y0186702D01*
X0084468Y0186505D01*
X0084850Y0186402D01*
X0087106Y0186402D01*
X0087106Y0190355D01*
X0088106Y0190355D01*
X0088106Y0186402D01*
X0090363Y0186402D01*
X0090744Y0186505D01*
X0091086Y0186702D01*
X0091366Y0186981D01*
X0091563Y0187323D01*
X0091665Y0187705D01*
X0091665Y0190355D01*
X0088106Y0190355D01*
X0088106Y0191355D01*
X0087106Y0191355D01*
X0087106Y0194796D01*
X0087537Y0194975D01*
X0088521Y0195959D01*
X0089054Y0197246D01*
X0089054Y0198638D01*
X0088521Y0199924D01*
X0087537Y0200909D01*
X0086251Y0201442D01*
X0087499Y0200924D02*
X0094024Y0200924D01*
X0094024Y0199926D02*
X0088520Y0199926D01*
X0088934Y0198927D02*
X0094024Y0198927D01*
X0094024Y0197929D02*
X0089054Y0197929D01*
X0088924Y0196930D02*
X0094024Y0196930D01*
X0094024Y0195932D02*
X0088494Y0195932D01*
X0088106Y0195308D02*
X0088106Y0191355D01*
X0091665Y0191355D01*
X0091665Y0194005D01*
X0091563Y0194387D01*
X0091366Y0194729D01*
X0091086Y0195008D01*
X0090744Y0195206D01*
X0090363Y0195308D01*
X0088106Y0195308D01*
X0088106Y0194933D02*
X0087437Y0194933D01*
X0087106Y0193935D02*
X0088106Y0193935D01*
X0088106Y0192936D02*
X0087106Y0192936D01*
X0087106Y0191938D02*
X0088106Y0191938D01*
X0088106Y0190939D02*
X0094024Y0190939D01*
X0094024Y0189941D02*
X0091665Y0189941D01*
X0091665Y0188942D02*
X0094024Y0188942D01*
X0094024Y0187944D02*
X0091665Y0187944D01*
X0091330Y0186945D02*
X0094024Y0186945D01*
X0094024Y0185947D02*
X0071386Y0185947D01*
X0071386Y0186945D02*
X0076686Y0186945D01*
X0076267Y0187944D02*
X0071386Y0187944D01*
X0071386Y0188942D02*
X0076267Y0188942D01*
X0076267Y0189941D02*
X0071386Y0189941D01*
X0071386Y0190939D02*
X0076267Y0190939D01*
X0076267Y0191938D02*
X0071386Y0191938D01*
X0071386Y0192936D02*
X0076267Y0192936D01*
X0076267Y0193935D02*
X0071386Y0193935D01*
X0071386Y0194933D02*
X0076854Y0194933D01*
X0078214Y0195932D02*
X0071386Y0195932D01*
X0071386Y0196930D02*
X0077785Y0196930D01*
X0077654Y0197929D02*
X0071386Y0197929D01*
X0071386Y0198927D02*
X0077774Y0198927D01*
X0078189Y0199926D02*
X0071386Y0199926D01*
X0071386Y0200924D02*
X0079209Y0200924D01*
X0091161Y0194933D02*
X0094024Y0194933D01*
X0094024Y0193935D02*
X0091665Y0193935D01*
X0091665Y0192936D02*
X0094024Y0192936D01*
X0094024Y0191938D02*
X0091665Y0191938D01*
X0088106Y0189941D02*
X0087106Y0189941D01*
X0087106Y0188942D02*
X0088106Y0188942D01*
X0088106Y0187944D02*
X0087106Y0187944D01*
X0087106Y0186945D02*
X0088106Y0186945D01*
X0083883Y0186945D02*
X0083566Y0186945D01*
X0088669Y0180422D02*
X0097409Y0180422D01*
X0097961Y0179871D01*
X0106819Y0179871D01*
X0109772Y0182824D01*
X0109772Y0194635D01*
X0110362Y0200737D02*
X0106031Y0200737D01*
X0104850Y0198572D01*
X0110362Y0200737D02*
X0110362Y0206367D01*
X0109102Y0207627D01*
X0109102Y0215107D02*
X0109299Y0215304D01*
X0090939Y0220895D02*
X0090210Y0220895D01*
X0084458Y0230880D02*
X0071386Y0230880D01*
X0121976Y0180265D02*
X0121976Y0176721D01*
X0121976Y0180265D02*
X0130441Y0188729D01*
X0149102Y0188729D01*
X0151504Y0186328D01*
X0107803Y0156249D02*
X0104850Y0159202D01*
X0092055Y0159202D01*
X0088669Y0168611D02*
X0097409Y0168611D01*
X0098945Y0171013D01*
D48*
X0097482Y0168491D02*
X0096545Y0167554D01*
X0096545Y0166101D01*
X0095982Y0165539D01*
X0095194Y0165539D01*
X0095194Y0167836D01*
X0089444Y0167836D01*
X0089444Y0169386D01*
X0089102Y0169386D01*
X0089102Y0175518D01*
X0089476Y0175672D01*
X0094056Y0175672D01*
X0094994Y0176610D01*
X0094994Y0178322D01*
X0096208Y0178322D01*
X0096774Y0178087D01*
X0097091Y0177771D01*
X0107689Y0177771D01*
X0108919Y0179001D01*
X0111872Y0181954D01*
X0111872Y0191054D01*
X0112415Y0191054D01*
X0113353Y0191991D01*
X0113353Y0196036D01*
X0113616Y0196107D01*
X0114026Y0196344D01*
X0114244Y0196561D01*
X0114621Y0196184D01*
X0116639Y0196184D01*
X0117560Y0195263D01*
X0115986Y0195263D01*
X0115049Y0194326D01*
X0115049Y0189038D01*
X0115986Y0188101D01*
X0116230Y0188101D01*
X0116230Y0185786D01*
X0110381Y0179937D01*
X0110381Y0179937D01*
X0109706Y0179262D01*
X0109340Y0178380D01*
X0109340Y0165600D01*
X0107992Y0165600D01*
X0106595Y0165021D01*
X0105527Y0163953D01*
X0104948Y0162556D01*
X0104948Y0161302D01*
X0098533Y0161302D01*
X0098955Y0161723D01*
X0102376Y0161723D01*
X0103313Y0162660D01*
X0103313Y0167554D01*
X0102376Y0168491D01*
X0097482Y0168491D01*
X0096545Y0167248D02*
X0095194Y0167248D01*
X0095194Y0165649D02*
X0096093Y0165649D01*
X0096976Y0163139D02*
X0087134Y0163139D01*
X0085165Y0161170D01*
X0085165Y0147391D01*
X0095992Y0136564D01*
X0096002Y0139948D02*
X0089102Y0146848D01*
X0089102Y0156323D01*
X0089608Y0155817D01*
X0094502Y0155817D01*
X0095439Y0156755D01*
X0095439Y0157102D01*
X0103981Y0157102D01*
X0104419Y0156663D01*
X0104419Y0153802D01*
X0105356Y0152865D01*
X0110250Y0152865D01*
X0111187Y0153802D01*
X0111187Y0158696D01*
X0111103Y0158781D01*
X0111970Y0159647D01*
X0112293Y0160428D01*
X0112293Y0133134D01*
X0112658Y0132252D01*
X0113820Y0131090D01*
X0108703Y0131090D01*
X0108689Y0131076D01*
X0108478Y0131287D01*
X0103191Y0131287D01*
X0102254Y0130349D01*
X0102254Y0127519D01*
X0100667Y0125932D01*
X0097277Y0125932D01*
X0097277Y0126754D01*
X0096900Y0127131D01*
X0097118Y0127348D01*
X0097354Y0127759D01*
X0097477Y0128217D01*
X0097477Y0130533D01*
X0093204Y0130533D01*
X0093204Y0131492D01*
X0097477Y0131492D01*
X0097477Y0133180D01*
X0098439Y0133180D01*
X0099376Y0134117D01*
X0099376Y0139011D01*
X0098439Y0139948D01*
X0096002Y0139948D01*
X0095877Y0140073D02*
X0112293Y0140073D01*
X0112293Y0138475D02*
X0099376Y0138475D01*
X0099376Y0136876D02*
X0112293Y0136876D01*
X0112293Y0135278D02*
X0099376Y0135278D01*
X0098939Y0133679D02*
X0112293Y0133679D01*
X0112829Y0132081D02*
X0097477Y0132081D01*
X0097961Y0130658D02*
X0093079Y0130658D01*
X0084181Y0130658D01*
X0079260Y0125737D01*
X0079260Y0117430D01*
X0078709Y0116879D01*
X0089102Y0116096D02*
X0104235Y0116096D01*
X0104235Y0114917D02*
X0104794Y0114357D01*
X0099376Y0114357D01*
X0099376Y0114404D01*
X0098439Y0115342D01*
X0093545Y0115342D01*
X0092608Y0114404D01*
X0092608Y0109510D01*
X0093545Y0108573D01*
X0098439Y0108573D01*
X0099376Y0109510D01*
X0099376Y0109557D01*
X0112715Y0109557D01*
X0119548Y0102724D01*
X0120223Y0102049D01*
X0120399Y0101976D01*
X0119235Y0100812D01*
X0118569Y0099205D01*
X0118569Y0097466D01*
X0119235Y0095859D01*
X0120465Y0094629D01*
X0122071Y0093964D01*
X0123811Y0093964D01*
X0125417Y0094629D01*
X0126647Y0095859D01*
X0127313Y0097466D01*
X0127313Y0099205D01*
X0126647Y0100812D01*
X0125775Y0101683D01*
X0127478Y0101683D01*
X0132962Y0096200D01*
X0132962Y0091794D01*
X0133899Y0090857D01*
X0137883Y0090857D01*
X0137883Y0085814D01*
X0121602Y0085814D01*
X0121647Y0085859D01*
X0122313Y0087466D01*
X0122313Y0089205D01*
X0121647Y0090812D01*
X0120417Y0092042D01*
X0118811Y0092707D01*
X0117071Y0092707D01*
X0115465Y0092042D01*
X0114235Y0090812D01*
X0113569Y0089205D01*
X0113569Y0087466D01*
X0114235Y0085859D01*
X0114280Y0085814D01*
X0111760Y0085814D01*
X0111851Y0085939D01*
X0112178Y0086581D01*
X0112400Y0087265D01*
X0112513Y0087976D01*
X0112513Y0088250D01*
X0108027Y0088250D01*
X0108027Y0088421D01*
X0112513Y0088421D01*
X0112513Y0088695D01*
X0112400Y0089406D01*
X0112178Y0090090D01*
X0111851Y0090731D01*
X0111428Y0091314D01*
X0110919Y0091822D01*
X0110337Y0092245D01*
X0109696Y0092572D01*
X0109011Y0092795D01*
X0108301Y0092907D01*
X0108027Y0092907D01*
X0108027Y0088421D01*
X0107855Y0088421D01*
X0107855Y0088250D01*
X0103369Y0088250D01*
X0103369Y0087976D01*
X0103482Y0087265D01*
X0103704Y0086581D01*
X0104031Y0085939D01*
X0104122Y0085814D01*
X0101602Y0085814D01*
X0101647Y0085859D01*
X0102313Y0087466D01*
X0102313Y0089205D01*
X0101647Y0090812D01*
X0100417Y0092042D01*
X0098811Y0092707D01*
X0097071Y0092707D01*
X0095465Y0092042D01*
X0094235Y0090812D01*
X0093569Y0089205D01*
X0093569Y0087466D01*
X0094235Y0085859D01*
X0094280Y0085814D01*
X0091602Y0085814D01*
X0091647Y0085859D01*
X0092313Y0087466D01*
X0092313Y0089205D01*
X0091647Y0090812D01*
X0090417Y0092042D01*
X0089102Y0092586D01*
X0089102Y0096179D01*
X0089235Y0095859D01*
X0090465Y0094629D01*
X0092071Y0093964D01*
X0093811Y0093964D01*
X0095417Y0094629D01*
X0096647Y0095859D01*
X0097313Y0097466D01*
X0097313Y0099205D01*
X0096647Y0100812D01*
X0095417Y0102042D01*
X0093811Y0102707D01*
X0092071Y0102707D01*
X0090465Y0102042D01*
X0089235Y0100812D01*
X0089102Y0100492D01*
X0089102Y0119380D01*
X0089109Y0119373D01*
X0096340Y0119373D01*
X0097277Y0120310D01*
X0097277Y0121132D01*
X0102139Y0121132D01*
X0103021Y0121498D01*
X0105648Y0124124D01*
X0107718Y0124124D01*
X0106678Y0123085D01*
X0105172Y0123085D01*
X0104235Y0122148D01*
X0104235Y0114917D01*
X0104654Y0114497D02*
X0099284Y0114497D01*
X0095992Y0111957D02*
X0113709Y0111957D01*
X0121583Y0104083D01*
X0128472Y0104083D01*
X0136346Y0096209D01*
X0136346Y0094241D01*
X0132962Y0093716D02*
X0089102Y0093716D01*
X0089102Y0095315D02*
X0089779Y0095315D01*
X0090233Y0092118D02*
X0095649Y0092118D01*
X0094114Y0090519D02*
X0091768Y0090519D01*
X0092313Y0088921D02*
X0093569Y0088921D01*
X0093629Y0087322D02*
X0092253Y0087322D01*
X0096103Y0095315D02*
X0099496Y0095315D01*
X0099454Y0095357D02*
X0099963Y0094848D01*
X0100545Y0094425D01*
X0101186Y0094099D01*
X0101870Y0093876D01*
X0102581Y0093764D01*
X0102855Y0093764D01*
X0102855Y0098250D01*
X0098369Y0098250D01*
X0098369Y0097976D01*
X0098482Y0097265D01*
X0098704Y0096581D01*
X0099031Y0095939D01*
X0099454Y0095357D01*
X0098596Y0096914D02*
X0097084Y0096914D01*
X0097313Y0098512D02*
X0098369Y0098512D01*
X0098369Y0098421D02*
X0102855Y0098421D01*
X0102855Y0098250D01*
X0103027Y0098250D01*
X0103027Y0098421D01*
X0107513Y0098421D01*
X0107513Y0098695D01*
X0107400Y0099406D01*
X0107178Y0100090D01*
X0106928Y0100580D01*
X0108569Y0098939D01*
X0108569Y0097466D01*
X0109235Y0095859D01*
X0110465Y0094629D01*
X0112071Y0093964D01*
X0113811Y0093964D01*
X0115417Y0094629D01*
X0116647Y0095859D01*
X0117313Y0097466D01*
X0117313Y0099205D01*
X0116647Y0100812D01*
X0115417Y0102042D01*
X0113811Y0102707D01*
X0112071Y0102707D01*
X0111731Y0102566D01*
X0109416Y0104881D01*
X0109416Y0107712D01*
X0108478Y0108649D01*
X0103191Y0108649D01*
X0102254Y0107712D01*
X0102254Y0102855D01*
X0101870Y0102795D01*
X0101186Y0102572D01*
X0100545Y0102245D01*
X0099963Y0101822D01*
X0099454Y0101314D01*
X0099031Y0100731D01*
X0098704Y0100090D01*
X0098482Y0099406D01*
X0098369Y0098695D01*
X0098369Y0098421D01*
X0098715Y0100111D02*
X0096938Y0100111D01*
X0095750Y0101709D02*
X0099849Y0101709D01*
X0102254Y0103308D02*
X0089102Y0103308D01*
X0089102Y0104906D02*
X0102254Y0104906D01*
X0102254Y0106505D02*
X0089102Y0106505D01*
X0089102Y0108103D02*
X0102645Y0108103D01*
X0105835Y0105068D02*
X0112567Y0098335D01*
X0112941Y0098335D01*
X0116103Y0095315D02*
X0119779Y0095315D01*
X0118798Y0096914D02*
X0117084Y0096914D01*
X0117313Y0098512D02*
X0118569Y0098512D01*
X0118944Y0100111D02*
X0116938Y0100111D01*
X0115750Y0101709D02*
X0120132Y0101709D01*
X0118964Y0103308D02*
X0110989Y0103308D01*
X0109416Y0104906D02*
X0117366Y0104906D01*
X0115767Y0106505D02*
X0109416Y0106505D01*
X0109024Y0108103D02*
X0114169Y0108103D01*
X0121583Y0110973D02*
X0125520Y0110973D01*
X0121583Y0110973D02*
X0121583Y0126721D01*
X0114693Y0133611D01*
X0114693Y0162154D01*
X0111740Y0165107D01*
X0111740Y0177902D01*
X0118630Y0184792D01*
X0118630Y0191682D01*
X0115049Y0191226D02*
X0112588Y0191226D01*
X0111872Y0189627D02*
X0115049Y0189627D01*
X0116230Y0188029D02*
X0111872Y0188029D01*
X0111872Y0186430D02*
X0116230Y0186430D01*
X0115275Y0184832D02*
X0111872Y0184832D01*
X0111872Y0183233D02*
X0113677Y0183233D01*
X0112078Y0181635D02*
X0111552Y0181635D01*
X0110480Y0180036D02*
X0109954Y0180036D01*
X0109364Y0178438D02*
X0108355Y0178438D01*
X0109340Y0176839D02*
X0094994Y0176839D01*
X0094088Y0173438D02*
X0093631Y0173561D01*
X0089444Y0173561D01*
X0089444Y0169386D01*
X0095194Y0169386D01*
X0095194Y0171998D01*
X0095071Y0172455D01*
X0094834Y0172866D01*
X0094499Y0173201D01*
X0094088Y0173438D01*
X0095181Y0172044D02*
X0109340Y0172044D01*
X0109340Y0173642D02*
X0089102Y0173642D01*
X0089102Y0172044D02*
X0089444Y0172044D01*
X0089444Y0170445D02*
X0089102Y0170445D01*
X0089444Y0168847D02*
X0109340Y0168847D01*
X0109340Y0170445D02*
X0095194Y0170445D01*
X0098945Y0165107D02*
X0096976Y0163139D01*
X0098945Y0165107D02*
X0099929Y0165107D01*
X0103313Y0165649D02*
X0109340Y0165649D01*
X0109340Y0167248D02*
X0103313Y0167248D01*
X0103313Y0164051D02*
X0105625Y0164051D01*
X0104948Y0162452D02*
X0103106Y0162452D01*
X0104419Y0156058D02*
X0094743Y0156058D01*
X0089367Y0156058D02*
X0089102Y0156058D01*
X0089102Y0154460D02*
X0104419Y0154460D01*
X0111187Y0154460D02*
X0112293Y0154460D01*
X0112293Y0156058D02*
X0111187Y0156058D01*
X0111187Y0157657D02*
X0112293Y0157657D01*
X0112293Y0159255D02*
X0111577Y0159255D01*
X0117646Y0163139D02*
X0117646Y0152312D01*
X0119614Y0150343D01*
X0119614Y0132627D01*
X0126504Y0125737D01*
X0126504Y0116879D01*
X0130441Y0111957D02*
X0140283Y0102115D01*
X0140283Y0084398D01*
X0139299Y0083414D01*
X0077291Y0083414D01*
X0072370Y0078493D01*
X0057606Y0078493D01*
X0054654Y0075540D01*
X0054654Y0046997D01*
X0058276Y0043375D01*
X0060559Y0043375D01*
X0060559Y0061485D02*
X0066189Y0061485D01*
X0071386Y0066682D01*
X0071386Y0072587D01*
X0079260Y0080461D01*
X0141268Y0080461D01*
X0143236Y0082430D01*
X0143236Y0127706D01*
X0140283Y0130658D01*
X0136346Y0130658D01*
X0133394Y0133611D01*
X0133394Y0151328D01*
X0136346Y0154280D01*
X0136346Y0163532D01*
X0135756Y0164123D01*
X0138225Y0167704D02*
X0138225Y0169785D01*
X0134346Y0169785D01*
X0134346Y0170744D01*
X0138225Y0170744D01*
X0138225Y0173454D01*
X0138103Y0173912D01*
X0137866Y0174323D01*
X0137530Y0174658D01*
X0137120Y0174895D01*
X0136662Y0175017D01*
X0134346Y0175017D01*
X0134346Y0170744D01*
X0133387Y0170744D01*
X0133387Y0175017D01*
X0131070Y0175017D01*
X0131069Y0175017D01*
X0131069Y0179562D01*
X0130132Y0180499D01*
X0125181Y0180499D01*
X0131311Y0186629D01*
X0137470Y0186629D01*
X0137293Y0186452D01*
X0137293Y0181164D01*
X0138230Y0180227D01*
X0138868Y0180227D01*
X0138868Y0171013D01*
X0138315Y0171013D01*
X0138350Y0167704D01*
X0138225Y0167704D01*
X0138225Y0168847D02*
X0138338Y0168847D01*
X0138315Y0170028D02*
X0134378Y0170028D01*
X0134378Y0175934D01*
X0137528Y0179083D01*
X0138868Y0178438D02*
X0131069Y0178438D01*
X0131069Y0176839D02*
X0138868Y0176839D01*
X0138868Y0175241D02*
X0131069Y0175241D01*
X0133866Y0175422D02*
X0133866Y0170265D01*
X0134346Y0170445D02*
X0138321Y0170445D01*
X0138315Y0170028D02*
X0143236Y0165107D01*
X0150126Y0165107D01*
X0152094Y0167076D01*
X0152094Y0175737D01*
X0151504Y0176328D01*
X0151304Y0176528D02*
X0151304Y0176128D01*
X0146004Y0176128D01*
X0146004Y0175895D01*
X0146139Y0175040D01*
X0146407Y0174216D01*
X0146716Y0173609D01*
X0144529Y0173609D01*
X0143668Y0172748D01*
X0143668Y0180377D01*
X0144455Y0181164D01*
X0144455Y0186452D01*
X0144278Y0186629D01*
X0146204Y0186629D01*
X0146204Y0185273D01*
X0147011Y0183325D01*
X0148502Y0181834D01*
X0149448Y0181443D01*
X0149393Y0181425D01*
X0148621Y0181032D01*
X0147921Y0180523D01*
X0147309Y0179911D01*
X0146800Y0179210D01*
X0146407Y0178439D01*
X0146139Y0177615D01*
X0146004Y0176760D01*
X0146004Y0176528D01*
X0151304Y0176528D01*
X0147434Y0180036D02*
X0143668Y0180036D01*
X0143668Y0178438D02*
X0146406Y0178438D01*
X0146016Y0176839D02*
X0143668Y0176839D01*
X0143668Y0175241D02*
X0146108Y0175241D01*
X0146699Y0173642D02*
X0143668Y0173642D01*
X0141268Y0171013D02*
X0141268Y0183414D01*
X0140874Y0183808D01*
X0137293Y0183233D02*
X0127915Y0183233D01*
X0129513Y0184832D02*
X0137293Y0184832D01*
X0137293Y0186430D02*
X0131112Y0186430D01*
X0124535Y0186761D02*
X0114693Y0176918D01*
X0114693Y0166091D01*
X0117646Y0163139D01*
X0119865Y0164051D02*
X0125441Y0164051D01*
X0125641Y0164350D02*
X0125203Y0163695D01*
X0124902Y0162967D01*
X0124748Y0162194D01*
X0124748Y0161800D01*
X0128748Y0161800D01*
X0128748Y0161800D01*
X0124748Y0161800D01*
X0124748Y0161406D01*
X0124902Y0160633D01*
X0125203Y0159905D01*
X0125641Y0159250D01*
X0126198Y0158693D01*
X0126853Y0158255D01*
X0127581Y0157954D01*
X0128354Y0157800D01*
X0128748Y0157800D01*
X0128748Y0161800D01*
X0128748Y0161800D01*
X0128748Y0157800D01*
X0128828Y0157800D01*
X0128828Y0157046D01*
X0128463Y0156680D01*
X0125042Y0156680D01*
X0124160Y0156315D01*
X0123485Y0155640D01*
X0120598Y0152753D01*
X0120046Y0153306D01*
X0120046Y0163616D01*
X0119680Y0164498D01*
X0119005Y0165173D01*
X0117093Y0167085D01*
X0117093Y0168372D01*
X0117992Y0168000D01*
X0119504Y0168000D01*
X0120901Y0168579D01*
X0121970Y0169647D01*
X0122227Y0170269D01*
X0122227Y0166649D01*
X0123164Y0165712D01*
X0127911Y0165712D01*
X0127581Y0165646D01*
X0126853Y0165345D01*
X0126198Y0164907D01*
X0125641Y0164350D01*
X0124799Y0162452D02*
X0120046Y0162452D01*
X0120046Y0160854D02*
X0124858Y0160854D01*
X0125637Y0159255D02*
X0120046Y0159255D01*
X0120046Y0157657D02*
X0128828Y0157657D01*
X0128748Y0159255D02*
X0128748Y0159255D01*
X0128748Y0160854D02*
X0128748Y0160854D01*
X0127597Y0165649D02*
X0118529Y0165649D01*
X0117093Y0167248D02*
X0122227Y0167248D01*
X0122227Y0168847D02*
X0121169Y0168847D01*
X0126386Y0170265D02*
X0126386Y0176800D01*
X0127488Y0176918D01*
X0130595Y0180036D02*
X0138868Y0180036D01*
X0137293Y0181635D02*
X0126316Y0181635D01*
X0124535Y0186761D02*
X0124535Y0192666D01*
X0129457Y0192666D02*
X0129457Y0196603D01*
X0131976Y0196603D01*
X0131976Y0201603D01*
X0132961Y0202587D01*
X0137120Y0202415D02*
X0144773Y0202415D01*
X0144773Y0201047D02*
X0145139Y0200165D01*
X0146707Y0198596D01*
X0146204Y0197382D01*
X0146204Y0195273D01*
X0147011Y0193325D01*
X0148502Y0191834D01*
X0149725Y0191328D01*
X0148522Y0190829D01*
X0133038Y0190829D01*
X0133038Y0194445D01*
X0133336Y0194569D01*
X0134011Y0195244D01*
X0134376Y0196126D01*
X0134376Y0198035D01*
X0136182Y0198035D01*
X0137120Y0198972D01*
X0137120Y0206203D01*
X0136182Y0207140D01*
X0129739Y0207140D01*
X0129362Y0206763D01*
X0129145Y0206981D01*
X0128756Y0207205D01*
X0129765Y0207205D01*
X0129765Y0211084D01*
X0130724Y0211084D01*
X0130724Y0212043D01*
X0134997Y0212043D01*
X0134997Y0214360D01*
X0134874Y0214818D01*
X0134637Y0215228D01*
X0134420Y0215445D01*
X0134797Y0215822D01*
X0134797Y0216844D01*
X0143592Y0216844D01*
X0143592Y0216597D01*
X0144529Y0215660D01*
X0149817Y0215660D01*
X0150754Y0216597D01*
X0150754Y0221885D01*
X0149817Y0222822D01*
X0149770Y0222822D01*
X0149770Y0225333D01*
X0150136Y0225699D01*
X0171770Y0225699D01*
X0174666Y0222803D01*
X0175341Y0222128D01*
X0176223Y0221762D01*
X0188502Y0221762D01*
X0190592Y0219672D01*
X0159613Y0219672D01*
X0159613Y0223853D01*
X0158675Y0224791D01*
X0153388Y0224791D01*
X0152450Y0223853D01*
X0152450Y0218566D01*
X0153190Y0217826D01*
X0153069Y0217704D01*
X0152601Y0217704D01*
X0151719Y0217339D01*
X0151044Y0216663D01*
X0145139Y0210758D01*
X0144773Y0209876D01*
X0144773Y0201047D01*
X0144869Y0200817D02*
X0137120Y0200817D01*
X0137120Y0199218D02*
X0146085Y0199218D01*
X0146302Y0197620D02*
X0134376Y0197620D01*
X0134333Y0196021D02*
X0146204Y0196021D01*
X0146556Y0194423D02*
X0133038Y0194423D01*
X0133038Y0192824D02*
X0147512Y0192824D01*
X0149480Y0191226D02*
X0133038Y0191226D01*
X0129457Y0196603D02*
X0119614Y0196603D01*
X0117843Y0198375D01*
X0117843Y0200737D01*
X0116661Y0201918D01*
X0116661Y0213335D01*
X0114693Y0215304D01*
X0109299Y0215304D01*
X0109102Y0215107D02*
X0108787Y0215422D01*
X0108787Y0220225D01*
X0112724Y0224162D01*
X0105835Y0231052D01*
X0099929Y0231052D01*
X0096348Y0231188D02*
X0095439Y0231188D01*
X0095439Y0229590D02*
X0096348Y0229590D01*
X0096348Y0228408D02*
X0097285Y0227471D01*
X0102573Y0227471D01*
X0103510Y0228408D01*
X0103510Y0228652D01*
X0104841Y0228652D01*
X0109330Y0224162D01*
X0107428Y0222260D01*
X0106753Y0221585D01*
X0106387Y0220703D01*
X0106387Y0219266D01*
X0105487Y0219266D01*
X0104550Y0218329D01*
X0104550Y0211885D01*
X0104927Y0211508D01*
X0104709Y0211291D01*
X0104472Y0210881D01*
X0104350Y0210423D01*
X0104350Y0208106D01*
X0108623Y0208106D01*
X0108623Y0207147D01*
X0104350Y0207147D01*
X0104350Y0204831D01*
X0104472Y0204373D01*
X0104709Y0203962D01*
X0105044Y0203627D01*
X0105455Y0203390D01*
X0105913Y0203268D01*
X0106003Y0203268D01*
X0106003Y0201217D01*
X0109883Y0201217D01*
X0109883Y0200257D01*
X0106003Y0200257D01*
X0106003Y0197547D01*
X0106126Y0197089D01*
X0106191Y0196977D01*
X0106191Y0191991D01*
X0107128Y0191054D01*
X0107672Y0191054D01*
X0107672Y0183693D01*
X0105949Y0181971D01*
X0101542Y0181971D01*
X0101542Y0186452D01*
X0100604Y0187389D01*
X0095317Y0187389D01*
X0094380Y0186452D01*
X0094380Y0184849D01*
X0094056Y0185172D01*
X0089102Y0185172D01*
X0089102Y0186102D01*
X0090402Y0186102D01*
X0090860Y0186225D01*
X0091271Y0186462D01*
X0091606Y0186797D01*
X0091843Y0187208D01*
X0091965Y0187665D01*
X0091965Y0190376D01*
X0089102Y0190376D01*
X0089102Y0191335D01*
X0091965Y0191335D01*
X0091965Y0194045D01*
X0091843Y0194503D01*
X0091606Y0194913D01*
X0091271Y0195248D01*
X0090860Y0195485D01*
X0090402Y0195608D01*
X0089102Y0195608D01*
X0089102Y0196578D01*
X0089354Y0197186D01*
X0089354Y0198698D01*
X0089102Y0199306D01*
X0089102Y0201880D01*
X0090762Y0201880D01*
X0091699Y0202818D01*
X0091699Y0208105D01*
X0090762Y0209043D01*
X0090518Y0209043D01*
X0090518Y0209389D01*
X0094399Y0213269D01*
X0095074Y0213944D01*
X0095439Y0214827D01*
X0095439Y0237932D01*
X0101964Y0244456D01*
X0102329Y0245338D01*
X0102329Y0246172D01*
X0102573Y0246172D01*
X0103510Y0247109D01*
X0103510Y0252397D01*
X0102573Y0253334D01*
X0099030Y0253334D01*
X0102273Y0256576D01*
X0102948Y0257252D01*
X0103313Y0258134D01*
X0103313Y0268931D01*
X0102948Y0269813D01*
X0102329Y0270432D01*
X0102329Y0276880D01*
X0105206Y0276880D01*
X0105206Y0276636D01*
X0106144Y0275699D01*
X0108356Y0275699D01*
X0108356Y0270432D01*
X0104784Y0266860D01*
X0104419Y0265978D01*
X0104419Y0245338D01*
X0104784Y0244456D01*
X0105946Y0243294D01*
X0105206Y0242554D01*
X0105206Y0237266D01*
X0106144Y0236329D01*
X0108159Y0236329D01*
X0108159Y0232122D01*
X0107194Y0233087D01*
X0106312Y0233452D01*
X0103510Y0233452D01*
X0103510Y0233696D01*
X0102573Y0234633D01*
X0097285Y0234633D01*
X0096348Y0233696D01*
X0096348Y0228408D01*
X0095992Y0228099D02*
X0095992Y0235973D01*
X0097961Y0237942D01*
X0099929Y0237942D01*
X0099929Y0241879D01*
X0103866Y0245816D01*
X0103866Y0271406D01*
X0104850Y0272391D01*
X0102329Y0272750D02*
X0108356Y0272750D01*
X0108356Y0274348D02*
X0102329Y0274348D01*
X0102329Y0275947D02*
X0105896Y0275947D01*
X0108787Y0279280D02*
X0110756Y0277312D01*
X0110756Y0269438D01*
X0106819Y0265501D01*
X0106819Y0245816D01*
X0108787Y0243847D01*
X0108787Y0239910D01*
X0105206Y0239181D02*
X0096689Y0239181D01*
X0095439Y0237583D02*
X0105206Y0237583D01*
X0105206Y0240780D02*
X0098287Y0240780D01*
X0099886Y0242378D02*
X0105206Y0242378D01*
X0105264Y0243977D02*
X0101484Y0243977D01*
X0102329Y0245575D02*
X0104419Y0245575D01*
X0104419Y0247174D02*
X0103510Y0247174D01*
X0103510Y0248772D02*
X0104419Y0248772D01*
X0104419Y0250371D02*
X0103510Y0250371D01*
X0103510Y0251969D02*
X0104419Y0251969D01*
X0104419Y0253568D02*
X0099264Y0253568D01*
X0100863Y0255166D02*
X0104419Y0255166D01*
X0104419Y0256765D02*
X0102461Y0256765D01*
X0103313Y0258363D02*
X0104419Y0258363D01*
X0104419Y0259962D02*
X0103313Y0259962D01*
X0103313Y0261560D02*
X0104419Y0261560D01*
X0104419Y0263159D02*
X0103313Y0263159D01*
X0103313Y0264757D02*
X0104419Y0264757D01*
X0104575Y0266356D02*
X0103313Y0266356D01*
X0103313Y0267954D02*
X0105878Y0267954D01*
X0107477Y0269553D02*
X0103056Y0269553D01*
X0102329Y0271151D02*
X0108356Y0271151D01*
X0113709Y0268454D02*
X0113709Y0281249D01*
X0110756Y0284202D01*
X0090087Y0284202D01*
X0089102Y0283217D01*
X0088118Y0288139D02*
X0110756Y0288139D01*
X0116661Y0282233D01*
X0116661Y0267469D01*
X0112724Y0263532D01*
X0112724Y0255658D01*
X0117646Y0250737D01*
X0155047Y0250737D01*
X0158431Y0250371D02*
X0164458Y0250371D01*
X0163400Y0251290D02*
X0158506Y0251290D01*
X0158431Y0251364D01*
X0158431Y0248290D01*
X0157494Y0247353D01*
X0152600Y0247353D01*
X0151663Y0248290D01*
X0151663Y0248337D01*
X0117168Y0248337D01*
X0116286Y0248702D01*
X0112172Y0252817D01*
X0112172Y0247794D01*
X0113719Y0246247D01*
X0125013Y0246247D01*
X0125895Y0245882D01*
X0126570Y0245207D01*
X0127498Y0244279D01*
X0152450Y0244279D01*
X0152450Y0244523D01*
X0153388Y0245460D01*
X0158675Y0245460D01*
X0159613Y0244523D01*
X0159613Y0239357D01*
X0165985Y0239357D01*
X0164824Y0240519D01*
X0164458Y0241401D01*
X0164458Y0254664D01*
X0164337Y0254785D01*
X0164337Y0252227D01*
X0163400Y0251290D01*
X0164079Y0251969D02*
X0164458Y0251969D01*
X0164458Y0253568D02*
X0164337Y0253568D01*
X0166858Y0255658D02*
X0166858Y0241879D01*
X0168827Y0239910D01*
X0193433Y0239910D01*
X0194024Y0239320D01*
X0232409Y0239320D01*
X0238709Y0233020D01*
X0238709Y0223178D01*
X0243630Y0218257D01*
X0250520Y0218257D01*
X0261346Y0207430D01*
X0261346Y0201524D01*
X0262331Y0200540D01*
X0265283Y0200540D01*
X0260362Y0195619D02*
X0258394Y0197587D01*
X0258394Y0206446D01*
X0249535Y0215304D01*
X0242646Y0215304D01*
X0236740Y0221209D01*
X0232803Y0221209D01*
X0224535Y0229477D01*
X0189693Y0229477D01*
X0187528Y0227115D01*
X0177685Y0227115D01*
X0173748Y0231052D01*
X0146189Y0231052D01*
X0145205Y0230068D01*
X0142252Y0230068D01*
X0139299Y0234005D02*
X0178669Y0234005D01*
X0181622Y0231052D01*
X0184575Y0234989D02*
X0200402Y0234989D01*
X0200953Y0234438D01*
X0207968Y0227077D02*
X0215087Y0227077D01*
X0215087Y0221641D01*
X0207854Y0221641D01*
X0208058Y0221922D01*
X0208401Y0222595D01*
X0208635Y0223314D01*
X0208753Y0224060D01*
X0208753Y0224238D01*
X0201153Y0224238D01*
X0201153Y0224638D01*
X0208753Y0224638D01*
X0208753Y0224816D01*
X0208635Y0225562D01*
X0208401Y0226280D01*
X0208058Y0226954D01*
X0207968Y0227077D01*
X0208344Y0226393D02*
X0215087Y0226393D01*
X0215087Y0224794D02*
X0208753Y0224794D01*
X0208596Y0223196D02*
X0215087Y0223196D01*
X0220008Y0231877D02*
X0220008Y0236920D01*
X0231415Y0236920D01*
X0236309Y0232026D01*
X0236309Y0231655D01*
X0234850Y0232259D01*
X0232961Y0232259D01*
X0231215Y0231536D01*
X0229879Y0230199D01*
X0229156Y0228453D01*
X0229156Y0228251D01*
X0225895Y0231512D01*
X0225013Y0231877D01*
X0220008Y0231877D01*
X0220008Y0232787D02*
X0235548Y0232787D01*
X0233950Y0234385D02*
X0220008Y0234385D01*
X0220008Y0235984D02*
X0232351Y0235984D01*
X0235942Y0239181D02*
X0236044Y0239181D01*
X0237541Y0237583D02*
X0237642Y0237583D01*
X0239139Y0235984D02*
X0239241Y0235984D01*
X0240738Y0234385D02*
X0240839Y0234385D01*
X0240743Y0234380D02*
X0233769Y0241354D01*
X0232887Y0241720D01*
X0220008Y0241720D01*
X0220008Y0246762D01*
X0228463Y0246762D01*
X0242966Y0232259D01*
X0241938Y0232259D01*
X0241109Y0231429D01*
X0241109Y0233498D01*
X0240743Y0234380D01*
X0241109Y0232787D02*
X0242438Y0232787D01*
X0246029Y0235984D02*
X0252005Y0235984D01*
X0251787Y0235825D02*
X0251297Y0235336D01*
X0250890Y0234775D01*
X0250576Y0234158D01*
X0250362Y0233500D01*
X0250254Y0232816D01*
X0250254Y0232469D01*
X0250254Y0231759D01*
X0230816Y0251197D01*
X0229934Y0251562D01*
X0220008Y0251562D01*
X0220008Y0275343D01*
X0235324Y0275343D01*
X0235324Y0263964D01*
X0232326Y0263964D01*
X0231444Y0263598D01*
X0229784Y0261939D01*
X0229419Y0261057D01*
X0229419Y0260224D01*
X0229175Y0260224D01*
X0228238Y0259286D01*
X0228238Y0253999D01*
X0229175Y0253061D01*
X0234463Y0253061D01*
X0235400Y0253999D01*
X0235400Y0254014D01*
X0235690Y0253315D01*
X0236365Y0252639D01*
X0237349Y0251655D01*
X0238231Y0251290D01*
X0243620Y0251290D01*
X0246939Y0247971D01*
X0246939Y0245140D01*
X0247876Y0244203D01*
X0253164Y0244203D01*
X0254101Y0245140D01*
X0254101Y0250428D01*
X0253164Y0251365D01*
X0250333Y0251365D01*
X0246649Y0255049D01*
X0245974Y0255724D01*
X0245092Y0256090D01*
X0240124Y0256090D01*
X0240124Y0275343D01*
X0268789Y0275343D01*
X0268789Y0268661D01*
X0268214Y0270048D01*
X0267033Y0271230D01*
X0265489Y0271869D01*
X0263818Y0271869D01*
X0262274Y0271230D01*
X0261093Y0270048D01*
X0260454Y0268505D01*
X0260454Y0261634D01*
X0261093Y0260090D01*
X0262274Y0258909D01*
X0263818Y0258269D01*
X0265489Y0258269D01*
X0267033Y0258909D01*
X0268214Y0260090D01*
X0268789Y0261478D01*
X0268789Y0233461D01*
X0268214Y0234848D01*
X0267033Y0236030D01*
X0265489Y0236669D01*
X0263818Y0236669D01*
X0262274Y0236030D01*
X0261093Y0234848D01*
X0260454Y0233305D01*
X0260454Y0226434D01*
X0261093Y0224890D01*
X0262274Y0223709D01*
X0263818Y0223069D01*
X0265489Y0223069D01*
X0267033Y0223709D01*
X0268214Y0224890D01*
X0268854Y0226434D01*
X0268854Y0227466D01*
X0269154Y0226740D01*
X0273766Y0222128D01*
X0274649Y0221762D01*
X0280037Y0221762D01*
X0280159Y0221641D01*
X0254467Y0221641D01*
X0252865Y0223242D01*
X0252965Y0223192D01*
X0253623Y0222978D01*
X0254307Y0222869D01*
X0254653Y0222869D01*
X0254653Y0232469D01*
X0250254Y0232469D01*
X0254653Y0232469D01*
X0254653Y0232469D01*
X0254654Y0232469D01*
X0254654Y0232469D01*
X0259054Y0232469D01*
X0259054Y0226923D01*
X0258945Y0226239D01*
X0258731Y0225580D01*
X0258417Y0224963D01*
X0258010Y0224403D01*
X0257520Y0223913D01*
X0256960Y0223506D01*
X0256343Y0223192D01*
X0255684Y0222978D01*
X0255000Y0222869D01*
X0254654Y0222869D01*
X0254654Y0232469D01*
X0259054Y0232469D01*
X0259054Y0232816D01*
X0258945Y0233500D01*
X0258731Y0234158D01*
X0258417Y0234775D01*
X0258010Y0235336D01*
X0257520Y0235825D01*
X0256960Y0236232D01*
X0256343Y0236547D01*
X0255684Y0236761D01*
X0255000Y0236869D01*
X0254654Y0236869D01*
X0254654Y0232469D01*
X0254653Y0232469D01*
X0254653Y0236869D01*
X0254307Y0236869D01*
X0253623Y0236761D01*
X0252965Y0236547D01*
X0252347Y0236232D01*
X0251787Y0235825D01*
X0250692Y0234385D02*
X0247628Y0234385D01*
X0249226Y0232787D02*
X0250254Y0232787D01*
X0249535Y0229083D02*
X0249535Y0223178D01*
X0253472Y0219241D01*
X0282016Y0219241D01*
X0305638Y0195619D01*
X0305638Y0191682D01*
X0301701Y0187745D01*
X0301701Y0131643D01*
X0305638Y0127706D01*
X0305638Y0120816D01*
X0309575Y0116879D02*
X0308591Y0115894D01*
X0301701Y0115894D01*
X0309575Y0116879D02*
X0343039Y0116879D01*
X0346976Y0117863D02*
X0348945Y0115894D01*
X0352882Y0115894D01*
X0353866Y0114910D01*
X0353866Y0109005D01*
X0357803Y0105068D01*
X0357803Y0098178D02*
X0351898Y0098178D01*
X0349929Y0100146D01*
X0313512Y0100146D01*
X0311543Y0102115D01*
X0311543Y0110973D01*
X0310559Y0111957D01*
X0296780Y0111957D01*
X0292843Y0104753D02*
X0292882Y0104713D01*
X0292213Y0104713D01*
X0284969Y0111957D01*
X0284959Y0108573D02*
X0282522Y0108573D01*
X0281584Y0109510D01*
X0281584Y0114404D01*
X0282522Y0115342D01*
X0283609Y0115342D01*
X0282846Y0117186D01*
X0282846Y0119722D01*
X0283816Y0122065D01*
X0285120Y0123369D01*
X0285120Y0135726D01*
X0285745Y0137233D01*
X0290663Y0142151D01*
X0290488Y0142079D01*
X0287952Y0142079D01*
X0285609Y0143049D01*
X0284323Y0144335D01*
X0277526Y0137538D01*
X0277526Y0136011D01*
X0277573Y0136011D01*
X0278510Y0135074D01*
X0278510Y0130180D01*
X0277573Y0129243D01*
X0272679Y0129243D01*
X0271742Y0130180D01*
X0271742Y0135074D01*
X0272679Y0136011D01*
X0272726Y0136011D01*
X0272726Y0136675D01*
X0271620Y0135570D01*
X0271620Y0128700D01*
X0272970Y0127350D01*
X0275801Y0127350D01*
X0276739Y0126412D01*
X0276739Y0121125D01*
X0275801Y0120187D01*
X0270833Y0120187D01*
X0270833Y0116203D01*
X0269896Y0115266D01*
X0264608Y0115266D01*
X0263671Y0116203D01*
X0263671Y0119871D01*
X0261509Y0122033D01*
X0261509Y0113110D01*
X0260885Y0111604D01*
X0257932Y0108651D01*
X0256779Y0107497D01*
X0255272Y0106873D01*
X0246312Y0106873D01*
X0233326Y0093887D01*
X0233326Y0093887D01*
X0232173Y0092734D01*
X0230666Y0092109D01*
X0215801Y0092109D01*
X0211116Y0087425D01*
X0211116Y0079205D01*
X0211616Y0078705D01*
X0211616Y0074895D01*
X0208921Y0072200D01*
X0205110Y0072200D01*
X0202416Y0074895D01*
X0202416Y0078705D01*
X0202916Y0079205D01*
X0202916Y0089938D01*
X0203540Y0091445D01*
X0211780Y0099685D01*
X0212500Y0099983D01*
X0204974Y0099983D01*
X0200316Y0095325D01*
X0200316Y0079205D01*
X0200816Y0078705D01*
X0200816Y0074895D01*
X0198121Y0072200D01*
X0194310Y0072200D01*
X0191616Y0074895D01*
X0191616Y0078705D01*
X0192116Y0079205D01*
X0192116Y0097839D01*
X0192740Y0099346D01*
X0199800Y0106406D01*
X0199800Y0106406D01*
X0200953Y0107559D01*
X0202460Y0108183D01*
X0213388Y0108183D01*
X0213939Y0108734D01*
X0213939Y0113094D01*
X0213894Y0113049D01*
X0211551Y0112079D01*
X0209015Y0112079D01*
X0206672Y0113049D01*
X0205959Y0113763D01*
X0200053Y0113763D01*
X0189516Y0103226D01*
X0189516Y0079205D01*
X0190016Y0078705D01*
X0190016Y0074895D01*
X0187321Y0072200D01*
X0183510Y0072200D01*
X0180816Y0074895D01*
X0180816Y0078705D01*
X0181316Y0079205D01*
X0181316Y0105740D01*
X0181940Y0107247D01*
X0194879Y0120185D01*
X0196032Y0121339D01*
X0197539Y0121963D01*
X0204837Y0121963D01*
X0204879Y0122065D01*
X0206672Y0123858D01*
X0209015Y0124828D01*
X0211551Y0124828D01*
X0213894Y0123858D01*
X0215688Y0122065D01*
X0215909Y0121531D01*
X0226735Y0132357D01*
X0226735Y0133180D01*
X0222482Y0133180D01*
X0222408Y0133254D01*
X0222408Y0131164D01*
X0221471Y0130227D01*
X0216577Y0130227D01*
X0215639Y0131164D01*
X0215639Y0136058D01*
X0216577Y0136995D01*
X0216624Y0136995D01*
X0216624Y0147102D01*
X0215688Y0144843D01*
X0213894Y0143049D01*
X0211551Y0142079D01*
X0209015Y0142079D01*
X0206672Y0143049D01*
X0204879Y0144843D01*
X0203909Y0147186D01*
X0203909Y0149722D01*
X0204879Y0152065D01*
X0206663Y0153849D01*
X0202797Y0153849D01*
X0202041Y0154605D01*
X0202041Y0151334D01*
X0201104Y0150397D01*
X0194660Y0150397D01*
X0194142Y0150915D01*
X0193623Y0150397D01*
X0187180Y0150397D01*
X0186444Y0151132D01*
X0181647Y0151132D01*
X0181647Y0149917D01*
X0180710Y0148980D01*
X0174266Y0148980D01*
X0173995Y0149251D01*
X0173995Y0147732D01*
X0178429Y0143298D01*
X0178917Y0142122D01*
X0178917Y0130730D01*
X0179298Y0130349D01*
X0179298Y0125062D01*
X0178360Y0124124D01*
X0173073Y0124124D01*
X0172135Y0125062D01*
X0172135Y0130349D01*
X0172517Y0130730D01*
X0172517Y0140160D01*
X0170243Y0142434D01*
X0170243Y0138054D01*
X0169305Y0137117D01*
X0169258Y0137117D01*
X0169258Y0127153D01*
X0170290Y0127153D01*
X0171227Y0126215D01*
X0171227Y0121322D01*
X0170290Y0120384D01*
X0166384Y0120384D01*
X0166658Y0119722D01*
X0166658Y0117186D01*
X0165688Y0114843D01*
X0163894Y0113049D01*
X0161551Y0112079D01*
X0159015Y0112079D01*
X0156672Y0113049D01*
X0154879Y0114843D01*
X0153909Y0117186D01*
X0153909Y0119722D01*
X0154509Y0121172D01*
X0150435Y0121172D01*
X0149498Y0122109D01*
X0149498Y0127397D01*
X0150435Y0128334D01*
X0153266Y0128334D01*
X0153885Y0128953D01*
X0154767Y0129318D01*
X0155022Y0129318D01*
X0155022Y0130534D01*
X0155959Y0131471D01*
X0162009Y0131471D01*
X0162946Y0130534D01*
X0162946Y0124251D01*
X0163894Y0123858D01*
X0164458Y0123294D01*
X0164458Y0137117D01*
X0164411Y0137117D01*
X0163474Y0138054D01*
X0163474Y0142875D01*
X0162447Y0142450D01*
X0162946Y0141951D01*
X0162946Y0134720D01*
X0162009Y0133783D01*
X0155959Y0133783D01*
X0155022Y0134720D01*
X0155022Y0138904D01*
X0153013Y0140913D01*
X0152723Y0141613D01*
X0152723Y0138841D01*
X0151786Y0137904D01*
X0146620Y0137904D01*
X0146620Y0137071D01*
X0146255Y0136189D01*
X0145580Y0135513D01*
X0144698Y0135148D01*
X0143236Y0135148D01*
X0143236Y0131100D01*
X0144596Y0129740D01*
X0145271Y0129065D01*
X0145636Y0128183D01*
X0145636Y0081953D01*
X0145271Y0081070D01*
X0143236Y0079036D01*
X0143236Y0043257D01*
X0143511Y0042594D01*
X0143511Y0040970D01*
X0314540Y0040970D01*
X0313668Y0041331D01*
X0312767Y0042231D01*
X0304546Y0050453D01*
X0304371Y0050279D01*
X0297928Y0050279D01*
X0297409Y0050797D01*
X0296891Y0050279D01*
X0292290Y0050279D01*
X0292290Y0049397D01*
X0292337Y0049397D01*
X0293274Y0048460D01*
X0293274Y0043566D01*
X0292337Y0042628D01*
X0287443Y0042628D01*
X0286506Y0043566D01*
X0286506Y0048460D01*
X0287443Y0049397D01*
X0287490Y0049397D01*
X0287490Y0052395D01*
X0287855Y0053278D01*
X0288033Y0053455D01*
X0283506Y0053455D01*
X0282569Y0054392D01*
X0282569Y0054439D01*
X0275633Y0054439D01*
X0274751Y0054805D01*
X0271123Y0058433D01*
X0270757Y0059315D01*
X0270757Y0076018D01*
X0271123Y0076900D01*
X0271798Y0077575D01*
X0272782Y0078559D01*
X0273664Y0078924D01*
X0276549Y0078924D01*
X0276014Y0079459D01*
X0275375Y0081002D01*
X0275375Y0087873D01*
X0276014Y0089417D01*
X0277196Y0090598D01*
X0278739Y0091238D01*
X0280410Y0091238D01*
X0281954Y0090598D01*
X0283135Y0089417D01*
X0283775Y0087873D01*
X0283775Y0082565D01*
X0284491Y0082861D01*
X0292109Y0082861D01*
X0292109Y0083959D01*
X0293046Y0084896D01*
X0298308Y0084896D01*
X0299246Y0083959D01*
X0299246Y0083740D01*
X0304352Y0083740D01*
X0305375Y0084763D01*
X0305375Y0087873D01*
X0306014Y0089417D01*
X0307196Y0090598D01*
X0308739Y0091238D01*
X0310410Y0091238D01*
X0311954Y0090598D01*
X0313135Y0089417D01*
X0313775Y0087873D01*
X0313775Y0081002D01*
X0313135Y0079459D01*
X0311954Y0078277D01*
X0310410Y0077638D01*
X0308739Y0077638D01*
X0307722Y0078059D01*
X0307490Y0077827D01*
X0306314Y0077340D01*
X0299246Y0077340D01*
X0299246Y0077122D01*
X0298359Y0076235D01*
X0302049Y0076235D01*
X0302986Y0075297D01*
X0302986Y0069922D01*
X0304995Y0067913D01*
X0305391Y0067913D01*
X0306014Y0069417D01*
X0307196Y0070598D01*
X0308739Y0071238D01*
X0310410Y0071238D01*
X0311954Y0070598D01*
X0313135Y0069417D01*
X0313775Y0067873D01*
X0313775Y0061002D01*
X0313135Y0059459D01*
X0312775Y0059098D01*
X0312775Y0057181D01*
X0317790Y0052165D01*
X0345627Y0052165D01*
X0345627Y0055651D01*
X0345258Y0056019D01*
X0345258Y0062856D01*
X0346196Y0063794D01*
X0349885Y0063794D01*
X0348998Y0064681D01*
X0348998Y0071518D01*
X0349610Y0072129D01*
X0346274Y0072129D01*
X0345337Y0073066D01*
X0345337Y0073954D01*
X0341881Y0073954D01*
X0341521Y0073594D01*
X0339977Y0072954D01*
X0333106Y0072954D01*
X0331563Y0073594D01*
X0330530Y0074626D01*
X0330159Y0074255D01*
X0323322Y0074255D01*
X0322635Y0074942D01*
X0322635Y0074268D01*
X0318263Y0074268D01*
X0317894Y0074268D01*
X0317894Y0073899D01*
X0313523Y0073899D01*
X0313523Y0071878D01*
X0313645Y0071420D01*
X0313882Y0071010D01*
X0314218Y0070675D01*
X0314628Y0070438D01*
X0315086Y0070315D01*
X0316912Y0070315D01*
X0316014Y0069417D01*
X0315375Y0067873D01*
X0315375Y0061002D01*
X0316014Y0059459D01*
X0317196Y0058277D01*
X0318739Y0057638D01*
X0320410Y0057638D01*
X0321954Y0058277D01*
X0323135Y0059459D01*
X0323775Y0061002D01*
X0323775Y0066775D01*
X0324641Y0066775D01*
X0326547Y0064869D01*
X0327447Y0063969D01*
X0328623Y0063482D01*
X0331833Y0063482D01*
X0333106Y0062954D01*
X0339977Y0062954D01*
X0341521Y0063594D01*
X0342702Y0064775D01*
X0343342Y0066319D01*
X0343342Y0067990D01*
X0342702Y0069533D01*
X0341521Y0070715D01*
X0339977Y0071354D01*
X0333106Y0071354D01*
X0331563Y0070715D01*
X0331096Y0070248D01*
X0331096Y0072975D01*
X0330159Y0073912D01*
X0323322Y0073912D01*
X0322635Y0073225D01*
X0322635Y0073899D01*
X0318263Y0073899D01*
X0318263Y0074268D01*
X0318263Y0077835D01*
X0317196Y0078277D01*
X0316014Y0079459D01*
X0315375Y0081002D01*
X0315375Y0087873D01*
X0316014Y0089417D01*
X0316375Y0089777D01*
X0316375Y0090114D01*
X0316862Y0091290D01*
X0320366Y0094794D01*
X0309097Y0094794D01*
X0308215Y0095159D01*
X0307540Y0095834D01*
X0307054Y0096321D01*
X0307054Y0094747D01*
X0306116Y0093809D01*
X0301222Y0093809D01*
X0300285Y0094747D01*
X0300285Y0094833D01*
X0297435Y0094833D01*
X0297435Y0094011D01*
X0296497Y0093074D01*
X0289266Y0093074D01*
X0288329Y0094011D01*
X0288329Y0100455D01*
X0288848Y0100973D01*
X0288329Y0101492D01*
X0288329Y0105203D01*
X0284959Y0108573D01*
X0285429Y0108103D02*
X0257385Y0108103D01*
X0258983Y0109702D02*
X0281584Y0109702D01*
X0281584Y0111300D02*
X0260582Y0111300D01*
X0261422Y0112899D02*
X0281584Y0112899D01*
X0281677Y0114497D02*
X0261509Y0114497D01*
X0261509Y0116096D02*
X0263779Y0116096D01*
X0263671Y0117694D02*
X0261509Y0117694D01*
X0261509Y0119293D02*
X0263671Y0119293D01*
X0262651Y0120891D02*
X0261509Y0120891D01*
X0270833Y0119293D02*
X0282846Y0119293D01*
X0282846Y0117694D02*
X0270833Y0117694D01*
X0270725Y0116096D02*
X0283297Y0116096D01*
X0283330Y0120891D02*
X0276505Y0120891D01*
X0276739Y0122490D02*
X0284241Y0122490D01*
X0285120Y0124088D02*
X0276739Y0124088D01*
X0276739Y0125687D02*
X0285120Y0125687D01*
X0285120Y0127285D02*
X0275866Y0127285D01*
X0278510Y0130482D02*
X0285120Y0130482D01*
X0285120Y0128884D02*
X0271620Y0128884D01*
X0271620Y0130482D02*
X0271742Y0130482D01*
X0271742Y0132081D02*
X0271620Y0132081D01*
X0271620Y0133679D02*
X0271742Y0133679D01*
X0271620Y0135278D02*
X0271946Y0135278D01*
X0269220Y0136564D02*
X0269220Y0127706D01*
X0273157Y0123769D01*
X0275126Y0132627D02*
X0275126Y0138532D01*
X0283984Y0147391D01*
X0283984Y0152312D01*
X0284969Y0153296D01*
X0284969Y0201524D01*
X0287368Y0199138D02*
X0287838Y0199607D01*
X0288201Y0200486D01*
X0288670Y0200017D01*
X0290177Y0199393D01*
X0291808Y0199393D01*
X0293315Y0200017D01*
X0294468Y0201170D01*
X0295092Y0202677D01*
X0295092Y0202770D01*
X0300270Y0197593D01*
X0300177Y0197593D01*
X0298670Y0196969D01*
X0293304Y0191603D01*
X0292680Y0190096D01*
X0292680Y0187124D01*
X0292159Y0187339D01*
X0291386Y0187493D01*
X0290992Y0187493D01*
X0290598Y0187493D01*
X0289825Y0187339D01*
X0289097Y0187038D01*
X0288442Y0186600D01*
X0287885Y0186043D01*
X0287447Y0185388D01*
X0287368Y0185197D01*
X0287368Y0199138D01*
X0287448Y0199218D02*
X0298644Y0199218D01*
X0297046Y0200817D02*
X0294114Y0200817D01*
X0294984Y0202415D02*
X0295447Y0202415D01*
X0298748Y0206446D02*
X0281031Y0224162D01*
X0275126Y0224162D01*
X0271189Y0228099D01*
X0271189Y0283217D01*
X0269220Y0285186D01*
X0263315Y0285186D01*
X0253472Y0295028D01*
X0249535Y0295028D01*
X0253472Y0298965D02*
X0236740Y0298965D01*
X0232803Y0302902D01*
X0227882Y0302902D01*
X0231819Y0307824D02*
X0223945Y0307824D01*
X0219024Y0302902D01*
X0219024Y0300934D01*
X0215087Y0301330D02*
X0213947Y0300190D01*
X0212770Y0299702D01*
X0170243Y0299702D01*
X0170243Y0295534D01*
X0169305Y0294597D01*
X0164411Y0294597D01*
X0163474Y0295534D01*
X0163474Y0295581D01*
X0153089Y0295581D01*
X0152526Y0295018D01*
X0152526Y0293491D01*
X0152573Y0293491D01*
X0153510Y0292554D01*
X0153510Y0287660D01*
X0152573Y0286723D01*
X0150162Y0286723D01*
X0154807Y0282077D01*
X0155294Y0280901D01*
X0155294Y0268795D01*
X0155388Y0268701D01*
X0169739Y0268701D01*
X0170120Y0269082D01*
X0175408Y0269082D01*
X0176345Y0268145D01*
X0176345Y0262857D01*
X0175408Y0261920D01*
X0170120Y0261920D01*
X0169739Y0262301D01*
X0167547Y0262301D01*
X0171171Y0258677D01*
X0171846Y0258002D01*
X0172211Y0257120D01*
X0172211Y0252715D01*
X0172774Y0252153D01*
X0193910Y0252153D01*
X0193922Y0252148D01*
X0193353Y0253523D01*
X0193353Y0255353D01*
X0194053Y0257043D01*
X0195347Y0258337D01*
X0197038Y0259038D01*
X0204868Y0259038D01*
X0206558Y0258337D01*
X0207852Y0257043D01*
X0208553Y0255353D01*
X0208553Y0253523D01*
X0207852Y0251832D01*
X0207583Y0251562D01*
X0215087Y0251562D01*
X0215087Y0301330D01*
X0215087Y0299924D02*
X0213307Y0299924D01*
X0215087Y0298326D02*
X0170243Y0298326D01*
X0170243Y0296727D02*
X0215087Y0296727D01*
X0215087Y0295129D02*
X0169837Y0295129D01*
X0166858Y0297981D02*
X0152094Y0297981D01*
X0150126Y0296013D01*
X0150126Y0290107D01*
X0153510Y0290333D02*
X0215087Y0290333D01*
X0215087Y0288735D02*
X0153510Y0288735D01*
X0152986Y0287136D02*
X0215087Y0287136D01*
X0215087Y0285538D02*
X0151347Y0285538D01*
X0152945Y0283939D02*
X0215087Y0283939D01*
X0215087Y0282341D02*
X0154544Y0282341D01*
X0155294Y0280742D02*
X0215087Y0280742D01*
X0215087Y0279144D02*
X0155294Y0279144D01*
X0155294Y0277545D02*
X0194555Y0277545D01*
X0194053Y0277043D02*
X0193353Y0275353D01*
X0193353Y0273523D01*
X0194053Y0271832D01*
X0195347Y0270538D01*
X0197038Y0269838D01*
X0204868Y0269838D01*
X0206558Y0270538D01*
X0207852Y0271832D01*
X0208553Y0273523D01*
X0208553Y0275353D01*
X0207852Y0277043D01*
X0206558Y0278337D01*
X0204868Y0279038D01*
X0197038Y0279038D01*
X0195347Y0278337D01*
X0194053Y0277043D01*
X0193599Y0275947D02*
X0155294Y0275947D01*
X0155294Y0274348D02*
X0193353Y0274348D01*
X0193673Y0272750D02*
X0155294Y0272750D01*
X0155294Y0271151D02*
X0194734Y0271151D01*
X0195347Y0268337D02*
X0194053Y0267043D01*
X0193353Y0265353D01*
X0193353Y0263523D01*
X0194053Y0261832D01*
X0195347Y0260538D01*
X0197038Y0259838D01*
X0204868Y0259838D01*
X0206558Y0260538D01*
X0207852Y0261832D01*
X0208553Y0263523D01*
X0208553Y0265353D01*
X0207852Y0267043D01*
X0206558Y0268337D01*
X0204868Y0269038D01*
X0197038Y0269038D01*
X0195347Y0268337D01*
X0194964Y0267954D02*
X0176345Y0267954D01*
X0176345Y0266356D02*
X0193768Y0266356D01*
X0193353Y0264757D02*
X0176345Y0264757D01*
X0176345Y0263159D02*
X0193504Y0263159D01*
X0194325Y0261560D02*
X0168287Y0261560D01*
X0169886Y0259962D02*
X0196739Y0259962D01*
X0195409Y0258363D02*
X0171484Y0258363D01*
X0172211Y0256765D02*
X0193938Y0256765D01*
X0193353Y0255166D02*
X0172211Y0255166D01*
X0172211Y0253568D02*
X0193353Y0253568D01*
X0193433Y0249753D02*
X0194024Y0249162D01*
X0229457Y0249162D01*
X0249535Y0229083D01*
X0254653Y0229590D02*
X0254654Y0229590D01*
X0254653Y0231188D02*
X0254654Y0231188D01*
X0254653Y0232787D02*
X0254654Y0232787D01*
X0254653Y0234385D02*
X0254654Y0234385D01*
X0254653Y0235984D02*
X0254654Y0235984D01*
X0257302Y0235984D02*
X0262229Y0235984D01*
X0260901Y0234385D02*
X0258615Y0234385D01*
X0259054Y0232787D02*
X0260454Y0232787D01*
X0260454Y0231188D02*
X0259054Y0231188D01*
X0259054Y0229590D02*
X0260454Y0229590D01*
X0260454Y0227991D02*
X0259054Y0227991D01*
X0258970Y0226393D02*
X0260470Y0226393D01*
X0261189Y0224794D02*
X0258294Y0224794D01*
X0256351Y0223196D02*
X0263512Y0223196D01*
X0265795Y0223196D02*
X0272698Y0223196D01*
X0271100Y0224794D02*
X0268118Y0224794D01*
X0268837Y0226393D02*
X0269501Y0226393D01*
X0274142Y0229083D02*
X0276110Y0227115D01*
X0282016Y0227115D01*
X0299732Y0209398D01*
X0309575Y0209398D01*
X0324339Y0194635D01*
X0324339Y0179871D01*
X0316465Y0171997D01*
X0316465Y0154280D01*
X0317449Y0153296D01*
X0367646Y0153296D01*
X0370598Y0150343D01*
X0370598Y0149359D01*
X0370795Y0149162D01*
X0370795Y0134595D01*
X0379457Y0134595D01*
X0390283Y0123769D01*
X0407016Y0123769D01*
X0408984Y0121800D01*
X0408984Y0103099D01*
X0408000Y0102115D01*
X0408000Y0096209D01*
X0409969Y0094241D01*
X0409969Y0089123D01*
X0410165Y0084005D01*
X0404727Y0084125D02*
X0401048Y0084125D01*
X0401784Y0084861D02*
X0400254Y0083331D01*
X0398553Y0082627D01*
X0400254Y0081922D01*
X0401784Y0080393D01*
X0402612Y0078394D01*
X0402612Y0076230D01*
X0401784Y0074231D01*
X0400254Y0072701D01*
X0398255Y0071873D01*
X0396091Y0071873D01*
X0394093Y0072701D01*
X0392563Y0074231D01*
X0391735Y0076230D01*
X0391735Y0078394D01*
X0392563Y0080393D01*
X0394093Y0081922D01*
X0395793Y0082627D01*
X0394093Y0083331D01*
X0392563Y0084861D01*
X0391735Y0086860D01*
X0391735Y0089024D01*
X0392563Y0091022D01*
X0394093Y0092552D01*
X0396091Y0093380D01*
X0398255Y0093380D01*
X0400254Y0092552D01*
X0401784Y0091022D01*
X0402612Y0089024D01*
X0402612Y0086860D01*
X0401784Y0084861D01*
X0402141Y0085724D02*
X0404991Y0085724D01*
X0404727Y0085087D02*
X0404727Y0082923D01*
X0405555Y0080924D01*
X0407085Y0079394D01*
X0409084Y0078566D01*
X0411247Y0078566D01*
X0412058Y0078902D01*
X0412058Y0074972D01*
X0411432Y0075071D01*
X0411432Y0069917D01*
X0410473Y0069917D01*
X0410473Y0068958D01*
X0411432Y0068958D01*
X0411432Y0063805D01*
X0412058Y0063904D01*
X0412058Y0055348D01*
X0410961Y0056445D01*
X0408401Y0057505D01*
X0405630Y0057505D01*
X0403070Y0056445D01*
X0401111Y0054486D01*
X0400050Y0051926D01*
X0400050Y0049155D01*
X0401111Y0046595D01*
X0403070Y0044635D01*
X0405630Y0043575D01*
X0408401Y0043575D01*
X0410961Y0044635D01*
X0412058Y0045732D01*
X0412058Y0040970D01*
X0399930Y0040970D01*
X0400557Y0041597D01*
X0400557Y0046491D01*
X0399620Y0047428D01*
X0399573Y0047428D01*
X0399573Y0059285D01*
X0399208Y0060167D01*
X0398533Y0060842D01*
X0398224Y0061152D01*
X0397548Y0061827D01*
X0396666Y0062192D01*
X0393222Y0062192D01*
X0393222Y0063447D01*
X0392285Y0064384D01*
X0391463Y0064384D01*
X0391463Y0072317D01*
X0391098Y0073199D01*
X0387397Y0076900D01*
X0387101Y0077196D01*
X0387656Y0077426D01*
X0389185Y0078955D01*
X0390013Y0080954D01*
X0390013Y0083118D01*
X0389185Y0085117D01*
X0387656Y0086647D01*
X0385657Y0087475D01*
X0383493Y0087475D01*
X0381494Y0086647D01*
X0381266Y0086419D01*
X0381266Y0091672D01*
X0387393Y0097798D01*
X0392954Y0097798D01*
X0393891Y0098736D01*
X0393891Y0105179D01*
X0393373Y0105698D01*
X0393891Y0106216D01*
X0393891Y0106356D01*
X0395969Y0106356D01*
X0396330Y0105995D01*
X0397873Y0105356D01*
X0404744Y0105356D01*
X0406288Y0105995D01*
X0406584Y0106292D01*
X0406584Y0104093D01*
X0405965Y0103474D01*
X0405600Y0102592D01*
X0405600Y0095732D01*
X0405965Y0094850D01*
X0407569Y0093247D01*
X0407569Y0089552D01*
X0407552Y0089508D01*
X0407569Y0089077D01*
X0407569Y0088816D01*
X0407085Y0088615D01*
X0405555Y0087085D01*
X0404727Y0085087D01*
X0405792Y0087322D02*
X0402612Y0087322D01*
X0402612Y0088921D02*
X0407569Y0088921D01*
X0407569Y0090519D02*
X0401992Y0090519D01*
X0400688Y0092118D02*
X0407569Y0092118D01*
X0407099Y0093716D02*
X0383311Y0093716D01*
X0381712Y0092118D02*
X0393658Y0092118D01*
X0392354Y0090519D02*
X0381266Y0090519D01*
X0381266Y0088921D02*
X0391735Y0088921D01*
X0391735Y0087322D02*
X0386024Y0087322D01*
X0383125Y0087322D02*
X0381266Y0087322D01*
X0378866Y0082824D02*
X0377882Y0082233D01*
X0378866Y0082824D02*
X0378866Y0092666D01*
X0388157Y0101957D01*
X0389339Y0101957D01*
X0393891Y0101709D02*
X0405600Y0101709D01*
X0405600Y0100111D02*
X0393891Y0100111D01*
X0393668Y0098512D02*
X0405600Y0098512D01*
X0405600Y0096914D02*
X0386508Y0096914D01*
X0384909Y0095315D02*
X0405773Y0095315D01*
X0411937Y0099162D02*
X0411937Y0122784D01*
X0408000Y0126721D01*
X0391268Y0126721D01*
X0376504Y0141485D01*
X0380085Y0141672D02*
X0389442Y0141672D01*
X0389850Y0143196D02*
X0389027Y0140123D01*
X0389027Y0136941D01*
X0389850Y0133868D01*
X0391441Y0131113D01*
X0393433Y0129121D01*
X0392262Y0129121D01*
X0380085Y0141298D01*
X0380085Y0144129D01*
X0379148Y0145066D01*
X0373860Y0145066D01*
X0373195Y0144401D01*
X0373195Y0149640D01*
X0372998Y0150115D01*
X0372998Y0150821D01*
X0372633Y0151703D01*
X0369680Y0154656D01*
X0369005Y0155331D01*
X0368123Y0155696D01*
X0328943Y0155696D01*
X0328989Y0155732D01*
X0329620Y0156362D01*
X0330162Y0157069D01*
X0330472Y0157606D01*
X0331583Y0156495D01*
X0333473Y0155712D01*
X0335519Y0155712D01*
X0337410Y0156495D01*
X0338856Y0157942D01*
X0339496Y0159486D01*
X0340136Y0157942D01*
X0341583Y0156495D01*
X0343473Y0155712D01*
X0345519Y0155712D01*
X0347410Y0156495D01*
X0348856Y0157942D01*
X0349496Y0159486D01*
X0350136Y0157942D01*
X0351583Y0156495D01*
X0353473Y0155712D01*
X0355519Y0155712D01*
X0357410Y0156495D01*
X0358856Y0157942D01*
X0359496Y0159486D01*
X0360136Y0157942D01*
X0361583Y0156495D01*
X0363473Y0155712D01*
X0365519Y0155712D01*
X0367410Y0156495D01*
X0368856Y0157942D01*
X0369496Y0159486D01*
X0370136Y0157942D01*
X0371583Y0156495D01*
X0373473Y0155712D01*
X0375519Y0155712D01*
X0377410Y0156495D01*
X0378856Y0157942D01*
X0379496Y0159486D01*
X0380136Y0157942D01*
X0381583Y0156495D01*
X0383473Y0155712D01*
X0385519Y0155712D01*
X0387410Y0156495D01*
X0388856Y0157942D01*
X0389496Y0159486D01*
X0390136Y0157942D01*
X0391583Y0156495D01*
X0393473Y0155712D01*
X0395519Y0155712D01*
X0397410Y0156495D01*
X0398520Y0157606D01*
X0398830Y0157069D01*
X0399373Y0156362D01*
X0400003Y0155732D01*
X0400710Y0155189D01*
X0401482Y0154743D01*
X0402306Y0154402D01*
X0403167Y0154171D01*
X0404050Y0154055D01*
X0404115Y0154055D01*
X0404115Y0160474D01*
X0404877Y0160474D01*
X0404877Y0154055D01*
X0404942Y0154055D01*
X0405826Y0154171D01*
X0406687Y0154402D01*
X0407510Y0154743D01*
X0408282Y0155189D01*
X0408989Y0155732D01*
X0409620Y0156362D01*
X0410162Y0157069D01*
X0410608Y0157841D01*
X0410949Y0158665D01*
X0411180Y0159526D01*
X0411296Y0160409D01*
X0411296Y0160474D01*
X0404877Y0160474D01*
X0404877Y0161236D01*
X0411296Y0161236D01*
X0411296Y0161301D01*
X0411180Y0162185D01*
X0410949Y0163046D01*
X0410608Y0163869D01*
X0410162Y0164641D01*
X0409620Y0165348D01*
X0408989Y0165979D01*
X0408282Y0166521D01*
X0407510Y0166967D01*
X0406687Y0167308D01*
X0405826Y0167539D01*
X0404942Y0167655D01*
X0404877Y0167655D01*
X0404877Y0161236D01*
X0404115Y0161236D01*
X0404115Y0167655D01*
X0404050Y0167655D01*
X0403167Y0167539D01*
X0402306Y0167308D01*
X0401482Y0166967D01*
X0400710Y0166521D01*
X0400003Y0165979D01*
X0399373Y0165348D01*
X0398830Y0164641D01*
X0398520Y0164105D01*
X0398478Y0164147D01*
X0398478Y0168060D01*
X0412058Y0168060D01*
X0412058Y0143737D01*
X0410779Y0145952D01*
X0408530Y0148201D01*
X0405774Y0149792D01*
X0402701Y0150616D01*
X0399519Y0150616D01*
X0396446Y0149792D01*
X0393691Y0148201D01*
X0391441Y0145952D01*
X0389850Y0143196D01*
X0389893Y0143270D02*
X0380085Y0143270D01*
X0379345Y0144869D02*
X0390816Y0144869D01*
X0391957Y0146467D02*
X0373195Y0146467D01*
X0373195Y0144869D02*
X0373663Y0144869D01*
X0373195Y0148066D02*
X0393555Y0148066D01*
X0396225Y0149664D02*
X0373185Y0149664D01*
X0372815Y0151263D02*
X0412058Y0151263D01*
X0412058Y0152861D02*
X0371474Y0152861D01*
X0369876Y0154460D02*
X0402166Y0154460D01*
X0404115Y0154460D02*
X0404877Y0154460D01*
X0404877Y0156058D02*
X0404115Y0156058D01*
X0404115Y0157657D02*
X0404877Y0157657D01*
X0404877Y0159255D02*
X0404115Y0159255D01*
X0404877Y0160854D02*
X0412058Y0160854D01*
X0412058Y0162452D02*
X0411108Y0162452D01*
X0410503Y0164051D02*
X0412058Y0164051D01*
X0412058Y0165649D02*
X0409318Y0165649D01*
X0406831Y0167248D02*
X0412058Y0167248D01*
X0404877Y0167248D02*
X0404115Y0167248D01*
X0404115Y0165649D02*
X0404877Y0165649D01*
X0404877Y0164051D02*
X0404115Y0164051D01*
X0404115Y0162452D02*
X0404877Y0162452D01*
X0399674Y0165649D02*
X0398478Y0165649D01*
X0398478Y0167248D02*
X0402161Y0167248D01*
X0411107Y0159255D02*
X0412058Y0159255D01*
X0412058Y0157657D02*
X0410502Y0157657D01*
X0409316Y0156058D02*
X0412058Y0156058D01*
X0412058Y0154460D02*
X0406826Y0154460D01*
X0405996Y0149664D02*
X0412058Y0149664D01*
X0412058Y0148066D02*
X0408665Y0148066D01*
X0410264Y0146467D02*
X0412058Y0146467D01*
X0412058Y0144869D02*
X0411405Y0144869D01*
X0399676Y0156058D02*
X0396356Y0156058D01*
X0392636Y0156058D02*
X0386356Y0156058D01*
X0388572Y0157657D02*
X0390420Y0157657D01*
X0389592Y0159255D02*
X0389401Y0159255D01*
X0389496Y0162224D02*
X0388856Y0163769D01*
X0387410Y0165215D01*
X0385519Y0165998D01*
X0383473Y0165998D01*
X0381583Y0165215D01*
X0380136Y0163769D01*
X0379496Y0162224D01*
X0378856Y0163769D01*
X0377410Y0165215D01*
X0375519Y0165998D01*
X0373473Y0165998D01*
X0371583Y0165215D01*
X0370136Y0163769D01*
X0369496Y0162224D01*
X0368856Y0163769D01*
X0367410Y0165215D01*
X0365519Y0165998D01*
X0363473Y0165998D01*
X0361583Y0165215D01*
X0360136Y0163769D01*
X0359496Y0162224D01*
X0358856Y0163769D01*
X0357410Y0165215D01*
X0355519Y0165998D01*
X0353473Y0165998D01*
X0351583Y0165215D01*
X0350136Y0163769D01*
X0349496Y0162224D01*
X0348856Y0163769D01*
X0347410Y0165215D01*
X0345519Y0165998D01*
X0343473Y0165998D01*
X0341583Y0165215D01*
X0340136Y0163769D01*
X0339496Y0162224D01*
X0338856Y0163769D01*
X0337410Y0165215D01*
X0335519Y0165998D01*
X0333473Y0165998D01*
X0331583Y0165215D01*
X0330472Y0164105D01*
X0330162Y0164641D01*
X0329620Y0165348D01*
X0328989Y0165979D01*
X0328282Y0166521D01*
X0327510Y0166967D01*
X0326687Y0167308D01*
X0325826Y0167539D01*
X0324942Y0167655D01*
X0324877Y0167655D01*
X0324877Y0161236D01*
X0324115Y0161236D01*
X0324115Y0167655D01*
X0324050Y0167655D01*
X0323167Y0167539D01*
X0322306Y0167308D01*
X0321482Y0166967D01*
X0320710Y0166521D01*
X0320003Y0165979D01*
X0319373Y0165348D01*
X0318865Y0164686D01*
X0318865Y0171003D01*
X0325698Y0177836D01*
X0326373Y0178511D01*
X0326739Y0179393D01*
X0326739Y0195112D01*
X0326373Y0195994D01*
X0311609Y0210758D01*
X0310934Y0211433D01*
X0310052Y0211798D01*
X0300726Y0211798D01*
X0299621Y0212904D01*
X0303164Y0212904D01*
X0304101Y0213841D01*
X0304101Y0218735D01*
X0303164Y0219672D01*
X0298270Y0219672D01*
X0297529Y0218932D01*
X0286229Y0230233D01*
X0296789Y0230233D01*
X0299334Y0231288D01*
X0301282Y0233236D01*
X0302337Y0235781D01*
X0302337Y0238536D01*
X0301282Y0241081D01*
X0299334Y0243029D01*
X0296789Y0244083D01*
X0283384Y0244083D01*
X0280839Y0243029D01*
X0279494Y0241685D01*
X0279494Y0251132D01*
X0280839Y0249788D01*
X0283384Y0248733D01*
X0296789Y0248733D01*
X0299334Y0249788D01*
X0301105Y0251558D01*
X0303940Y0251558D01*
X0304491Y0251007D01*
X0304491Y0225315D01*
X0305115Y0223808D01*
X0306268Y0222655D01*
X0334642Y0194281D01*
X0335796Y0193127D01*
X0337303Y0192503D01*
X0338080Y0192503D01*
X0338080Y0190264D01*
X0337374Y0189558D01*
X0336887Y0188381D01*
X0336887Y0175809D01*
X0336112Y0175034D01*
X0336112Y0168959D01*
X0337049Y0168022D01*
X0343124Y0168022D01*
X0344061Y0168959D01*
X0344061Y0175034D01*
X0343287Y0175809D01*
X0343287Y0185739D01*
X0345093Y0185739D01*
X0346030Y0186676D01*
X0346030Y0192503D01*
X0348945Y0192503D01*
X0348945Y0168060D01*
X0390278Y0168060D01*
X0390278Y0163911D01*
X0390136Y0163769D01*
X0389496Y0162224D01*
X0389401Y0162452D02*
X0389591Y0162452D01*
X0390278Y0164051D02*
X0388574Y0164051D01*
X0390278Y0165649D02*
X0386362Y0165649D01*
X0382631Y0165649D02*
X0376362Y0165649D01*
X0378574Y0164051D02*
X0380418Y0164051D01*
X0379591Y0162452D02*
X0379401Y0162452D01*
X0379401Y0159255D02*
X0379592Y0159255D01*
X0380420Y0157657D02*
X0378572Y0157657D01*
X0376356Y0156058D02*
X0382636Y0156058D01*
X0372636Y0156058D02*
X0366356Y0156058D01*
X0368572Y0157657D02*
X0370420Y0157657D01*
X0369592Y0159255D02*
X0369401Y0159255D01*
X0369401Y0162452D02*
X0369591Y0162452D01*
X0370418Y0164051D02*
X0368574Y0164051D01*
X0366362Y0165649D02*
X0372631Y0165649D01*
X0362631Y0165649D02*
X0356362Y0165649D01*
X0358574Y0164051D02*
X0360418Y0164051D01*
X0359591Y0162452D02*
X0359401Y0162452D01*
X0359401Y0159255D02*
X0359592Y0159255D01*
X0360420Y0157657D02*
X0358572Y0157657D01*
X0356356Y0156058D02*
X0362636Y0156058D01*
X0362724Y0150343D02*
X0315480Y0150343D01*
X0313512Y0152312D01*
X0313512Y0172981D01*
X0320402Y0179871D01*
X0320402Y0194635D01*
X0308591Y0206446D01*
X0298748Y0206446D01*
X0300518Y0212006D02*
X0316917Y0212006D01*
X0318515Y0210408D02*
X0311960Y0210408D01*
X0313558Y0208809D02*
X0320114Y0208809D01*
X0321712Y0207211D02*
X0315157Y0207211D01*
X0316755Y0205612D02*
X0323311Y0205612D01*
X0324909Y0204014D02*
X0318354Y0204014D01*
X0319952Y0202415D02*
X0326508Y0202415D01*
X0328106Y0200817D02*
X0321551Y0200817D01*
X0323149Y0199218D02*
X0329705Y0199218D01*
X0331303Y0197620D02*
X0324748Y0197620D01*
X0326346Y0196021D02*
X0332902Y0196021D01*
X0334500Y0194423D02*
X0326739Y0194423D01*
X0326739Y0192824D02*
X0336527Y0192824D01*
X0338080Y0191226D02*
X0326739Y0191226D01*
X0326739Y0189627D02*
X0337443Y0189627D01*
X0336887Y0188029D02*
X0326739Y0188029D01*
X0326739Y0186430D02*
X0336887Y0186430D01*
X0336887Y0184832D02*
X0326739Y0184832D01*
X0326739Y0183233D02*
X0336887Y0183233D01*
X0336887Y0181635D02*
X0326739Y0181635D01*
X0326739Y0180036D02*
X0336887Y0180036D01*
X0336887Y0178438D02*
X0326299Y0178438D01*
X0324701Y0176839D02*
X0336887Y0176839D01*
X0336318Y0175241D02*
X0323102Y0175241D01*
X0321504Y0173642D02*
X0336112Y0173642D01*
X0336112Y0172044D02*
X0319905Y0172044D01*
X0318865Y0170445D02*
X0336112Y0170445D01*
X0336225Y0168847D02*
X0318865Y0168847D01*
X0318865Y0167248D02*
X0322161Y0167248D01*
X0324115Y0167248D02*
X0324877Y0167248D01*
X0324877Y0165649D02*
X0324115Y0165649D01*
X0324115Y0164051D02*
X0324877Y0164051D01*
X0324877Y0162452D02*
X0324115Y0162452D01*
X0324496Y0160855D02*
X0330717Y0167076D01*
X0346976Y0167076D01*
X0357134Y0177233D01*
X0371976Y0177233D01*
X0371976Y0180265D01*
X0374535Y0182824D01*
X0403079Y0182824D01*
X0404063Y0183808D01*
X0390278Y0167248D02*
X0326831Y0167248D01*
X0329318Y0165649D02*
X0332631Y0165649D01*
X0336362Y0165649D02*
X0342631Y0165649D01*
X0340418Y0164051D02*
X0338574Y0164051D01*
X0339401Y0162452D02*
X0339591Y0162452D01*
X0339592Y0159255D02*
X0339401Y0159255D01*
X0338572Y0157657D02*
X0340420Y0157657D01*
X0342636Y0156058D02*
X0336356Y0156058D01*
X0332636Y0156058D02*
X0329316Y0156058D01*
X0319674Y0165649D02*
X0318865Y0165649D01*
X0310559Y0173965D02*
X0316465Y0179871D01*
X0316465Y0188729D01*
X0312528Y0189713D02*
X0312528Y0191682D01*
X0314496Y0193650D01*
X0312528Y0189713D02*
X0307606Y0184792D01*
X0307606Y0135580D01*
X0317449Y0125737D01*
X0333197Y0125737D01*
X0340087Y0121800D02*
X0343039Y0124753D01*
X0340087Y0121800D02*
X0312528Y0121800D01*
X0310559Y0123769D01*
X0310559Y0128690D01*
X0304654Y0134595D01*
X0304654Y0185776D01*
X0309575Y0190698D01*
X0309575Y0198572D01*
X0300243Y0197620D02*
X0287368Y0197620D01*
X0287368Y0196021D02*
X0297722Y0196021D01*
X0296124Y0194423D02*
X0287368Y0194423D01*
X0287368Y0192824D02*
X0294525Y0192824D01*
X0293148Y0191226D02*
X0287368Y0191226D01*
X0287368Y0189627D02*
X0292680Y0189627D01*
X0292680Y0188029D02*
X0287368Y0188029D01*
X0287368Y0186430D02*
X0288273Y0186430D01*
X0290992Y0186430D02*
X0290992Y0186430D01*
X0290992Y0187493D02*
X0290992Y0183493D01*
X0290992Y0183493D01*
X0290992Y0187493D01*
X0290992Y0184832D02*
X0290992Y0184832D01*
X0290992Y0183493D02*
X0290992Y0179493D01*
X0290992Y0183493D01*
X0290992Y0183493D01*
X0290992Y0183233D02*
X0290992Y0183233D01*
X0290992Y0181635D02*
X0290992Y0181635D01*
X0290992Y0180036D02*
X0290992Y0180036D01*
X0290992Y0179493D02*
X0291386Y0179493D01*
X0292159Y0179647D01*
X0292680Y0179862D01*
X0292680Y0153921D01*
X0290488Y0154828D01*
X0287952Y0154828D01*
X0287368Y0154586D01*
X0287368Y0181789D01*
X0287447Y0181598D01*
X0287885Y0180943D01*
X0288442Y0180386D01*
X0289097Y0179948D01*
X0289825Y0179647D01*
X0290598Y0179493D01*
X0290992Y0179493D01*
X0292680Y0178438D02*
X0287368Y0178438D01*
X0287368Y0180036D02*
X0288966Y0180036D01*
X0287432Y0181635D02*
X0287368Y0181635D01*
X0287368Y0176839D02*
X0292680Y0176839D01*
X0292680Y0175241D02*
X0287368Y0175241D01*
X0287368Y0173642D02*
X0292680Y0173642D01*
X0292680Y0172044D02*
X0287368Y0172044D01*
X0287368Y0170445D02*
X0292680Y0170445D01*
X0292680Y0168847D02*
X0287368Y0168847D01*
X0287368Y0167248D02*
X0292680Y0167248D01*
X0292680Y0165649D02*
X0287368Y0165649D01*
X0287368Y0164051D02*
X0292680Y0164051D01*
X0292680Y0162452D02*
X0287368Y0162452D01*
X0287368Y0160854D02*
X0292680Y0160854D01*
X0292680Y0159255D02*
X0287368Y0159255D01*
X0287368Y0157657D02*
X0292680Y0157657D01*
X0292680Y0156058D02*
X0287368Y0156058D01*
X0291378Y0154460D02*
X0292680Y0154460D01*
X0282016Y0155265D02*
X0282016Y0199556D01*
X0280047Y0201524D01*
X0280047Y0206446D01*
X0277685Y0208808D01*
X0266858Y0208808D01*
X0262331Y0213335D01*
X0255441Y0205461D02*
X0255441Y0194635D01*
X0251504Y0199556D02*
X0251504Y0204477D01*
X0246583Y0209398D01*
X0237724Y0209398D01*
X0232685Y0214438D01*
X0200953Y0214438D01*
X0200835Y0214320D01*
X0194417Y0214320D01*
X0191465Y0217272D01*
X0156031Y0217272D01*
X0154063Y0215304D01*
X0153079Y0215304D01*
X0147173Y0209398D01*
X0147173Y0201524D01*
X0151740Y0196957D01*
X0151504Y0196328D01*
X0157016Y0201524D02*
X0157016Y0163139D01*
X0156031Y0162154D01*
X0141268Y0162154D01*
X0139299Y0160186D01*
X0139299Y0148375D01*
X0138394Y0145501D01*
X0129457Y0154280D02*
X0132409Y0157233D01*
X0129457Y0154280D02*
X0125520Y0154280D01*
X0122567Y0151328D01*
X0122567Y0134595D01*
X0130441Y0126721D01*
X0130441Y0111957D01*
X0129051Y0100111D02*
X0126938Y0100111D01*
X0127313Y0098512D02*
X0130650Y0098512D01*
X0132248Y0096914D02*
X0127084Y0096914D01*
X0126103Y0095315D02*
X0132962Y0095315D01*
X0132962Y0092118D02*
X0120233Y0092118D01*
X0121768Y0090519D02*
X0137883Y0090519D01*
X0137883Y0088921D02*
X0122313Y0088921D01*
X0122253Y0087322D02*
X0137883Y0087322D01*
X0145636Y0087322D02*
X0181316Y0087322D01*
X0181316Y0085724D02*
X0145636Y0085724D01*
X0145636Y0084125D02*
X0181316Y0084125D01*
X0181316Y0082527D02*
X0161342Y0082527D01*
X0162077Y0082330D02*
X0159203Y0083100D01*
X0156228Y0083100D01*
X0153354Y0082330D01*
X0150777Y0080842D01*
X0148673Y0078738D01*
X0147186Y0076162D01*
X0146416Y0073288D01*
X0146416Y0070312D01*
X0147186Y0067438D01*
X0148673Y0064862D01*
X0150777Y0062758D01*
X0153354Y0061270D01*
X0156228Y0060500D01*
X0159203Y0060500D01*
X0162077Y0061270D01*
X0164654Y0062758D01*
X0166758Y0064862D01*
X0168246Y0067438D01*
X0169016Y0070312D01*
X0169016Y0073288D01*
X0168246Y0076162D01*
X0166758Y0078738D01*
X0164654Y0080842D01*
X0162077Y0082330D01*
X0164505Y0080928D02*
X0181316Y0080928D01*
X0181316Y0079330D02*
X0166166Y0079330D01*
X0167339Y0077731D02*
X0180816Y0077731D01*
X0180816Y0076133D02*
X0168253Y0076133D01*
X0168682Y0074534D02*
X0181176Y0074534D01*
X0182775Y0072936D02*
X0169016Y0072936D01*
X0169016Y0071337D02*
X0188848Y0071337D01*
X0188910Y0071400D02*
X0186216Y0068705D01*
X0186216Y0064895D01*
X0188910Y0062200D01*
X0192721Y0062200D01*
X0195416Y0064895D01*
X0195416Y0068705D01*
X0192721Y0071400D01*
X0188910Y0071400D01*
X0188057Y0072936D02*
X0193575Y0072936D01*
X0192784Y0071337D02*
X0199648Y0071337D01*
X0199710Y0071400D02*
X0197016Y0068705D01*
X0197016Y0064895D01*
X0199710Y0062200D01*
X0203521Y0062200D01*
X0206216Y0064895D01*
X0206216Y0068705D01*
X0203521Y0071400D01*
X0199710Y0071400D01*
X0198857Y0072936D02*
X0204375Y0072936D01*
X0203584Y0071337D02*
X0210165Y0071337D01*
X0210428Y0071600D02*
X0207616Y0068788D01*
X0207616Y0067000D01*
X0212216Y0067000D01*
X0212216Y0071600D01*
X0210428Y0071600D01*
X0209657Y0072936D02*
X0215175Y0072936D01*
X0215910Y0072200D02*
X0219721Y0072200D01*
X0222416Y0074895D01*
X0222416Y0078705D01*
X0219721Y0081400D01*
X0215910Y0081400D01*
X0213216Y0078705D01*
X0213216Y0074895D01*
X0215910Y0072200D01*
X0214667Y0071337D02*
X0221248Y0071337D01*
X0221310Y0071400D02*
X0218616Y0068705D01*
X0218616Y0064895D01*
X0221310Y0062200D01*
X0225121Y0062200D01*
X0227816Y0064895D01*
X0227816Y0068705D01*
X0225121Y0071400D01*
X0221310Y0071400D01*
X0220457Y0072936D02*
X0225975Y0072936D01*
X0226710Y0072200D02*
X0230521Y0072200D01*
X0233216Y0074895D01*
X0233216Y0078705D01*
X0230521Y0081400D01*
X0226710Y0081400D01*
X0224016Y0078705D01*
X0224016Y0074895D01*
X0226710Y0072200D01*
X0225184Y0071337D02*
X0245016Y0071337D01*
X0245016Y0070312D02*
X0245016Y0073288D01*
X0245786Y0076162D01*
X0247273Y0078738D01*
X0249377Y0080842D01*
X0251954Y0082330D01*
X0254828Y0083100D01*
X0257803Y0083100D01*
X0260677Y0082330D01*
X0263254Y0080842D01*
X0265358Y0078738D01*
X0266846Y0076162D01*
X0267616Y0073288D01*
X0267616Y0070312D01*
X0266846Y0067438D01*
X0265358Y0064862D01*
X0263254Y0062758D01*
X0260677Y0061270D01*
X0257803Y0060500D01*
X0254828Y0060500D01*
X0251954Y0061270D01*
X0249377Y0062758D01*
X0247273Y0064862D01*
X0245786Y0067438D01*
X0245016Y0070312D01*
X0245169Y0069739D02*
X0226782Y0069739D01*
X0227816Y0068140D02*
X0245598Y0068140D01*
X0246303Y0066542D02*
X0227816Y0066542D01*
X0227816Y0064943D02*
X0247226Y0064943D01*
X0248790Y0063345D02*
X0226266Y0063345D01*
X0220166Y0063345D02*
X0215749Y0063345D01*
X0214404Y0062000D02*
X0217216Y0064812D01*
X0217216Y0066600D01*
X0212616Y0066600D01*
X0212616Y0067000D01*
X0217216Y0067000D01*
X0217216Y0068788D01*
X0214404Y0071600D01*
X0212616Y0071600D01*
X0212616Y0067000D01*
X0212216Y0067000D01*
X0212216Y0066600D01*
X0212616Y0066600D01*
X0212616Y0062000D01*
X0214404Y0062000D01*
X0212216Y0062000D02*
X0212216Y0066600D01*
X0207616Y0066600D01*
X0207616Y0064812D01*
X0210428Y0062000D01*
X0212216Y0062000D01*
X0212216Y0063345D02*
X0212616Y0063345D01*
X0212616Y0064943D02*
X0212216Y0064943D01*
X0212216Y0066542D02*
X0212616Y0066542D01*
X0212616Y0068140D02*
X0212216Y0068140D01*
X0212216Y0069739D02*
X0212616Y0069739D01*
X0212616Y0071337D02*
X0212216Y0071337D01*
X0211255Y0074534D02*
X0213576Y0074534D01*
X0213216Y0076133D02*
X0211616Y0076133D01*
X0211616Y0077731D02*
X0213216Y0077731D01*
X0213840Y0079330D02*
X0211116Y0079330D01*
X0211116Y0080928D02*
X0215439Y0080928D01*
X0211116Y0082527D02*
X0252689Y0082527D01*
X0249527Y0080928D02*
X0230993Y0080928D01*
X0232591Y0079330D02*
X0247865Y0079330D01*
X0246692Y0077731D02*
X0233216Y0077731D01*
X0233216Y0076133D02*
X0245778Y0076133D01*
X0245350Y0074534D02*
X0232855Y0074534D01*
X0231257Y0072936D02*
X0245016Y0072936D01*
X0251129Y0061746D02*
X0162902Y0061746D01*
X0165241Y0063345D02*
X0187766Y0063345D01*
X0186216Y0064943D02*
X0166805Y0064943D01*
X0167728Y0066542D02*
X0186216Y0066542D01*
X0186216Y0068140D02*
X0168434Y0068140D01*
X0168862Y0069739D02*
X0187249Y0069739D01*
X0194382Y0069739D02*
X0198049Y0069739D01*
X0197016Y0068140D02*
X0195416Y0068140D01*
X0195416Y0066542D02*
X0197016Y0066542D01*
X0197016Y0064943D02*
X0195416Y0064943D01*
X0193866Y0063345D02*
X0198566Y0063345D01*
X0204666Y0063345D02*
X0209083Y0063345D01*
X0207616Y0064943D02*
X0206216Y0064943D01*
X0206216Y0066542D02*
X0207616Y0066542D01*
X0207616Y0068140D02*
X0206216Y0068140D01*
X0205182Y0069739D02*
X0208566Y0069739D01*
X0216265Y0069739D02*
X0219649Y0069739D01*
X0218616Y0068140D02*
X0217216Y0068140D01*
X0217216Y0066542D02*
X0218616Y0066542D01*
X0218616Y0064943D02*
X0217216Y0064943D01*
X0222055Y0074534D02*
X0224376Y0074534D01*
X0224016Y0076133D02*
X0222416Y0076133D01*
X0222416Y0077731D02*
X0224016Y0077731D01*
X0224640Y0079330D02*
X0221791Y0079330D01*
X0220193Y0080928D02*
X0226239Y0080928D01*
X0214211Y0090519D02*
X0277117Y0090519D01*
X0275809Y0088921D02*
X0212612Y0088921D01*
X0211116Y0087322D02*
X0275375Y0087322D01*
X0275375Y0085724D02*
X0211116Y0085724D01*
X0211116Y0084125D02*
X0275375Y0084125D01*
X0275375Y0082527D02*
X0259942Y0082527D01*
X0263105Y0080928D02*
X0275405Y0080928D01*
X0276143Y0079330D02*
X0264766Y0079330D01*
X0265939Y0077731D02*
X0271955Y0077731D01*
X0270805Y0076133D02*
X0266853Y0076133D01*
X0267282Y0074534D02*
X0270757Y0074534D01*
X0270757Y0072936D02*
X0267616Y0072936D01*
X0267616Y0071337D02*
X0270757Y0071337D01*
X0270757Y0069739D02*
X0267462Y0069739D01*
X0267034Y0068140D02*
X0270757Y0068140D01*
X0270757Y0066542D02*
X0266328Y0066542D01*
X0265405Y0064943D02*
X0270757Y0064943D01*
X0270757Y0063345D02*
X0263841Y0063345D01*
X0261502Y0061746D02*
X0270757Y0061746D01*
X0270757Y0060148D02*
X0143236Y0060148D01*
X0143236Y0061746D02*
X0152529Y0061746D01*
X0150190Y0063345D02*
X0143236Y0063345D01*
X0143236Y0064943D02*
X0148626Y0064943D01*
X0147703Y0066542D02*
X0143236Y0066542D01*
X0143236Y0068140D02*
X0146998Y0068140D01*
X0146569Y0069739D02*
X0143236Y0069739D01*
X0143236Y0071337D02*
X0146416Y0071337D01*
X0146416Y0072936D02*
X0143236Y0072936D01*
X0143236Y0074534D02*
X0146750Y0074534D01*
X0147178Y0076133D02*
X0143236Y0076133D01*
X0143236Y0077731D02*
X0148092Y0077731D01*
X0149265Y0079330D02*
X0143530Y0079330D01*
X0145129Y0080928D02*
X0150927Y0080928D01*
X0154089Y0082527D02*
X0145636Y0082527D01*
X0145636Y0088921D02*
X0181316Y0088921D01*
X0181316Y0090519D02*
X0145636Y0090519D01*
X0145636Y0092118D02*
X0181316Y0092118D01*
X0181316Y0093716D02*
X0145636Y0093716D01*
X0145636Y0095315D02*
X0181316Y0095315D01*
X0181316Y0096914D02*
X0145636Y0096914D01*
X0145636Y0098512D02*
X0181316Y0098512D01*
X0181316Y0100111D02*
X0145636Y0100111D01*
X0145636Y0101709D02*
X0181316Y0101709D01*
X0181316Y0103308D02*
X0145636Y0103308D01*
X0145636Y0104906D02*
X0181316Y0104906D01*
X0181632Y0106505D02*
X0145636Y0106505D01*
X0145636Y0108103D02*
X0182796Y0108103D01*
X0184395Y0109702D02*
X0145636Y0109702D01*
X0145636Y0111300D02*
X0185993Y0111300D01*
X0187592Y0112899D02*
X0163531Y0112899D01*
X0165342Y0114497D02*
X0189190Y0114497D01*
X0190789Y0116096D02*
X0166207Y0116096D01*
X0166658Y0117694D02*
X0192387Y0117694D01*
X0193986Y0119293D02*
X0166658Y0119293D01*
X0170796Y0120891D02*
X0195584Y0120891D01*
X0205304Y0122490D02*
X0171227Y0122490D01*
X0171227Y0124088D02*
X0207229Y0124088D01*
X0213338Y0124088D02*
X0218466Y0124088D01*
X0216868Y0122490D02*
X0215263Y0122490D01*
X0220065Y0125687D02*
X0179298Y0125687D01*
X0179298Y0127285D02*
X0221663Y0127285D01*
X0223262Y0128884D02*
X0179298Y0128884D01*
X0179165Y0130482D02*
X0216321Y0130482D01*
X0215639Y0132081D02*
X0178917Y0132081D01*
X0178917Y0133679D02*
X0215639Y0133679D01*
X0215639Y0135278D02*
X0178917Y0135278D01*
X0178917Y0136876D02*
X0216458Y0136876D01*
X0216624Y0138475D02*
X0178917Y0138475D01*
X0178917Y0140073D02*
X0216624Y0140073D01*
X0216624Y0141672D02*
X0178917Y0141672D01*
X0178441Y0143270D02*
X0206451Y0143270D01*
X0204868Y0144869D02*
X0176858Y0144869D01*
X0175260Y0146467D02*
X0204206Y0146467D01*
X0203909Y0148066D02*
X0173995Y0148066D01*
X0171004Y0141672D02*
X0170243Y0141672D01*
X0170243Y0140073D02*
X0172517Y0140073D01*
X0172517Y0138475D02*
X0170243Y0138475D01*
X0169258Y0136876D02*
X0172517Y0136876D01*
X0172517Y0135278D02*
X0169258Y0135278D01*
X0169258Y0133679D02*
X0172517Y0133679D01*
X0172517Y0132081D02*
X0169258Y0132081D01*
X0169258Y0130482D02*
X0172268Y0130482D01*
X0172135Y0128884D02*
X0169258Y0128884D01*
X0169258Y0127285D02*
X0172135Y0127285D01*
X0172135Y0125687D02*
X0171227Y0125687D01*
X0167843Y0123769D02*
X0166858Y0124753D01*
X0166858Y0140501D01*
X0163474Y0140073D02*
X0162946Y0140073D01*
X0162946Y0138475D02*
X0163474Y0138475D01*
X0162946Y0136876D02*
X0164458Y0136876D01*
X0164458Y0135278D02*
X0162946Y0135278D01*
X0164458Y0133679D02*
X0143236Y0133679D01*
X0143236Y0132081D02*
X0164458Y0132081D01*
X0164458Y0130482D02*
X0162946Y0130482D01*
X0162946Y0128884D02*
X0164458Y0128884D01*
X0164458Y0127285D02*
X0162946Y0127285D01*
X0162946Y0125687D02*
X0164458Y0125687D01*
X0164458Y0124088D02*
X0163338Y0124088D01*
X0158984Y0126918D02*
X0155244Y0126918D01*
X0153079Y0124753D01*
X0149498Y0124088D02*
X0145636Y0124088D01*
X0145636Y0122490D02*
X0149498Y0122490D01*
X0149498Y0125687D02*
X0145636Y0125687D01*
X0145636Y0127285D02*
X0149498Y0127285D01*
X0145346Y0128884D02*
X0153816Y0128884D01*
X0155022Y0130482D02*
X0143854Y0130482D01*
X0145011Y0135278D02*
X0155022Y0135278D01*
X0155022Y0136876D02*
X0146540Y0136876D01*
X0144220Y0137548D02*
X0144220Y0159202D01*
X0158984Y0159202D01*
X0159969Y0160186D01*
X0159969Y0202509D01*
X0156031Y0206446D01*
X0156031Y0211367D01*
X0153079Y0205461D02*
X0151110Y0205461D01*
X0153079Y0205461D02*
X0157016Y0201524D01*
X0144773Y0204014D02*
X0137120Y0204014D01*
X0137120Y0205612D02*
X0144773Y0205612D01*
X0144773Y0207211D02*
X0133456Y0207211D01*
X0133434Y0207205D02*
X0133892Y0207327D01*
X0134302Y0207564D01*
X0134637Y0207899D01*
X0134874Y0208310D01*
X0134997Y0208768D01*
X0134997Y0211084D01*
X0130724Y0211084D01*
X0130724Y0207205D01*
X0133434Y0207205D01*
X0134997Y0208809D02*
X0144773Y0208809D01*
X0144994Y0210408D02*
X0134997Y0210408D01*
X0134997Y0213605D02*
X0147986Y0213605D01*
X0149584Y0215203D02*
X0134651Y0215203D01*
X0134797Y0216802D02*
X0143592Y0216802D01*
X0146387Y0212006D02*
X0130724Y0212006D01*
X0131150Y0212469D02*
X0130244Y0211564D01*
X0129260Y0211564D01*
X0123551Y0217272D01*
X0125691Y0216802D02*
X0116589Y0216802D01*
X0116550Y0216841D02*
X0119108Y0216841D01*
X0120046Y0217778D01*
X0120046Y0221762D01*
X0125691Y0221762D01*
X0125691Y0215822D01*
X0126068Y0215445D01*
X0125851Y0215228D01*
X0125614Y0214818D01*
X0125491Y0214360D01*
X0125491Y0212043D01*
X0129764Y0212043D01*
X0129764Y0211084D01*
X0125491Y0211084D01*
X0125491Y0208768D01*
X0125614Y0208310D01*
X0125851Y0207899D01*
X0126186Y0207564D01*
X0126574Y0207340D01*
X0125960Y0207340D01*
X0125960Y0203067D01*
X0125001Y0203067D01*
X0125001Y0207340D01*
X0122684Y0207340D01*
X0122226Y0207217D01*
X0121816Y0206981D01*
X0121481Y0206645D01*
X0121244Y0206235D01*
X0121121Y0205777D01*
X0121121Y0205233D01*
X0121064Y0205290D01*
X0119061Y0205290D01*
X0119061Y0213813D01*
X0118696Y0214695D01*
X0116728Y0216663D01*
X0116550Y0216841D01*
X0118188Y0215203D02*
X0125837Y0215203D01*
X0125491Y0213605D02*
X0119061Y0213605D01*
X0119061Y0212006D02*
X0129764Y0212006D01*
X0130244Y0211564D02*
X0130244Y0211170D01*
X0125520Y0206446D01*
X0125520Y0202627D01*
X0125480Y0202587D01*
X0125001Y0204014D02*
X0125960Y0204014D01*
X0125960Y0205612D02*
X0125001Y0205612D01*
X0125001Y0207211D02*
X0125960Y0207211D01*
X0125491Y0208809D02*
X0119061Y0208809D01*
X0119061Y0207211D02*
X0122215Y0207211D01*
X0121121Y0205612D02*
X0119061Y0205612D01*
X0119061Y0210408D02*
X0125491Y0210408D01*
X0129765Y0210408D02*
X0130724Y0210408D01*
X0130724Y0208809D02*
X0129765Y0208809D01*
X0129765Y0207211D02*
X0130724Y0207211D01*
X0125691Y0218400D02*
X0120046Y0218400D01*
X0120046Y0219999D02*
X0125691Y0219999D01*
X0125691Y0221597D02*
X0120046Y0221597D01*
X0116661Y0220225D02*
X0116661Y0224162D01*
X0112724Y0224162D01*
X0116661Y0224162D02*
X0128472Y0224162D01*
X0130244Y0222391D01*
X0130244Y0219044D01*
X0132409Y0227115D02*
X0139299Y0234005D01*
X0137331Y0236957D02*
X0182606Y0236957D01*
X0184575Y0234989D01*
X0190749Y0227077D02*
X0190193Y0226471D01*
X0190856Y0226197D01*
X0193183Y0223869D01*
X0193153Y0224060D01*
X0193153Y0224238D01*
X0200753Y0224238D01*
X0200753Y0224638D01*
X0193153Y0224638D01*
X0193153Y0224816D01*
X0193271Y0225562D01*
X0193504Y0226280D01*
X0193847Y0226954D01*
X0193937Y0227077D01*
X0190749Y0227077D01*
X0190382Y0226393D02*
X0193562Y0226393D01*
X0193153Y0224794D02*
X0192258Y0224794D01*
X0189496Y0224162D02*
X0194417Y0219241D01*
X0230835Y0219241D01*
X0231819Y0218257D01*
X0235756Y0218257D01*
X0241661Y0212351D01*
X0248551Y0212351D01*
X0255441Y0205461D01*
X0249104Y0203483D02*
X0249104Y0203137D01*
X0248860Y0203137D01*
X0247923Y0202200D01*
X0247923Y0197035D01*
X0239703Y0197035D01*
X0236131Y0200606D01*
X0235427Y0200898D01*
X0235427Y0202620D01*
X0234490Y0203557D01*
X0228046Y0203557D01*
X0227528Y0203039D01*
X0227009Y0203557D01*
X0220566Y0203557D01*
X0220008Y0203000D01*
X0220008Y0212038D01*
X0231691Y0212038D01*
X0234143Y0209585D01*
X0234143Y0206755D01*
X0235081Y0205817D01*
X0240368Y0205817D01*
X0241305Y0206755D01*
X0241305Y0206998D01*
X0245589Y0206998D01*
X0249104Y0203483D01*
X0248573Y0204014D02*
X0220008Y0204014D01*
X0220008Y0205612D02*
X0246975Y0205612D01*
X0248138Y0202415D02*
X0235427Y0202415D01*
X0235623Y0200817D02*
X0247923Y0200817D01*
X0247923Y0199218D02*
X0237519Y0199218D01*
X0239118Y0197620D02*
X0247923Y0197620D01*
X0247567Y0194635D02*
X0251504Y0190698D01*
X0264929Y0190698D01*
X0268073Y0187124D02*
X0268073Y0184271D01*
X0266897Y0185448D01*
X0262962Y0185448D01*
X0262168Y0184654D01*
X0258283Y0184443D01*
X0257578Y0184443D01*
X0257472Y0184399D01*
X0257357Y0184393D01*
X0256722Y0184089D01*
X0256071Y0183819D01*
X0255990Y0183738D01*
X0255886Y0183688D01*
X0255416Y0183164D01*
X0254918Y0182666D01*
X0254874Y0182560D01*
X0254797Y0182474D01*
X0254563Y0181810D01*
X0254294Y0181159D01*
X0254294Y0181044D01*
X0254256Y0180936D01*
X0254294Y0180232D01*
X0254294Y0167790D01*
X0246060Y0159556D01*
X0245435Y0158049D01*
X0245435Y0150107D01*
X0244625Y0152065D01*
X0242831Y0153858D01*
X0240488Y0154828D01*
X0237952Y0154828D01*
X0235609Y0153858D01*
X0234935Y0153183D01*
X0234935Y0170299D01*
X0236279Y0171643D01*
X0236903Y0173150D01*
X0236903Y0178974D01*
X0236937Y0178762D01*
X0237151Y0178103D01*
X0237465Y0177486D01*
X0237872Y0176926D01*
X0238362Y0176436D01*
X0238922Y0176029D01*
X0239539Y0175714D01*
X0240198Y0175500D01*
X0240882Y0175392D01*
X0241228Y0175392D01*
X0241228Y0179792D01*
X0241228Y0179792D01*
X0241228Y0184192D01*
X0240882Y0184192D01*
X0240198Y0184084D01*
X0239539Y0183870D01*
X0238922Y0183555D01*
X0238362Y0183148D01*
X0237872Y0182659D01*
X0237465Y0182098D01*
X0237151Y0181481D01*
X0236937Y0180822D01*
X0236903Y0180611D01*
X0236903Y0185613D01*
X0238447Y0185613D01*
X0238524Y0185585D01*
X0239260Y0185613D01*
X0239997Y0185613D01*
X0240072Y0185645D01*
X0240250Y0185651D01*
X0240393Y0185592D01*
X0247264Y0185592D01*
X0248807Y0186232D01*
X0249989Y0187413D01*
X0250454Y0188535D01*
X0251027Y0188298D01*
X0260782Y0188298D01*
X0260902Y0188007D01*
X0262238Y0186671D01*
X0263984Y0185948D01*
X0265874Y0185948D01*
X0267620Y0186671D01*
X0268073Y0187124D01*
X0268073Y0186430D02*
X0267039Y0186430D01*
X0267513Y0184832D02*
X0268073Y0184832D01*
X0262819Y0186430D02*
X0249006Y0186430D01*
X0250244Y0188029D02*
X0260893Y0188029D01*
X0262346Y0184832D02*
X0236903Y0184832D01*
X0236903Y0183233D02*
X0238479Y0183233D01*
X0237229Y0181635D02*
X0236903Y0181635D01*
X0236903Y0178438D02*
X0237042Y0178438D01*
X0236903Y0176839D02*
X0237959Y0176839D01*
X0236903Y0175241D02*
X0254294Y0175241D01*
X0254294Y0176839D02*
X0249698Y0176839D01*
X0249784Y0176926D02*
X0250192Y0177486D01*
X0250506Y0178103D01*
X0250720Y0178762D01*
X0250828Y0179446D01*
X0250828Y0179792D01*
X0241228Y0179792D01*
X0241228Y0179792D01*
X0241228Y0175392D01*
X0246775Y0175392D01*
X0247459Y0175500D01*
X0248117Y0175714D01*
X0248734Y0176029D01*
X0249295Y0176436D01*
X0249784Y0176926D01*
X0250615Y0178438D02*
X0254294Y0178438D01*
X0254294Y0180036D02*
X0250828Y0180036D01*
X0250828Y0180138D02*
X0250720Y0180822D01*
X0250506Y0181481D01*
X0250192Y0182098D01*
X0249784Y0182659D01*
X0249295Y0183148D01*
X0248734Y0183555D01*
X0248117Y0183870D01*
X0247459Y0184084D01*
X0246775Y0184192D01*
X0241228Y0184192D01*
X0241228Y0179792D01*
X0241228Y0179792D01*
X0250828Y0179792D01*
X0250828Y0180138D01*
X0250428Y0181635D02*
X0254491Y0181635D01*
X0255478Y0183233D02*
X0249178Y0183233D01*
X0241228Y0183233D02*
X0241228Y0183233D01*
X0241228Y0181635D02*
X0241228Y0181635D01*
X0241228Y0180036D02*
X0241228Y0180036D01*
X0241228Y0178438D02*
X0241228Y0178438D01*
X0241228Y0176839D02*
X0241228Y0176839D01*
X0236903Y0173642D02*
X0254294Y0173642D01*
X0254294Y0172044D02*
X0236445Y0172044D01*
X0235081Y0170445D02*
X0254294Y0170445D01*
X0254294Y0168847D02*
X0234935Y0168847D01*
X0234935Y0167248D02*
X0253752Y0167248D01*
X0252154Y0165649D02*
X0234935Y0165649D01*
X0234935Y0164051D02*
X0250555Y0164051D01*
X0248957Y0162452D02*
X0234935Y0162452D01*
X0234935Y0160854D02*
X0247358Y0160854D01*
X0245935Y0159255D02*
X0234935Y0159255D01*
X0234935Y0157657D02*
X0245435Y0157657D01*
X0245435Y0156058D02*
X0234935Y0156058D01*
X0234935Y0154460D02*
X0237063Y0154460D01*
X0241378Y0154460D02*
X0245435Y0154460D01*
X0245435Y0152861D02*
X0243828Y0152861D01*
X0244957Y0151263D02*
X0245435Y0151263D01*
X0223945Y0151328D02*
X0223945Y0137548D01*
X0224929Y0136564D01*
X0226459Y0132081D02*
X0222408Y0132081D01*
X0221726Y0130482D02*
X0224860Y0130482D01*
X0219024Y0133611D02*
X0219024Y0151328D01*
X0213118Y0157233D01*
X0211150Y0157233D01*
X0205244Y0157233D02*
X0205244Y0162154D01*
X0206583Y0163493D01*
X0212094Y0163493D01*
X0212094Y0163178D01*
X0223945Y0151328D01*
X0216624Y0146467D02*
X0216361Y0146467D01*
X0216624Y0144869D02*
X0215699Y0144869D01*
X0216624Y0143270D02*
X0214116Y0143270D01*
X0203909Y0149664D02*
X0181395Y0149664D01*
X0177488Y0153532D02*
X0177488Y0157430D01*
X0175717Y0159202D01*
X0166858Y0159202D01*
X0163906Y0156249D01*
X0162409Y0154753D01*
X0157488Y0154753D01*
X0155047Y0152312D01*
X0155047Y0142272D01*
X0158984Y0138335D01*
X0155022Y0138475D02*
X0152356Y0138475D01*
X0152723Y0140073D02*
X0153852Y0140073D01*
X0149378Y0141721D02*
X0149142Y0141485D01*
X0149378Y0141721D02*
X0149378Y0147272D01*
X0149378Y0154753D02*
X0157488Y0154753D01*
X0162685Y0156997D02*
X0163906Y0156249D01*
X0170008Y0153532D02*
X0170008Y0152509D01*
X0177488Y0153532D02*
X0188984Y0153532D01*
X0190402Y0154950D01*
X0185559Y0160186D02*
X0183591Y0158217D01*
X0185559Y0160186D02*
X0188512Y0160186D01*
X0191228Y0162902D01*
X0191228Y0165540D01*
X0191465Y0165776D01*
X0191465Y0172981D01*
X0193433Y0174950D01*
X0193433Y0176918D01*
X0200323Y0183808D01*
X0200323Y0177902D01*
X0206228Y0171997D01*
X0211150Y0171997D01*
X0217646Y0178493D01*
X0217646Y0179162D01*
X0213877Y0176501D02*
X0213877Y0176169D01*
X0214000Y0175712D01*
X0214237Y0175301D01*
X0214572Y0174966D01*
X0214982Y0174729D01*
X0215087Y0174701D01*
X0215087Y0171013D01*
X0175754Y0171013D01*
X0175754Y0173534D01*
X0180132Y0173534D01*
X0181069Y0174471D01*
X0181069Y0179365D01*
X0180132Y0180302D01*
X0180085Y0180302D01*
X0180085Y0186751D01*
X0181632Y0188298D01*
X0187021Y0188298D01*
X0187903Y0188663D01*
X0190490Y0191250D01*
X0192927Y0191250D01*
X0193865Y0192188D01*
X0193865Y0193762D01*
X0193986Y0193641D01*
X0193986Y0190145D01*
X0193939Y0190145D01*
X0193002Y0189208D01*
X0193002Y0184314D01*
X0193939Y0183376D01*
X0198833Y0183376D01*
X0199770Y0184314D01*
X0199770Y0189208D01*
X0198833Y0190145D01*
X0198786Y0190145D01*
X0198786Y0195112D01*
X0198420Y0195994D01*
X0195833Y0198582D01*
X0195833Y0200033D01*
X0195468Y0200915D01*
X0194793Y0201591D01*
X0192515Y0203868D01*
X0192515Y0203868D01*
X0191840Y0204543D01*
X0190958Y0204909D01*
X0189928Y0204909D01*
X0189928Y0206998D01*
X0189975Y0206998D01*
X0190912Y0207936D01*
X0190912Y0210494D01*
X0200932Y0200474D01*
X0201814Y0200109D01*
X0212124Y0200109D01*
X0215087Y0197146D01*
X0215087Y0191453D01*
X0214789Y0192171D01*
X0213607Y0193353D01*
X0212064Y0193992D01*
X0205193Y0193992D01*
X0203649Y0193353D01*
X0202468Y0192171D01*
X0201828Y0190628D01*
X0201828Y0188957D01*
X0202468Y0187413D01*
X0203649Y0186232D01*
X0205193Y0185592D01*
X0211361Y0185592D01*
X0209761Y0183992D01*
X0205193Y0183992D01*
X0203649Y0183353D01*
X0202468Y0182171D01*
X0201828Y0180628D01*
X0201828Y0178957D01*
X0202468Y0177413D01*
X0203649Y0176232D01*
X0205193Y0175592D01*
X0212064Y0175592D01*
X0213607Y0176232D01*
X0213877Y0176501D01*
X0214297Y0175241D02*
X0181069Y0175241D01*
X0181069Y0176839D02*
X0203042Y0176839D01*
X0202043Y0178438D02*
X0181069Y0178438D01*
X0180398Y0180036D02*
X0201828Y0180036D01*
X0202245Y0181635D02*
X0180085Y0181635D01*
X0180085Y0183233D02*
X0203530Y0183233D01*
X0203451Y0186430D02*
X0199770Y0186430D01*
X0199770Y0184832D02*
X0210601Y0184832D01*
X0214136Y0192824D02*
X0215087Y0192824D01*
X0215087Y0194423D02*
X0198786Y0194423D01*
X0198786Y0192824D02*
X0203121Y0192824D01*
X0202076Y0191226D02*
X0198786Y0191226D01*
X0199351Y0189627D02*
X0201828Y0189627D01*
X0202213Y0188029D02*
X0199770Y0188029D01*
X0196386Y0186761D02*
X0196386Y0194635D01*
X0193433Y0197587D01*
X0193433Y0199556D01*
X0190480Y0202509D01*
X0188512Y0202509D01*
X0187528Y0203493D01*
X0187528Y0210383D01*
X0190912Y0210408D02*
X0190998Y0210408D01*
X0190912Y0208809D02*
X0192597Y0208809D01*
X0194195Y0207211D02*
X0190187Y0207211D01*
X0189928Y0205612D02*
X0195794Y0205612D01*
X0197392Y0204014D02*
X0192369Y0204014D01*
X0193968Y0202415D02*
X0198991Y0202415D01*
X0200589Y0200817D02*
X0195509Y0200817D01*
X0194793Y0201591D02*
X0194793Y0201591D01*
X0195833Y0199218D02*
X0213014Y0199218D01*
X0214613Y0197620D02*
X0196795Y0197620D01*
X0198393Y0196021D02*
X0215087Y0196021D01*
X0216622Y0199005D02*
X0213118Y0202509D01*
X0202291Y0202509D01*
X0190480Y0214320D01*
X0170795Y0214320D01*
X0169811Y0213335D01*
X0167803Y0211328D01*
X0167803Y0207351D01*
X0167803Y0199871D02*
X0173079Y0199871D01*
X0173748Y0200540D01*
X0170795Y0194635D02*
X0180638Y0194635D01*
X0181622Y0195619D01*
X0181622Y0210383D01*
X0190265Y0219999D02*
X0159613Y0219999D01*
X0159613Y0221597D02*
X0188667Y0221597D01*
X0189496Y0224162D02*
X0176701Y0224162D01*
X0172764Y0228099D01*
X0149142Y0228099D01*
X0146189Y0225146D01*
X0149770Y0224794D02*
X0172674Y0224794D01*
X0174273Y0223196D02*
X0159613Y0223196D01*
X0156031Y0221209D02*
X0156031Y0217272D01*
X0152616Y0218400D02*
X0150754Y0218400D01*
X0150754Y0216802D02*
X0151183Y0216802D01*
X0151044Y0216663D02*
X0151044Y0216663D01*
X0150754Y0219999D02*
X0152450Y0219999D01*
X0152450Y0221597D02*
X0150754Y0221597D01*
X0149770Y0223196D02*
X0152450Y0223196D01*
X0132409Y0227115D02*
X0115677Y0227115D01*
X0111740Y0231052D01*
X0111740Y0234005D01*
X0108159Y0234385D02*
X0102821Y0234385D01*
X0107494Y0232787D02*
X0108159Y0232787D01*
X0108159Y0235984D02*
X0095439Y0235984D01*
X0095439Y0234385D02*
X0097038Y0234385D01*
X0096348Y0232787D02*
X0095439Y0232787D01*
X0095992Y0228099D02*
X0103866Y0220225D01*
X0103866Y0212351D01*
X0102882Y0211367D01*
X0102882Y0210383D01*
X0102882Y0208414D01*
X0103669Y0207627D01*
X0109102Y0207627D01*
X0108623Y0207211D02*
X0091699Y0207211D01*
X0091699Y0205612D02*
X0104350Y0205612D01*
X0104680Y0204014D02*
X0091699Y0204014D01*
X0091297Y0202415D02*
X0106003Y0202415D01*
X0106003Y0199218D02*
X0089139Y0199218D01*
X0089102Y0200817D02*
X0109883Y0200817D01*
X0106003Y0197620D02*
X0089354Y0197620D01*
X0089102Y0196021D02*
X0106191Y0196021D01*
X0106191Y0194423D02*
X0091864Y0194423D01*
X0091965Y0192824D02*
X0106191Y0192824D01*
X0106956Y0191226D02*
X0089102Y0191226D01*
X0087764Y0190698D02*
X0087606Y0190855D01*
X0087764Y0190698D02*
X0096976Y0190698D01*
X0104850Y0198572D01*
X0113353Y0196021D02*
X0116802Y0196021D01*
X0115146Y0194423D02*
X0113353Y0194423D01*
X0113353Y0192824D02*
X0115049Y0192824D01*
X0107672Y0189627D02*
X0091965Y0189627D01*
X0091965Y0188029D02*
X0107672Y0188029D01*
X0107672Y0186430D02*
X0101542Y0186430D01*
X0101542Y0184832D02*
X0107672Y0184832D01*
X0107211Y0183233D02*
X0101542Y0183233D01*
X0097961Y0183808D02*
X0097409Y0183257D01*
X0097409Y0180422D01*
X0094380Y0186430D02*
X0091215Y0186430D01*
X0089102Y0175241D02*
X0109340Y0175241D01*
X0120046Y0156058D02*
X0123904Y0156058D01*
X0122305Y0154460D02*
X0120046Y0154460D01*
X0120490Y0152861D02*
X0120707Y0152861D01*
X0112293Y0152861D02*
X0089102Y0152861D01*
X0089102Y0151263D02*
X0112293Y0151263D01*
X0112293Y0149664D02*
X0089102Y0149664D01*
X0089102Y0148066D02*
X0112293Y0148066D01*
X0112293Y0146467D02*
X0089483Y0146467D01*
X0091081Y0144869D02*
X0112293Y0144869D01*
X0112293Y0143270D02*
X0092680Y0143270D01*
X0094278Y0141672D02*
X0112293Y0141672D01*
X0100913Y0146406D02*
X0100913Y0133611D01*
X0097961Y0130658D01*
X0097477Y0130482D02*
X0102386Y0130482D01*
X0102254Y0128884D02*
X0097477Y0128884D01*
X0097054Y0127285D02*
X0102020Y0127285D01*
X0101661Y0123532D02*
X0105835Y0127706D01*
X0105611Y0124088D02*
X0107682Y0124088D01*
X0108394Y0121406D02*
X0111740Y0124753D01*
X0111346Y0127509D01*
X0115874Y0124950D02*
X0116465Y0125146D01*
X0115874Y0124950D02*
X0115874Y0118532D01*
X0108394Y0118532D02*
X0108394Y0121406D01*
X0104577Y0122490D02*
X0104013Y0122490D01*
X0104235Y0120891D02*
X0097277Y0120891D01*
X0101661Y0123532D02*
X0092724Y0123532D01*
X0089102Y0119293D02*
X0104235Y0119293D01*
X0104235Y0117694D02*
X0089102Y0117694D01*
X0089102Y0114497D02*
X0092701Y0114497D01*
X0092608Y0112899D02*
X0089102Y0112899D01*
X0089102Y0111300D02*
X0092608Y0111300D01*
X0092608Y0109702D02*
X0089102Y0109702D01*
X0089102Y0101709D02*
X0090132Y0101709D01*
X0100233Y0092118D02*
X0105369Y0092118D01*
X0105545Y0092245D02*
X0104963Y0091822D01*
X0104454Y0091314D01*
X0104031Y0090731D01*
X0103704Y0090090D01*
X0103482Y0089406D01*
X0103369Y0088695D01*
X0103369Y0088421D01*
X0107855Y0088421D01*
X0107855Y0092907D01*
X0107581Y0092907D01*
X0106870Y0092795D01*
X0106186Y0092572D01*
X0105545Y0092245D01*
X0104696Y0094099D02*
X0105337Y0094425D01*
X0105919Y0094848D01*
X0106428Y0095357D01*
X0106851Y0095939D01*
X0107178Y0096581D01*
X0107400Y0097265D01*
X0107513Y0097976D01*
X0107513Y0098250D01*
X0103027Y0098250D01*
X0103027Y0093764D01*
X0103301Y0093764D01*
X0104011Y0093876D01*
X0104696Y0094099D01*
X0103027Y0095315D02*
X0102855Y0095315D01*
X0102855Y0096914D02*
X0103027Y0096914D01*
X0102941Y0098335D02*
X0107941Y0093335D01*
X0107941Y0088335D01*
X0107855Y0088921D02*
X0108027Y0088921D01*
X0108027Y0090519D02*
X0107855Y0090519D01*
X0107855Y0092118D02*
X0108027Y0092118D01*
X0110512Y0092118D02*
X0115649Y0092118D01*
X0114114Y0090519D02*
X0111959Y0090519D01*
X0112477Y0088921D02*
X0113569Y0088921D01*
X0113629Y0087322D02*
X0112409Y0087322D01*
X0109779Y0095315D02*
X0106386Y0095315D01*
X0107286Y0096914D02*
X0108798Y0096914D01*
X0108569Y0098512D02*
X0107513Y0098512D01*
X0107398Y0100111D02*
X0107167Y0100111D01*
X0103923Y0090519D02*
X0101768Y0090519D01*
X0102313Y0088921D02*
X0103405Y0088921D01*
X0103473Y0087322D02*
X0102253Y0087322D01*
X0143236Y0058549D02*
X0271075Y0058549D01*
X0272605Y0056951D02*
X0143236Y0056951D01*
X0143236Y0055352D02*
X0274203Y0055352D01*
X0276110Y0056839D02*
X0273157Y0059792D01*
X0273157Y0075540D01*
X0274142Y0076524D01*
X0281031Y0076524D01*
X0284969Y0080461D01*
X0295598Y0080461D01*
X0295677Y0080540D01*
X0292275Y0084125D02*
X0283775Y0084125D01*
X0283775Y0085724D02*
X0305375Y0085724D01*
X0305375Y0087322D02*
X0283775Y0087322D01*
X0283341Y0088921D02*
X0305809Y0088921D01*
X0307117Y0090519D02*
X0282033Y0090519D01*
X0287921Y0088335D02*
X0271681Y0104576D01*
X0287027Y0106505D02*
X0245944Y0106505D01*
X0244345Y0104906D02*
X0288329Y0104906D01*
X0288329Y0103308D02*
X0242747Y0103308D01*
X0241148Y0101709D02*
X0288329Y0101709D01*
X0288329Y0100111D02*
X0239550Y0100111D01*
X0237951Y0098512D02*
X0288329Y0098512D01*
X0288329Y0096914D02*
X0236353Y0096914D01*
X0234754Y0095315D02*
X0288329Y0095315D01*
X0288624Y0093716D02*
X0233156Y0093716D01*
X0230687Y0092118D02*
X0317690Y0092118D01*
X0316543Y0090519D02*
X0312033Y0090519D01*
X0313341Y0088921D02*
X0315809Y0088921D01*
X0315375Y0087322D02*
X0313775Y0087322D01*
X0313775Y0085724D02*
X0315375Y0085724D01*
X0315375Y0084125D02*
X0313775Y0084125D01*
X0313775Y0082527D02*
X0315375Y0082527D01*
X0315405Y0080928D02*
X0313744Y0080928D01*
X0313007Y0079330D02*
X0316143Y0079330D01*
X0315086Y0077852D02*
X0314628Y0077729D01*
X0314218Y0077492D01*
X0313882Y0077157D01*
X0313645Y0076747D01*
X0313523Y0076289D01*
X0313523Y0074268D01*
X0317894Y0074268D01*
X0317894Y0077852D01*
X0315086Y0077852D01*
X0314636Y0077731D02*
X0310636Y0077731D01*
X0308513Y0077731D02*
X0307258Y0077731D01*
X0302986Y0074534D02*
X0313523Y0074534D01*
X0313523Y0072936D02*
X0302986Y0072936D01*
X0302986Y0071337D02*
X0313693Y0071337D01*
X0312813Y0069739D02*
X0316336Y0069739D01*
X0315485Y0068140D02*
X0313664Y0068140D01*
X0313775Y0066542D02*
X0315375Y0066542D01*
X0315375Y0064943D02*
X0313775Y0064943D01*
X0313775Y0063345D02*
X0315375Y0063345D01*
X0315375Y0061746D02*
X0313775Y0061746D01*
X0313421Y0060148D02*
X0315729Y0060148D01*
X0316924Y0058549D02*
X0312775Y0058549D01*
X0313005Y0056951D02*
X0329742Y0056951D01*
X0329742Y0056319D02*
X0329742Y0057990D01*
X0330381Y0059533D01*
X0331563Y0060715D01*
X0333106Y0061354D01*
X0339977Y0061354D01*
X0341521Y0060715D01*
X0342702Y0059533D01*
X0343342Y0057990D01*
X0343342Y0056319D01*
X0342702Y0054775D01*
X0341521Y0053594D01*
X0339977Y0052954D01*
X0333106Y0052954D01*
X0331563Y0053594D01*
X0330381Y0054775D01*
X0329742Y0056319D01*
X0330142Y0055352D02*
X0314603Y0055352D01*
X0316202Y0053754D02*
X0331403Y0053754D01*
X0329973Y0058549D02*
X0322226Y0058549D01*
X0323421Y0060148D02*
X0330995Y0060148D01*
X0332164Y0063345D02*
X0323775Y0063345D01*
X0323775Y0064943D02*
X0326473Y0064943D01*
X0324874Y0066542D02*
X0323775Y0066542D01*
X0323775Y0061746D02*
X0345258Y0061746D01*
X0345258Y0060148D02*
X0342088Y0060148D01*
X0343110Y0058549D02*
X0345258Y0058549D01*
X0345258Y0056951D02*
X0343342Y0056951D01*
X0342941Y0055352D02*
X0345627Y0055352D01*
X0345627Y0053754D02*
X0341681Y0053754D01*
X0340920Y0063345D02*
X0345747Y0063345D01*
X0342772Y0064943D02*
X0348998Y0064943D01*
X0348998Y0066542D02*
X0343342Y0066542D01*
X0343279Y0068140D02*
X0348998Y0068140D01*
X0348998Y0069739D02*
X0342497Y0069739D01*
X0340018Y0071337D02*
X0348998Y0071337D01*
X0345468Y0072936D02*
X0331096Y0072936D01*
X0331096Y0071337D02*
X0333065Y0071337D01*
X0330622Y0074534D02*
X0330438Y0074534D01*
X0326740Y0077824D02*
X0326740Y0084831D01*
X0327291Y0085383D01*
X0319289Y0093716D02*
X0297140Y0093716D01*
X0292882Y0097233D02*
X0303630Y0097233D01*
X0303669Y0097194D01*
X0307054Y0095315D02*
X0308059Y0095315D01*
X0309575Y0097194D02*
X0347961Y0097194D01*
X0353866Y0091288D01*
X0353866Y0090304D01*
X0349929Y0086367D02*
X0349929Y0083414D01*
X0361740Y0083414D01*
X0369142Y0077981D02*
X0369614Y0077509D01*
X0369142Y0077154D02*
X0370756Y0075540D01*
X0385362Y0075540D01*
X0389063Y0071839D01*
X0389063Y0059831D01*
X0389102Y0059792D01*
X0396189Y0059792D01*
X0397173Y0058808D01*
X0397173Y0044044D01*
X0400557Y0044163D02*
X0404211Y0044163D01*
X0401944Y0045761D02*
X0400557Y0045761D01*
X0400794Y0047360D02*
X0399689Y0047360D01*
X0399573Y0048958D02*
X0400132Y0048958D01*
X0400050Y0050557D02*
X0399573Y0050557D01*
X0399573Y0052155D02*
X0400145Y0052155D01*
X0399573Y0053754D02*
X0400808Y0053754D01*
X0401977Y0055352D02*
X0399573Y0055352D01*
X0399573Y0056951D02*
X0404291Y0056951D01*
X0399573Y0058549D02*
X0412058Y0058549D01*
X0412058Y0056951D02*
X0409741Y0056951D01*
X0412054Y0055352D02*
X0412058Y0055352D01*
X0412058Y0060148D02*
X0399216Y0060148D01*
X0398533Y0060842D02*
X0398533Y0060842D01*
X0397629Y0061746D02*
X0412058Y0061746D01*
X0412058Y0063345D02*
X0393222Y0063345D01*
X0391463Y0064943D02*
X0407546Y0064943D01*
X0407279Y0065137D02*
X0407997Y0064615D01*
X0408788Y0064212D01*
X0409632Y0063938D01*
X0410473Y0063805D01*
X0410473Y0068958D01*
X0405320Y0068958D01*
X0405453Y0068117D01*
X0405727Y0067273D01*
X0406130Y0066483D01*
X0406652Y0065765D01*
X0407279Y0065137D01*
X0406100Y0066542D02*
X0391463Y0066542D01*
X0391463Y0068140D02*
X0405449Y0068140D01*
X0405320Y0069917D02*
X0410473Y0069917D01*
X0410473Y0075071D01*
X0409632Y0074938D01*
X0408788Y0074663D01*
X0407997Y0074260D01*
X0407279Y0073739D01*
X0406652Y0073111D01*
X0406130Y0072393D01*
X0405727Y0071602D01*
X0405453Y0070758D01*
X0405320Y0069917D01*
X0405641Y0071337D02*
X0391463Y0071337D01*
X0391463Y0069739D02*
X0410473Y0069739D01*
X0410473Y0071337D02*
X0411432Y0071337D01*
X0411432Y0072936D02*
X0410473Y0072936D01*
X0410473Y0074534D02*
X0411432Y0074534D01*
X0412058Y0076133D02*
X0402572Y0076133D01*
X0402612Y0077731D02*
X0412058Y0077731D01*
X0408535Y0074534D02*
X0401909Y0074534D01*
X0400489Y0072936D02*
X0406525Y0072936D01*
X0410473Y0068140D02*
X0411432Y0068140D01*
X0411432Y0066542D02*
X0410473Y0066542D01*
X0410473Y0064943D02*
X0411432Y0064943D01*
X0407240Y0079330D02*
X0402224Y0079330D01*
X0401248Y0080928D02*
X0405553Y0080928D01*
X0404891Y0082527D02*
X0398795Y0082527D01*
X0395552Y0082527D02*
X0390013Y0082527D01*
X0390003Y0080928D02*
X0393098Y0080928D01*
X0392122Y0079330D02*
X0389340Y0079330D01*
X0387961Y0077731D02*
X0391735Y0077731D01*
X0391775Y0076133D02*
X0388164Y0076133D01*
X0389762Y0074534D02*
X0392437Y0074534D01*
X0391207Y0072936D02*
X0393858Y0072936D01*
X0384378Y0069635D02*
X0384378Y0066682D01*
X0384378Y0069635D02*
X0381425Y0072587D01*
X0365677Y0072587D01*
X0362291Y0075973D01*
X0360795Y0075973D01*
X0361307Y0075973D01*
X0369142Y0077981D02*
X0369142Y0088847D01*
X0388578Y0085724D02*
X0392205Y0085724D01*
X0393298Y0084125D02*
X0389596Y0084125D01*
X0377488Y0067154D02*
X0369142Y0067154D01*
X0362724Y0065698D02*
X0362724Y0064713D01*
X0363118Y0053493D02*
X0364063Y0052548D01*
X0364063Y0047036D01*
X0363118Y0053493D02*
X0361740Y0053493D01*
X0379457Y0062745D02*
X0379457Y0065186D01*
X0377488Y0067154D01*
X0379457Y0062745D02*
X0381583Y0060619D01*
X0381583Y0059831D01*
X0400557Y0042564D02*
X0412058Y0042564D01*
X0412058Y0044163D02*
X0409820Y0044163D01*
X0405896Y0103308D02*
X0393891Y0103308D01*
X0393891Y0104906D02*
X0406584Y0104906D01*
X0389339Y0109438D02*
X0389339Y0113965D01*
X0390283Y0114910D01*
X0387626Y0123031D02*
X0381773Y0123031D01*
X0380597Y0122544D01*
X0379697Y0121644D01*
X0377728Y0119676D01*
X0377588Y0119336D01*
X0376264Y0120660D01*
X0375364Y0121560D01*
X0374188Y0122047D01*
X0372157Y0122047D01*
X0371088Y0123116D01*
X0370493Y0123363D01*
X0370493Y0126813D01*
X0366121Y0126813D01*
X0366121Y0124791D01*
X0366244Y0124334D01*
X0366481Y0123923D01*
X0366648Y0123756D01*
X0362673Y0123756D01*
X0361130Y0123116D01*
X0361003Y0122990D01*
X0361003Y0125199D01*
X0362973Y0127169D01*
X0365434Y0127169D01*
X0366121Y0127855D01*
X0366121Y0127181D01*
X0370493Y0127181D01*
X0370493Y0130765D01*
X0367684Y0130765D01*
X0367226Y0130643D01*
X0366816Y0130406D01*
X0366481Y0130071D01*
X0366372Y0129881D01*
X0366372Y0131796D01*
X0367259Y0130909D01*
X0374096Y0130909D01*
X0375033Y0131846D01*
X0375033Y0132195D01*
X0378463Y0132195D01*
X0387626Y0123031D01*
X0386570Y0124088D02*
X0374969Y0124088D01*
X0374873Y0123923D02*
X0375110Y0124334D01*
X0375233Y0124791D01*
X0375233Y0126813D01*
X0370861Y0126813D01*
X0370861Y0123228D01*
X0373670Y0123228D01*
X0374128Y0123351D01*
X0374538Y0123588D01*
X0374873Y0123923D01*
X0375233Y0125687D02*
X0384971Y0125687D01*
X0383373Y0127285D02*
X0375233Y0127285D01*
X0375233Y0127181D02*
X0375233Y0129202D01*
X0375110Y0129660D01*
X0374873Y0130071D01*
X0374538Y0130406D01*
X0374128Y0130643D01*
X0373670Y0130765D01*
X0370861Y0130765D01*
X0370861Y0127181D01*
X0370493Y0127181D01*
X0370493Y0126813D01*
X0370861Y0126813D01*
X0370861Y0127181D01*
X0375233Y0127181D01*
X0375795Y0126997D02*
X0377488Y0128690D01*
X0375233Y0128884D02*
X0381774Y0128884D01*
X0380176Y0130482D02*
X0374406Y0130482D01*
X0375033Y0132081D02*
X0378577Y0132081D01*
X0384507Y0136876D02*
X0389044Y0136876D01*
X0389027Y0138475D02*
X0382908Y0138475D01*
X0381310Y0140073D02*
X0389027Y0140073D01*
X0389473Y0135278D02*
X0386105Y0135278D01*
X0387704Y0133679D02*
X0389959Y0133679D01*
X0389302Y0132081D02*
X0390882Y0132081D01*
X0390901Y0130482D02*
X0392072Y0130482D01*
X0380542Y0122490D02*
X0371715Y0122490D01*
X0370861Y0124088D02*
X0370493Y0124088D01*
X0370493Y0125687D02*
X0370861Y0125687D01*
X0370677Y0126997D02*
X0375795Y0126997D01*
X0370861Y0127285D02*
X0370493Y0127285D01*
X0370493Y0128884D02*
X0370861Y0128884D01*
X0370861Y0130482D02*
X0370493Y0130482D01*
X0366949Y0130482D02*
X0366372Y0130482D01*
X0366321Y0133419D02*
X0365434Y0134305D01*
X0358597Y0134305D01*
X0357660Y0133368D01*
X0357660Y0130907D01*
X0355090Y0128337D01*
X0354603Y0127161D01*
X0354603Y0123413D01*
X0354298Y0123413D01*
X0354298Y0130151D01*
X0353932Y0131034D01*
X0349298Y0135668D01*
X0349331Y0135668D01*
X0350015Y0135776D01*
X0350673Y0135990D01*
X0351290Y0136305D01*
X0351851Y0136712D01*
X0352340Y0137201D01*
X0352747Y0137762D01*
X0353062Y0138379D01*
X0353129Y0138586D01*
X0353253Y0138372D01*
X0353588Y0138037D01*
X0353998Y0137800D01*
X0354456Y0137677D01*
X0356772Y0137677D01*
X0356772Y0141950D01*
X0357731Y0141950D01*
X0357731Y0137677D01*
X0360048Y0137677D01*
X0360506Y0137800D01*
X0360916Y0138037D01*
X0361134Y0138254D01*
X0361510Y0137877D01*
X0367090Y0137877D01*
X0366321Y0137108D01*
X0366321Y0133419D01*
X0366321Y0133679D02*
X0366061Y0133679D01*
X0366321Y0135278D02*
X0349688Y0135278D01*
X0351286Y0133679D02*
X0357971Y0133679D01*
X0357660Y0132081D02*
X0352885Y0132081D01*
X0354161Y0130482D02*
X0357236Y0130482D01*
X0355637Y0128884D02*
X0354298Y0128884D01*
X0354298Y0127285D02*
X0354655Y0127285D01*
X0354603Y0125687D02*
X0354298Y0125687D01*
X0354298Y0124088D02*
X0354603Y0124088D01*
X0351898Y0120816D02*
X0352882Y0119831D01*
X0351898Y0120816D02*
X0351898Y0129674D01*
X0341504Y0140068D01*
X0338984Y0140068D01*
X0345008Y0130658D02*
X0346976Y0128690D01*
X0346976Y0117863D01*
X0345008Y0130658D02*
X0316465Y0130658D01*
X0310559Y0136564D01*
X0310559Y0173965D01*
X0343287Y0176839D02*
X0348945Y0176839D01*
X0348945Y0175241D02*
X0343855Y0175241D01*
X0344061Y0173642D02*
X0348945Y0173642D01*
X0348945Y0172044D02*
X0344061Y0172044D01*
X0344061Y0170445D02*
X0348945Y0170445D01*
X0348945Y0168847D02*
X0343949Y0168847D01*
X0346362Y0165649D02*
X0352631Y0165649D01*
X0350418Y0164051D02*
X0348574Y0164051D01*
X0349401Y0162452D02*
X0349591Y0162452D01*
X0349592Y0159255D02*
X0349401Y0159255D01*
X0348572Y0157657D02*
X0350420Y0157657D01*
X0352636Y0156058D02*
X0346356Y0156058D01*
X0352479Y0147943D02*
X0361730Y0147943D01*
X0362332Y0147341D01*
X0362332Y0146983D01*
X0361510Y0146983D01*
X0361134Y0146606D01*
X0360916Y0146823D01*
X0360506Y0147060D01*
X0360048Y0147183D01*
X0357731Y0147183D01*
X0357731Y0142910D01*
X0356772Y0142910D01*
X0356772Y0147183D01*
X0354456Y0147183D01*
X0353998Y0147060D01*
X0353588Y0146823D01*
X0353253Y0146488D01*
X0353228Y0146445D01*
X0353062Y0146957D01*
X0352747Y0147574D01*
X0352479Y0147943D01*
X0353221Y0146467D02*
X0353241Y0146467D01*
X0356772Y0146467D02*
X0357731Y0146467D01*
X0357731Y0144869D02*
X0356772Y0144869D01*
X0356772Y0143270D02*
X0357731Y0143270D01*
X0357731Y0141672D02*
X0356772Y0141672D01*
X0356772Y0140073D02*
X0357731Y0140073D01*
X0357731Y0138475D02*
X0356772Y0138475D01*
X0353193Y0138475D02*
X0353093Y0138475D01*
X0352015Y0136876D02*
X0366321Y0136876D01*
X0364732Y0142430D02*
X0364732Y0148335D01*
X0362724Y0150343D01*
X0365551Y0127285D02*
X0366121Y0127285D01*
X0366121Y0125687D02*
X0361491Y0125687D01*
X0361003Y0124088D02*
X0366386Y0124088D01*
X0376033Y0120891D02*
X0378944Y0120891D01*
X0323042Y0074534D02*
X0322635Y0074534D01*
X0318263Y0074534D02*
X0317894Y0074534D01*
X0318079Y0074083D02*
X0307134Y0074083D01*
X0306622Y0073572D01*
X0306336Y0069739D02*
X0303169Y0069739D01*
X0304768Y0068140D02*
X0305485Y0068140D01*
X0301150Y0061328D02*
X0295795Y0066682D01*
X0288906Y0066682D01*
X0287921Y0067666D01*
X0287921Y0071603D01*
X0286937Y0072587D01*
X0299079Y0084125D02*
X0304737Y0084125D01*
X0302150Y0076133D02*
X0313523Y0076133D01*
X0317894Y0076133D02*
X0318263Y0076133D01*
X0318263Y0077731D02*
X0317894Y0077731D01*
X0309575Y0097194D02*
X0305638Y0101131D01*
X0305638Y0107036D01*
X0290874Y0088335D02*
X0287921Y0088335D01*
X0301150Y0061328D02*
X0301150Y0054831D01*
X0297650Y0050557D02*
X0297169Y0050557D01*
X0292775Y0048958D02*
X0306041Y0048958D01*
X0307639Y0047360D02*
X0293274Y0047360D01*
X0293274Y0045761D02*
X0309238Y0045761D01*
X0310836Y0044163D02*
X0293274Y0044163D01*
X0289890Y0046013D02*
X0289890Y0051918D01*
X0292803Y0054831D01*
X0293669Y0054831D01*
X0287490Y0052155D02*
X0143236Y0052155D01*
X0143236Y0050557D02*
X0287490Y0050557D01*
X0287004Y0048958D02*
X0143236Y0048958D01*
X0143236Y0047360D02*
X0286506Y0047360D01*
X0286506Y0045761D02*
X0143236Y0045761D01*
X0143236Y0044163D02*
X0286506Y0044163D01*
X0283207Y0053754D02*
X0143236Y0053754D01*
X0143511Y0042564D02*
X0312435Y0042564D01*
X0285953Y0056839D02*
X0276110Y0056839D01*
X0229552Y0101709D02*
X0218510Y0101709D01*
X0218562Y0101761D02*
X0221515Y0104714D01*
X0222139Y0106221D01*
X0222139Y0116165D01*
X0228619Y0122644D01*
X0228619Y0111636D01*
X0228435Y0111452D01*
X0228435Y0106558D01*
X0229372Y0105620D01*
X0233463Y0105620D01*
X0228152Y0100309D01*
X0216689Y0100309D01*
X0217409Y0100608D01*
X0218562Y0101761D01*
X0220109Y0103308D02*
X0231150Y0103308D01*
X0232749Y0104906D02*
X0221595Y0104906D01*
X0222139Y0106505D02*
X0228488Y0106505D01*
X0228435Y0108103D02*
X0222139Y0108103D01*
X0222139Y0109702D02*
X0228435Y0109702D01*
X0228435Y0111300D02*
X0222139Y0111300D01*
X0222139Y0112899D02*
X0228619Y0112899D01*
X0228619Y0114497D02*
X0222139Y0114497D01*
X0222139Y0116096D02*
X0228619Y0116096D01*
X0228619Y0117694D02*
X0223669Y0117694D01*
X0225267Y0119293D02*
X0228619Y0119293D01*
X0228619Y0120891D02*
X0226866Y0120891D01*
X0228464Y0122490D02*
X0228619Y0122490D01*
X0213939Y0112899D02*
X0213531Y0112899D01*
X0213939Y0111300D02*
X0197590Y0111300D01*
X0199188Y0112899D02*
X0207036Y0112899D01*
X0202266Y0108103D02*
X0194393Y0108103D01*
X0195991Y0109702D02*
X0213939Y0109702D01*
X0199898Y0106505D02*
X0192794Y0106505D01*
X0191196Y0104906D02*
X0198300Y0104906D01*
X0196701Y0103308D02*
X0189597Y0103308D01*
X0189516Y0101709D02*
X0195103Y0101709D01*
X0193504Y0100111D02*
X0189516Y0100111D01*
X0189516Y0098512D02*
X0192394Y0098512D01*
X0192116Y0096914D02*
X0189516Y0096914D01*
X0189516Y0095315D02*
X0192116Y0095315D01*
X0192116Y0093716D02*
X0189516Y0093716D01*
X0189516Y0092118D02*
X0192116Y0092118D01*
X0192116Y0090519D02*
X0189516Y0090519D01*
X0189516Y0088921D02*
X0192116Y0088921D01*
X0192116Y0087322D02*
X0189516Y0087322D01*
X0189516Y0085724D02*
X0192116Y0085724D01*
X0192116Y0084125D02*
X0189516Y0084125D01*
X0189516Y0082527D02*
X0192116Y0082527D01*
X0192116Y0080928D02*
X0189516Y0080928D01*
X0189516Y0079330D02*
X0192116Y0079330D01*
X0191616Y0077731D02*
X0190016Y0077731D01*
X0190016Y0076133D02*
X0191616Y0076133D01*
X0191976Y0074534D02*
X0189655Y0074534D01*
X0200455Y0074534D02*
X0202776Y0074534D01*
X0202416Y0076133D02*
X0200816Y0076133D01*
X0200816Y0077731D02*
X0202416Y0077731D01*
X0202916Y0079330D02*
X0200316Y0079330D01*
X0200316Y0080928D02*
X0202916Y0080928D01*
X0202916Y0082527D02*
X0200316Y0082527D01*
X0200316Y0084125D02*
X0202916Y0084125D01*
X0202916Y0085724D02*
X0200316Y0085724D01*
X0200316Y0087322D02*
X0202916Y0087322D01*
X0202916Y0088921D02*
X0200316Y0088921D01*
X0200316Y0090519D02*
X0203156Y0090519D01*
X0204213Y0092118D02*
X0200316Y0092118D01*
X0200316Y0093716D02*
X0205811Y0093716D01*
X0207410Y0095315D02*
X0200316Y0095315D01*
X0201904Y0096914D02*
X0209008Y0096914D01*
X0210607Y0098512D02*
X0203502Y0098512D01*
X0157036Y0112899D02*
X0145636Y0112899D01*
X0145636Y0114497D02*
X0155225Y0114497D01*
X0154360Y0116096D02*
X0145636Y0116096D01*
X0145636Y0117694D02*
X0153909Y0117694D01*
X0153909Y0119293D02*
X0145636Y0119293D01*
X0145636Y0120891D02*
X0154393Y0120891D01*
X0144220Y0137548D02*
X0138472Y0137548D01*
X0138394Y0135501D01*
X0160283Y0148454D02*
X0160362Y0148375D01*
X0162946Y0141672D02*
X0163474Y0141672D01*
X0165874Y0165146D02*
X0165874Y0171013D01*
X0168827Y0171013D01*
X0170795Y0172981D01*
X0170795Y0184792D01*
X0168827Y0186761D01*
X0168827Y0192666D01*
X0170795Y0194635D01*
X0172764Y0189713D02*
X0173354Y0189123D01*
X0173354Y0165146D01*
X0183354Y0165146D01*
X0183748Y0165540D01*
X0175754Y0172044D02*
X0215087Y0172044D01*
X0215087Y0173642D02*
X0180240Y0173642D01*
X0177685Y0176918D02*
X0177685Y0187745D01*
X0180638Y0190698D01*
X0186543Y0190698D01*
X0190480Y0194635D01*
X0190465Y0191226D02*
X0193986Y0191226D01*
X0193986Y0192824D02*
X0193865Y0192824D01*
X0193421Y0189627D02*
X0188867Y0189627D01*
X0193002Y0188029D02*
X0181363Y0188029D01*
X0180085Y0186430D02*
X0193002Y0186430D01*
X0193002Y0184832D02*
X0180085Y0184832D01*
X0200323Y0183808D02*
X0200323Y0193650D01*
X0206228Y0199556D01*
X0209181Y0199556D01*
X0210165Y0198572D01*
X0216622Y0199005D02*
X0223787Y0199005D01*
X0231268Y0199005D02*
X0231701Y0198572D01*
X0234772Y0198572D01*
X0238709Y0194635D01*
X0247567Y0194635D01*
X0234143Y0207211D02*
X0220008Y0207211D01*
X0220008Y0208809D02*
X0234143Y0208809D01*
X0233321Y0210408D02*
X0220008Y0210408D01*
X0220008Y0212006D02*
X0231722Y0212006D01*
X0229626Y0229590D02*
X0227817Y0229590D01*
X0226218Y0231188D02*
X0230868Y0231188D01*
X0234344Y0240780D02*
X0234445Y0240780D01*
X0232847Y0242378D02*
X0220008Y0242378D01*
X0220008Y0243977D02*
X0231248Y0243977D01*
X0229650Y0245575D02*
X0220008Y0245575D01*
X0220008Y0251969D02*
X0237035Y0251969D01*
X0235585Y0253568D02*
X0234969Y0253568D01*
X0237724Y0254674D02*
X0237724Y0259595D01*
X0235756Y0261564D01*
X0232803Y0261564D01*
X0231819Y0260580D01*
X0231819Y0256643D01*
X0228238Y0256765D02*
X0220008Y0256765D01*
X0220008Y0258363D02*
X0228238Y0258363D01*
X0228913Y0259962D02*
X0220008Y0259962D01*
X0220008Y0261560D02*
X0229627Y0261560D01*
X0231004Y0263159D02*
X0220008Y0263159D01*
X0220008Y0264757D02*
X0235324Y0264757D01*
X0235324Y0266356D02*
X0220008Y0266356D01*
X0220008Y0267954D02*
X0235324Y0267954D01*
X0235324Y0269553D02*
X0220008Y0269553D01*
X0220008Y0271151D02*
X0235324Y0271151D01*
X0235324Y0272750D02*
X0220008Y0272750D01*
X0220008Y0274348D02*
X0235324Y0274348D01*
X0240124Y0274348D02*
X0268789Y0274348D01*
X0268789Y0272750D02*
X0240124Y0272750D01*
X0240124Y0271151D02*
X0252196Y0271151D01*
X0252274Y0271230D02*
X0251093Y0270048D01*
X0250454Y0268505D01*
X0250454Y0261634D01*
X0251093Y0260090D01*
X0252274Y0258909D01*
X0253818Y0258269D01*
X0255489Y0258269D01*
X0257033Y0258909D01*
X0258214Y0260090D01*
X0258854Y0261634D01*
X0258854Y0268505D01*
X0258214Y0270048D01*
X0257033Y0271230D01*
X0255489Y0271869D01*
X0253818Y0271869D01*
X0252274Y0271230D01*
X0250888Y0269553D02*
X0240124Y0269553D01*
X0240124Y0267954D02*
X0250454Y0267954D01*
X0250454Y0266356D02*
X0240124Y0266356D01*
X0240124Y0264757D02*
X0250454Y0264757D01*
X0250454Y0263159D02*
X0240124Y0263159D01*
X0240124Y0261560D02*
X0250484Y0261560D01*
X0251221Y0259962D02*
X0240124Y0259962D01*
X0240124Y0258363D02*
X0253591Y0258363D01*
X0255716Y0258363D02*
X0263591Y0258363D01*
X0265716Y0258363D02*
X0268789Y0258363D01*
X0268789Y0256765D02*
X0240124Y0256765D01*
X0237724Y0254674D02*
X0238709Y0253690D01*
X0244614Y0253690D01*
X0250520Y0247784D01*
X0254101Y0247174D02*
X0268789Y0247174D01*
X0268789Y0248772D02*
X0254101Y0248772D01*
X0254101Y0250371D02*
X0268789Y0250371D01*
X0268789Y0251969D02*
X0249729Y0251969D01*
X0248130Y0253568D02*
X0268789Y0253568D01*
X0268789Y0255166D02*
X0246532Y0255166D01*
X0246649Y0255049D02*
X0246649Y0255049D01*
X0244539Y0250371D02*
X0231642Y0250371D01*
X0233241Y0248772D02*
X0246138Y0248772D01*
X0246939Y0247174D02*
X0234839Y0247174D01*
X0236438Y0245575D02*
X0246939Y0245575D01*
X0254101Y0245575D02*
X0268789Y0245575D01*
X0268789Y0243977D02*
X0238036Y0243977D01*
X0239635Y0242378D02*
X0268789Y0242378D01*
X0268789Y0240780D02*
X0241233Y0240780D01*
X0242832Y0239181D02*
X0268789Y0239181D01*
X0268789Y0237583D02*
X0244430Y0237583D01*
X0254653Y0227991D02*
X0254654Y0227991D01*
X0254653Y0226393D02*
X0254654Y0226393D01*
X0254653Y0224794D02*
X0254654Y0224794D01*
X0254653Y0223196D02*
X0254654Y0223196D01*
X0252956Y0223196D02*
X0252912Y0223196D01*
X0267079Y0235984D02*
X0268789Y0235984D01*
X0268789Y0234385D02*
X0268406Y0234385D01*
X0274142Y0229083D02*
X0274142Y0285186D01*
X0271189Y0288139D01*
X0264299Y0288139D01*
X0253472Y0298965D01*
X0254457Y0301918D02*
X0237724Y0301918D01*
X0231819Y0307824D01*
X0215087Y0293530D02*
X0152526Y0293530D01*
X0152636Y0295129D02*
X0163879Y0295129D01*
X0153510Y0291932D02*
X0215087Y0291932D01*
X0222961Y0285186D02*
X0235756Y0285186D01*
X0237724Y0283217D01*
X0237724Y0259595D01*
X0228238Y0255166D02*
X0220008Y0255166D01*
X0220008Y0253568D02*
X0228669Y0253568D01*
X0215087Y0253568D02*
X0208553Y0253568D01*
X0208553Y0255166D02*
X0215087Y0255166D01*
X0215087Y0256765D02*
X0207968Y0256765D01*
X0206496Y0258363D02*
X0215087Y0258363D01*
X0215087Y0259962D02*
X0205167Y0259962D01*
X0207581Y0261560D02*
X0215087Y0261560D01*
X0215087Y0263159D02*
X0208402Y0263159D01*
X0208553Y0264757D02*
X0215087Y0264757D01*
X0215087Y0266356D02*
X0208137Y0266356D01*
X0206942Y0267954D02*
X0215087Y0267954D01*
X0215087Y0269553D02*
X0155294Y0269553D01*
X0148157Y0264517D02*
X0151110Y0261564D01*
X0164890Y0261564D01*
X0169811Y0256643D01*
X0169811Y0251721D01*
X0171780Y0249753D01*
X0193433Y0249753D01*
X0207909Y0251969D02*
X0215087Y0251969D01*
X0215087Y0271151D02*
X0207172Y0271151D01*
X0208233Y0272750D02*
X0215087Y0272750D01*
X0215087Y0274348D02*
X0208553Y0274348D01*
X0208307Y0275947D02*
X0215087Y0275947D01*
X0215087Y0277545D02*
X0207351Y0277545D01*
X0166858Y0255658D02*
X0163906Y0258611D01*
X0149142Y0258611D01*
X0145205Y0262548D01*
X0145205Y0277312D01*
X0133394Y0289123D01*
X0125520Y0289123D01*
X0124424Y0285739D02*
X0127967Y0285739D01*
X0128904Y0286676D01*
X0128904Y0286723D01*
X0132400Y0286723D01*
X0142805Y0276318D01*
X0142805Y0262071D01*
X0143170Y0261189D01*
X0147107Y0257252D01*
X0147400Y0256958D01*
X0146798Y0256709D01*
X0146179Y0256090D01*
X0119624Y0256090D01*
X0118077Y0257637D01*
X0118077Y0261554D01*
X0120974Y0264450D01*
X0121649Y0265126D01*
X0122014Y0266008D01*
X0122014Y0266596D01*
X0130066Y0258545D01*
X0130948Y0258180D01*
X0134734Y0258180D01*
X0134734Y0257936D01*
X0135671Y0256998D01*
X0140959Y0256998D01*
X0141896Y0257936D01*
X0141896Y0263223D01*
X0140959Y0264161D01*
X0135671Y0264161D01*
X0134734Y0263223D01*
X0134734Y0262980D01*
X0132419Y0262980D01*
X0124967Y0270432D01*
X0124967Y0284679D01*
X0124602Y0285561D01*
X0124424Y0285739D01*
X0124611Y0285538D02*
X0133585Y0285538D01*
X0135183Y0283939D02*
X0124967Y0283939D01*
X0124967Y0282341D02*
X0136782Y0282341D01*
X0138380Y0280742D02*
X0124967Y0280742D01*
X0124967Y0279144D02*
X0139979Y0279144D01*
X0141577Y0277545D02*
X0124967Y0277545D01*
X0124967Y0275947D02*
X0142805Y0275947D01*
X0142805Y0274348D02*
X0124967Y0274348D01*
X0124967Y0272750D02*
X0142805Y0272750D01*
X0142805Y0271151D02*
X0124967Y0271151D01*
X0125846Y0269553D02*
X0142805Y0269553D01*
X0142805Y0267954D02*
X0127445Y0267954D01*
X0129043Y0266356D02*
X0142805Y0266356D01*
X0142805Y0264757D02*
X0130642Y0264757D01*
X0132240Y0263159D02*
X0134734Y0263159D01*
X0131425Y0260580D02*
X0122567Y0269438D01*
X0122567Y0284202D01*
X0112724Y0294044D01*
X0097961Y0294044D01*
X0092055Y0299950D01*
X0083197Y0299950D01*
X0090087Y0294044D02*
X0093039Y0291091D01*
X0111740Y0291091D01*
X0119614Y0283217D01*
X0119614Y0266485D01*
X0115677Y0262548D01*
X0115677Y0256643D01*
X0118630Y0253690D01*
X0147173Y0253690D01*
X0148157Y0254674D01*
X0160953Y0254674D01*
X0158431Y0248772D02*
X0164458Y0248772D01*
X0164458Y0247174D02*
X0112792Y0247174D01*
X0112172Y0248772D02*
X0116216Y0248772D01*
X0114618Y0250371D02*
X0112172Y0250371D01*
X0112172Y0251969D02*
X0113019Y0251969D01*
X0109772Y0246800D02*
X0109772Y0264517D01*
X0113709Y0268454D01*
X0118083Y0261560D02*
X0127050Y0261560D01*
X0125452Y0263159D02*
X0119682Y0263159D01*
X0121280Y0264757D02*
X0123853Y0264757D01*
X0122255Y0266356D02*
X0122014Y0266356D01*
X0118077Y0259962D02*
X0128649Y0259962D01*
X0130504Y0258363D02*
X0118077Y0258363D01*
X0118949Y0256765D02*
X0146933Y0256765D01*
X0145995Y0258363D02*
X0141896Y0258363D01*
X0141896Y0259962D02*
X0144397Y0259962D01*
X0143016Y0261560D02*
X0141896Y0261560D01*
X0141896Y0263159D02*
X0142805Y0263159D01*
X0138315Y0260580D02*
X0131425Y0260580D01*
X0126202Y0245575D02*
X0164458Y0245575D01*
X0164458Y0243977D02*
X0159613Y0243977D01*
X0159613Y0242378D02*
X0164458Y0242378D01*
X0164716Y0240780D02*
X0159613Y0240780D01*
X0156031Y0241879D02*
X0126504Y0241879D01*
X0124535Y0243847D01*
X0112724Y0243847D01*
X0109772Y0246800D01*
X0099929Y0245816D02*
X0093039Y0238926D01*
X0093039Y0215304D01*
X0088118Y0210383D01*
X0088118Y0205461D01*
X0090995Y0208809D02*
X0104350Y0208809D01*
X0104350Y0210408D02*
X0091537Y0210408D01*
X0093136Y0212006D02*
X0104550Y0212006D01*
X0104550Y0213605D02*
X0094734Y0213605D01*
X0095439Y0215203D02*
X0104550Y0215203D01*
X0104550Y0216802D02*
X0095439Y0216802D01*
X0095439Y0218400D02*
X0104621Y0218400D01*
X0106387Y0219999D02*
X0095439Y0219999D01*
X0095439Y0221597D02*
X0106765Y0221597D01*
X0108364Y0223196D02*
X0095439Y0223196D01*
X0095439Y0224794D02*
X0108698Y0224794D01*
X0107100Y0226393D02*
X0095439Y0226393D01*
X0095439Y0227991D02*
X0096765Y0227991D01*
X0103094Y0227991D02*
X0105501Y0227991D01*
X0117646Y0233020D02*
X0120598Y0230068D01*
X0130441Y0230068D01*
X0137331Y0236957D01*
X0148157Y0264517D02*
X0148157Y0278296D01*
X0133394Y0293060D01*
X0120598Y0293060D01*
X0103866Y0280265D02*
X0100913Y0280265D01*
X0099929Y0279280D01*
X0099929Y0269438D01*
X0100913Y0268454D01*
X0100913Y0258611D01*
X0095992Y0253690D01*
X0095992Y0246800D01*
X0088118Y0238926D01*
X0084181Y0235973D02*
X0084181Y0242863D01*
X0087134Y0245816D01*
X0091071Y0245816D01*
X0093039Y0247784D01*
X0093039Y0254674D01*
X0096976Y0258611D01*
X0096976Y0265501D01*
X0077646Y0267745D02*
X0077370Y0267469D01*
X0069417Y0267469D01*
X0067488Y0265540D01*
X0067488Y0264359D01*
X0067488Y0256879D02*
X0067488Y0250107D01*
X0067646Y0249950D01*
X0084181Y0235973D02*
X0086150Y0234005D01*
X0087134Y0234005D01*
X0099929Y0245816D02*
X0099929Y0249753D01*
X0113655Y0212904D02*
X0113699Y0212904D01*
X0114261Y0212341D01*
X0114261Y0204930D01*
X0114244Y0204913D01*
X0114026Y0205130D01*
X0113855Y0205229D01*
X0113855Y0207147D01*
X0109582Y0207147D01*
X0109582Y0208106D01*
X0113855Y0208106D01*
X0113855Y0210423D01*
X0113732Y0210881D01*
X0113495Y0211291D01*
X0113278Y0211508D01*
X0113655Y0211885D01*
X0113655Y0212904D01*
X0113655Y0212006D02*
X0114261Y0212006D01*
X0114261Y0210408D02*
X0113855Y0210408D01*
X0113855Y0208809D02*
X0114261Y0208809D01*
X0114261Y0207211D02*
X0109582Y0207211D01*
X0113855Y0205612D02*
X0114261Y0205612D01*
X0144455Y0186430D02*
X0146204Y0186430D01*
X0146387Y0184832D02*
X0144455Y0184832D01*
X0144455Y0183233D02*
X0147103Y0183233D01*
X0148984Y0181635D02*
X0144455Y0181635D01*
X0138868Y0173642D02*
X0138175Y0173642D01*
X0138225Y0172044D02*
X0138868Y0172044D01*
X0141268Y0171013D02*
X0142252Y0170028D01*
X0147173Y0170028D01*
X0134346Y0172044D02*
X0133387Y0172044D01*
X0133387Y0173642D02*
X0134346Y0173642D01*
X0133866Y0175422D02*
X0134378Y0175934D01*
X0090687Y0138475D02*
X0089102Y0138475D01*
X0089102Y0140059D02*
X0092608Y0136554D01*
X0092608Y0134117D01*
X0093204Y0133521D01*
X0093204Y0131492D01*
X0092245Y0131492D01*
X0092245Y0135372D01*
X0089535Y0135372D01*
X0089102Y0135256D01*
X0089102Y0140059D01*
X0089102Y0136876D02*
X0092285Y0136876D01*
X0092245Y0135278D02*
X0092608Y0135278D01*
X0092245Y0133679D02*
X0093045Y0133679D01*
X0093204Y0132081D02*
X0092245Y0132081D01*
X0092724Y0131013D02*
X0093079Y0130658D01*
X0089184Y0135278D02*
X0089102Y0135278D01*
X0054339Y0090619D02*
X0045638Y0090619D01*
X0054339Y0090619D02*
X0055638Y0089320D01*
X0016268Y0198178D02*
X0009378Y0202509D01*
X0009378Y0289123D01*
X0011346Y0291091D01*
X0024142Y0291091D01*
X0025126Y0290107D01*
X0025126Y0284123D01*
X0015283Y0283965D02*
X0015283Y0278296D01*
X0017252Y0276328D01*
X0039890Y0276328D01*
X0037921Y0291091D02*
X0053669Y0291091D01*
X0056622Y0294044D01*
X0056622Y0301131D01*
X0055992Y0301761D01*
X0055992Y0309241D02*
X0055992Y0317036D01*
X0051701Y0317666D01*
X0035126Y0314123D02*
X0035126Y0293887D01*
X0037921Y0291091D01*
X0019969Y0295265D02*
X0019220Y0295028D01*
X0019969Y0295265D02*
X0012685Y0295265D01*
X0015126Y0284123D02*
X0015283Y0283965D01*
X0142252Y0329477D02*
X0147173Y0329477D01*
X0151110Y0333414D01*
X0254457Y0301918D02*
X0265283Y0291091D01*
X0272173Y0291091D01*
X0277094Y0286170D01*
X0277094Y0231052D01*
X0278079Y0230068D01*
X0283000Y0230068D01*
X0296780Y0216288D01*
X0300717Y0216288D01*
X0304101Y0216802D02*
X0312121Y0216802D01*
X0310523Y0218400D02*
X0304101Y0218400D01*
X0304101Y0215203D02*
X0313720Y0215203D01*
X0315318Y0213605D02*
X0303864Y0213605D01*
X0308924Y0219999D02*
X0296463Y0219999D01*
X0294864Y0221597D02*
X0307326Y0221597D01*
X0305727Y0223196D02*
X0293266Y0223196D01*
X0291667Y0224794D02*
X0304706Y0224794D01*
X0304491Y0226393D02*
X0290069Y0226393D01*
X0288470Y0227991D02*
X0304491Y0227991D01*
X0304491Y0229590D02*
X0286872Y0229590D01*
X0299095Y0231188D02*
X0304491Y0231188D01*
X0304491Y0232787D02*
X0300834Y0232787D01*
X0301759Y0234385D02*
X0304491Y0234385D01*
X0304491Y0235984D02*
X0302337Y0235984D01*
X0302337Y0237583D02*
X0304491Y0237583D01*
X0304491Y0239181D02*
X0302069Y0239181D01*
X0301407Y0240780D02*
X0304491Y0240780D01*
X0304491Y0242378D02*
X0299985Y0242378D01*
X0297047Y0243977D02*
X0304491Y0243977D01*
X0304491Y0245575D02*
X0279494Y0245575D01*
X0279494Y0243977D02*
X0283127Y0243977D01*
X0280188Y0242378D02*
X0279494Y0242378D01*
X0279494Y0247174D02*
X0304491Y0247174D01*
X0304491Y0248772D02*
X0296883Y0248772D01*
X0299917Y0250371D02*
X0304491Y0250371D01*
X0312691Y0250775D02*
X0312691Y0253521D01*
X0312066Y0255028D01*
X0309114Y0257981D01*
X0307960Y0259134D01*
X0306453Y0259758D01*
X0301105Y0259758D01*
X0299334Y0261529D01*
X0296789Y0262583D01*
X0283384Y0262583D01*
X0280839Y0261529D01*
X0279494Y0260185D01*
X0279494Y0269632D01*
X0280839Y0268288D01*
X0283384Y0267233D01*
X0296789Y0267233D01*
X0299334Y0268288D01*
X0301282Y0270236D01*
X0302337Y0272781D01*
X0302337Y0275343D01*
X0320674Y0275343D01*
X0320757Y0275260D01*
X0323183Y0274255D01*
X0325809Y0274255D01*
X0328235Y0275260D01*
X0328318Y0275343D01*
X0348945Y0275343D01*
X0348945Y0200703D01*
X0339816Y0200703D01*
X0329190Y0211329D01*
X0333282Y0211329D01*
X0334219Y0212266D01*
X0334219Y0218341D01*
X0333282Y0219279D01*
X0327842Y0219279D01*
X0318680Y0228440D01*
X0318680Y0242988D01*
X0319455Y0243762D01*
X0319455Y0249838D01*
X0318518Y0250775D01*
X0312691Y0250775D01*
X0312691Y0251969D02*
X0348945Y0251969D01*
X0348945Y0250371D02*
X0318922Y0250371D01*
X0319455Y0248772D02*
X0348945Y0248772D01*
X0348945Y0247174D02*
X0319455Y0247174D01*
X0319455Y0245575D02*
X0348945Y0245575D01*
X0348945Y0243977D02*
X0319455Y0243977D01*
X0318680Y0242378D02*
X0348945Y0242378D01*
X0348945Y0240780D02*
X0318680Y0240780D01*
X0318680Y0239181D02*
X0348945Y0239181D01*
X0348945Y0237583D02*
X0318680Y0237583D01*
X0318680Y0235984D02*
X0348945Y0235984D01*
X0348945Y0234385D02*
X0318680Y0234385D01*
X0318680Y0232787D02*
X0348945Y0232787D01*
X0348945Y0231188D02*
X0318680Y0231188D01*
X0318680Y0229590D02*
X0348945Y0229590D01*
X0348945Y0227991D02*
X0319129Y0227991D01*
X0320728Y0226393D02*
X0348945Y0226393D01*
X0348945Y0224794D02*
X0322326Y0224794D01*
X0323925Y0223196D02*
X0348945Y0223196D01*
X0348945Y0221597D02*
X0325523Y0221597D01*
X0327122Y0219999D02*
X0348945Y0219999D01*
X0348945Y0218400D02*
X0334160Y0218400D01*
X0334219Y0216802D02*
X0348945Y0216802D01*
X0348945Y0215203D02*
X0334219Y0215203D01*
X0334219Y0213605D02*
X0348945Y0213605D01*
X0348945Y0212006D02*
X0333959Y0212006D01*
X0331710Y0208809D02*
X0348945Y0208809D01*
X0348945Y0207211D02*
X0333309Y0207211D01*
X0334907Y0205612D02*
X0348945Y0205612D01*
X0348945Y0204014D02*
X0336506Y0204014D01*
X0338104Y0202415D02*
X0348945Y0202415D01*
X0348945Y0200817D02*
X0339703Y0200817D01*
X0346030Y0191226D02*
X0348945Y0191226D01*
X0348945Y0189627D02*
X0346030Y0189627D01*
X0346030Y0188029D02*
X0348945Y0188029D01*
X0348945Y0186430D02*
X0345784Y0186430D01*
X0343287Y0184832D02*
X0348945Y0184832D01*
X0348945Y0183233D02*
X0343287Y0183233D01*
X0343287Y0181635D02*
X0348945Y0181635D01*
X0348945Y0180036D02*
X0343287Y0180036D01*
X0343287Y0178438D02*
X0348945Y0178438D01*
X0348945Y0210408D02*
X0330112Y0210408D01*
X0283290Y0248772D02*
X0279494Y0248772D01*
X0279494Y0250371D02*
X0280256Y0250371D01*
X0268789Y0259962D02*
X0268086Y0259962D01*
X0261221Y0259962D02*
X0258086Y0259962D01*
X0258823Y0261560D02*
X0260484Y0261560D01*
X0260454Y0263159D02*
X0258854Y0263159D01*
X0258854Y0264757D02*
X0260454Y0264757D01*
X0260454Y0266356D02*
X0258854Y0266356D01*
X0258854Y0267954D02*
X0260454Y0267954D01*
X0260888Y0269553D02*
X0258419Y0269553D01*
X0257111Y0271151D02*
X0262196Y0271151D01*
X0267111Y0271151D02*
X0268789Y0271151D01*
X0268789Y0269553D02*
X0268419Y0269553D01*
X0279494Y0269553D02*
X0279574Y0269553D01*
X0279494Y0267954D02*
X0281644Y0267954D01*
X0279494Y0266356D02*
X0348945Y0266356D01*
X0348945Y0267954D02*
X0298530Y0267954D01*
X0300599Y0269553D02*
X0348945Y0269553D01*
X0348945Y0271151D02*
X0301662Y0271151D01*
X0302324Y0272750D02*
X0348945Y0272750D01*
X0348945Y0274348D02*
X0326034Y0274348D01*
X0322958Y0274348D02*
X0302337Y0274348D01*
X0299259Y0261560D02*
X0348945Y0261560D01*
X0348945Y0259962D02*
X0300902Y0259962D01*
X0308731Y0258363D02*
X0348945Y0258363D01*
X0348945Y0256765D02*
X0310330Y0256765D01*
X0311928Y0255166D02*
X0348945Y0255166D01*
X0348945Y0253568D02*
X0312671Y0253568D01*
X0280914Y0261560D02*
X0279494Y0261560D01*
X0279494Y0263159D02*
X0348945Y0263159D01*
X0348945Y0264757D02*
X0279494Y0264757D01*
X0225126Y0179162D02*
X0224929Y0178965D01*
X0224929Y0174950D01*
X0219575Y0169595D01*
X0219575Y0163493D01*
X0205244Y0157233D02*
X0205205Y0157272D01*
X0202186Y0154460D02*
X0202041Y0154460D01*
X0202041Y0152861D02*
X0205676Y0152861D01*
X0204547Y0151263D02*
X0201970Y0151263D01*
X0197882Y0154950D02*
X0197882Y0164635D01*
X0269220Y0136564D02*
X0281031Y0148375D01*
X0281031Y0154280D01*
X0282016Y0155265D01*
X0283258Y0143270D02*
X0285388Y0143270D01*
X0281660Y0141672D02*
X0290184Y0141672D01*
X0288585Y0140073D02*
X0280061Y0140073D01*
X0278463Y0138475D02*
X0286987Y0138475D01*
X0285597Y0136876D02*
X0277526Y0136876D01*
X0278306Y0135278D02*
X0285120Y0135278D01*
X0285120Y0133679D02*
X0278510Y0133679D01*
X0278510Y0132081D02*
X0285120Y0132081D01*
D49*
X0289220Y0134910D02*
X0296780Y0142469D01*
X0296780Y0189280D01*
X0300992Y0193493D01*
X0290992Y0203493D02*
X0280638Y0213847D01*
X0273512Y0213847D01*
X0273512Y0203847D02*
X0272173Y0202509D01*
X0272173Y0168060D01*
X0266268Y0168060D01*
X0272173Y0168060D02*
X0272173Y0161170D01*
X0257409Y0146406D01*
X0257409Y0113926D01*
X0254457Y0110973D01*
X0244614Y0110973D01*
X0229850Y0096209D01*
X0214102Y0096209D01*
X0207016Y0089123D01*
X0207016Y0076800D01*
X0196216Y0076800D02*
X0196216Y0097024D01*
X0203276Y0104083D01*
X0215087Y0104083D01*
X0218039Y0107036D01*
X0218039Y0117863D01*
X0230835Y0130658D01*
X0230835Y0171997D01*
X0232803Y0173965D01*
X0232803Y0187745D01*
X0234772Y0189713D01*
X0239181Y0189713D01*
X0241228Y0189792D01*
X0258394Y0180343D02*
X0264929Y0180698D01*
X0258394Y0180343D02*
X0258394Y0166091D01*
X0249535Y0157233D01*
X0249535Y0121800D01*
X0246189Y0118454D01*
X0239220Y0118454D01*
X0251504Y0101131D02*
X0238709Y0088335D01*
X0238709Y0054871D01*
X0212134Y0054871D01*
X0212416Y0055153D01*
X0212416Y0066800D01*
X0212134Y0054871D02*
X0183591Y0054871D01*
X0176701Y0059792D01*
X0174732Y0061761D01*
X0174732Y0105068D01*
X0210165Y0140501D01*
X0210165Y0148335D01*
X0210283Y0148454D01*
X0210283Y0118454D02*
X0209693Y0117863D01*
X0198354Y0117863D01*
X0185416Y0104924D01*
X0185416Y0076800D01*
X0251504Y0101131D02*
X0268236Y0101131D01*
X0271681Y0104576D01*
X0276110Y0109005D01*
X0276110Y0112942D01*
X0281031Y0117863D01*
X0281031Y0128690D01*
X0281031Y0136564D01*
X0289220Y0144753D01*
X0289220Y0148454D01*
X0289220Y0181721D01*
X0290992Y0183493D01*
X0273157Y0203493D02*
X0273512Y0203847D01*
X0308591Y0226131D02*
X0308591Y0252706D01*
X0305638Y0255658D01*
X0290087Y0255658D01*
X0290087Y0274158D02*
X0290087Y0292863D01*
X0265283Y0317666D01*
X0217055Y0317666D01*
X0208197Y0308808D01*
X0112724Y0308808D01*
X0142252Y0329477D02*
X0144220Y0331446D01*
X0144220Y0338375D01*
X0144102Y0338493D01*
X0142252Y0329477D02*
X0060559Y0329477D01*
X0058669Y0331367D01*
X0058669Y0338493D01*
X0044811Y0343060D02*
X0033157Y0342076D01*
X0029575Y0338493D01*
X0029575Y0331918D01*
X0027449Y0329792D01*
X0027449Y0327863D01*
X0019969Y0327863D02*
X0019969Y0330698D01*
X0016268Y0334398D01*
X0016268Y0338020D01*
X0015795Y0338493D01*
X0025126Y0314123D02*
X0027291Y0311957D01*
X0027291Y0300934D01*
X0025480Y0302745D01*
X0012685Y0302745D01*
X0027291Y0300934D02*
X0027291Y0298965D01*
X0044614Y0298965D02*
X0044614Y0313611D01*
X0045126Y0314123D01*
X0044811Y0314438D01*
X0044811Y0325737D01*
X0063512Y0310776D02*
X0075323Y0322587D01*
X0185559Y0322587D01*
X0189417Y0326446D01*
X0189417Y0338493D01*
X0210165Y0331446D02*
X0210165Y0325540D01*
X0200323Y0315698D01*
X0079260Y0315698D01*
X0075323Y0311761D01*
X0075323Y0284202D01*
X0058157Y0267036D01*
X0058157Y0233611D01*
X0052291Y0232627D01*
X0040874Y0221209D01*
X0040874Y0199910D01*
X0048370Y0192414D01*
X0048370Y0190091D01*
X0050717Y0187745D01*
X0056622Y0187745D01*
X0056937Y0188060D01*
X0057252Y0187745D01*
X0065480Y0187745D01*
X0067449Y0189713D01*
X0067449Y0199398D01*
X0067016Y0199831D01*
X0056937Y0200383D02*
X0056937Y0195540D01*
X0056937Y0200383D02*
X0056465Y0202824D01*
X0056465Y0201091D01*
X0067016Y0211643D01*
X0067016Y0232587D01*
X0088118Y0253690D01*
X0088118Y0269438D01*
X0095008Y0276328D01*
X0064988Y0294536D02*
X0063020Y0291583D01*
X0063020Y0291091D01*
X0063512Y0291583D01*
X0063512Y0310776D01*
X0063020Y0291091D02*
X0063020Y0290599D01*
X0042843Y0270422D01*
X0018236Y0270422D01*
X0014299Y0266485D01*
X0014299Y0250737D01*
X0023157Y0241879D01*
X0026110Y0238926D01*
X0026110Y0166091D01*
X0024142Y0164123D01*
X0024142Y0154280D01*
X0033000Y0134595D02*
X0033000Y0235973D01*
X0033000Y0236957D01*
X0035953Y0239910D01*
X0043827Y0239910D01*
X0050717Y0221209D02*
X0057567Y0221209D01*
X0058157Y0221800D01*
X0056465Y0220107D01*
X0056465Y0214635D01*
X0048370Y0212414D02*
X0048370Y0218863D01*
X0050717Y0221209D01*
X0023157Y0241879D02*
X0020697Y0244339D01*
X0022173Y0242863D02*
X0023157Y0241879D01*
X0087567Y0179320D02*
X0088669Y0180422D01*
X0087567Y0179320D02*
X0073669Y0179320D01*
X0072409Y0178060D01*
X0065441Y0178060D01*
X0073669Y0171839D02*
X0067843Y0166013D01*
X0058157Y0166013D01*
X0054772Y0166013D01*
X0048370Y0172414D01*
X0048370Y0162414D02*
X0048748Y0162036D01*
X0048748Y0155265D01*
X0049811Y0154202D01*
X0050717Y0154202D01*
X0045953Y0149438D01*
X0045953Y0142824D01*
X0045953Y0131013D02*
X0037803Y0131013D01*
X0037803Y0129792D01*
X0033000Y0134595D01*
X0037803Y0129792D02*
X0037803Y0114005D01*
X0048748Y0103099D02*
X0045638Y0099989D01*
X0045638Y0090619D01*
X0038157Y0090619D02*
X0038157Y0085619D01*
X0026110Y0073572D01*
X0012331Y0073572D01*
X0011346Y0074556D01*
X0050717Y0154202D02*
X0058157Y0154202D01*
X0073669Y0171839D02*
X0085441Y0171839D01*
X0088669Y0168611D01*
X0075323Y0171997D02*
X0073827Y0171997D01*
X0073669Y0171839D01*
X0217055Y0317666D02*
X0217055Y0338414D01*
X0216976Y0338493D01*
X0230756Y0338493D02*
X0230756Y0328572D01*
X0234772Y0324556D01*
X0268236Y0324556D01*
X0287921Y0304871D01*
X0289890Y0304871D01*
X0300717Y0307824D02*
X0291858Y0316682D01*
X0285953Y0316682D01*
X0264142Y0338493D01*
X0258315Y0338493D01*
X0308591Y0226131D02*
X0338118Y0196603D01*
X0375520Y0196603D01*
X0383394Y0188729D01*
X0394378Y0188729D01*
X0394063Y0177233D02*
X0379457Y0177233D01*
X0394063Y0177233D02*
X0394378Y0176918D01*
X0394378Y0160973D01*
X0394496Y0160855D01*
X0357252Y0142430D02*
X0351346Y0142430D01*
X0348984Y0140068D01*
X0289220Y0134910D02*
X0289220Y0118454D01*
D50*
X0284969Y0111957D03*
X0301701Y0115894D03*
X0305638Y0120816D03*
X0305638Y0107036D03*
X0303669Y0097194D03*
X0327291Y0085383D03*
X0306622Y0073572D03*
X0286937Y0072587D03*
X0285953Y0056839D03*
X0289890Y0046013D03*
X0353866Y0090304D03*
X0357803Y0105068D03*
X0343039Y0124753D03*
X0333197Y0125737D03*
X0297764Y0134595D03*
X0275126Y0132627D03*
X0237724Y0138532D03*
X0224929Y0136564D03*
X0219024Y0133611D03*
X0211150Y0157233D03*
X0205244Y0157233D03*
X0183591Y0158217D03*
X0165874Y0171013D03*
X0177685Y0176918D03*
X0172764Y0189713D03*
X0173748Y0200540D03*
X0181622Y0210383D03*
X0187528Y0210383D03*
X0190480Y0194635D03*
X0196386Y0186761D03*
X0200323Y0193650D03*
X0169811Y0213335D03*
X0155047Y0250737D03*
X0160953Y0254674D03*
X0125520Y0289123D03*
X0120598Y0293060D03*
X0103866Y0280265D03*
X0089102Y0283217D03*
X0088118Y0288139D03*
X0090087Y0294044D03*
X0096976Y0265501D03*
X0116661Y0220225D03*
X0137528Y0179083D03*
X0107803Y0156249D03*
X0099929Y0165107D03*
X0092055Y0159202D03*
X0095992Y0136564D03*
X0095992Y0111957D03*
X0125520Y0110973D03*
X0126504Y0116879D03*
X0136346Y0094241D03*
X0167843Y0123769D03*
X0166858Y0140501D03*
X0231819Y0109005D03*
X0316465Y0188729D03*
X0314496Y0193650D03*
X0309575Y0198572D03*
X0300717Y0216288D03*
X0265283Y0200540D03*
X0260362Y0195619D03*
X0255441Y0194635D03*
X0222961Y0285186D03*
X0166858Y0297981D03*
X0150126Y0290107D03*
X0151110Y0333414D03*
X0019220Y0295028D03*
X0055638Y0089320D03*
X0361740Y0053493D03*
X0384378Y0066682D03*
X0377882Y0082233D03*
X0411937Y0099162D03*
X0390283Y0114910D03*
X0377488Y0128690D03*
X0397173Y0044044D03*
D51*
X0266268Y0168060D03*
X0289890Y0304871D03*
X0300717Y0307824D03*
X0210165Y0331446D03*
D52*
X0220992Y0311761D02*
X0259378Y0311761D01*
X0270205Y0300934D01*
X0267252Y0295028D02*
X0255441Y0306839D01*
X0239693Y0306839D01*
X0220992Y0311761D02*
X0212134Y0302902D01*
X0104850Y0302902D01*
X0097961Y0309792D01*
X0087134Y0309792D01*
X0083197Y0305855D01*
X0083197Y0299950D01*
X0083197Y0278296D01*
X0068433Y0296997D02*
X0063020Y0291583D01*
X0068433Y0296997D02*
X0069417Y0296997D01*
X0094024Y0303887D02*
X0099929Y0297981D01*
X0134378Y0297981D01*
X0152094Y0280265D01*
X0152094Y0267469D01*
X0154063Y0265501D01*
X0172764Y0265501D01*
X0172764Y0245816D02*
X0183591Y0245816D01*
X0185559Y0243847D01*
X0187528Y0243847D01*
X0218039Y0187745D02*
X0221307Y0187745D01*
X0221386Y0187824D01*
X0218039Y0187745D02*
X0211228Y0180934D01*
X0211228Y0179792D01*
X0239220Y0148454D02*
X0243630Y0144044D01*
X0243630Y0125737D01*
X0237724Y0128690D02*
X0237724Y0138532D01*
X0237724Y0128690D02*
X0231819Y0122784D01*
X0231819Y0109005D01*
X0263315Y0124753D02*
X0267252Y0120816D01*
X0267252Y0118847D01*
X0263315Y0124753D02*
X0263315Y0144438D01*
X0278079Y0159202D01*
X0278079Y0196603D01*
X0315480Y0227115D02*
X0327291Y0215304D01*
X0330244Y0215304D01*
X0332213Y0223178D02*
X0339102Y0216288D01*
X0339102Y0204477D01*
X0341071Y0202509D01*
X0377488Y0202509D01*
X0385362Y0194635D01*
X0401110Y0194635D01*
X0404063Y0191682D01*
X0404063Y0183808D01*
X0404063Y0161288D01*
X0404496Y0160855D01*
X0370795Y0134595D02*
X0370677Y0134477D01*
X0362016Y0130737D02*
X0357803Y0126524D01*
X0357803Y0111957D01*
X0360205Y0109556D01*
X0368709Y0109556D01*
X0369417Y0118847D02*
X0368709Y0119556D01*
X0369417Y0118847D02*
X0373551Y0118847D01*
X0375520Y0116879D01*
X0375520Y0102115D01*
X0370559Y0097154D01*
X0366504Y0097154D01*
X0359772Y0096406D02*
X0359772Y0091288D01*
X0361740Y0089320D01*
X0361740Y0083414D01*
X0360795Y0083454D02*
X0360480Y0083769D01*
X0349890Y0083769D01*
X0349929Y0083808D01*
X0349929Y0086367D01*
X0343039Y0093257D01*
X0323354Y0093257D01*
X0319575Y0089477D01*
X0319575Y0084438D01*
X0309575Y0084438D02*
X0305677Y0080540D01*
X0295677Y0080540D01*
X0299417Y0071879D02*
X0299417Y0068965D01*
X0303669Y0064713D01*
X0309299Y0064713D01*
X0309575Y0064438D01*
X0309575Y0055855D01*
X0316465Y0048965D01*
X0346976Y0048965D01*
X0348827Y0050816D01*
X0348827Y0059438D01*
X0356307Y0059438D02*
X0356307Y0048296D01*
X0356583Y0047036D01*
X0364063Y0047036D02*
X0364654Y0048020D01*
X0364693Y0047981D01*
X0369614Y0041091D02*
X0372567Y0044044D01*
X0372567Y0053729D01*
X0369142Y0057154D01*
X0365362Y0057154D01*
X0362724Y0059792D01*
X0362724Y0065698D01*
X0359772Y0068650D01*
X0353118Y0068650D01*
X0352567Y0068099D01*
X0349890Y0076288D02*
X0349024Y0077154D01*
X0339142Y0077154D01*
X0339142Y0067154D02*
X0338669Y0066682D01*
X0329260Y0066682D01*
X0325598Y0070343D01*
X0326740Y0070343D01*
X0304693Y0054831D02*
X0315480Y0044044D01*
X0346976Y0044044D01*
X0349929Y0041091D01*
X0369614Y0041091D01*
X0410953Y0069438D02*
X0410953Y0074556D01*
X0403866Y0083020D01*
X0403866Y0097391D01*
X0398551Y0102706D01*
X0398709Y0109556D02*
X0389457Y0109556D01*
X0389339Y0109438D01*
X0380441Y0117863D02*
X0380441Y0100146D01*
X0369142Y0088847D01*
X0369142Y0087154D01*
X0369142Y0077154D01*
X0359772Y0096406D02*
X0359024Y0097154D01*
X0380441Y0117863D02*
X0382409Y0119831D01*
X0398433Y0119831D01*
X0398709Y0119556D01*
X0340087Y0171997D02*
X0340087Y0187745D01*
X0342055Y0189713D01*
X0332213Y0223178D02*
X0326307Y0223178D01*
X0322370Y0227115D01*
X0322370Y0250737D01*
X0319417Y0253690D01*
X0315480Y0253690D01*
X0307606Y0261564D01*
X0307606Y0311761D01*
X0295795Y0323572D01*
X0287921Y0323572D01*
X0266268Y0345225D01*
X0247567Y0345225D01*
X0244535Y0342194D01*
X0244535Y0338493D01*
X0267252Y0295028D02*
X0275126Y0295028D01*
X0282016Y0288139D01*
X0315480Y0246800D02*
X0315480Y0227115D01*
X0318984Y0140068D02*
X0328984Y0140068D01*
X0297764Y0134595D02*
X0297764Y0121800D01*
X0296780Y0120816D01*
X0296780Y0111957D01*
X0296780Y0110973D01*
X0299732Y0108020D01*
X0301150Y0054831D02*
X0304693Y0054831D01*
X0175717Y0127706D02*
X0175717Y0141485D01*
X0170795Y0146406D01*
X0170795Y0152745D01*
X0170008Y0153532D01*
X0164850Y0148375D01*
X0160362Y0148375D01*
X0068433Y0123769D02*
X0058669Y0114005D01*
X0037803Y0114005D01*
X0043827Y0178887D02*
X0049732Y0178887D01*
X0050559Y0178060D01*
X0053630Y0178060D01*
D53*
X0024142Y0154280D03*
X0043827Y0239910D03*
X0023157Y0241879D03*
D54*
X0033000Y0235973D02*
X0033000Y0249753D01*
X0021583Y0261170D01*
X0021189Y0263729D01*
D55*
X0083197Y0278296D03*
X0095008Y0276328D03*
X0112724Y0308808D03*
X0068433Y0123769D03*
D56*
X0080126Y0190855D02*
X0080126Y0194713D01*
X0083354Y0197942D01*
X0083354Y0217942D02*
X0079811Y0221485D01*
X0079811Y0225304D01*
X0109102Y0215973D02*
X0109102Y0215107D01*
X0130244Y0219044D02*
X0147370Y0219044D01*
X0147173Y0219241D01*
X0125520Y0234989D02*
X0125520Y0237942D01*
X0123551Y0239910D01*
X0115677Y0239910D01*
D57*
X0043827Y0178887D03*
X0270205Y0300934D03*
X0282016Y0288139D03*
X0315480Y0246800D03*
X0330244Y0215304D03*
X0342055Y0189713D03*
X0340087Y0171997D03*
X0281031Y0128690D03*
D58*
X0210165Y0330461D02*
X0210165Y0331446D01*
X0210165Y0343257D01*
X0208197Y0345225D01*
X0126504Y0345225D01*
X0093039Y0345225D01*
X0086307Y0338493D01*
X0086228Y0338493D01*
X0092961Y0345225D01*
X0093039Y0345225D01*
X0126504Y0345225D02*
X0130323Y0341406D01*
X0130323Y0338493D01*
D59*
X0398551Y0102706D03*
D60*
X0284969Y0201524D03*
X0016268Y0198178D03*
M02*
