G75*
%MOIN*%
%OFA0B0*%
%FSLAX25Y25*%
%IPPOS*%
%LPD*%
%AMOC8*
5,1,8,0,0,1.08239X$1,22.5*
%
%ADD10C,0.15367*%
%ADD11R,0.06706X0.05918*%
%ADD12R,0.05918X0.06706*%
%ADD13OC8,0.07100*%
%ADD14C,0.07100*%
%ADD15C,0.10800*%
%ADD16OC8,0.10800*%
%ADD17R,0.10249X0.07099*%
%ADD18R,0.06312X0.07099*%
%ADD19R,0.04737X0.06312*%
%ADD20R,0.10300X0.10300*%
%ADD21C,0.10300*%
%ADD22C,0.06800*%
%ADD23C,0.06000*%
%ADD24C,0.05800*%
%ADD25C,0.08674*%
%ADD26OC8,0.06800*%
%ADD27C,0.13800*%
%ADD28R,0.08800X0.08800*%
%ADD29C,0.08800*%
%ADD30C,0.08200*%
%ADD31R,0.05524X0.07099*%
%ADD32R,0.07099X0.05524*%
%ADD33OC8,0.06000*%
%ADD34C,0.05200*%
%ADD35R,0.06312X0.04737*%
%ADD36C,0.05200*%
%ADD37C,0.11450*%
%ADD38R,0.05950X0.05950*%
%ADD39C,0.03950*%
%ADD40C,0.08400*%
%ADD41C,0.07887*%
%ADD42C,0.08477*%
%ADD43C,0.05131*%
%ADD44C,0.06343*%
%ADD45C,0.13600*%
%ADD46C,0.08300*%
%ADD47C,0.11300*%
%ADD48R,0.10249X0.10249*%
%ADD49R,0.05524X0.06706*%
%ADD50R,0.04762X0.04762*%
%ADD51R,0.04369X0.04369*%
%ADD52R,0.06706X0.06706*%
%ADD53R,0.08477X0.08477*%
%ADD54R,0.06115X0.06115*%
%ADD55R,0.05550X0.05550*%
%ADD56R,0.05156X0.05156*%
%ADD57C,0.04369*%
D10*
X0019220Y0138532D03*
X0401110Y0138532D03*
D11*
X0389339Y0109438D03*
X0389339Y0101957D03*
X0360795Y0083454D03*
X0360795Y0075973D03*
X0349890Y0076288D03*
X0349890Y0083769D03*
X0292882Y0097233D03*
X0292882Y0104713D03*
X0167803Y0199871D03*
X0167803Y0207351D03*
X0130244Y0211564D03*
X0130244Y0219044D03*
X0109102Y0215107D03*
X0109102Y0207627D03*
X0073669Y0179320D03*
X0073669Y0171839D03*
X0056937Y0188060D03*
X0056937Y0195540D03*
X0067488Y0256879D03*
X0067488Y0264359D03*
X0055992Y0301761D03*
X0055992Y0309241D03*
X0012685Y0302745D03*
X0012685Y0295265D03*
X0149378Y0154753D03*
X0149378Y0147272D03*
X0092724Y0131013D03*
X0092724Y0123532D03*
D12*
X0108394Y0118532D03*
X0115874Y0118532D03*
X0170008Y0153532D03*
X0177488Y0153532D03*
X0173354Y0165146D03*
X0165874Y0165146D03*
X0183748Y0165540D03*
X0191228Y0165540D03*
X0190402Y0154950D03*
X0197882Y0154950D03*
X0212094Y0163493D03*
X0219575Y0163493D03*
X0223787Y0199005D03*
X0231268Y0199005D03*
X0132961Y0202587D03*
X0125480Y0202587D03*
X0117843Y0200737D03*
X0110362Y0200737D03*
X0087606Y0190855D03*
X0080126Y0190855D03*
X0079811Y0225304D03*
X0087291Y0225304D03*
X0126386Y0170265D03*
X0133866Y0170265D03*
X0045638Y0090619D03*
X0038157Y0090619D03*
X0293669Y0054831D03*
X0301150Y0054831D03*
X0356583Y0047036D03*
X0364063Y0047036D03*
X0381583Y0059831D03*
X0389063Y0059831D03*
X0366504Y0097154D03*
X0359024Y0097154D03*
X0357252Y0142430D03*
X0364732Y0142430D03*
X0371976Y0177233D03*
X0379457Y0177233D03*
X0027449Y0327863D03*
X0019969Y0327863D03*
D13*
X0243906Y0227509D03*
X0273512Y0213847D03*
X0264929Y0180698D03*
X0137488Y0112981D03*
D14*
X0137488Y0122981D03*
X0233906Y0227509D03*
X0273512Y0203847D03*
X0264929Y0190698D03*
D15*
X0324496Y0160855D03*
X0404496Y0160855D03*
X0394496Y0280855D03*
X0324496Y0280855D03*
X0078709Y0136879D03*
D16*
X0078709Y0116879D03*
D17*
X0058157Y0154202D03*
X0058157Y0166013D03*
X0088669Y0168611D03*
X0088669Y0180422D03*
X0058157Y0221800D03*
X0058157Y0233611D03*
D18*
X0067016Y0211643D03*
X0067016Y0199831D03*
D19*
X0217646Y0179162D03*
X0225126Y0179162D03*
X0221386Y0187824D03*
X0295677Y0080540D03*
X0291937Y0071879D03*
X0299417Y0071879D03*
X0348827Y0059438D03*
X0356307Y0059438D03*
X0352567Y0068099D03*
D20*
X0058669Y0338493D03*
D21*
X0072449Y0338493D03*
X0086228Y0338493D03*
D22*
X0080646Y0267745D02*
X0074646Y0267745D01*
X0074646Y0257745D02*
X0080646Y0257745D01*
X0197953Y0254438D02*
X0203953Y0254438D01*
X0203953Y0264438D02*
X0197953Y0264438D01*
X0197953Y0274438D02*
X0203953Y0274438D01*
X0203953Y0244438D02*
X0197953Y0244438D01*
X0197953Y0234438D02*
X0203953Y0234438D01*
X0203953Y0224438D02*
X0197953Y0224438D01*
X0197953Y0214438D02*
X0203953Y0214438D01*
X0071433Y0097272D02*
X0065433Y0097272D01*
X0065433Y0087272D02*
X0071433Y0087272D01*
X0037803Y0111005D02*
X0037803Y0117005D01*
X0027803Y0117005D02*
X0027803Y0111005D01*
X0017803Y0111005D02*
X0017803Y0117005D01*
D23*
X0206028Y0179792D02*
X0211228Y0179792D01*
X0211228Y0189792D02*
X0206028Y0189792D01*
X0241228Y0189792D02*
X0246428Y0189792D01*
X0246428Y0179792D02*
X0241228Y0179792D01*
X0254654Y0227269D02*
X0254654Y0232469D01*
X0264654Y0232469D02*
X0264654Y0227269D01*
X0264654Y0262469D02*
X0264654Y0267669D01*
X0254654Y0267669D02*
X0254654Y0262469D01*
X0318984Y0145268D02*
X0318984Y0140068D01*
X0328984Y0140068D02*
X0328984Y0145268D01*
X0338984Y0145268D02*
X0338984Y0140068D01*
X0348984Y0140068D02*
X0348984Y0145268D01*
X0363509Y0119556D02*
X0368709Y0119556D01*
X0368709Y0109556D02*
X0363509Y0109556D01*
X0348984Y0110068D02*
X0348984Y0104868D01*
X0338984Y0104868D02*
X0338984Y0110068D01*
X0328984Y0110068D02*
X0328984Y0104868D01*
X0318984Y0104868D02*
X0318984Y0110068D01*
X0319575Y0087038D02*
X0319575Y0081838D01*
X0309575Y0081838D02*
X0309575Y0087038D01*
X0309575Y0067038D02*
X0309575Y0061838D01*
X0319575Y0061838D02*
X0319575Y0067038D01*
X0333942Y0067154D02*
X0339142Y0067154D01*
X0339142Y0077154D02*
X0333942Y0077154D01*
X0333942Y0087154D02*
X0339142Y0087154D01*
X0369142Y0087154D02*
X0374342Y0087154D01*
X0374342Y0077154D02*
X0369142Y0077154D01*
X0369142Y0067154D02*
X0374342Y0067154D01*
X0374342Y0057154D02*
X0369142Y0057154D01*
X0339142Y0057154D02*
X0333942Y0057154D01*
X0279575Y0061838D02*
X0279575Y0067038D01*
X0279575Y0081838D02*
X0279575Y0087038D01*
X0398709Y0109556D02*
X0403909Y0109556D01*
X0403909Y0119556D02*
X0398709Y0119556D01*
X0045126Y0281523D02*
X0045126Y0286723D01*
X0035126Y0286723D02*
X0035126Y0281523D01*
X0025126Y0281523D02*
X0025126Y0286723D01*
X0015126Y0286723D02*
X0015126Y0281523D01*
X0015126Y0311523D02*
X0015126Y0316723D01*
X0025126Y0316723D02*
X0025126Y0311523D01*
X0035126Y0311523D02*
X0035126Y0316723D01*
X0045126Y0316723D02*
X0045126Y0311523D01*
D24*
X0048370Y0212414D03*
X0048370Y0202414D03*
X0048370Y0192414D03*
X0048370Y0172414D03*
X0048370Y0162414D03*
D25*
X0027488Y0086170D02*
X0019614Y0086170D01*
X0042449Y0077902D02*
X0042449Y0070028D01*
X0027488Y0062154D02*
X0019614Y0062154D01*
D26*
X0128394Y0135501D03*
X0138394Y0135501D03*
X0138394Y0145501D03*
X0128394Y0145501D03*
X0185416Y0076800D03*
X0196216Y0076800D03*
X0207016Y0076800D03*
X0217816Y0076800D03*
X0228616Y0076800D03*
X0223216Y0066800D03*
X0212416Y0066800D03*
X0201616Y0066800D03*
X0190816Y0066800D03*
D27*
X0157716Y0071800D03*
X0256316Y0071800D03*
D28*
X0189417Y0338493D03*
X0116543Y0338493D03*
X0015795Y0338493D03*
D29*
X0029575Y0338493D03*
X0130323Y0338493D03*
X0144102Y0338493D03*
X0157882Y0338493D03*
X0203197Y0338493D03*
X0216976Y0338493D03*
X0230756Y0338493D03*
X0244535Y0338493D03*
X0258315Y0338493D03*
D30*
X0151504Y0196328D03*
X0151504Y0186328D03*
X0151504Y0176328D03*
D31*
X0065441Y0178060D03*
X0053630Y0178060D03*
D32*
X0056465Y0202824D03*
X0056465Y0214635D03*
X0045953Y0142824D03*
X0045953Y0131013D03*
X0394378Y0176918D03*
X0394378Y0188729D03*
D33*
X0060559Y0071485D03*
X0060559Y0061485D03*
X0060559Y0053375D03*
X0060559Y0043375D03*
D34*
X0081154Y0197942D02*
X0085554Y0197942D01*
X0085554Y0217942D02*
X0081154Y0217942D01*
D35*
X0318079Y0074083D03*
X0326740Y0070343D03*
X0326740Y0077824D03*
X0370677Y0126997D03*
X0362016Y0130737D03*
X0370677Y0134477D03*
D36*
X0300992Y0193493D03*
X0290992Y0203493D03*
X0290992Y0183493D03*
X0128748Y0161800D03*
X0118748Y0171800D03*
X0108748Y0161800D03*
D37*
X0284762Y0237158D02*
X0295412Y0237158D01*
X0295412Y0255658D02*
X0284762Y0255658D01*
X0284762Y0274158D02*
X0295412Y0274158D01*
D38*
X0289220Y0148454D03*
X0289220Y0118454D03*
X0239220Y0118454D03*
X0210283Y0118454D03*
X0210283Y0148454D03*
X0239220Y0148454D03*
X0160283Y0148454D03*
X0160283Y0118454D03*
D39*
X0160283Y0118454D03*
X0160283Y0148454D03*
X0210283Y0148454D03*
X0239220Y0148454D03*
X0239220Y0118454D03*
X0210283Y0118454D03*
X0289220Y0118454D03*
X0289220Y0148454D03*
D40*
X0384496Y0280855D03*
X0404496Y0280855D03*
D41*
X0394496Y0160855D03*
X0384496Y0160855D03*
X0374496Y0160855D03*
X0364496Y0160855D03*
X0354496Y0160855D03*
X0344496Y0160855D03*
X0334496Y0160855D03*
D42*
X0397173Y0087942D03*
X0397173Y0077312D03*
X0384575Y0082036D03*
X0410165Y0084005D03*
X0410953Y0069438D03*
D43*
X0407016Y0050540D03*
X0387331Y0050540D03*
D44*
X0122941Y0098335D03*
X0112941Y0098335D03*
X0102941Y0098335D03*
X0107941Y0088335D03*
X0117941Y0088335D03*
X0097941Y0088335D03*
X0092941Y0098335D03*
X0087941Y0088335D03*
D45*
X0082941Y0063335D03*
X0127941Y0063335D03*
D46*
X0394575Y0324792D03*
D47*
X0384536Y0314753D03*
X0404614Y0314753D03*
X0404614Y0334831D03*
X0384536Y0334831D03*
D48*
X0015480Y0047981D03*
X0032803Y0047981D03*
X0027291Y0298965D03*
X0044614Y0298965D03*
X0044811Y0325737D03*
X0044811Y0343060D03*
D49*
X0158984Y0138335D03*
X0158984Y0126918D03*
D50*
X0153079Y0124753D03*
X0148157Y0119831D03*
X0144417Y0133808D03*
X0149142Y0141485D03*
X0163906Y0156249D03*
X0147173Y0170028D03*
X0135756Y0164123D03*
X0132409Y0157233D03*
X0127488Y0176918D03*
X0121976Y0176721D03*
X0118630Y0191682D03*
X0124535Y0192666D03*
X0129457Y0192666D03*
X0140874Y0183808D03*
X0151110Y0205461D03*
X0156031Y0211367D03*
X0156031Y0221209D03*
X0147173Y0219241D03*
X0146189Y0225146D03*
X0142252Y0230068D03*
X0156031Y0241879D03*
X0144220Y0245816D03*
X0138315Y0260580D03*
X0115677Y0239910D03*
X0111740Y0234005D03*
X0117646Y0233020D03*
X0125520Y0234989D03*
X0108787Y0239910D03*
X0099929Y0237942D03*
X0099929Y0231052D03*
X0087134Y0234005D03*
X0088118Y0238926D03*
X0099929Y0249753D03*
X0104850Y0272391D03*
X0108787Y0279280D03*
X0130441Y0285186D03*
X0094024Y0303887D03*
X0069417Y0296997D03*
X0051701Y0317666D03*
X0039890Y0276328D03*
X0021189Y0263729D03*
X0067646Y0249950D03*
X0102882Y0210383D03*
X0104850Y0198572D03*
X0109772Y0194635D03*
X0097961Y0183808D03*
X0098945Y0171013D03*
X0100913Y0146406D03*
X0105835Y0127706D03*
X0111346Y0127509D03*
X0116465Y0125146D03*
X0101898Y0118847D03*
X0092055Y0116879D03*
X0105835Y0105068D03*
X0168827Y0107036D03*
X0175717Y0127706D03*
X0191465Y0145422D03*
X0202291Y0142469D03*
X0214102Y0129674D03*
X0225913Y0106052D03*
X0243630Y0125737D03*
X0267252Y0118847D03*
X0273157Y0123769D03*
X0299732Y0108020D03*
X0290874Y0088335D03*
X0343039Y0116879D03*
X0352882Y0119831D03*
X0376504Y0141485D03*
X0278079Y0196603D03*
X0262331Y0213335D03*
X0251504Y0199556D03*
X0244614Y0198572D03*
X0237724Y0209398D03*
X0210165Y0198572D03*
X0181622Y0231052D03*
X0169811Y0222194D03*
X0172764Y0245816D03*
X0187528Y0243847D03*
X0187528Y0258611D03*
X0172764Y0265501D03*
X0219024Y0300934D03*
X0227882Y0302902D03*
X0239693Y0306839D03*
X0249535Y0295028D03*
X0226898Y0269438D03*
X0231819Y0256643D03*
X0224929Y0244831D03*
X0224929Y0234989D03*
X0250520Y0247784D03*
X0328276Y0229083D03*
X0245598Y0167076D03*
X0198354Y0165107D03*
X0123551Y0217272D03*
X0088118Y0205461D03*
D51*
X0116661Y0220225D03*
X0155047Y0250737D03*
X0160953Y0254674D03*
X0125520Y0289123D03*
X0120598Y0293060D03*
X0103866Y0280265D03*
X0089102Y0283217D03*
X0088118Y0288139D03*
X0090087Y0294044D03*
X0096976Y0265501D03*
X0150126Y0290107D03*
X0166858Y0297981D03*
X0151110Y0333414D03*
X0222961Y0285186D03*
X0300717Y0216288D03*
X0309575Y0198572D03*
X0314496Y0193650D03*
X0316465Y0188729D03*
X0265283Y0200540D03*
X0260362Y0195619D03*
X0255441Y0194635D03*
X0211150Y0157233D03*
X0205244Y0157233D03*
X0183591Y0158217D03*
X0165874Y0171013D03*
X0177685Y0176918D03*
X0172764Y0189713D03*
X0173748Y0200540D03*
X0181622Y0210383D03*
X0187528Y0210383D03*
X0190480Y0194635D03*
X0196386Y0186761D03*
X0200323Y0193650D03*
X0169811Y0213335D03*
X0137528Y0179083D03*
X0107803Y0156249D03*
X0099929Y0165107D03*
X0092055Y0159202D03*
X0095992Y0136564D03*
X0095992Y0111957D03*
X0125520Y0110973D03*
X0126504Y0116879D03*
X0136346Y0094241D03*
X0167843Y0123769D03*
X0166858Y0140501D03*
X0219024Y0133611D03*
X0224929Y0136564D03*
X0237724Y0138532D03*
X0231819Y0109005D03*
X0275126Y0132627D03*
X0297764Y0134595D03*
X0305638Y0120816D03*
X0301701Y0115894D03*
X0305638Y0107036D03*
X0303669Y0097194D03*
X0284969Y0111957D03*
X0327291Y0085383D03*
X0306622Y0073572D03*
X0286937Y0072587D03*
X0285953Y0056839D03*
X0289890Y0046013D03*
X0353866Y0090304D03*
X0357803Y0105068D03*
X0343039Y0124753D03*
X0333197Y0125737D03*
X0377488Y0128690D03*
X0390283Y0114910D03*
X0411937Y0099162D03*
X0377882Y0082233D03*
X0384378Y0066682D03*
X0361740Y0053493D03*
X0397173Y0044044D03*
X0055638Y0089320D03*
X0019220Y0295028D03*
D52*
X0210165Y0331446D03*
X0289890Y0304871D03*
X0300717Y0307824D03*
X0266268Y0168060D03*
D53*
X0043827Y0239910D03*
X0023157Y0241879D03*
X0024142Y0154280D03*
D54*
X0068433Y0123769D03*
X0095008Y0276328D03*
X0083197Y0278296D03*
X0112724Y0308808D03*
D55*
X0043827Y0178887D03*
X0270205Y0300934D03*
X0282016Y0288139D03*
X0315480Y0246800D03*
X0330244Y0215304D03*
X0342055Y0189713D03*
X0340087Y0171997D03*
X0281031Y0128690D03*
D56*
X0398551Y0102706D03*
D57*
X0284969Y0201524D03*
X0016268Y0198178D03*
M02*
