G75*
%MOIN*%
%OFA0B0*%
%FSLAX25Y25*%
%IPPOS*%
%LPD*%
%AMOC8*
5,1,8,0,0,1.08239X$1,22.5*
%
%ADD10C,0.00000*%
%ADD11C,0.00039*%
D10*
X0003472Y0029280D02*
X0003472Y0344241D01*
X0416858Y0344241D01*
X0416858Y0029280D01*
X0003472Y0029280D01*
X0018039Y0053296D02*
X0018039Y0057233D01*
X0029063Y0057233D01*
X0029063Y0053296D01*
X0018039Y0053296D01*
X0040480Y0061564D02*
X0040480Y0072587D01*
X0044417Y0072587D01*
X0044417Y0061564D01*
X0040480Y0061564D01*
X0030047Y0077312D02*
X0030047Y0081249D01*
X0017055Y0081249D01*
X0017055Y0077312D01*
X0030047Y0077312D01*
X0076541Y0056446D02*
X0076543Y0056606D01*
X0076549Y0056765D01*
X0076559Y0056924D01*
X0076573Y0057083D01*
X0076591Y0057242D01*
X0076612Y0057400D01*
X0076638Y0057557D01*
X0076668Y0057714D01*
X0076701Y0057870D01*
X0076739Y0058025D01*
X0076780Y0058179D01*
X0076825Y0058332D01*
X0076874Y0058484D01*
X0076927Y0058635D01*
X0076983Y0058784D01*
X0077044Y0058932D01*
X0077107Y0059078D01*
X0077175Y0059223D01*
X0077246Y0059366D01*
X0077320Y0059507D01*
X0077398Y0059646D01*
X0077480Y0059783D01*
X0077565Y0059918D01*
X0077653Y0060051D01*
X0077745Y0060182D01*
X0077839Y0060310D01*
X0077937Y0060436D01*
X0078038Y0060560D01*
X0078142Y0060681D01*
X0078249Y0060799D01*
X0078359Y0060915D01*
X0078472Y0061028D01*
X0078588Y0061138D01*
X0078706Y0061245D01*
X0078827Y0061349D01*
X0078951Y0061450D01*
X0079077Y0061548D01*
X0079205Y0061642D01*
X0079336Y0061734D01*
X0079469Y0061822D01*
X0079604Y0061907D01*
X0079741Y0061989D01*
X0079880Y0062067D01*
X0080021Y0062141D01*
X0080164Y0062212D01*
X0080309Y0062280D01*
X0080455Y0062343D01*
X0080603Y0062404D01*
X0080752Y0062460D01*
X0080903Y0062513D01*
X0081055Y0062562D01*
X0081208Y0062607D01*
X0081362Y0062648D01*
X0081517Y0062686D01*
X0081673Y0062719D01*
X0081830Y0062749D01*
X0081987Y0062775D01*
X0082145Y0062796D01*
X0082304Y0062814D01*
X0082463Y0062828D01*
X0082622Y0062838D01*
X0082781Y0062844D01*
X0082941Y0062846D01*
X0083101Y0062844D01*
X0083260Y0062838D01*
X0083419Y0062828D01*
X0083578Y0062814D01*
X0083737Y0062796D01*
X0083895Y0062775D01*
X0084052Y0062749D01*
X0084209Y0062719D01*
X0084365Y0062686D01*
X0084520Y0062648D01*
X0084674Y0062607D01*
X0084827Y0062562D01*
X0084979Y0062513D01*
X0085130Y0062460D01*
X0085279Y0062404D01*
X0085427Y0062343D01*
X0085573Y0062280D01*
X0085718Y0062212D01*
X0085861Y0062141D01*
X0086002Y0062067D01*
X0086141Y0061989D01*
X0086278Y0061907D01*
X0086413Y0061822D01*
X0086546Y0061734D01*
X0086677Y0061642D01*
X0086805Y0061548D01*
X0086931Y0061450D01*
X0087055Y0061349D01*
X0087176Y0061245D01*
X0087294Y0061138D01*
X0087410Y0061028D01*
X0087523Y0060915D01*
X0087633Y0060799D01*
X0087740Y0060681D01*
X0087844Y0060560D01*
X0087945Y0060436D01*
X0088043Y0060310D01*
X0088137Y0060182D01*
X0088229Y0060051D01*
X0088317Y0059918D01*
X0088402Y0059783D01*
X0088484Y0059646D01*
X0088562Y0059507D01*
X0088636Y0059366D01*
X0088707Y0059223D01*
X0088775Y0059078D01*
X0088838Y0058932D01*
X0088899Y0058784D01*
X0088955Y0058635D01*
X0089008Y0058484D01*
X0089057Y0058332D01*
X0089102Y0058179D01*
X0089143Y0058025D01*
X0089181Y0057870D01*
X0089214Y0057714D01*
X0089244Y0057557D01*
X0089270Y0057400D01*
X0089291Y0057242D01*
X0089309Y0057083D01*
X0089323Y0056924D01*
X0089333Y0056765D01*
X0089339Y0056606D01*
X0089341Y0056446D01*
X0089339Y0056286D01*
X0089333Y0056127D01*
X0089323Y0055968D01*
X0089309Y0055809D01*
X0089291Y0055650D01*
X0089270Y0055492D01*
X0089244Y0055335D01*
X0089214Y0055178D01*
X0089181Y0055022D01*
X0089143Y0054867D01*
X0089102Y0054713D01*
X0089057Y0054560D01*
X0089008Y0054408D01*
X0088955Y0054257D01*
X0088899Y0054108D01*
X0088838Y0053960D01*
X0088775Y0053814D01*
X0088707Y0053669D01*
X0088636Y0053526D01*
X0088562Y0053385D01*
X0088484Y0053246D01*
X0088402Y0053109D01*
X0088317Y0052974D01*
X0088229Y0052841D01*
X0088137Y0052710D01*
X0088043Y0052582D01*
X0087945Y0052456D01*
X0087844Y0052332D01*
X0087740Y0052211D01*
X0087633Y0052093D01*
X0087523Y0051977D01*
X0087410Y0051864D01*
X0087294Y0051754D01*
X0087176Y0051647D01*
X0087055Y0051543D01*
X0086931Y0051442D01*
X0086805Y0051344D01*
X0086677Y0051250D01*
X0086546Y0051158D01*
X0086413Y0051070D01*
X0086278Y0050985D01*
X0086141Y0050903D01*
X0086002Y0050825D01*
X0085861Y0050751D01*
X0085718Y0050680D01*
X0085573Y0050612D01*
X0085427Y0050549D01*
X0085279Y0050488D01*
X0085130Y0050432D01*
X0084979Y0050379D01*
X0084827Y0050330D01*
X0084674Y0050285D01*
X0084520Y0050244D01*
X0084365Y0050206D01*
X0084209Y0050173D01*
X0084052Y0050143D01*
X0083895Y0050117D01*
X0083737Y0050096D01*
X0083578Y0050078D01*
X0083419Y0050064D01*
X0083260Y0050054D01*
X0083101Y0050048D01*
X0082941Y0050046D01*
X0082781Y0050048D01*
X0082622Y0050054D01*
X0082463Y0050064D01*
X0082304Y0050078D01*
X0082145Y0050096D01*
X0081987Y0050117D01*
X0081830Y0050143D01*
X0081673Y0050173D01*
X0081517Y0050206D01*
X0081362Y0050244D01*
X0081208Y0050285D01*
X0081055Y0050330D01*
X0080903Y0050379D01*
X0080752Y0050432D01*
X0080603Y0050488D01*
X0080455Y0050549D01*
X0080309Y0050612D01*
X0080164Y0050680D01*
X0080021Y0050751D01*
X0079880Y0050825D01*
X0079741Y0050903D01*
X0079604Y0050985D01*
X0079469Y0051070D01*
X0079336Y0051158D01*
X0079205Y0051250D01*
X0079077Y0051344D01*
X0078951Y0051442D01*
X0078827Y0051543D01*
X0078706Y0051647D01*
X0078588Y0051754D01*
X0078472Y0051864D01*
X0078359Y0051977D01*
X0078249Y0052093D01*
X0078142Y0052211D01*
X0078038Y0052332D01*
X0077937Y0052456D01*
X0077839Y0052582D01*
X0077745Y0052710D01*
X0077653Y0052841D01*
X0077565Y0052974D01*
X0077480Y0053109D01*
X0077398Y0053246D01*
X0077320Y0053385D01*
X0077246Y0053526D01*
X0077175Y0053669D01*
X0077107Y0053814D01*
X0077044Y0053960D01*
X0076983Y0054108D01*
X0076927Y0054257D01*
X0076874Y0054408D01*
X0076825Y0054560D01*
X0076780Y0054713D01*
X0076739Y0054867D01*
X0076701Y0055022D01*
X0076668Y0055178D01*
X0076638Y0055335D01*
X0076612Y0055492D01*
X0076591Y0055650D01*
X0076573Y0055809D01*
X0076559Y0055968D01*
X0076549Y0056127D01*
X0076543Y0056286D01*
X0076541Y0056446D01*
X0121541Y0056446D02*
X0121543Y0056606D01*
X0121549Y0056765D01*
X0121559Y0056924D01*
X0121573Y0057083D01*
X0121591Y0057242D01*
X0121612Y0057400D01*
X0121638Y0057557D01*
X0121668Y0057714D01*
X0121701Y0057870D01*
X0121739Y0058025D01*
X0121780Y0058179D01*
X0121825Y0058332D01*
X0121874Y0058484D01*
X0121927Y0058635D01*
X0121983Y0058784D01*
X0122044Y0058932D01*
X0122107Y0059078D01*
X0122175Y0059223D01*
X0122246Y0059366D01*
X0122320Y0059507D01*
X0122398Y0059646D01*
X0122480Y0059783D01*
X0122565Y0059918D01*
X0122653Y0060051D01*
X0122745Y0060182D01*
X0122839Y0060310D01*
X0122937Y0060436D01*
X0123038Y0060560D01*
X0123142Y0060681D01*
X0123249Y0060799D01*
X0123359Y0060915D01*
X0123472Y0061028D01*
X0123588Y0061138D01*
X0123706Y0061245D01*
X0123827Y0061349D01*
X0123951Y0061450D01*
X0124077Y0061548D01*
X0124205Y0061642D01*
X0124336Y0061734D01*
X0124469Y0061822D01*
X0124604Y0061907D01*
X0124741Y0061989D01*
X0124880Y0062067D01*
X0125021Y0062141D01*
X0125164Y0062212D01*
X0125309Y0062280D01*
X0125455Y0062343D01*
X0125603Y0062404D01*
X0125752Y0062460D01*
X0125903Y0062513D01*
X0126055Y0062562D01*
X0126208Y0062607D01*
X0126362Y0062648D01*
X0126517Y0062686D01*
X0126673Y0062719D01*
X0126830Y0062749D01*
X0126987Y0062775D01*
X0127145Y0062796D01*
X0127304Y0062814D01*
X0127463Y0062828D01*
X0127622Y0062838D01*
X0127781Y0062844D01*
X0127941Y0062846D01*
X0128101Y0062844D01*
X0128260Y0062838D01*
X0128419Y0062828D01*
X0128578Y0062814D01*
X0128737Y0062796D01*
X0128895Y0062775D01*
X0129052Y0062749D01*
X0129209Y0062719D01*
X0129365Y0062686D01*
X0129520Y0062648D01*
X0129674Y0062607D01*
X0129827Y0062562D01*
X0129979Y0062513D01*
X0130130Y0062460D01*
X0130279Y0062404D01*
X0130427Y0062343D01*
X0130573Y0062280D01*
X0130718Y0062212D01*
X0130861Y0062141D01*
X0131002Y0062067D01*
X0131141Y0061989D01*
X0131278Y0061907D01*
X0131413Y0061822D01*
X0131546Y0061734D01*
X0131677Y0061642D01*
X0131805Y0061548D01*
X0131931Y0061450D01*
X0132055Y0061349D01*
X0132176Y0061245D01*
X0132294Y0061138D01*
X0132410Y0061028D01*
X0132523Y0060915D01*
X0132633Y0060799D01*
X0132740Y0060681D01*
X0132844Y0060560D01*
X0132945Y0060436D01*
X0133043Y0060310D01*
X0133137Y0060182D01*
X0133229Y0060051D01*
X0133317Y0059918D01*
X0133402Y0059783D01*
X0133484Y0059646D01*
X0133562Y0059507D01*
X0133636Y0059366D01*
X0133707Y0059223D01*
X0133775Y0059078D01*
X0133838Y0058932D01*
X0133899Y0058784D01*
X0133955Y0058635D01*
X0134008Y0058484D01*
X0134057Y0058332D01*
X0134102Y0058179D01*
X0134143Y0058025D01*
X0134181Y0057870D01*
X0134214Y0057714D01*
X0134244Y0057557D01*
X0134270Y0057400D01*
X0134291Y0057242D01*
X0134309Y0057083D01*
X0134323Y0056924D01*
X0134333Y0056765D01*
X0134339Y0056606D01*
X0134341Y0056446D01*
X0134339Y0056286D01*
X0134333Y0056127D01*
X0134323Y0055968D01*
X0134309Y0055809D01*
X0134291Y0055650D01*
X0134270Y0055492D01*
X0134244Y0055335D01*
X0134214Y0055178D01*
X0134181Y0055022D01*
X0134143Y0054867D01*
X0134102Y0054713D01*
X0134057Y0054560D01*
X0134008Y0054408D01*
X0133955Y0054257D01*
X0133899Y0054108D01*
X0133838Y0053960D01*
X0133775Y0053814D01*
X0133707Y0053669D01*
X0133636Y0053526D01*
X0133562Y0053385D01*
X0133484Y0053246D01*
X0133402Y0053109D01*
X0133317Y0052974D01*
X0133229Y0052841D01*
X0133137Y0052710D01*
X0133043Y0052582D01*
X0132945Y0052456D01*
X0132844Y0052332D01*
X0132740Y0052211D01*
X0132633Y0052093D01*
X0132523Y0051977D01*
X0132410Y0051864D01*
X0132294Y0051754D01*
X0132176Y0051647D01*
X0132055Y0051543D01*
X0131931Y0051442D01*
X0131805Y0051344D01*
X0131677Y0051250D01*
X0131546Y0051158D01*
X0131413Y0051070D01*
X0131278Y0050985D01*
X0131141Y0050903D01*
X0131002Y0050825D01*
X0130861Y0050751D01*
X0130718Y0050680D01*
X0130573Y0050612D01*
X0130427Y0050549D01*
X0130279Y0050488D01*
X0130130Y0050432D01*
X0129979Y0050379D01*
X0129827Y0050330D01*
X0129674Y0050285D01*
X0129520Y0050244D01*
X0129365Y0050206D01*
X0129209Y0050173D01*
X0129052Y0050143D01*
X0128895Y0050117D01*
X0128737Y0050096D01*
X0128578Y0050078D01*
X0128419Y0050064D01*
X0128260Y0050054D01*
X0128101Y0050048D01*
X0127941Y0050046D01*
X0127781Y0050048D01*
X0127622Y0050054D01*
X0127463Y0050064D01*
X0127304Y0050078D01*
X0127145Y0050096D01*
X0126987Y0050117D01*
X0126830Y0050143D01*
X0126673Y0050173D01*
X0126517Y0050206D01*
X0126362Y0050244D01*
X0126208Y0050285D01*
X0126055Y0050330D01*
X0125903Y0050379D01*
X0125752Y0050432D01*
X0125603Y0050488D01*
X0125455Y0050549D01*
X0125309Y0050612D01*
X0125164Y0050680D01*
X0125021Y0050751D01*
X0124880Y0050825D01*
X0124741Y0050903D01*
X0124604Y0050985D01*
X0124469Y0051070D01*
X0124336Y0051158D01*
X0124205Y0051250D01*
X0124077Y0051344D01*
X0123951Y0051442D01*
X0123827Y0051543D01*
X0123706Y0051647D01*
X0123588Y0051754D01*
X0123472Y0051864D01*
X0123359Y0051977D01*
X0123249Y0052093D01*
X0123142Y0052211D01*
X0123038Y0052332D01*
X0122937Y0052456D01*
X0122839Y0052582D01*
X0122745Y0052710D01*
X0122653Y0052841D01*
X0122565Y0052974D01*
X0122480Y0053109D01*
X0122398Y0053246D01*
X0122320Y0053385D01*
X0122246Y0053526D01*
X0122175Y0053669D01*
X0122107Y0053814D01*
X0122044Y0053960D01*
X0121983Y0054108D01*
X0121927Y0054257D01*
X0121874Y0054408D01*
X0121825Y0054560D01*
X0121780Y0054713D01*
X0121739Y0054867D01*
X0121701Y0055022D01*
X0121668Y0055178D01*
X0121638Y0055335D01*
X0121612Y0055492D01*
X0121591Y0055650D01*
X0121573Y0055809D01*
X0121559Y0055968D01*
X0121549Y0056127D01*
X0121543Y0056286D01*
X0121541Y0056446D01*
X0151216Y0071800D02*
X0151218Y0071961D01*
X0151224Y0072121D01*
X0151234Y0072282D01*
X0151248Y0072442D01*
X0151266Y0072602D01*
X0151287Y0072761D01*
X0151313Y0072920D01*
X0151343Y0073078D01*
X0151376Y0073235D01*
X0151414Y0073392D01*
X0151455Y0073547D01*
X0151500Y0073701D01*
X0151549Y0073854D01*
X0151602Y0074006D01*
X0151658Y0074157D01*
X0151719Y0074306D01*
X0151782Y0074454D01*
X0151850Y0074600D01*
X0151921Y0074744D01*
X0151995Y0074886D01*
X0152073Y0075027D01*
X0152155Y0075165D01*
X0152240Y0075302D01*
X0152328Y0075436D01*
X0152420Y0075568D01*
X0152515Y0075698D01*
X0152613Y0075826D01*
X0152714Y0075951D01*
X0152818Y0076073D01*
X0152925Y0076193D01*
X0153035Y0076310D01*
X0153148Y0076425D01*
X0153264Y0076536D01*
X0153383Y0076645D01*
X0153504Y0076750D01*
X0153628Y0076853D01*
X0153754Y0076953D01*
X0153882Y0077049D01*
X0154013Y0077142D01*
X0154147Y0077232D01*
X0154282Y0077319D01*
X0154420Y0077402D01*
X0154559Y0077482D01*
X0154701Y0077558D01*
X0154844Y0077631D01*
X0154989Y0077700D01*
X0155136Y0077766D01*
X0155284Y0077828D01*
X0155434Y0077886D01*
X0155585Y0077941D01*
X0155738Y0077992D01*
X0155892Y0078039D01*
X0156047Y0078082D01*
X0156203Y0078121D01*
X0156359Y0078157D01*
X0156517Y0078188D01*
X0156675Y0078216D01*
X0156834Y0078240D01*
X0156994Y0078260D01*
X0157154Y0078276D01*
X0157314Y0078288D01*
X0157475Y0078296D01*
X0157636Y0078300D01*
X0157796Y0078300D01*
X0157957Y0078296D01*
X0158118Y0078288D01*
X0158278Y0078276D01*
X0158438Y0078260D01*
X0158598Y0078240D01*
X0158757Y0078216D01*
X0158915Y0078188D01*
X0159073Y0078157D01*
X0159229Y0078121D01*
X0159385Y0078082D01*
X0159540Y0078039D01*
X0159694Y0077992D01*
X0159847Y0077941D01*
X0159998Y0077886D01*
X0160148Y0077828D01*
X0160296Y0077766D01*
X0160443Y0077700D01*
X0160588Y0077631D01*
X0160731Y0077558D01*
X0160873Y0077482D01*
X0161012Y0077402D01*
X0161150Y0077319D01*
X0161285Y0077232D01*
X0161419Y0077142D01*
X0161550Y0077049D01*
X0161678Y0076953D01*
X0161804Y0076853D01*
X0161928Y0076750D01*
X0162049Y0076645D01*
X0162168Y0076536D01*
X0162284Y0076425D01*
X0162397Y0076310D01*
X0162507Y0076193D01*
X0162614Y0076073D01*
X0162718Y0075951D01*
X0162819Y0075826D01*
X0162917Y0075698D01*
X0163012Y0075568D01*
X0163104Y0075436D01*
X0163192Y0075302D01*
X0163277Y0075165D01*
X0163359Y0075027D01*
X0163437Y0074886D01*
X0163511Y0074744D01*
X0163582Y0074600D01*
X0163650Y0074454D01*
X0163713Y0074306D01*
X0163774Y0074157D01*
X0163830Y0074006D01*
X0163883Y0073854D01*
X0163932Y0073701D01*
X0163977Y0073547D01*
X0164018Y0073392D01*
X0164056Y0073235D01*
X0164089Y0073078D01*
X0164119Y0072920D01*
X0164145Y0072761D01*
X0164166Y0072602D01*
X0164184Y0072442D01*
X0164198Y0072282D01*
X0164208Y0072121D01*
X0164214Y0071961D01*
X0164216Y0071800D01*
X0164214Y0071639D01*
X0164208Y0071479D01*
X0164198Y0071318D01*
X0164184Y0071158D01*
X0164166Y0070998D01*
X0164145Y0070839D01*
X0164119Y0070680D01*
X0164089Y0070522D01*
X0164056Y0070365D01*
X0164018Y0070208D01*
X0163977Y0070053D01*
X0163932Y0069899D01*
X0163883Y0069746D01*
X0163830Y0069594D01*
X0163774Y0069443D01*
X0163713Y0069294D01*
X0163650Y0069146D01*
X0163582Y0069000D01*
X0163511Y0068856D01*
X0163437Y0068714D01*
X0163359Y0068573D01*
X0163277Y0068435D01*
X0163192Y0068298D01*
X0163104Y0068164D01*
X0163012Y0068032D01*
X0162917Y0067902D01*
X0162819Y0067774D01*
X0162718Y0067649D01*
X0162614Y0067527D01*
X0162507Y0067407D01*
X0162397Y0067290D01*
X0162284Y0067175D01*
X0162168Y0067064D01*
X0162049Y0066955D01*
X0161928Y0066850D01*
X0161804Y0066747D01*
X0161678Y0066647D01*
X0161550Y0066551D01*
X0161419Y0066458D01*
X0161285Y0066368D01*
X0161150Y0066281D01*
X0161012Y0066198D01*
X0160873Y0066118D01*
X0160731Y0066042D01*
X0160588Y0065969D01*
X0160443Y0065900D01*
X0160296Y0065834D01*
X0160148Y0065772D01*
X0159998Y0065714D01*
X0159847Y0065659D01*
X0159694Y0065608D01*
X0159540Y0065561D01*
X0159385Y0065518D01*
X0159229Y0065479D01*
X0159073Y0065443D01*
X0158915Y0065412D01*
X0158757Y0065384D01*
X0158598Y0065360D01*
X0158438Y0065340D01*
X0158278Y0065324D01*
X0158118Y0065312D01*
X0157957Y0065304D01*
X0157796Y0065300D01*
X0157636Y0065300D01*
X0157475Y0065304D01*
X0157314Y0065312D01*
X0157154Y0065324D01*
X0156994Y0065340D01*
X0156834Y0065360D01*
X0156675Y0065384D01*
X0156517Y0065412D01*
X0156359Y0065443D01*
X0156203Y0065479D01*
X0156047Y0065518D01*
X0155892Y0065561D01*
X0155738Y0065608D01*
X0155585Y0065659D01*
X0155434Y0065714D01*
X0155284Y0065772D01*
X0155136Y0065834D01*
X0154989Y0065900D01*
X0154844Y0065969D01*
X0154701Y0066042D01*
X0154559Y0066118D01*
X0154420Y0066198D01*
X0154282Y0066281D01*
X0154147Y0066368D01*
X0154013Y0066458D01*
X0153882Y0066551D01*
X0153754Y0066647D01*
X0153628Y0066747D01*
X0153504Y0066850D01*
X0153383Y0066955D01*
X0153264Y0067064D01*
X0153148Y0067175D01*
X0153035Y0067290D01*
X0152925Y0067407D01*
X0152818Y0067527D01*
X0152714Y0067649D01*
X0152613Y0067774D01*
X0152515Y0067902D01*
X0152420Y0068032D01*
X0152328Y0068164D01*
X0152240Y0068298D01*
X0152155Y0068435D01*
X0152073Y0068573D01*
X0151995Y0068714D01*
X0151921Y0068856D01*
X0151850Y0069000D01*
X0151782Y0069146D01*
X0151719Y0069294D01*
X0151658Y0069443D01*
X0151602Y0069594D01*
X0151549Y0069746D01*
X0151500Y0069899D01*
X0151455Y0070053D01*
X0151414Y0070208D01*
X0151376Y0070365D01*
X0151343Y0070522D01*
X0151313Y0070680D01*
X0151287Y0070839D01*
X0151266Y0070998D01*
X0151248Y0071158D01*
X0151234Y0071318D01*
X0151224Y0071479D01*
X0151218Y0071639D01*
X0151216Y0071800D01*
X0158708Y0111564D02*
X0158710Y0111643D01*
X0158716Y0111722D01*
X0158726Y0111801D01*
X0158740Y0111879D01*
X0158757Y0111956D01*
X0158779Y0112032D01*
X0158804Y0112107D01*
X0158834Y0112180D01*
X0158866Y0112252D01*
X0158903Y0112323D01*
X0158943Y0112391D01*
X0158986Y0112457D01*
X0159032Y0112521D01*
X0159082Y0112583D01*
X0159135Y0112642D01*
X0159190Y0112698D01*
X0159249Y0112752D01*
X0159310Y0112802D01*
X0159373Y0112850D01*
X0159439Y0112894D01*
X0159507Y0112935D01*
X0159577Y0112972D01*
X0159648Y0113006D01*
X0159722Y0113036D01*
X0159796Y0113062D01*
X0159872Y0113084D01*
X0159949Y0113103D01*
X0160027Y0113118D01*
X0160105Y0113129D01*
X0160184Y0113136D01*
X0160263Y0113139D01*
X0160342Y0113138D01*
X0160421Y0113133D01*
X0160500Y0113124D01*
X0160578Y0113111D01*
X0160655Y0113094D01*
X0160732Y0113074D01*
X0160807Y0113049D01*
X0160881Y0113021D01*
X0160954Y0112989D01*
X0161024Y0112954D01*
X0161093Y0112915D01*
X0161160Y0112872D01*
X0161225Y0112826D01*
X0161287Y0112778D01*
X0161347Y0112726D01*
X0161404Y0112671D01*
X0161458Y0112613D01*
X0161509Y0112553D01*
X0161557Y0112490D01*
X0161602Y0112425D01*
X0161644Y0112357D01*
X0161682Y0112288D01*
X0161716Y0112217D01*
X0161747Y0112144D01*
X0161775Y0112069D01*
X0161798Y0111994D01*
X0161818Y0111917D01*
X0161834Y0111840D01*
X0161846Y0111761D01*
X0161854Y0111683D01*
X0161858Y0111604D01*
X0161858Y0111524D01*
X0161854Y0111445D01*
X0161846Y0111367D01*
X0161834Y0111288D01*
X0161818Y0111211D01*
X0161798Y0111134D01*
X0161775Y0111059D01*
X0161747Y0110984D01*
X0161716Y0110911D01*
X0161682Y0110840D01*
X0161644Y0110771D01*
X0161602Y0110703D01*
X0161557Y0110638D01*
X0161509Y0110575D01*
X0161458Y0110515D01*
X0161404Y0110457D01*
X0161347Y0110402D01*
X0161287Y0110350D01*
X0161225Y0110302D01*
X0161160Y0110256D01*
X0161093Y0110213D01*
X0161024Y0110174D01*
X0160954Y0110139D01*
X0160881Y0110107D01*
X0160807Y0110079D01*
X0160732Y0110054D01*
X0160655Y0110034D01*
X0160578Y0110017D01*
X0160500Y0110004D01*
X0160421Y0109995D01*
X0160342Y0109990D01*
X0160263Y0109989D01*
X0160184Y0109992D01*
X0160105Y0109999D01*
X0160027Y0110010D01*
X0159949Y0110025D01*
X0159872Y0110044D01*
X0159796Y0110066D01*
X0159722Y0110092D01*
X0159648Y0110122D01*
X0159577Y0110156D01*
X0159507Y0110193D01*
X0159439Y0110234D01*
X0159373Y0110278D01*
X0159310Y0110326D01*
X0159249Y0110376D01*
X0159190Y0110430D01*
X0159135Y0110486D01*
X0159082Y0110545D01*
X0159032Y0110607D01*
X0158986Y0110671D01*
X0158943Y0110737D01*
X0158903Y0110805D01*
X0158866Y0110876D01*
X0158834Y0110948D01*
X0158804Y0111021D01*
X0158779Y0111096D01*
X0158757Y0111172D01*
X0158740Y0111249D01*
X0158726Y0111327D01*
X0158716Y0111406D01*
X0158710Y0111485D01*
X0158708Y0111564D01*
X0158708Y0141564D02*
X0158710Y0141643D01*
X0158716Y0141722D01*
X0158726Y0141801D01*
X0158740Y0141879D01*
X0158757Y0141956D01*
X0158779Y0142032D01*
X0158804Y0142107D01*
X0158834Y0142180D01*
X0158866Y0142252D01*
X0158903Y0142323D01*
X0158943Y0142391D01*
X0158986Y0142457D01*
X0159032Y0142521D01*
X0159082Y0142583D01*
X0159135Y0142642D01*
X0159190Y0142698D01*
X0159249Y0142752D01*
X0159310Y0142802D01*
X0159373Y0142850D01*
X0159439Y0142894D01*
X0159507Y0142935D01*
X0159577Y0142972D01*
X0159648Y0143006D01*
X0159722Y0143036D01*
X0159796Y0143062D01*
X0159872Y0143084D01*
X0159949Y0143103D01*
X0160027Y0143118D01*
X0160105Y0143129D01*
X0160184Y0143136D01*
X0160263Y0143139D01*
X0160342Y0143138D01*
X0160421Y0143133D01*
X0160500Y0143124D01*
X0160578Y0143111D01*
X0160655Y0143094D01*
X0160732Y0143074D01*
X0160807Y0143049D01*
X0160881Y0143021D01*
X0160954Y0142989D01*
X0161024Y0142954D01*
X0161093Y0142915D01*
X0161160Y0142872D01*
X0161225Y0142826D01*
X0161287Y0142778D01*
X0161347Y0142726D01*
X0161404Y0142671D01*
X0161458Y0142613D01*
X0161509Y0142553D01*
X0161557Y0142490D01*
X0161602Y0142425D01*
X0161644Y0142357D01*
X0161682Y0142288D01*
X0161716Y0142217D01*
X0161747Y0142144D01*
X0161775Y0142069D01*
X0161798Y0141994D01*
X0161818Y0141917D01*
X0161834Y0141840D01*
X0161846Y0141761D01*
X0161854Y0141683D01*
X0161858Y0141604D01*
X0161858Y0141524D01*
X0161854Y0141445D01*
X0161846Y0141367D01*
X0161834Y0141288D01*
X0161818Y0141211D01*
X0161798Y0141134D01*
X0161775Y0141059D01*
X0161747Y0140984D01*
X0161716Y0140911D01*
X0161682Y0140840D01*
X0161644Y0140771D01*
X0161602Y0140703D01*
X0161557Y0140638D01*
X0161509Y0140575D01*
X0161458Y0140515D01*
X0161404Y0140457D01*
X0161347Y0140402D01*
X0161287Y0140350D01*
X0161225Y0140302D01*
X0161160Y0140256D01*
X0161093Y0140213D01*
X0161024Y0140174D01*
X0160954Y0140139D01*
X0160881Y0140107D01*
X0160807Y0140079D01*
X0160732Y0140054D01*
X0160655Y0140034D01*
X0160578Y0140017D01*
X0160500Y0140004D01*
X0160421Y0139995D01*
X0160342Y0139990D01*
X0160263Y0139989D01*
X0160184Y0139992D01*
X0160105Y0139999D01*
X0160027Y0140010D01*
X0159949Y0140025D01*
X0159872Y0140044D01*
X0159796Y0140066D01*
X0159722Y0140092D01*
X0159648Y0140122D01*
X0159577Y0140156D01*
X0159507Y0140193D01*
X0159439Y0140234D01*
X0159373Y0140278D01*
X0159310Y0140326D01*
X0159249Y0140376D01*
X0159190Y0140430D01*
X0159135Y0140486D01*
X0159082Y0140545D01*
X0159032Y0140607D01*
X0158986Y0140671D01*
X0158943Y0140737D01*
X0158903Y0140805D01*
X0158866Y0140876D01*
X0158834Y0140948D01*
X0158804Y0141021D01*
X0158779Y0141096D01*
X0158757Y0141172D01*
X0158740Y0141249D01*
X0158726Y0141327D01*
X0158716Y0141406D01*
X0158710Y0141485D01*
X0158708Y0141564D01*
X0208708Y0141564D02*
X0208710Y0141643D01*
X0208716Y0141722D01*
X0208726Y0141801D01*
X0208740Y0141879D01*
X0208757Y0141956D01*
X0208779Y0142032D01*
X0208804Y0142107D01*
X0208834Y0142180D01*
X0208866Y0142252D01*
X0208903Y0142323D01*
X0208943Y0142391D01*
X0208986Y0142457D01*
X0209032Y0142521D01*
X0209082Y0142583D01*
X0209135Y0142642D01*
X0209190Y0142698D01*
X0209249Y0142752D01*
X0209310Y0142802D01*
X0209373Y0142850D01*
X0209439Y0142894D01*
X0209507Y0142935D01*
X0209577Y0142972D01*
X0209648Y0143006D01*
X0209722Y0143036D01*
X0209796Y0143062D01*
X0209872Y0143084D01*
X0209949Y0143103D01*
X0210027Y0143118D01*
X0210105Y0143129D01*
X0210184Y0143136D01*
X0210263Y0143139D01*
X0210342Y0143138D01*
X0210421Y0143133D01*
X0210500Y0143124D01*
X0210578Y0143111D01*
X0210655Y0143094D01*
X0210732Y0143074D01*
X0210807Y0143049D01*
X0210881Y0143021D01*
X0210954Y0142989D01*
X0211024Y0142954D01*
X0211093Y0142915D01*
X0211160Y0142872D01*
X0211225Y0142826D01*
X0211287Y0142778D01*
X0211347Y0142726D01*
X0211404Y0142671D01*
X0211458Y0142613D01*
X0211509Y0142553D01*
X0211557Y0142490D01*
X0211602Y0142425D01*
X0211644Y0142357D01*
X0211682Y0142288D01*
X0211716Y0142217D01*
X0211747Y0142144D01*
X0211775Y0142069D01*
X0211798Y0141994D01*
X0211818Y0141917D01*
X0211834Y0141840D01*
X0211846Y0141761D01*
X0211854Y0141683D01*
X0211858Y0141604D01*
X0211858Y0141524D01*
X0211854Y0141445D01*
X0211846Y0141367D01*
X0211834Y0141288D01*
X0211818Y0141211D01*
X0211798Y0141134D01*
X0211775Y0141059D01*
X0211747Y0140984D01*
X0211716Y0140911D01*
X0211682Y0140840D01*
X0211644Y0140771D01*
X0211602Y0140703D01*
X0211557Y0140638D01*
X0211509Y0140575D01*
X0211458Y0140515D01*
X0211404Y0140457D01*
X0211347Y0140402D01*
X0211287Y0140350D01*
X0211225Y0140302D01*
X0211160Y0140256D01*
X0211093Y0140213D01*
X0211024Y0140174D01*
X0210954Y0140139D01*
X0210881Y0140107D01*
X0210807Y0140079D01*
X0210732Y0140054D01*
X0210655Y0140034D01*
X0210578Y0140017D01*
X0210500Y0140004D01*
X0210421Y0139995D01*
X0210342Y0139990D01*
X0210263Y0139989D01*
X0210184Y0139992D01*
X0210105Y0139999D01*
X0210027Y0140010D01*
X0209949Y0140025D01*
X0209872Y0140044D01*
X0209796Y0140066D01*
X0209722Y0140092D01*
X0209648Y0140122D01*
X0209577Y0140156D01*
X0209507Y0140193D01*
X0209439Y0140234D01*
X0209373Y0140278D01*
X0209310Y0140326D01*
X0209249Y0140376D01*
X0209190Y0140430D01*
X0209135Y0140486D01*
X0209082Y0140545D01*
X0209032Y0140607D01*
X0208986Y0140671D01*
X0208943Y0140737D01*
X0208903Y0140805D01*
X0208866Y0140876D01*
X0208834Y0140948D01*
X0208804Y0141021D01*
X0208779Y0141096D01*
X0208757Y0141172D01*
X0208740Y0141249D01*
X0208726Y0141327D01*
X0208716Y0141406D01*
X0208710Y0141485D01*
X0208708Y0141564D01*
X0237645Y0141564D02*
X0237647Y0141643D01*
X0237653Y0141722D01*
X0237663Y0141801D01*
X0237677Y0141879D01*
X0237694Y0141956D01*
X0237716Y0142032D01*
X0237741Y0142107D01*
X0237771Y0142180D01*
X0237803Y0142252D01*
X0237840Y0142323D01*
X0237880Y0142391D01*
X0237923Y0142457D01*
X0237969Y0142521D01*
X0238019Y0142583D01*
X0238072Y0142642D01*
X0238127Y0142698D01*
X0238186Y0142752D01*
X0238247Y0142802D01*
X0238310Y0142850D01*
X0238376Y0142894D01*
X0238444Y0142935D01*
X0238514Y0142972D01*
X0238585Y0143006D01*
X0238659Y0143036D01*
X0238733Y0143062D01*
X0238809Y0143084D01*
X0238886Y0143103D01*
X0238964Y0143118D01*
X0239042Y0143129D01*
X0239121Y0143136D01*
X0239200Y0143139D01*
X0239279Y0143138D01*
X0239358Y0143133D01*
X0239437Y0143124D01*
X0239515Y0143111D01*
X0239592Y0143094D01*
X0239669Y0143074D01*
X0239744Y0143049D01*
X0239818Y0143021D01*
X0239891Y0142989D01*
X0239961Y0142954D01*
X0240030Y0142915D01*
X0240097Y0142872D01*
X0240162Y0142826D01*
X0240224Y0142778D01*
X0240284Y0142726D01*
X0240341Y0142671D01*
X0240395Y0142613D01*
X0240446Y0142553D01*
X0240494Y0142490D01*
X0240539Y0142425D01*
X0240581Y0142357D01*
X0240619Y0142288D01*
X0240653Y0142217D01*
X0240684Y0142144D01*
X0240712Y0142069D01*
X0240735Y0141994D01*
X0240755Y0141917D01*
X0240771Y0141840D01*
X0240783Y0141761D01*
X0240791Y0141683D01*
X0240795Y0141604D01*
X0240795Y0141524D01*
X0240791Y0141445D01*
X0240783Y0141367D01*
X0240771Y0141288D01*
X0240755Y0141211D01*
X0240735Y0141134D01*
X0240712Y0141059D01*
X0240684Y0140984D01*
X0240653Y0140911D01*
X0240619Y0140840D01*
X0240581Y0140771D01*
X0240539Y0140703D01*
X0240494Y0140638D01*
X0240446Y0140575D01*
X0240395Y0140515D01*
X0240341Y0140457D01*
X0240284Y0140402D01*
X0240224Y0140350D01*
X0240162Y0140302D01*
X0240097Y0140256D01*
X0240030Y0140213D01*
X0239961Y0140174D01*
X0239891Y0140139D01*
X0239818Y0140107D01*
X0239744Y0140079D01*
X0239669Y0140054D01*
X0239592Y0140034D01*
X0239515Y0140017D01*
X0239437Y0140004D01*
X0239358Y0139995D01*
X0239279Y0139990D01*
X0239200Y0139989D01*
X0239121Y0139992D01*
X0239042Y0139999D01*
X0238964Y0140010D01*
X0238886Y0140025D01*
X0238809Y0140044D01*
X0238733Y0140066D01*
X0238659Y0140092D01*
X0238585Y0140122D01*
X0238514Y0140156D01*
X0238444Y0140193D01*
X0238376Y0140234D01*
X0238310Y0140278D01*
X0238247Y0140326D01*
X0238186Y0140376D01*
X0238127Y0140430D01*
X0238072Y0140486D01*
X0238019Y0140545D01*
X0237969Y0140607D01*
X0237923Y0140671D01*
X0237880Y0140737D01*
X0237840Y0140805D01*
X0237803Y0140876D01*
X0237771Y0140948D01*
X0237741Y0141021D01*
X0237716Y0141096D01*
X0237694Y0141172D01*
X0237677Y0141249D01*
X0237663Y0141327D01*
X0237653Y0141406D01*
X0237647Y0141485D01*
X0237645Y0141564D01*
X0237645Y0111564D02*
X0237647Y0111643D01*
X0237653Y0111722D01*
X0237663Y0111801D01*
X0237677Y0111879D01*
X0237694Y0111956D01*
X0237716Y0112032D01*
X0237741Y0112107D01*
X0237771Y0112180D01*
X0237803Y0112252D01*
X0237840Y0112323D01*
X0237880Y0112391D01*
X0237923Y0112457D01*
X0237969Y0112521D01*
X0238019Y0112583D01*
X0238072Y0112642D01*
X0238127Y0112698D01*
X0238186Y0112752D01*
X0238247Y0112802D01*
X0238310Y0112850D01*
X0238376Y0112894D01*
X0238444Y0112935D01*
X0238514Y0112972D01*
X0238585Y0113006D01*
X0238659Y0113036D01*
X0238733Y0113062D01*
X0238809Y0113084D01*
X0238886Y0113103D01*
X0238964Y0113118D01*
X0239042Y0113129D01*
X0239121Y0113136D01*
X0239200Y0113139D01*
X0239279Y0113138D01*
X0239358Y0113133D01*
X0239437Y0113124D01*
X0239515Y0113111D01*
X0239592Y0113094D01*
X0239669Y0113074D01*
X0239744Y0113049D01*
X0239818Y0113021D01*
X0239891Y0112989D01*
X0239961Y0112954D01*
X0240030Y0112915D01*
X0240097Y0112872D01*
X0240162Y0112826D01*
X0240224Y0112778D01*
X0240284Y0112726D01*
X0240341Y0112671D01*
X0240395Y0112613D01*
X0240446Y0112553D01*
X0240494Y0112490D01*
X0240539Y0112425D01*
X0240581Y0112357D01*
X0240619Y0112288D01*
X0240653Y0112217D01*
X0240684Y0112144D01*
X0240712Y0112069D01*
X0240735Y0111994D01*
X0240755Y0111917D01*
X0240771Y0111840D01*
X0240783Y0111761D01*
X0240791Y0111683D01*
X0240795Y0111604D01*
X0240795Y0111524D01*
X0240791Y0111445D01*
X0240783Y0111367D01*
X0240771Y0111288D01*
X0240755Y0111211D01*
X0240735Y0111134D01*
X0240712Y0111059D01*
X0240684Y0110984D01*
X0240653Y0110911D01*
X0240619Y0110840D01*
X0240581Y0110771D01*
X0240539Y0110703D01*
X0240494Y0110638D01*
X0240446Y0110575D01*
X0240395Y0110515D01*
X0240341Y0110457D01*
X0240284Y0110402D01*
X0240224Y0110350D01*
X0240162Y0110302D01*
X0240097Y0110256D01*
X0240030Y0110213D01*
X0239961Y0110174D01*
X0239891Y0110139D01*
X0239818Y0110107D01*
X0239744Y0110079D01*
X0239669Y0110054D01*
X0239592Y0110034D01*
X0239515Y0110017D01*
X0239437Y0110004D01*
X0239358Y0109995D01*
X0239279Y0109990D01*
X0239200Y0109989D01*
X0239121Y0109992D01*
X0239042Y0109999D01*
X0238964Y0110010D01*
X0238886Y0110025D01*
X0238809Y0110044D01*
X0238733Y0110066D01*
X0238659Y0110092D01*
X0238585Y0110122D01*
X0238514Y0110156D01*
X0238444Y0110193D01*
X0238376Y0110234D01*
X0238310Y0110278D01*
X0238247Y0110326D01*
X0238186Y0110376D01*
X0238127Y0110430D01*
X0238072Y0110486D01*
X0238019Y0110545D01*
X0237969Y0110607D01*
X0237923Y0110671D01*
X0237880Y0110737D01*
X0237840Y0110805D01*
X0237803Y0110876D01*
X0237771Y0110948D01*
X0237741Y0111021D01*
X0237716Y0111096D01*
X0237694Y0111172D01*
X0237677Y0111249D01*
X0237663Y0111327D01*
X0237653Y0111406D01*
X0237647Y0111485D01*
X0237645Y0111564D01*
X0208708Y0111564D02*
X0208710Y0111643D01*
X0208716Y0111722D01*
X0208726Y0111801D01*
X0208740Y0111879D01*
X0208757Y0111956D01*
X0208779Y0112032D01*
X0208804Y0112107D01*
X0208834Y0112180D01*
X0208866Y0112252D01*
X0208903Y0112323D01*
X0208943Y0112391D01*
X0208986Y0112457D01*
X0209032Y0112521D01*
X0209082Y0112583D01*
X0209135Y0112642D01*
X0209190Y0112698D01*
X0209249Y0112752D01*
X0209310Y0112802D01*
X0209373Y0112850D01*
X0209439Y0112894D01*
X0209507Y0112935D01*
X0209577Y0112972D01*
X0209648Y0113006D01*
X0209722Y0113036D01*
X0209796Y0113062D01*
X0209872Y0113084D01*
X0209949Y0113103D01*
X0210027Y0113118D01*
X0210105Y0113129D01*
X0210184Y0113136D01*
X0210263Y0113139D01*
X0210342Y0113138D01*
X0210421Y0113133D01*
X0210500Y0113124D01*
X0210578Y0113111D01*
X0210655Y0113094D01*
X0210732Y0113074D01*
X0210807Y0113049D01*
X0210881Y0113021D01*
X0210954Y0112989D01*
X0211024Y0112954D01*
X0211093Y0112915D01*
X0211160Y0112872D01*
X0211225Y0112826D01*
X0211287Y0112778D01*
X0211347Y0112726D01*
X0211404Y0112671D01*
X0211458Y0112613D01*
X0211509Y0112553D01*
X0211557Y0112490D01*
X0211602Y0112425D01*
X0211644Y0112357D01*
X0211682Y0112288D01*
X0211716Y0112217D01*
X0211747Y0112144D01*
X0211775Y0112069D01*
X0211798Y0111994D01*
X0211818Y0111917D01*
X0211834Y0111840D01*
X0211846Y0111761D01*
X0211854Y0111683D01*
X0211858Y0111604D01*
X0211858Y0111524D01*
X0211854Y0111445D01*
X0211846Y0111367D01*
X0211834Y0111288D01*
X0211818Y0111211D01*
X0211798Y0111134D01*
X0211775Y0111059D01*
X0211747Y0110984D01*
X0211716Y0110911D01*
X0211682Y0110840D01*
X0211644Y0110771D01*
X0211602Y0110703D01*
X0211557Y0110638D01*
X0211509Y0110575D01*
X0211458Y0110515D01*
X0211404Y0110457D01*
X0211347Y0110402D01*
X0211287Y0110350D01*
X0211225Y0110302D01*
X0211160Y0110256D01*
X0211093Y0110213D01*
X0211024Y0110174D01*
X0210954Y0110139D01*
X0210881Y0110107D01*
X0210807Y0110079D01*
X0210732Y0110054D01*
X0210655Y0110034D01*
X0210578Y0110017D01*
X0210500Y0110004D01*
X0210421Y0109995D01*
X0210342Y0109990D01*
X0210263Y0109989D01*
X0210184Y0109992D01*
X0210105Y0109999D01*
X0210027Y0110010D01*
X0209949Y0110025D01*
X0209872Y0110044D01*
X0209796Y0110066D01*
X0209722Y0110092D01*
X0209648Y0110122D01*
X0209577Y0110156D01*
X0209507Y0110193D01*
X0209439Y0110234D01*
X0209373Y0110278D01*
X0209310Y0110326D01*
X0209249Y0110376D01*
X0209190Y0110430D01*
X0209135Y0110486D01*
X0209082Y0110545D01*
X0209032Y0110607D01*
X0208986Y0110671D01*
X0208943Y0110737D01*
X0208903Y0110805D01*
X0208866Y0110876D01*
X0208834Y0110948D01*
X0208804Y0111021D01*
X0208779Y0111096D01*
X0208757Y0111172D01*
X0208740Y0111249D01*
X0208726Y0111327D01*
X0208716Y0111406D01*
X0208710Y0111485D01*
X0208708Y0111564D01*
X0249816Y0071800D02*
X0249818Y0071961D01*
X0249824Y0072121D01*
X0249834Y0072282D01*
X0249848Y0072442D01*
X0249866Y0072602D01*
X0249887Y0072761D01*
X0249913Y0072920D01*
X0249943Y0073078D01*
X0249976Y0073235D01*
X0250014Y0073392D01*
X0250055Y0073547D01*
X0250100Y0073701D01*
X0250149Y0073854D01*
X0250202Y0074006D01*
X0250258Y0074157D01*
X0250319Y0074306D01*
X0250382Y0074454D01*
X0250450Y0074600D01*
X0250521Y0074744D01*
X0250595Y0074886D01*
X0250673Y0075027D01*
X0250755Y0075165D01*
X0250840Y0075302D01*
X0250928Y0075436D01*
X0251020Y0075568D01*
X0251115Y0075698D01*
X0251213Y0075826D01*
X0251314Y0075951D01*
X0251418Y0076073D01*
X0251525Y0076193D01*
X0251635Y0076310D01*
X0251748Y0076425D01*
X0251864Y0076536D01*
X0251983Y0076645D01*
X0252104Y0076750D01*
X0252228Y0076853D01*
X0252354Y0076953D01*
X0252482Y0077049D01*
X0252613Y0077142D01*
X0252747Y0077232D01*
X0252882Y0077319D01*
X0253020Y0077402D01*
X0253159Y0077482D01*
X0253301Y0077558D01*
X0253444Y0077631D01*
X0253589Y0077700D01*
X0253736Y0077766D01*
X0253884Y0077828D01*
X0254034Y0077886D01*
X0254185Y0077941D01*
X0254338Y0077992D01*
X0254492Y0078039D01*
X0254647Y0078082D01*
X0254803Y0078121D01*
X0254959Y0078157D01*
X0255117Y0078188D01*
X0255275Y0078216D01*
X0255434Y0078240D01*
X0255594Y0078260D01*
X0255754Y0078276D01*
X0255914Y0078288D01*
X0256075Y0078296D01*
X0256236Y0078300D01*
X0256396Y0078300D01*
X0256557Y0078296D01*
X0256718Y0078288D01*
X0256878Y0078276D01*
X0257038Y0078260D01*
X0257198Y0078240D01*
X0257357Y0078216D01*
X0257515Y0078188D01*
X0257673Y0078157D01*
X0257829Y0078121D01*
X0257985Y0078082D01*
X0258140Y0078039D01*
X0258294Y0077992D01*
X0258447Y0077941D01*
X0258598Y0077886D01*
X0258748Y0077828D01*
X0258896Y0077766D01*
X0259043Y0077700D01*
X0259188Y0077631D01*
X0259331Y0077558D01*
X0259473Y0077482D01*
X0259612Y0077402D01*
X0259750Y0077319D01*
X0259885Y0077232D01*
X0260019Y0077142D01*
X0260150Y0077049D01*
X0260278Y0076953D01*
X0260404Y0076853D01*
X0260528Y0076750D01*
X0260649Y0076645D01*
X0260768Y0076536D01*
X0260884Y0076425D01*
X0260997Y0076310D01*
X0261107Y0076193D01*
X0261214Y0076073D01*
X0261318Y0075951D01*
X0261419Y0075826D01*
X0261517Y0075698D01*
X0261612Y0075568D01*
X0261704Y0075436D01*
X0261792Y0075302D01*
X0261877Y0075165D01*
X0261959Y0075027D01*
X0262037Y0074886D01*
X0262111Y0074744D01*
X0262182Y0074600D01*
X0262250Y0074454D01*
X0262313Y0074306D01*
X0262374Y0074157D01*
X0262430Y0074006D01*
X0262483Y0073854D01*
X0262532Y0073701D01*
X0262577Y0073547D01*
X0262618Y0073392D01*
X0262656Y0073235D01*
X0262689Y0073078D01*
X0262719Y0072920D01*
X0262745Y0072761D01*
X0262766Y0072602D01*
X0262784Y0072442D01*
X0262798Y0072282D01*
X0262808Y0072121D01*
X0262814Y0071961D01*
X0262816Y0071800D01*
X0262814Y0071639D01*
X0262808Y0071479D01*
X0262798Y0071318D01*
X0262784Y0071158D01*
X0262766Y0070998D01*
X0262745Y0070839D01*
X0262719Y0070680D01*
X0262689Y0070522D01*
X0262656Y0070365D01*
X0262618Y0070208D01*
X0262577Y0070053D01*
X0262532Y0069899D01*
X0262483Y0069746D01*
X0262430Y0069594D01*
X0262374Y0069443D01*
X0262313Y0069294D01*
X0262250Y0069146D01*
X0262182Y0069000D01*
X0262111Y0068856D01*
X0262037Y0068714D01*
X0261959Y0068573D01*
X0261877Y0068435D01*
X0261792Y0068298D01*
X0261704Y0068164D01*
X0261612Y0068032D01*
X0261517Y0067902D01*
X0261419Y0067774D01*
X0261318Y0067649D01*
X0261214Y0067527D01*
X0261107Y0067407D01*
X0260997Y0067290D01*
X0260884Y0067175D01*
X0260768Y0067064D01*
X0260649Y0066955D01*
X0260528Y0066850D01*
X0260404Y0066747D01*
X0260278Y0066647D01*
X0260150Y0066551D01*
X0260019Y0066458D01*
X0259885Y0066368D01*
X0259750Y0066281D01*
X0259612Y0066198D01*
X0259473Y0066118D01*
X0259331Y0066042D01*
X0259188Y0065969D01*
X0259043Y0065900D01*
X0258896Y0065834D01*
X0258748Y0065772D01*
X0258598Y0065714D01*
X0258447Y0065659D01*
X0258294Y0065608D01*
X0258140Y0065561D01*
X0257985Y0065518D01*
X0257829Y0065479D01*
X0257673Y0065443D01*
X0257515Y0065412D01*
X0257357Y0065384D01*
X0257198Y0065360D01*
X0257038Y0065340D01*
X0256878Y0065324D01*
X0256718Y0065312D01*
X0256557Y0065304D01*
X0256396Y0065300D01*
X0256236Y0065300D01*
X0256075Y0065304D01*
X0255914Y0065312D01*
X0255754Y0065324D01*
X0255594Y0065340D01*
X0255434Y0065360D01*
X0255275Y0065384D01*
X0255117Y0065412D01*
X0254959Y0065443D01*
X0254803Y0065479D01*
X0254647Y0065518D01*
X0254492Y0065561D01*
X0254338Y0065608D01*
X0254185Y0065659D01*
X0254034Y0065714D01*
X0253884Y0065772D01*
X0253736Y0065834D01*
X0253589Y0065900D01*
X0253444Y0065969D01*
X0253301Y0066042D01*
X0253159Y0066118D01*
X0253020Y0066198D01*
X0252882Y0066281D01*
X0252747Y0066368D01*
X0252613Y0066458D01*
X0252482Y0066551D01*
X0252354Y0066647D01*
X0252228Y0066747D01*
X0252104Y0066850D01*
X0251983Y0066955D01*
X0251864Y0067064D01*
X0251748Y0067175D01*
X0251635Y0067290D01*
X0251525Y0067407D01*
X0251418Y0067527D01*
X0251314Y0067649D01*
X0251213Y0067774D01*
X0251115Y0067902D01*
X0251020Y0068032D01*
X0250928Y0068164D01*
X0250840Y0068298D01*
X0250755Y0068435D01*
X0250673Y0068573D01*
X0250595Y0068714D01*
X0250521Y0068856D01*
X0250450Y0069000D01*
X0250382Y0069146D01*
X0250319Y0069294D01*
X0250258Y0069443D01*
X0250202Y0069594D01*
X0250149Y0069746D01*
X0250100Y0069899D01*
X0250055Y0070053D01*
X0250014Y0070208D01*
X0249976Y0070365D01*
X0249943Y0070522D01*
X0249913Y0070680D01*
X0249887Y0070839D01*
X0249866Y0070998D01*
X0249848Y0071158D01*
X0249834Y0071318D01*
X0249824Y0071479D01*
X0249818Y0071639D01*
X0249816Y0071800D01*
X0287645Y0111564D02*
X0287647Y0111643D01*
X0287653Y0111722D01*
X0287663Y0111801D01*
X0287677Y0111879D01*
X0287694Y0111956D01*
X0287716Y0112032D01*
X0287741Y0112107D01*
X0287771Y0112180D01*
X0287803Y0112252D01*
X0287840Y0112323D01*
X0287880Y0112391D01*
X0287923Y0112457D01*
X0287969Y0112521D01*
X0288019Y0112583D01*
X0288072Y0112642D01*
X0288127Y0112698D01*
X0288186Y0112752D01*
X0288247Y0112802D01*
X0288310Y0112850D01*
X0288376Y0112894D01*
X0288444Y0112935D01*
X0288514Y0112972D01*
X0288585Y0113006D01*
X0288659Y0113036D01*
X0288733Y0113062D01*
X0288809Y0113084D01*
X0288886Y0113103D01*
X0288964Y0113118D01*
X0289042Y0113129D01*
X0289121Y0113136D01*
X0289200Y0113139D01*
X0289279Y0113138D01*
X0289358Y0113133D01*
X0289437Y0113124D01*
X0289515Y0113111D01*
X0289592Y0113094D01*
X0289669Y0113074D01*
X0289744Y0113049D01*
X0289818Y0113021D01*
X0289891Y0112989D01*
X0289961Y0112954D01*
X0290030Y0112915D01*
X0290097Y0112872D01*
X0290162Y0112826D01*
X0290224Y0112778D01*
X0290284Y0112726D01*
X0290341Y0112671D01*
X0290395Y0112613D01*
X0290446Y0112553D01*
X0290494Y0112490D01*
X0290539Y0112425D01*
X0290581Y0112357D01*
X0290619Y0112288D01*
X0290653Y0112217D01*
X0290684Y0112144D01*
X0290712Y0112069D01*
X0290735Y0111994D01*
X0290755Y0111917D01*
X0290771Y0111840D01*
X0290783Y0111761D01*
X0290791Y0111683D01*
X0290795Y0111604D01*
X0290795Y0111524D01*
X0290791Y0111445D01*
X0290783Y0111367D01*
X0290771Y0111288D01*
X0290755Y0111211D01*
X0290735Y0111134D01*
X0290712Y0111059D01*
X0290684Y0110984D01*
X0290653Y0110911D01*
X0290619Y0110840D01*
X0290581Y0110771D01*
X0290539Y0110703D01*
X0290494Y0110638D01*
X0290446Y0110575D01*
X0290395Y0110515D01*
X0290341Y0110457D01*
X0290284Y0110402D01*
X0290224Y0110350D01*
X0290162Y0110302D01*
X0290097Y0110256D01*
X0290030Y0110213D01*
X0289961Y0110174D01*
X0289891Y0110139D01*
X0289818Y0110107D01*
X0289744Y0110079D01*
X0289669Y0110054D01*
X0289592Y0110034D01*
X0289515Y0110017D01*
X0289437Y0110004D01*
X0289358Y0109995D01*
X0289279Y0109990D01*
X0289200Y0109989D01*
X0289121Y0109992D01*
X0289042Y0109999D01*
X0288964Y0110010D01*
X0288886Y0110025D01*
X0288809Y0110044D01*
X0288733Y0110066D01*
X0288659Y0110092D01*
X0288585Y0110122D01*
X0288514Y0110156D01*
X0288444Y0110193D01*
X0288376Y0110234D01*
X0288310Y0110278D01*
X0288247Y0110326D01*
X0288186Y0110376D01*
X0288127Y0110430D01*
X0288072Y0110486D01*
X0288019Y0110545D01*
X0287969Y0110607D01*
X0287923Y0110671D01*
X0287880Y0110737D01*
X0287840Y0110805D01*
X0287803Y0110876D01*
X0287771Y0110948D01*
X0287741Y0111021D01*
X0287716Y0111096D01*
X0287694Y0111172D01*
X0287677Y0111249D01*
X0287663Y0111327D01*
X0287653Y0111406D01*
X0287647Y0111485D01*
X0287645Y0111564D01*
X0287645Y0141564D02*
X0287647Y0141643D01*
X0287653Y0141722D01*
X0287663Y0141801D01*
X0287677Y0141879D01*
X0287694Y0141956D01*
X0287716Y0142032D01*
X0287741Y0142107D01*
X0287771Y0142180D01*
X0287803Y0142252D01*
X0287840Y0142323D01*
X0287880Y0142391D01*
X0287923Y0142457D01*
X0287969Y0142521D01*
X0288019Y0142583D01*
X0288072Y0142642D01*
X0288127Y0142698D01*
X0288186Y0142752D01*
X0288247Y0142802D01*
X0288310Y0142850D01*
X0288376Y0142894D01*
X0288444Y0142935D01*
X0288514Y0142972D01*
X0288585Y0143006D01*
X0288659Y0143036D01*
X0288733Y0143062D01*
X0288809Y0143084D01*
X0288886Y0143103D01*
X0288964Y0143118D01*
X0289042Y0143129D01*
X0289121Y0143136D01*
X0289200Y0143139D01*
X0289279Y0143138D01*
X0289358Y0143133D01*
X0289437Y0143124D01*
X0289515Y0143111D01*
X0289592Y0143094D01*
X0289669Y0143074D01*
X0289744Y0143049D01*
X0289818Y0143021D01*
X0289891Y0142989D01*
X0289961Y0142954D01*
X0290030Y0142915D01*
X0290097Y0142872D01*
X0290162Y0142826D01*
X0290224Y0142778D01*
X0290284Y0142726D01*
X0290341Y0142671D01*
X0290395Y0142613D01*
X0290446Y0142553D01*
X0290494Y0142490D01*
X0290539Y0142425D01*
X0290581Y0142357D01*
X0290619Y0142288D01*
X0290653Y0142217D01*
X0290684Y0142144D01*
X0290712Y0142069D01*
X0290735Y0141994D01*
X0290755Y0141917D01*
X0290771Y0141840D01*
X0290783Y0141761D01*
X0290791Y0141683D01*
X0290795Y0141604D01*
X0290795Y0141524D01*
X0290791Y0141445D01*
X0290783Y0141367D01*
X0290771Y0141288D01*
X0290755Y0141211D01*
X0290735Y0141134D01*
X0290712Y0141059D01*
X0290684Y0140984D01*
X0290653Y0140911D01*
X0290619Y0140840D01*
X0290581Y0140771D01*
X0290539Y0140703D01*
X0290494Y0140638D01*
X0290446Y0140575D01*
X0290395Y0140515D01*
X0290341Y0140457D01*
X0290284Y0140402D01*
X0290224Y0140350D01*
X0290162Y0140302D01*
X0290097Y0140256D01*
X0290030Y0140213D01*
X0289961Y0140174D01*
X0289891Y0140139D01*
X0289818Y0140107D01*
X0289744Y0140079D01*
X0289669Y0140054D01*
X0289592Y0140034D01*
X0289515Y0140017D01*
X0289437Y0140004D01*
X0289358Y0139995D01*
X0289279Y0139990D01*
X0289200Y0139989D01*
X0289121Y0139992D01*
X0289042Y0139999D01*
X0288964Y0140010D01*
X0288886Y0140025D01*
X0288809Y0140044D01*
X0288733Y0140066D01*
X0288659Y0140092D01*
X0288585Y0140122D01*
X0288514Y0140156D01*
X0288444Y0140193D01*
X0288376Y0140234D01*
X0288310Y0140278D01*
X0288247Y0140326D01*
X0288186Y0140376D01*
X0288127Y0140430D01*
X0288072Y0140486D01*
X0288019Y0140545D01*
X0287969Y0140607D01*
X0287923Y0140671D01*
X0287880Y0140737D01*
X0287840Y0140805D01*
X0287803Y0140876D01*
X0287771Y0140948D01*
X0287741Y0141021D01*
X0287716Y0141096D01*
X0287694Y0141172D01*
X0287677Y0141249D01*
X0287663Y0141327D01*
X0287653Y0141406D01*
X0287647Y0141485D01*
X0287645Y0141564D01*
X0385166Y0048572D02*
X0385168Y0048665D01*
X0385174Y0048757D01*
X0385184Y0048849D01*
X0385198Y0048940D01*
X0385215Y0049031D01*
X0385237Y0049121D01*
X0385262Y0049210D01*
X0385291Y0049298D01*
X0385324Y0049384D01*
X0385361Y0049469D01*
X0385401Y0049553D01*
X0385445Y0049634D01*
X0385492Y0049714D01*
X0385542Y0049792D01*
X0385596Y0049867D01*
X0385653Y0049940D01*
X0385713Y0050010D01*
X0385776Y0050078D01*
X0385842Y0050143D01*
X0385910Y0050205D01*
X0385981Y0050265D01*
X0386055Y0050321D01*
X0386131Y0050374D01*
X0386209Y0050423D01*
X0386289Y0050470D01*
X0386371Y0050512D01*
X0386455Y0050552D01*
X0386540Y0050587D01*
X0386627Y0050619D01*
X0386715Y0050648D01*
X0386804Y0050672D01*
X0386894Y0050693D01*
X0386985Y0050709D01*
X0387077Y0050722D01*
X0387169Y0050731D01*
X0387262Y0050736D01*
X0387354Y0050737D01*
X0387447Y0050734D01*
X0387539Y0050727D01*
X0387631Y0050716D01*
X0387722Y0050701D01*
X0387813Y0050683D01*
X0387903Y0050660D01*
X0387991Y0050634D01*
X0388079Y0050604D01*
X0388165Y0050570D01*
X0388249Y0050533D01*
X0388332Y0050491D01*
X0388413Y0050447D01*
X0388493Y0050399D01*
X0388570Y0050348D01*
X0388644Y0050293D01*
X0388717Y0050235D01*
X0388787Y0050175D01*
X0388854Y0050111D01*
X0388918Y0050045D01*
X0388980Y0049975D01*
X0389038Y0049904D01*
X0389093Y0049830D01*
X0389145Y0049753D01*
X0389194Y0049674D01*
X0389240Y0049594D01*
X0389282Y0049511D01*
X0389320Y0049427D01*
X0389355Y0049341D01*
X0389386Y0049254D01*
X0389413Y0049166D01*
X0389436Y0049076D01*
X0389456Y0048986D01*
X0389472Y0048895D01*
X0389484Y0048803D01*
X0389492Y0048711D01*
X0389496Y0048618D01*
X0389496Y0048526D01*
X0389492Y0048433D01*
X0389484Y0048341D01*
X0389472Y0048249D01*
X0389456Y0048158D01*
X0389436Y0048068D01*
X0389413Y0047978D01*
X0389386Y0047890D01*
X0389355Y0047803D01*
X0389320Y0047717D01*
X0389282Y0047633D01*
X0389240Y0047550D01*
X0389194Y0047470D01*
X0389145Y0047391D01*
X0389093Y0047314D01*
X0389038Y0047240D01*
X0388980Y0047169D01*
X0388918Y0047099D01*
X0388854Y0047033D01*
X0388787Y0046969D01*
X0388717Y0046909D01*
X0388644Y0046851D01*
X0388570Y0046796D01*
X0388493Y0046745D01*
X0388414Y0046697D01*
X0388332Y0046653D01*
X0388249Y0046611D01*
X0388165Y0046574D01*
X0388079Y0046540D01*
X0387991Y0046510D01*
X0387903Y0046484D01*
X0387813Y0046461D01*
X0387722Y0046443D01*
X0387631Y0046428D01*
X0387539Y0046417D01*
X0387447Y0046410D01*
X0387354Y0046407D01*
X0387262Y0046408D01*
X0387169Y0046413D01*
X0387077Y0046422D01*
X0386985Y0046435D01*
X0386894Y0046451D01*
X0386804Y0046472D01*
X0386715Y0046496D01*
X0386627Y0046525D01*
X0386540Y0046557D01*
X0386455Y0046592D01*
X0386371Y0046632D01*
X0386289Y0046674D01*
X0386209Y0046721D01*
X0386131Y0046770D01*
X0386055Y0046823D01*
X0385981Y0046879D01*
X0385910Y0046939D01*
X0385842Y0047001D01*
X0385776Y0047066D01*
X0385713Y0047134D01*
X0385653Y0047204D01*
X0385596Y0047277D01*
X0385542Y0047352D01*
X0385492Y0047430D01*
X0385445Y0047510D01*
X0385401Y0047591D01*
X0385361Y0047675D01*
X0385324Y0047760D01*
X0385291Y0047846D01*
X0385262Y0047934D01*
X0385237Y0048023D01*
X0385215Y0048113D01*
X0385198Y0048204D01*
X0385184Y0048295D01*
X0385174Y0048387D01*
X0385168Y0048479D01*
X0385166Y0048572D01*
X0404851Y0048572D02*
X0404853Y0048665D01*
X0404859Y0048757D01*
X0404869Y0048849D01*
X0404883Y0048940D01*
X0404900Y0049031D01*
X0404922Y0049121D01*
X0404947Y0049210D01*
X0404976Y0049298D01*
X0405009Y0049384D01*
X0405046Y0049469D01*
X0405086Y0049553D01*
X0405130Y0049634D01*
X0405177Y0049714D01*
X0405227Y0049792D01*
X0405281Y0049867D01*
X0405338Y0049940D01*
X0405398Y0050010D01*
X0405461Y0050078D01*
X0405527Y0050143D01*
X0405595Y0050205D01*
X0405666Y0050265D01*
X0405740Y0050321D01*
X0405816Y0050374D01*
X0405894Y0050423D01*
X0405974Y0050470D01*
X0406056Y0050512D01*
X0406140Y0050552D01*
X0406225Y0050587D01*
X0406312Y0050619D01*
X0406400Y0050648D01*
X0406489Y0050672D01*
X0406579Y0050693D01*
X0406670Y0050709D01*
X0406762Y0050722D01*
X0406854Y0050731D01*
X0406947Y0050736D01*
X0407039Y0050737D01*
X0407132Y0050734D01*
X0407224Y0050727D01*
X0407316Y0050716D01*
X0407407Y0050701D01*
X0407498Y0050683D01*
X0407588Y0050660D01*
X0407676Y0050634D01*
X0407764Y0050604D01*
X0407850Y0050570D01*
X0407934Y0050533D01*
X0408017Y0050491D01*
X0408098Y0050447D01*
X0408178Y0050399D01*
X0408255Y0050348D01*
X0408329Y0050293D01*
X0408402Y0050235D01*
X0408472Y0050175D01*
X0408539Y0050111D01*
X0408603Y0050045D01*
X0408665Y0049975D01*
X0408723Y0049904D01*
X0408778Y0049830D01*
X0408830Y0049753D01*
X0408879Y0049674D01*
X0408925Y0049594D01*
X0408967Y0049511D01*
X0409005Y0049427D01*
X0409040Y0049341D01*
X0409071Y0049254D01*
X0409098Y0049166D01*
X0409121Y0049076D01*
X0409141Y0048986D01*
X0409157Y0048895D01*
X0409169Y0048803D01*
X0409177Y0048711D01*
X0409181Y0048618D01*
X0409181Y0048526D01*
X0409177Y0048433D01*
X0409169Y0048341D01*
X0409157Y0048249D01*
X0409141Y0048158D01*
X0409121Y0048068D01*
X0409098Y0047978D01*
X0409071Y0047890D01*
X0409040Y0047803D01*
X0409005Y0047717D01*
X0408967Y0047633D01*
X0408925Y0047550D01*
X0408879Y0047470D01*
X0408830Y0047391D01*
X0408778Y0047314D01*
X0408723Y0047240D01*
X0408665Y0047169D01*
X0408603Y0047099D01*
X0408539Y0047033D01*
X0408472Y0046969D01*
X0408402Y0046909D01*
X0408329Y0046851D01*
X0408255Y0046796D01*
X0408178Y0046745D01*
X0408099Y0046697D01*
X0408017Y0046653D01*
X0407934Y0046611D01*
X0407850Y0046574D01*
X0407764Y0046540D01*
X0407676Y0046510D01*
X0407588Y0046484D01*
X0407498Y0046461D01*
X0407407Y0046443D01*
X0407316Y0046428D01*
X0407224Y0046417D01*
X0407132Y0046410D01*
X0407039Y0046407D01*
X0406947Y0046408D01*
X0406854Y0046413D01*
X0406762Y0046422D01*
X0406670Y0046435D01*
X0406579Y0046451D01*
X0406489Y0046472D01*
X0406400Y0046496D01*
X0406312Y0046525D01*
X0406225Y0046557D01*
X0406140Y0046592D01*
X0406056Y0046632D01*
X0405974Y0046674D01*
X0405894Y0046721D01*
X0405816Y0046770D01*
X0405740Y0046823D01*
X0405666Y0046879D01*
X0405595Y0046939D01*
X0405527Y0047001D01*
X0405461Y0047066D01*
X0405398Y0047134D01*
X0405338Y0047204D01*
X0405281Y0047277D01*
X0405227Y0047352D01*
X0405177Y0047430D01*
X0405130Y0047510D01*
X0405086Y0047591D01*
X0405046Y0047675D01*
X0405009Y0047760D01*
X0404976Y0047846D01*
X0404947Y0047934D01*
X0404922Y0048023D01*
X0404900Y0048113D01*
X0404883Y0048204D01*
X0404869Y0048295D01*
X0404859Y0048387D01*
X0404853Y0048479D01*
X0404851Y0048572D01*
X0393827Y0131643D02*
X0393829Y0131822D01*
X0393836Y0132000D01*
X0393847Y0132179D01*
X0393862Y0132357D01*
X0393882Y0132535D01*
X0393906Y0132712D01*
X0393934Y0132888D01*
X0393967Y0133064D01*
X0394004Y0133239D01*
X0394045Y0133413D01*
X0394091Y0133585D01*
X0394141Y0133757D01*
X0394195Y0133928D01*
X0394253Y0134097D01*
X0394315Y0134264D01*
X0394381Y0134430D01*
X0394452Y0134594D01*
X0394526Y0134757D01*
X0394605Y0134918D01*
X0394687Y0135076D01*
X0394773Y0135233D01*
X0394863Y0135387D01*
X0394957Y0135539D01*
X0395054Y0135689D01*
X0395156Y0135837D01*
X0395260Y0135981D01*
X0395368Y0136124D01*
X0395480Y0136263D01*
X0395595Y0136400D01*
X0395714Y0136534D01*
X0395835Y0136665D01*
X0395960Y0136793D01*
X0396088Y0136918D01*
X0396219Y0137039D01*
X0396353Y0137158D01*
X0396490Y0137273D01*
X0396629Y0137385D01*
X0396772Y0137493D01*
X0396916Y0137597D01*
X0397064Y0137699D01*
X0397214Y0137796D01*
X0397366Y0137890D01*
X0397520Y0137980D01*
X0397677Y0138066D01*
X0397835Y0138148D01*
X0397996Y0138227D01*
X0398159Y0138301D01*
X0398323Y0138372D01*
X0398489Y0138438D01*
X0398656Y0138500D01*
X0398825Y0138558D01*
X0398996Y0138612D01*
X0399168Y0138662D01*
X0399340Y0138708D01*
X0399514Y0138749D01*
X0399689Y0138786D01*
X0399865Y0138819D01*
X0400041Y0138847D01*
X0400218Y0138871D01*
X0400396Y0138891D01*
X0400574Y0138906D01*
X0400753Y0138917D01*
X0400931Y0138924D01*
X0401110Y0138926D01*
X0401289Y0138924D01*
X0401467Y0138917D01*
X0401646Y0138906D01*
X0401824Y0138891D01*
X0402002Y0138871D01*
X0402179Y0138847D01*
X0402355Y0138819D01*
X0402531Y0138786D01*
X0402706Y0138749D01*
X0402880Y0138708D01*
X0403052Y0138662D01*
X0403224Y0138612D01*
X0403395Y0138558D01*
X0403564Y0138500D01*
X0403731Y0138438D01*
X0403897Y0138372D01*
X0404061Y0138301D01*
X0404224Y0138227D01*
X0404385Y0138148D01*
X0404543Y0138066D01*
X0404700Y0137980D01*
X0404854Y0137890D01*
X0405006Y0137796D01*
X0405156Y0137699D01*
X0405304Y0137597D01*
X0405448Y0137493D01*
X0405591Y0137385D01*
X0405730Y0137273D01*
X0405867Y0137158D01*
X0406001Y0137039D01*
X0406132Y0136918D01*
X0406260Y0136793D01*
X0406385Y0136665D01*
X0406506Y0136534D01*
X0406625Y0136400D01*
X0406740Y0136263D01*
X0406852Y0136124D01*
X0406960Y0135981D01*
X0407064Y0135837D01*
X0407166Y0135689D01*
X0407263Y0135539D01*
X0407357Y0135387D01*
X0407447Y0135233D01*
X0407533Y0135076D01*
X0407615Y0134918D01*
X0407694Y0134757D01*
X0407768Y0134594D01*
X0407839Y0134430D01*
X0407905Y0134264D01*
X0407967Y0134097D01*
X0408025Y0133928D01*
X0408079Y0133757D01*
X0408129Y0133585D01*
X0408175Y0133413D01*
X0408216Y0133239D01*
X0408253Y0133064D01*
X0408286Y0132888D01*
X0408314Y0132712D01*
X0408338Y0132535D01*
X0408358Y0132357D01*
X0408373Y0132179D01*
X0408384Y0132000D01*
X0408391Y0131822D01*
X0408393Y0131643D01*
X0408391Y0131464D01*
X0408384Y0131286D01*
X0408373Y0131107D01*
X0408358Y0130929D01*
X0408338Y0130751D01*
X0408314Y0130574D01*
X0408286Y0130398D01*
X0408253Y0130222D01*
X0408216Y0130047D01*
X0408175Y0129873D01*
X0408129Y0129701D01*
X0408079Y0129529D01*
X0408025Y0129358D01*
X0407967Y0129189D01*
X0407905Y0129022D01*
X0407839Y0128856D01*
X0407768Y0128692D01*
X0407694Y0128529D01*
X0407615Y0128368D01*
X0407533Y0128210D01*
X0407447Y0128053D01*
X0407357Y0127899D01*
X0407263Y0127747D01*
X0407166Y0127597D01*
X0407064Y0127449D01*
X0406960Y0127305D01*
X0406852Y0127162D01*
X0406740Y0127023D01*
X0406625Y0126886D01*
X0406506Y0126752D01*
X0406385Y0126621D01*
X0406260Y0126493D01*
X0406132Y0126368D01*
X0406001Y0126247D01*
X0405867Y0126128D01*
X0405730Y0126013D01*
X0405591Y0125901D01*
X0405448Y0125793D01*
X0405304Y0125689D01*
X0405156Y0125587D01*
X0405006Y0125490D01*
X0404854Y0125396D01*
X0404700Y0125306D01*
X0404543Y0125220D01*
X0404385Y0125138D01*
X0404224Y0125059D01*
X0404061Y0124985D01*
X0403897Y0124914D01*
X0403731Y0124848D01*
X0403564Y0124786D01*
X0403395Y0124728D01*
X0403224Y0124674D01*
X0403052Y0124624D01*
X0402880Y0124578D01*
X0402706Y0124537D01*
X0402531Y0124500D01*
X0402355Y0124467D01*
X0402179Y0124439D01*
X0402002Y0124415D01*
X0401824Y0124395D01*
X0401646Y0124380D01*
X0401467Y0124369D01*
X0401289Y0124362D01*
X0401110Y0124360D01*
X0400931Y0124362D01*
X0400753Y0124369D01*
X0400574Y0124380D01*
X0400396Y0124395D01*
X0400218Y0124415D01*
X0400041Y0124439D01*
X0399865Y0124467D01*
X0399689Y0124500D01*
X0399514Y0124537D01*
X0399340Y0124578D01*
X0399168Y0124624D01*
X0398996Y0124674D01*
X0398825Y0124728D01*
X0398656Y0124786D01*
X0398489Y0124848D01*
X0398323Y0124914D01*
X0398159Y0124985D01*
X0397996Y0125059D01*
X0397835Y0125138D01*
X0397677Y0125220D01*
X0397520Y0125306D01*
X0397366Y0125396D01*
X0397214Y0125490D01*
X0397064Y0125587D01*
X0396916Y0125689D01*
X0396772Y0125793D01*
X0396629Y0125901D01*
X0396490Y0126013D01*
X0396353Y0126128D01*
X0396219Y0126247D01*
X0396088Y0126368D01*
X0395960Y0126493D01*
X0395835Y0126621D01*
X0395714Y0126752D01*
X0395595Y0126886D01*
X0395480Y0127023D01*
X0395368Y0127162D01*
X0395260Y0127305D01*
X0395156Y0127449D01*
X0395054Y0127597D01*
X0394957Y0127747D01*
X0394863Y0127899D01*
X0394773Y0128053D01*
X0394687Y0128210D01*
X0394605Y0128368D01*
X0394526Y0128529D01*
X0394452Y0128692D01*
X0394381Y0128856D01*
X0394315Y0129022D01*
X0394253Y0129189D01*
X0394195Y0129358D01*
X0394141Y0129529D01*
X0394091Y0129701D01*
X0394045Y0129873D01*
X0394004Y0130047D01*
X0393967Y0130222D01*
X0393934Y0130398D01*
X0393906Y0130574D01*
X0393882Y0130751D01*
X0393862Y0130929D01*
X0393847Y0131107D01*
X0393836Y0131286D01*
X0393829Y0131464D01*
X0393827Y0131643D01*
X0399929Y0395422D02*
X0399931Y0395491D01*
X0399937Y0395559D01*
X0399947Y0395627D01*
X0399961Y0395694D01*
X0399979Y0395761D01*
X0400000Y0395826D01*
X0400026Y0395890D01*
X0400055Y0395952D01*
X0400087Y0396012D01*
X0400123Y0396071D01*
X0400163Y0396127D01*
X0400205Y0396181D01*
X0400251Y0396232D01*
X0400300Y0396281D01*
X0400351Y0396327D01*
X0400405Y0396369D01*
X0400461Y0396409D01*
X0400519Y0396445D01*
X0400580Y0396477D01*
X0400642Y0396506D01*
X0400706Y0396532D01*
X0400771Y0396553D01*
X0400838Y0396571D01*
X0400905Y0396585D01*
X0400973Y0396595D01*
X0401041Y0396601D01*
X0401110Y0396603D01*
X0401179Y0396601D01*
X0401247Y0396595D01*
X0401315Y0396585D01*
X0401382Y0396571D01*
X0401449Y0396553D01*
X0401514Y0396532D01*
X0401578Y0396506D01*
X0401640Y0396477D01*
X0401700Y0396445D01*
X0401759Y0396409D01*
X0401815Y0396369D01*
X0401869Y0396327D01*
X0401920Y0396281D01*
X0401969Y0396232D01*
X0402015Y0396181D01*
X0402057Y0396127D01*
X0402097Y0396071D01*
X0402133Y0396012D01*
X0402165Y0395952D01*
X0402194Y0395890D01*
X0402220Y0395826D01*
X0402241Y0395761D01*
X0402259Y0395694D01*
X0402273Y0395627D01*
X0402283Y0395559D01*
X0402289Y0395491D01*
X0402291Y0395422D01*
X0402289Y0395353D01*
X0402283Y0395285D01*
X0402273Y0395217D01*
X0402259Y0395150D01*
X0402241Y0395083D01*
X0402220Y0395018D01*
X0402194Y0394954D01*
X0402165Y0394892D01*
X0402133Y0394831D01*
X0402097Y0394773D01*
X0402057Y0394717D01*
X0402015Y0394663D01*
X0401969Y0394612D01*
X0401920Y0394563D01*
X0401869Y0394517D01*
X0401815Y0394475D01*
X0401759Y0394435D01*
X0401701Y0394399D01*
X0401640Y0394367D01*
X0401578Y0394338D01*
X0401514Y0394312D01*
X0401449Y0394291D01*
X0401382Y0394273D01*
X0401315Y0394259D01*
X0401247Y0394249D01*
X0401179Y0394243D01*
X0401110Y0394241D01*
X0401041Y0394243D01*
X0400973Y0394249D01*
X0400905Y0394259D01*
X0400838Y0394273D01*
X0400771Y0394291D01*
X0400706Y0394312D01*
X0400642Y0394338D01*
X0400580Y0394367D01*
X0400519Y0394399D01*
X0400461Y0394435D01*
X0400405Y0394475D01*
X0400351Y0394517D01*
X0400300Y0394563D01*
X0400251Y0394612D01*
X0400205Y0394663D01*
X0400163Y0394717D01*
X0400123Y0394773D01*
X0400087Y0394831D01*
X0400055Y0394892D01*
X0400026Y0394954D01*
X0400000Y0395018D01*
X0399979Y0395083D01*
X0399961Y0395150D01*
X0399947Y0395217D01*
X0399937Y0395285D01*
X0399931Y0395353D01*
X0399929Y0395422D01*
X0018039Y0395422D02*
X0018041Y0395491D01*
X0018047Y0395559D01*
X0018057Y0395627D01*
X0018071Y0395694D01*
X0018089Y0395761D01*
X0018110Y0395826D01*
X0018136Y0395890D01*
X0018165Y0395952D01*
X0018197Y0396012D01*
X0018233Y0396071D01*
X0018273Y0396127D01*
X0018315Y0396181D01*
X0018361Y0396232D01*
X0018410Y0396281D01*
X0018461Y0396327D01*
X0018515Y0396369D01*
X0018571Y0396409D01*
X0018629Y0396445D01*
X0018690Y0396477D01*
X0018752Y0396506D01*
X0018816Y0396532D01*
X0018881Y0396553D01*
X0018948Y0396571D01*
X0019015Y0396585D01*
X0019083Y0396595D01*
X0019151Y0396601D01*
X0019220Y0396603D01*
X0019289Y0396601D01*
X0019357Y0396595D01*
X0019425Y0396585D01*
X0019492Y0396571D01*
X0019559Y0396553D01*
X0019624Y0396532D01*
X0019688Y0396506D01*
X0019750Y0396477D01*
X0019810Y0396445D01*
X0019869Y0396409D01*
X0019925Y0396369D01*
X0019979Y0396327D01*
X0020030Y0396281D01*
X0020079Y0396232D01*
X0020125Y0396181D01*
X0020167Y0396127D01*
X0020207Y0396071D01*
X0020243Y0396012D01*
X0020275Y0395952D01*
X0020304Y0395890D01*
X0020330Y0395826D01*
X0020351Y0395761D01*
X0020369Y0395694D01*
X0020383Y0395627D01*
X0020393Y0395559D01*
X0020399Y0395491D01*
X0020401Y0395422D01*
X0020399Y0395353D01*
X0020393Y0395285D01*
X0020383Y0395217D01*
X0020369Y0395150D01*
X0020351Y0395083D01*
X0020330Y0395018D01*
X0020304Y0394954D01*
X0020275Y0394892D01*
X0020243Y0394831D01*
X0020207Y0394773D01*
X0020167Y0394717D01*
X0020125Y0394663D01*
X0020079Y0394612D01*
X0020030Y0394563D01*
X0019979Y0394517D01*
X0019925Y0394475D01*
X0019869Y0394435D01*
X0019811Y0394399D01*
X0019750Y0394367D01*
X0019688Y0394338D01*
X0019624Y0394312D01*
X0019559Y0394291D01*
X0019492Y0394273D01*
X0019425Y0394259D01*
X0019357Y0394249D01*
X0019289Y0394243D01*
X0019220Y0394241D01*
X0019151Y0394243D01*
X0019083Y0394249D01*
X0019015Y0394259D01*
X0018948Y0394273D01*
X0018881Y0394291D01*
X0018816Y0394312D01*
X0018752Y0394338D01*
X0018690Y0394367D01*
X0018629Y0394399D01*
X0018571Y0394435D01*
X0018515Y0394475D01*
X0018461Y0394517D01*
X0018410Y0394563D01*
X0018361Y0394612D01*
X0018315Y0394663D01*
X0018273Y0394717D01*
X0018233Y0394773D01*
X0018197Y0394831D01*
X0018165Y0394892D01*
X0018136Y0394954D01*
X0018110Y0395018D01*
X0018089Y0395083D01*
X0018071Y0395150D01*
X0018057Y0395217D01*
X0018047Y0395285D01*
X0018041Y0395353D01*
X0018039Y0395422D01*
X0011937Y0131643D02*
X0011939Y0131822D01*
X0011946Y0132000D01*
X0011957Y0132179D01*
X0011972Y0132357D01*
X0011992Y0132535D01*
X0012016Y0132712D01*
X0012044Y0132888D01*
X0012077Y0133064D01*
X0012114Y0133239D01*
X0012155Y0133413D01*
X0012201Y0133585D01*
X0012251Y0133757D01*
X0012305Y0133928D01*
X0012363Y0134097D01*
X0012425Y0134264D01*
X0012491Y0134430D01*
X0012562Y0134594D01*
X0012636Y0134757D01*
X0012715Y0134918D01*
X0012797Y0135076D01*
X0012883Y0135233D01*
X0012973Y0135387D01*
X0013067Y0135539D01*
X0013164Y0135689D01*
X0013266Y0135837D01*
X0013370Y0135981D01*
X0013478Y0136124D01*
X0013590Y0136263D01*
X0013705Y0136400D01*
X0013824Y0136534D01*
X0013945Y0136665D01*
X0014070Y0136793D01*
X0014198Y0136918D01*
X0014329Y0137039D01*
X0014463Y0137158D01*
X0014600Y0137273D01*
X0014739Y0137385D01*
X0014882Y0137493D01*
X0015026Y0137597D01*
X0015174Y0137699D01*
X0015324Y0137796D01*
X0015476Y0137890D01*
X0015630Y0137980D01*
X0015787Y0138066D01*
X0015945Y0138148D01*
X0016106Y0138227D01*
X0016269Y0138301D01*
X0016433Y0138372D01*
X0016599Y0138438D01*
X0016766Y0138500D01*
X0016935Y0138558D01*
X0017106Y0138612D01*
X0017278Y0138662D01*
X0017450Y0138708D01*
X0017624Y0138749D01*
X0017799Y0138786D01*
X0017975Y0138819D01*
X0018151Y0138847D01*
X0018328Y0138871D01*
X0018506Y0138891D01*
X0018684Y0138906D01*
X0018863Y0138917D01*
X0019041Y0138924D01*
X0019220Y0138926D01*
X0019399Y0138924D01*
X0019577Y0138917D01*
X0019756Y0138906D01*
X0019934Y0138891D01*
X0020112Y0138871D01*
X0020289Y0138847D01*
X0020465Y0138819D01*
X0020641Y0138786D01*
X0020816Y0138749D01*
X0020990Y0138708D01*
X0021162Y0138662D01*
X0021334Y0138612D01*
X0021505Y0138558D01*
X0021674Y0138500D01*
X0021841Y0138438D01*
X0022007Y0138372D01*
X0022171Y0138301D01*
X0022334Y0138227D01*
X0022495Y0138148D01*
X0022653Y0138066D01*
X0022810Y0137980D01*
X0022964Y0137890D01*
X0023116Y0137796D01*
X0023266Y0137699D01*
X0023414Y0137597D01*
X0023558Y0137493D01*
X0023701Y0137385D01*
X0023840Y0137273D01*
X0023977Y0137158D01*
X0024111Y0137039D01*
X0024242Y0136918D01*
X0024370Y0136793D01*
X0024495Y0136665D01*
X0024616Y0136534D01*
X0024735Y0136400D01*
X0024850Y0136263D01*
X0024962Y0136124D01*
X0025070Y0135981D01*
X0025174Y0135837D01*
X0025276Y0135689D01*
X0025373Y0135539D01*
X0025467Y0135387D01*
X0025557Y0135233D01*
X0025643Y0135076D01*
X0025725Y0134918D01*
X0025804Y0134757D01*
X0025878Y0134594D01*
X0025949Y0134430D01*
X0026015Y0134264D01*
X0026077Y0134097D01*
X0026135Y0133928D01*
X0026189Y0133757D01*
X0026239Y0133585D01*
X0026285Y0133413D01*
X0026326Y0133239D01*
X0026363Y0133064D01*
X0026396Y0132888D01*
X0026424Y0132712D01*
X0026448Y0132535D01*
X0026468Y0132357D01*
X0026483Y0132179D01*
X0026494Y0132000D01*
X0026501Y0131822D01*
X0026503Y0131643D01*
X0026501Y0131464D01*
X0026494Y0131286D01*
X0026483Y0131107D01*
X0026468Y0130929D01*
X0026448Y0130751D01*
X0026424Y0130574D01*
X0026396Y0130398D01*
X0026363Y0130222D01*
X0026326Y0130047D01*
X0026285Y0129873D01*
X0026239Y0129701D01*
X0026189Y0129529D01*
X0026135Y0129358D01*
X0026077Y0129189D01*
X0026015Y0129022D01*
X0025949Y0128856D01*
X0025878Y0128692D01*
X0025804Y0128529D01*
X0025725Y0128368D01*
X0025643Y0128210D01*
X0025557Y0128053D01*
X0025467Y0127899D01*
X0025373Y0127747D01*
X0025276Y0127597D01*
X0025174Y0127449D01*
X0025070Y0127305D01*
X0024962Y0127162D01*
X0024850Y0127023D01*
X0024735Y0126886D01*
X0024616Y0126752D01*
X0024495Y0126621D01*
X0024370Y0126493D01*
X0024242Y0126368D01*
X0024111Y0126247D01*
X0023977Y0126128D01*
X0023840Y0126013D01*
X0023701Y0125901D01*
X0023558Y0125793D01*
X0023414Y0125689D01*
X0023266Y0125587D01*
X0023116Y0125490D01*
X0022964Y0125396D01*
X0022810Y0125306D01*
X0022653Y0125220D01*
X0022495Y0125138D01*
X0022334Y0125059D01*
X0022171Y0124985D01*
X0022007Y0124914D01*
X0021841Y0124848D01*
X0021674Y0124786D01*
X0021505Y0124728D01*
X0021334Y0124674D01*
X0021162Y0124624D01*
X0020990Y0124578D01*
X0020816Y0124537D01*
X0020641Y0124500D01*
X0020465Y0124467D01*
X0020289Y0124439D01*
X0020112Y0124415D01*
X0019934Y0124395D01*
X0019756Y0124380D01*
X0019577Y0124369D01*
X0019399Y0124362D01*
X0019220Y0124360D01*
X0019041Y0124362D01*
X0018863Y0124369D01*
X0018684Y0124380D01*
X0018506Y0124395D01*
X0018328Y0124415D01*
X0018151Y0124439D01*
X0017975Y0124467D01*
X0017799Y0124500D01*
X0017624Y0124537D01*
X0017450Y0124578D01*
X0017278Y0124624D01*
X0017106Y0124674D01*
X0016935Y0124728D01*
X0016766Y0124786D01*
X0016599Y0124848D01*
X0016433Y0124914D01*
X0016269Y0124985D01*
X0016106Y0125059D01*
X0015945Y0125138D01*
X0015787Y0125220D01*
X0015630Y0125306D01*
X0015476Y0125396D01*
X0015324Y0125490D01*
X0015174Y0125587D01*
X0015026Y0125689D01*
X0014882Y0125793D01*
X0014739Y0125901D01*
X0014600Y0126013D01*
X0014463Y0126128D01*
X0014329Y0126247D01*
X0014198Y0126368D01*
X0014070Y0126493D01*
X0013945Y0126621D01*
X0013824Y0126752D01*
X0013705Y0126886D01*
X0013590Y0127023D01*
X0013478Y0127162D01*
X0013370Y0127305D01*
X0013266Y0127449D01*
X0013164Y0127597D01*
X0013067Y0127747D01*
X0012973Y0127899D01*
X0012883Y0128053D01*
X0012797Y0128210D01*
X0012715Y0128368D01*
X0012636Y0128529D01*
X0012562Y0128692D01*
X0012491Y0128856D01*
X0012425Y0129022D01*
X0012363Y0129189D01*
X0012305Y0129358D01*
X0012251Y0129529D01*
X0012201Y0129701D01*
X0012155Y0129873D01*
X0012114Y0130047D01*
X0012077Y0130222D01*
X0012044Y0130398D01*
X0012016Y0130574D01*
X0011992Y0130751D01*
X0011972Y0130929D01*
X0011957Y0131107D01*
X0011946Y0131286D01*
X0011939Y0131464D01*
X0011937Y0131643D01*
D11*
X0072191Y0034746D02*
X0138691Y0034746D01*
M02*
