G75*
%MOIN*%
%OFA0B0*%
%FSLAX25Y25*%
%IPPOS*%
%LPD*%
%AMOC8*
5,1,8,0,0,1.08239X$1,22.5*
%
%ADD10C,0.00000*%
%ADD11C,0.00039*%
D10*
X0003472Y0036170D02*
X0003472Y0351131D01*
X0416858Y0351131D01*
X0416858Y0036170D01*
X0003472Y0036170D01*
X0018039Y0060186D02*
X0018039Y0064123D01*
X0029063Y0064123D01*
X0029063Y0060186D01*
X0018039Y0060186D01*
X0040480Y0068454D02*
X0040480Y0079477D01*
X0044417Y0079477D01*
X0044417Y0068454D01*
X0040480Y0068454D01*
X0030047Y0084202D02*
X0030047Y0088139D01*
X0017055Y0088139D01*
X0017055Y0084202D01*
X0030047Y0084202D01*
X0076541Y0063335D02*
X0076543Y0063495D01*
X0076549Y0063654D01*
X0076559Y0063813D01*
X0076573Y0063972D01*
X0076591Y0064131D01*
X0076612Y0064289D01*
X0076638Y0064446D01*
X0076668Y0064603D01*
X0076701Y0064759D01*
X0076739Y0064914D01*
X0076780Y0065068D01*
X0076825Y0065221D01*
X0076874Y0065373D01*
X0076927Y0065524D01*
X0076983Y0065673D01*
X0077044Y0065821D01*
X0077107Y0065967D01*
X0077175Y0066112D01*
X0077246Y0066255D01*
X0077320Y0066396D01*
X0077398Y0066535D01*
X0077480Y0066672D01*
X0077565Y0066807D01*
X0077653Y0066940D01*
X0077745Y0067071D01*
X0077839Y0067199D01*
X0077937Y0067325D01*
X0078038Y0067449D01*
X0078142Y0067570D01*
X0078249Y0067688D01*
X0078359Y0067804D01*
X0078472Y0067917D01*
X0078588Y0068027D01*
X0078706Y0068134D01*
X0078827Y0068238D01*
X0078951Y0068339D01*
X0079077Y0068437D01*
X0079205Y0068531D01*
X0079336Y0068623D01*
X0079469Y0068711D01*
X0079604Y0068796D01*
X0079741Y0068878D01*
X0079880Y0068956D01*
X0080021Y0069030D01*
X0080164Y0069101D01*
X0080309Y0069169D01*
X0080455Y0069232D01*
X0080603Y0069293D01*
X0080752Y0069349D01*
X0080903Y0069402D01*
X0081055Y0069451D01*
X0081208Y0069496D01*
X0081362Y0069537D01*
X0081517Y0069575D01*
X0081673Y0069608D01*
X0081830Y0069638D01*
X0081987Y0069664D01*
X0082145Y0069685D01*
X0082304Y0069703D01*
X0082463Y0069717D01*
X0082622Y0069727D01*
X0082781Y0069733D01*
X0082941Y0069735D01*
X0083101Y0069733D01*
X0083260Y0069727D01*
X0083419Y0069717D01*
X0083578Y0069703D01*
X0083737Y0069685D01*
X0083895Y0069664D01*
X0084052Y0069638D01*
X0084209Y0069608D01*
X0084365Y0069575D01*
X0084520Y0069537D01*
X0084674Y0069496D01*
X0084827Y0069451D01*
X0084979Y0069402D01*
X0085130Y0069349D01*
X0085279Y0069293D01*
X0085427Y0069232D01*
X0085573Y0069169D01*
X0085718Y0069101D01*
X0085861Y0069030D01*
X0086002Y0068956D01*
X0086141Y0068878D01*
X0086278Y0068796D01*
X0086413Y0068711D01*
X0086546Y0068623D01*
X0086677Y0068531D01*
X0086805Y0068437D01*
X0086931Y0068339D01*
X0087055Y0068238D01*
X0087176Y0068134D01*
X0087294Y0068027D01*
X0087410Y0067917D01*
X0087523Y0067804D01*
X0087633Y0067688D01*
X0087740Y0067570D01*
X0087844Y0067449D01*
X0087945Y0067325D01*
X0088043Y0067199D01*
X0088137Y0067071D01*
X0088229Y0066940D01*
X0088317Y0066807D01*
X0088402Y0066672D01*
X0088484Y0066535D01*
X0088562Y0066396D01*
X0088636Y0066255D01*
X0088707Y0066112D01*
X0088775Y0065967D01*
X0088838Y0065821D01*
X0088899Y0065673D01*
X0088955Y0065524D01*
X0089008Y0065373D01*
X0089057Y0065221D01*
X0089102Y0065068D01*
X0089143Y0064914D01*
X0089181Y0064759D01*
X0089214Y0064603D01*
X0089244Y0064446D01*
X0089270Y0064289D01*
X0089291Y0064131D01*
X0089309Y0063972D01*
X0089323Y0063813D01*
X0089333Y0063654D01*
X0089339Y0063495D01*
X0089341Y0063335D01*
X0089339Y0063175D01*
X0089333Y0063016D01*
X0089323Y0062857D01*
X0089309Y0062698D01*
X0089291Y0062539D01*
X0089270Y0062381D01*
X0089244Y0062224D01*
X0089214Y0062067D01*
X0089181Y0061911D01*
X0089143Y0061756D01*
X0089102Y0061602D01*
X0089057Y0061449D01*
X0089008Y0061297D01*
X0088955Y0061146D01*
X0088899Y0060997D01*
X0088838Y0060849D01*
X0088775Y0060703D01*
X0088707Y0060558D01*
X0088636Y0060415D01*
X0088562Y0060274D01*
X0088484Y0060135D01*
X0088402Y0059998D01*
X0088317Y0059863D01*
X0088229Y0059730D01*
X0088137Y0059599D01*
X0088043Y0059471D01*
X0087945Y0059345D01*
X0087844Y0059221D01*
X0087740Y0059100D01*
X0087633Y0058982D01*
X0087523Y0058866D01*
X0087410Y0058753D01*
X0087294Y0058643D01*
X0087176Y0058536D01*
X0087055Y0058432D01*
X0086931Y0058331D01*
X0086805Y0058233D01*
X0086677Y0058139D01*
X0086546Y0058047D01*
X0086413Y0057959D01*
X0086278Y0057874D01*
X0086141Y0057792D01*
X0086002Y0057714D01*
X0085861Y0057640D01*
X0085718Y0057569D01*
X0085573Y0057501D01*
X0085427Y0057438D01*
X0085279Y0057377D01*
X0085130Y0057321D01*
X0084979Y0057268D01*
X0084827Y0057219D01*
X0084674Y0057174D01*
X0084520Y0057133D01*
X0084365Y0057095D01*
X0084209Y0057062D01*
X0084052Y0057032D01*
X0083895Y0057006D01*
X0083737Y0056985D01*
X0083578Y0056967D01*
X0083419Y0056953D01*
X0083260Y0056943D01*
X0083101Y0056937D01*
X0082941Y0056935D01*
X0082781Y0056937D01*
X0082622Y0056943D01*
X0082463Y0056953D01*
X0082304Y0056967D01*
X0082145Y0056985D01*
X0081987Y0057006D01*
X0081830Y0057032D01*
X0081673Y0057062D01*
X0081517Y0057095D01*
X0081362Y0057133D01*
X0081208Y0057174D01*
X0081055Y0057219D01*
X0080903Y0057268D01*
X0080752Y0057321D01*
X0080603Y0057377D01*
X0080455Y0057438D01*
X0080309Y0057501D01*
X0080164Y0057569D01*
X0080021Y0057640D01*
X0079880Y0057714D01*
X0079741Y0057792D01*
X0079604Y0057874D01*
X0079469Y0057959D01*
X0079336Y0058047D01*
X0079205Y0058139D01*
X0079077Y0058233D01*
X0078951Y0058331D01*
X0078827Y0058432D01*
X0078706Y0058536D01*
X0078588Y0058643D01*
X0078472Y0058753D01*
X0078359Y0058866D01*
X0078249Y0058982D01*
X0078142Y0059100D01*
X0078038Y0059221D01*
X0077937Y0059345D01*
X0077839Y0059471D01*
X0077745Y0059599D01*
X0077653Y0059730D01*
X0077565Y0059863D01*
X0077480Y0059998D01*
X0077398Y0060135D01*
X0077320Y0060274D01*
X0077246Y0060415D01*
X0077175Y0060558D01*
X0077107Y0060703D01*
X0077044Y0060849D01*
X0076983Y0060997D01*
X0076927Y0061146D01*
X0076874Y0061297D01*
X0076825Y0061449D01*
X0076780Y0061602D01*
X0076739Y0061756D01*
X0076701Y0061911D01*
X0076668Y0062067D01*
X0076638Y0062224D01*
X0076612Y0062381D01*
X0076591Y0062539D01*
X0076573Y0062698D01*
X0076559Y0062857D01*
X0076549Y0063016D01*
X0076543Y0063175D01*
X0076541Y0063335D01*
X0121541Y0063335D02*
X0121543Y0063495D01*
X0121549Y0063654D01*
X0121559Y0063813D01*
X0121573Y0063972D01*
X0121591Y0064131D01*
X0121612Y0064289D01*
X0121638Y0064446D01*
X0121668Y0064603D01*
X0121701Y0064759D01*
X0121739Y0064914D01*
X0121780Y0065068D01*
X0121825Y0065221D01*
X0121874Y0065373D01*
X0121927Y0065524D01*
X0121983Y0065673D01*
X0122044Y0065821D01*
X0122107Y0065967D01*
X0122175Y0066112D01*
X0122246Y0066255D01*
X0122320Y0066396D01*
X0122398Y0066535D01*
X0122480Y0066672D01*
X0122565Y0066807D01*
X0122653Y0066940D01*
X0122745Y0067071D01*
X0122839Y0067199D01*
X0122937Y0067325D01*
X0123038Y0067449D01*
X0123142Y0067570D01*
X0123249Y0067688D01*
X0123359Y0067804D01*
X0123472Y0067917D01*
X0123588Y0068027D01*
X0123706Y0068134D01*
X0123827Y0068238D01*
X0123951Y0068339D01*
X0124077Y0068437D01*
X0124205Y0068531D01*
X0124336Y0068623D01*
X0124469Y0068711D01*
X0124604Y0068796D01*
X0124741Y0068878D01*
X0124880Y0068956D01*
X0125021Y0069030D01*
X0125164Y0069101D01*
X0125309Y0069169D01*
X0125455Y0069232D01*
X0125603Y0069293D01*
X0125752Y0069349D01*
X0125903Y0069402D01*
X0126055Y0069451D01*
X0126208Y0069496D01*
X0126362Y0069537D01*
X0126517Y0069575D01*
X0126673Y0069608D01*
X0126830Y0069638D01*
X0126987Y0069664D01*
X0127145Y0069685D01*
X0127304Y0069703D01*
X0127463Y0069717D01*
X0127622Y0069727D01*
X0127781Y0069733D01*
X0127941Y0069735D01*
X0128101Y0069733D01*
X0128260Y0069727D01*
X0128419Y0069717D01*
X0128578Y0069703D01*
X0128737Y0069685D01*
X0128895Y0069664D01*
X0129052Y0069638D01*
X0129209Y0069608D01*
X0129365Y0069575D01*
X0129520Y0069537D01*
X0129674Y0069496D01*
X0129827Y0069451D01*
X0129979Y0069402D01*
X0130130Y0069349D01*
X0130279Y0069293D01*
X0130427Y0069232D01*
X0130573Y0069169D01*
X0130718Y0069101D01*
X0130861Y0069030D01*
X0131002Y0068956D01*
X0131141Y0068878D01*
X0131278Y0068796D01*
X0131413Y0068711D01*
X0131546Y0068623D01*
X0131677Y0068531D01*
X0131805Y0068437D01*
X0131931Y0068339D01*
X0132055Y0068238D01*
X0132176Y0068134D01*
X0132294Y0068027D01*
X0132410Y0067917D01*
X0132523Y0067804D01*
X0132633Y0067688D01*
X0132740Y0067570D01*
X0132844Y0067449D01*
X0132945Y0067325D01*
X0133043Y0067199D01*
X0133137Y0067071D01*
X0133229Y0066940D01*
X0133317Y0066807D01*
X0133402Y0066672D01*
X0133484Y0066535D01*
X0133562Y0066396D01*
X0133636Y0066255D01*
X0133707Y0066112D01*
X0133775Y0065967D01*
X0133838Y0065821D01*
X0133899Y0065673D01*
X0133955Y0065524D01*
X0134008Y0065373D01*
X0134057Y0065221D01*
X0134102Y0065068D01*
X0134143Y0064914D01*
X0134181Y0064759D01*
X0134214Y0064603D01*
X0134244Y0064446D01*
X0134270Y0064289D01*
X0134291Y0064131D01*
X0134309Y0063972D01*
X0134323Y0063813D01*
X0134333Y0063654D01*
X0134339Y0063495D01*
X0134341Y0063335D01*
X0134339Y0063175D01*
X0134333Y0063016D01*
X0134323Y0062857D01*
X0134309Y0062698D01*
X0134291Y0062539D01*
X0134270Y0062381D01*
X0134244Y0062224D01*
X0134214Y0062067D01*
X0134181Y0061911D01*
X0134143Y0061756D01*
X0134102Y0061602D01*
X0134057Y0061449D01*
X0134008Y0061297D01*
X0133955Y0061146D01*
X0133899Y0060997D01*
X0133838Y0060849D01*
X0133775Y0060703D01*
X0133707Y0060558D01*
X0133636Y0060415D01*
X0133562Y0060274D01*
X0133484Y0060135D01*
X0133402Y0059998D01*
X0133317Y0059863D01*
X0133229Y0059730D01*
X0133137Y0059599D01*
X0133043Y0059471D01*
X0132945Y0059345D01*
X0132844Y0059221D01*
X0132740Y0059100D01*
X0132633Y0058982D01*
X0132523Y0058866D01*
X0132410Y0058753D01*
X0132294Y0058643D01*
X0132176Y0058536D01*
X0132055Y0058432D01*
X0131931Y0058331D01*
X0131805Y0058233D01*
X0131677Y0058139D01*
X0131546Y0058047D01*
X0131413Y0057959D01*
X0131278Y0057874D01*
X0131141Y0057792D01*
X0131002Y0057714D01*
X0130861Y0057640D01*
X0130718Y0057569D01*
X0130573Y0057501D01*
X0130427Y0057438D01*
X0130279Y0057377D01*
X0130130Y0057321D01*
X0129979Y0057268D01*
X0129827Y0057219D01*
X0129674Y0057174D01*
X0129520Y0057133D01*
X0129365Y0057095D01*
X0129209Y0057062D01*
X0129052Y0057032D01*
X0128895Y0057006D01*
X0128737Y0056985D01*
X0128578Y0056967D01*
X0128419Y0056953D01*
X0128260Y0056943D01*
X0128101Y0056937D01*
X0127941Y0056935D01*
X0127781Y0056937D01*
X0127622Y0056943D01*
X0127463Y0056953D01*
X0127304Y0056967D01*
X0127145Y0056985D01*
X0126987Y0057006D01*
X0126830Y0057032D01*
X0126673Y0057062D01*
X0126517Y0057095D01*
X0126362Y0057133D01*
X0126208Y0057174D01*
X0126055Y0057219D01*
X0125903Y0057268D01*
X0125752Y0057321D01*
X0125603Y0057377D01*
X0125455Y0057438D01*
X0125309Y0057501D01*
X0125164Y0057569D01*
X0125021Y0057640D01*
X0124880Y0057714D01*
X0124741Y0057792D01*
X0124604Y0057874D01*
X0124469Y0057959D01*
X0124336Y0058047D01*
X0124205Y0058139D01*
X0124077Y0058233D01*
X0123951Y0058331D01*
X0123827Y0058432D01*
X0123706Y0058536D01*
X0123588Y0058643D01*
X0123472Y0058753D01*
X0123359Y0058866D01*
X0123249Y0058982D01*
X0123142Y0059100D01*
X0123038Y0059221D01*
X0122937Y0059345D01*
X0122839Y0059471D01*
X0122745Y0059599D01*
X0122653Y0059730D01*
X0122565Y0059863D01*
X0122480Y0059998D01*
X0122398Y0060135D01*
X0122320Y0060274D01*
X0122246Y0060415D01*
X0122175Y0060558D01*
X0122107Y0060703D01*
X0122044Y0060849D01*
X0121983Y0060997D01*
X0121927Y0061146D01*
X0121874Y0061297D01*
X0121825Y0061449D01*
X0121780Y0061602D01*
X0121739Y0061756D01*
X0121701Y0061911D01*
X0121668Y0062067D01*
X0121638Y0062224D01*
X0121612Y0062381D01*
X0121591Y0062539D01*
X0121573Y0062698D01*
X0121559Y0062857D01*
X0121549Y0063016D01*
X0121543Y0063175D01*
X0121541Y0063335D01*
X0151216Y0071800D02*
X0151218Y0071961D01*
X0151224Y0072121D01*
X0151234Y0072282D01*
X0151248Y0072442D01*
X0151266Y0072602D01*
X0151287Y0072761D01*
X0151313Y0072920D01*
X0151343Y0073078D01*
X0151376Y0073235D01*
X0151414Y0073392D01*
X0151455Y0073547D01*
X0151500Y0073701D01*
X0151549Y0073854D01*
X0151602Y0074006D01*
X0151658Y0074157D01*
X0151719Y0074306D01*
X0151782Y0074454D01*
X0151850Y0074600D01*
X0151921Y0074744D01*
X0151995Y0074886D01*
X0152073Y0075027D01*
X0152155Y0075165D01*
X0152240Y0075302D01*
X0152328Y0075436D01*
X0152420Y0075568D01*
X0152515Y0075698D01*
X0152613Y0075826D01*
X0152714Y0075951D01*
X0152818Y0076073D01*
X0152925Y0076193D01*
X0153035Y0076310D01*
X0153148Y0076425D01*
X0153264Y0076536D01*
X0153383Y0076645D01*
X0153504Y0076750D01*
X0153628Y0076853D01*
X0153754Y0076953D01*
X0153882Y0077049D01*
X0154013Y0077142D01*
X0154147Y0077232D01*
X0154282Y0077319D01*
X0154420Y0077402D01*
X0154559Y0077482D01*
X0154701Y0077558D01*
X0154844Y0077631D01*
X0154989Y0077700D01*
X0155136Y0077766D01*
X0155284Y0077828D01*
X0155434Y0077886D01*
X0155585Y0077941D01*
X0155738Y0077992D01*
X0155892Y0078039D01*
X0156047Y0078082D01*
X0156203Y0078121D01*
X0156359Y0078157D01*
X0156517Y0078188D01*
X0156675Y0078216D01*
X0156834Y0078240D01*
X0156994Y0078260D01*
X0157154Y0078276D01*
X0157314Y0078288D01*
X0157475Y0078296D01*
X0157636Y0078300D01*
X0157796Y0078300D01*
X0157957Y0078296D01*
X0158118Y0078288D01*
X0158278Y0078276D01*
X0158438Y0078260D01*
X0158598Y0078240D01*
X0158757Y0078216D01*
X0158915Y0078188D01*
X0159073Y0078157D01*
X0159229Y0078121D01*
X0159385Y0078082D01*
X0159540Y0078039D01*
X0159694Y0077992D01*
X0159847Y0077941D01*
X0159998Y0077886D01*
X0160148Y0077828D01*
X0160296Y0077766D01*
X0160443Y0077700D01*
X0160588Y0077631D01*
X0160731Y0077558D01*
X0160873Y0077482D01*
X0161012Y0077402D01*
X0161150Y0077319D01*
X0161285Y0077232D01*
X0161419Y0077142D01*
X0161550Y0077049D01*
X0161678Y0076953D01*
X0161804Y0076853D01*
X0161928Y0076750D01*
X0162049Y0076645D01*
X0162168Y0076536D01*
X0162284Y0076425D01*
X0162397Y0076310D01*
X0162507Y0076193D01*
X0162614Y0076073D01*
X0162718Y0075951D01*
X0162819Y0075826D01*
X0162917Y0075698D01*
X0163012Y0075568D01*
X0163104Y0075436D01*
X0163192Y0075302D01*
X0163277Y0075165D01*
X0163359Y0075027D01*
X0163437Y0074886D01*
X0163511Y0074744D01*
X0163582Y0074600D01*
X0163650Y0074454D01*
X0163713Y0074306D01*
X0163774Y0074157D01*
X0163830Y0074006D01*
X0163883Y0073854D01*
X0163932Y0073701D01*
X0163977Y0073547D01*
X0164018Y0073392D01*
X0164056Y0073235D01*
X0164089Y0073078D01*
X0164119Y0072920D01*
X0164145Y0072761D01*
X0164166Y0072602D01*
X0164184Y0072442D01*
X0164198Y0072282D01*
X0164208Y0072121D01*
X0164214Y0071961D01*
X0164216Y0071800D01*
X0164214Y0071639D01*
X0164208Y0071479D01*
X0164198Y0071318D01*
X0164184Y0071158D01*
X0164166Y0070998D01*
X0164145Y0070839D01*
X0164119Y0070680D01*
X0164089Y0070522D01*
X0164056Y0070365D01*
X0164018Y0070208D01*
X0163977Y0070053D01*
X0163932Y0069899D01*
X0163883Y0069746D01*
X0163830Y0069594D01*
X0163774Y0069443D01*
X0163713Y0069294D01*
X0163650Y0069146D01*
X0163582Y0069000D01*
X0163511Y0068856D01*
X0163437Y0068714D01*
X0163359Y0068573D01*
X0163277Y0068435D01*
X0163192Y0068298D01*
X0163104Y0068164D01*
X0163012Y0068032D01*
X0162917Y0067902D01*
X0162819Y0067774D01*
X0162718Y0067649D01*
X0162614Y0067527D01*
X0162507Y0067407D01*
X0162397Y0067290D01*
X0162284Y0067175D01*
X0162168Y0067064D01*
X0162049Y0066955D01*
X0161928Y0066850D01*
X0161804Y0066747D01*
X0161678Y0066647D01*
X0161550Y0066551D01*
X0161419Y0066458D01*
X0161285Y0066368D01*
X0161150Y0066281D01*
X0161012Y0066198D01*
X0160873Y0066118D01*
X0160731Y0066042D01*
X0160588Y0065969D01*
X0160443Y0065900D01*
X0160296Y0065834D01*
X0160148Y0065772D01*
X0159998Y0065714D01*
X0159847Y0065659D01*
X0159694Y0065608D01*
X0159540Y0065561D01*
X0159385Y0065518D01*
X0159229Y0065479D01*
X0159073Y0065443D01*
X0158915Y0065412D01*
X0158757Y0065384D01*
X0158598Y0065360D01*
X0158438Y0065340D01*
X0158278Y0065324D01*
X0158118Y0065312D01*
X0157957Y0065304D01*
X0157796Y0065300D01*
X0157636Y0065300D01*
X0157475Y0065304D01*
X0157314Y0065312D01*
X0157154Y0065324D01*
X0156994Y0065340D01*
X0156834Y0065360D01*
X0156675Y0065384D01*
X0156517Y0065412D01*
X0156359Y0065443D01*
X0156203Y0065479D01*
X0156047Y0065518D01*
X0155892Y0065561D01*
X0155738Y0065608D01*
X0155585Y0065659D01*
X0155434Y0065714D01*
X0155284Y0065772D01*
X0155136Y0065834D01*
X0154989Y0065900D01*
X0154844Y0065969D01*
X0154701Y0066042D01*
X0154559Y0066118D01*
X0154420Y0066198D01*
X0154282Y0066281D01*
X0154147Y0066368D01*
X0154013Y0066458D01*
X0153882Y0066551D01*
X0153754Y0066647D01*
X0153628Y0066747D01*
X0153504Y0066850D01*
X0153383Y0066955D01*
X0153264Y0067064D01*
X0153148Y0067175D01*
X0153035Y0067290D01*
X0152925Y0067407D01*
X0152818Y0067527D01*
X0152714Y0067649D01*
X0152613Y0067774D01*
X0152515Y0067902D01*
X0152420Y0068032D01*
X0152328Y0068164D01*
X0152240Y0068298D01*
X0152155Y0068435D01*
X0152073Y0068573D01*
X0151995Y0068714D01*
X0151921Y0068856D01*
X0151850Y0069000D01*
X0151782Y0069146D01*
X0151719Y0069294D01*
X0151658Y0069443D01*
X0151602Y0069594D01*
X0151549Y0069746D01*
X0151500Y0069899D01*
X0151455Y0070053D01*
X0151414Y0070208D01*
X0151376Y0070365D01*
X0151343Y0070522D01*
X0151313Y0070680D01*
X0151287Y0070839D01*
X0151266Y0070998D01*
X0151248Y0071158D01*
X0151234Y0071318D01*
X0151224Y0071479D01*
X0151218Y0071639D01*
X0151216Y0071800D01*
X0158708Y0118454D02*
X0158710Y0118533D01*
X0158716Y0118612D01*
X0158726Y0118691D01*
X0158740Y0118769D01*
X0158757Y0118846D01*
X0158779Y0118922D01*
X0158804Y0118997D01*
X0158834Y0119070D01*
X0158866Y0119142D01*
X0158903Y0119213D01*
X0158943Y0119281D01*
X0158986Y0119347D01*
X0159032Y0119411D01*
X0159082Y0119473D01*
X0159135Y0119532D01*
X0159190Y0119588D01*
X0159249Y0119642D01*
X0159310Y0119692D01*
X0159373Y0119740D01*
X0159439Y0119784D01*
X0159507Y0119825D01*
X0159577Y0119862D01*
X0159648Y0119896D01*
X0159722Y0119926D01*
X0159796Y0119952D01*
X0159872Y0119974D01*
X0159949Y0119993D01*
X0160027Y0120008D01*
X0160105Y0120019D01*
X0160184Y0120026D01*
X0160263Y0120029D01*
X0160342Y0120028D01*
X0160421Y0120023D01*
X0160500Y0120014D01*
X0160578Y0120001D01*
X0160655Y0119984D01*
X0160732Y0119964D01*
X0160807Y0119939D01*
X0160881Y0119911D01*
X0160954Y0119879D01*
X0161024Y0119844D01*
X0161093Y0119805D01*
X0161160Y0119762D01*
X0161225Y0119716D01*
X0161287Y0119668D01*
X0161347Y0119616D01*
X0161404Y0119561D01*
X0161458Y0119503D01*
X0161509Y0119443D01*
X0161557Y0119380D01*
X0161602Y0119315D01*
X0161644Y0119247D01*
X0161682Y0119178D01*
X0161716Y0119107D01*
X0161747Y0119034D01*
X0161775Y0118959D01*
X0161798Y0118884D01*
X0161818Y0118807D01*
X0161834Y0118730D01*
X0161846Y0118651D01*
X0161854Y0118573D01*
X0161858Y0118494D01*
X0161858Y0118414D01*
X0161854Y0118335D01*
X0161846Y0118257D01*
X0161834Y0118178D01*
X0161818Y0118101D01*
X0161798Y0118024D01*
X0161775Y0117949D01*
X0161747Y0117874D01*
X0161716Y0117801D01*
X0161682Y0117730D01*
X0161644Y0117661D01*
X0161602Y0117593D01*
X0161557Y0117528D01*
X0161509Y0117465D01*
X0161458Y0117405D01*
X0161404Y0117347D01*
X0161347Y0117292D01*
X0161287Y0117240D01*
X0161225Y0117192D01*
X0161160Y0117146D01*
X0161093Y0117103D01*
X0161024Y0117064D01*
X0160954Y0117029D01*
X0160881Y0116997D01*
X0160807Y0116969D01*
X0160732Y0116944D01*
X0160655Y0116924D01*
X0160578Y0116907D01*
X0160500Y0116894D01*
X0160421Y0116885D01*
X0160342Y0116880D01*
X0160263Y0116879D01*
X0160184Y0116882D01*
X0160105Y0116889D01*
X0160027Y0116900D01*
X0159949Y0116915D01*
X0159872Y0116934D01*
X0159796Y0116956D01*
X0159722Y0116982D01*
X0159648Y0117012D01*
X0159577Y0117046D01*
X0159507Y0117083D01*
X0159439Y0117124D01*
X0159373Y0117168D01*
X0159310Y0117216D01*
X0159249Y0117266D01*
X0159190Y0117320D01*
X0159135Y0117376D01*
X0159082Y0117435D01*
X0159032Y0117497D01*
X0158986Y0117561D01*
X0158943Y0117627D01*
X0158903Y0117695D01*
X0158866Y0117766D01*
X0158834Y0117838D01*
X0158804Y0117911D01*
X0158779Y0117986D01*
X0158757Y0118062D01*
X0158740Y0118139D01*
X0158726Y0118217D01*
X0158716Y0118296D01*
X0158710Y0118375D01*
X0158708Y0118454D01*
X0158708Y0148454D02*
X0158710Y0148533D01*
X0158716Y0148612D01*
X0158726Y0148691D01*
X0158740Y0148769D01*
X0158757Y0148846D01*
X0158779Y0148922D01*
X0158804Y0148997D01*
X0158834Y0149070D01*
X0158866Y0149142D01*
X0158903Y0149213D01*
X0158943Y0149281D01*
X0158986Y0149347D01*
X0159032Y0149411D01*
X0159082Y0149473D01*
X0159135Y0149532D01*
X0159190Y0149588D01*
X0159249Y0149642D01*
X0159310Y0149692D01*
X0159373Y0149740D01*
X0159439Y0149784D01*
X0159507Y0149825D01*
X0159577Y0149862D01*
X0159648Y0149896D01*
X0159722Y0149926D01*
X0159796Y0149952D01*
X0159872Y0149974D01*
X0159949Y0149993D01*
X0160027Y0150008D01*
X0160105Y0150019D01*
X0160184Y0150026D01*
X0160263Y0150029D01*
X0160342Y0150028D01*
X0160421Y0150023D01*
X0160500Y0150014D01*
X0160578Y0150001D01*
X0160655Y0149984D01*
X0160732Y0149964D01*
X0160807Y0149939D01*
X0160881Y0149911D01*
X0160954Y0149879D01*
X0161024Y0149844D01*
X0161093Y0149805D01*
X0161160Y0149762D01*
X0161225Y0149716D01*
X0161287Y0149668D01*
X0161347Y0149616D01*
X0161404Y0149561D01*
X0161458Y0149503D01*
X0161509Y0149443D01*
X0161557Y0149380D01*
X0161602Y0149315D01*
X0161644Y0149247D01*
X0161682Y0149178D01*
X0161716Y0149107D01*
X0161747Y0149034D01*
X0161775Y0148959D01*
X0161798Y0148884D01*
X0161818Y0148807D01*
X0161834Y0148730D01*
X0161846Y0148651D01*
X0161854Y0148573D01*
X0161858Y0148494D01*
X0161858Y0148414D01*
X0161854Y0148335D01*
X0161846Y0148257D01*
X0161834Y0148178D01*
X0161818Y0148101D01*
X0161798Y0148024D01*
X0161775Y0147949D01*
X0161747Y0147874D01*
X0161716Y0147801D01*
X0161682Y0147730D01*
X0161644Y0147661D01*
X0161602Y0147593D01*
X0161557Y0147528D01*
X0161509Y0147465D01*
X0161458Y0147405D01*
X0161404Y0147347D01*
X0161347Y0147292D01*
X0161287Y0147240D01*
X0161225Y0147192D01*
X0161160Y0147146D01*
X0161093Y0147103D01*
X0161024Y0147064D01*
X0160954Y0147029D01*
X0160881Y0146997D01*
X0160807Y0146969D01*
X0160732Y0146944D01*
X0160655Y0146924D01*
X0160578Y0146907D01*
X0160500Y0146894D01*
X0160421Y0146885D01*
X0160342Y0146880D01*
X0160263Y0146879D01*
X0160184Y0146882D01*
X0160105Y0146889D01*
X0160027Y0146900D01*
X0159949Y0146915D01*
X0159872Y0146934D01*
X0159796Y0146956D01*
X0159722Y0146982D01*
X0159648Y0147012D01*
X0159577Y0147046D01*
X0159507Y0147083D01*
X0159439Y0147124D01*
X0159373Y0147168D01*
X0159310Y0147216D01*
X0159249Y0147266D01*
X0159190Y0147320D01*
X0159135Y0147376D01*
X0159082Y0147435D01*
X0159032Y0147497D01*
X0158986Y0147561D01*
X0158943Y0147627D01*
X0158903Y0147695D01*
X0158866Y0147766D01*
X0158834Y0147838D01*
X0158804Y0147911D01*
X0158779Y0147986D01*
X0158757Y0148062D01*
X0158740Y0148139D01*
X0158726Y0148217D01*
X0158716Y0148296D01*
X0158710Y0148375D01*
X0158708Y0148454D01*
X0208708Y0148454D02*
X0208710Y0148533D01*
X0208716Y0148612D01*
X0208726Y0148691D01*
X0208740Y0148769D01*
X0208757Y0148846D01*
X0208779Y0148922D01*
X0208804Y0148997D01*
X0208834Y0149070D01*
X0208866Y0149142D01*
X0208903Y0149213D01*
X0208943Y0149281D01*
X0208986Y0149347D01*
X0209032Y0149411D01*
X0209082Y0149473D01*
X0209135Y0149532D01*
X0209190Y0149588D01*
X0209249Y0149642D01*
X0209310Y0149692D01*
X0209373Y0149740D01*
X0209439Y0149784D01*
X0209507Y0149825D01*
X0209577Y0149862D01*
X0209648Y0149896D01*
X0209722Y0149926D01*
X0209796Y0149952D01*
X0209872Y0149974D01*
X0209949Y0149993D01*
X0210027Y0150008D01*
X0210105Y0150019D01*
X0210184Y0150026D01*
X0210263Y0150029D01*
X0210342Y0150028D01*
X0210421Y0150023D01*
X0210500Y0150014D01*
X0210578Y0150001D01*
X0210655Y0149984D01*
X0210732Y0149964D01*
X0210807Y0149939D01*
X0210881Y0149911D01*
X0210954Y0149879D01*
X0211024Y0149844D01*
X0211093Y0149805D01*
X0211160Y0149762D01*
X0211225Y0149716D01*
X0211287Y0149668D01*
X0211347Y0149616D01*
X0211404Y0149561D01*
X0211458Y0149503D01*
X0211509Y0149443D01*
X0211557Y0149380D01*
X0211602Y0149315D01*
X0211644Y0149247D01*
X0211682Y0149178D01*
X0211716Y0149107D01*
X0211747Y0149034D01*
X0211775Y0148959D01*
X0211798Y0148884D01*
X0211818Y0148807D01*
X0211834Y0148730D01*
X0211846Y0148651D01*
X0211854Y0148573D01*
X0211858Y0148494D01*
X0211858Y0148414D01*
X0211854Y0148335D01*
X0211846Y0148257D01*
X0211834Y0148178D01*
X0211818Y0148101D01*
X0211798Y0148024D01*
X0211775Y0147949D01*
X0211747Y0147874D01*
X0211716Y0147801D01*
X0211682Y0147730D01*
X0211644Y0147661D01*
X0211602Y0147593D01*
X0211557Y0147528D01*
X0211509Y0147465D01*
X0211458Y0147405D01*
X0211404Y0147347D01*
X0211347Y0147292D01*
X0211287Y0147240D01*
X0211225Y0147192D01*
X0211160Y0147146D01*
X0211093Y0147103D01*
X0211024Y0147064D01*
X0210954Y0147029D01*
X0210881Y0146997D01*
X0210807Y0146969D01*
X0210732Y0146944D01*
X0210655Y0146924D01*
X0210578Y0146907D01*
X0210500Y0146894D01*
X0210421Y0146885D01*
X0210342Y0146880D01*
X0210263Y0146879D01*
X0210184Y0146882D01*
X0210105Y0146889D01*
X0210027Y0146900D01*
X0209949Y0146915D01*
X0209872Y0146934D01*
X0209796Y0146956D01*
X0209722Y0146982D01*
X0209648Y0147012D01*
X0209577Y0147046D01*
X0209507Y0147083D01*
X0209439Y0147124D01*
X0209373Y0147168D01*
X0209310Y0147216D01*
X0209249Y0147266D01*
X0209190Y0147320D01*
X0209135Y0147376D01*
X0209082Y0147435D01*
X0209032Y0147497D01*
X0208986Y0147561D01*
X0208943Y0147627D01*
X0208903Y0147695D01*
X0208866Y0147766D01*
X0208834Y0147838D01*
X0208804Y0147911D01*
X0208779Y0147986D01*
X0208757Y0148062D01*
X0208740Y0148139D01*
X0208726Y0148217D01*
X0208716Y0148296D01*
X0208710Y0148375D01*
X0208708Y0148454D01*
X0237645Y0148454D02*
X0237647Y0148533D01*
X0237653Y0148612D01*
X0237663Y0148691D01*
X0237677Y0148769D01*
X0237694Y0148846D01*
X0237716Y0148922D01*
X0237741Y0148997D01*
X0237771Y0149070D01*
X0237803Y0149142D01*
X0237840Y0149213D01*
X0237880Y0149281D01*
X0237923Y0149347D01*
X0237969Y0149411D01*
X0238019Y0149473D01*
X0238072Y0149532D01*
X0238127Y0149588D01*
X0238186Y0149642D01*
X0238247Y0149692D01*
X0238310Y0149740D01*
X0238376Y0149784D01*
X0238444Y0149825D01*
X0238514Y0149862D01*
X0238585Y0149896D01*
X0238659Y0149926D01*
X0238733Y0149952D01*
X0238809Y0149974D01*
X0238886Y0149993D01*
X0238964Y0150008D01*
X0239042Y0150019D01*
X0239121Y0150026D01*
X0239200Y0150029D01*
X0239279Y0150028D01*
X0239358Y0150023D01*
X0239437Y0150014D01*
X0239515Y0150001D01*
X0239592Y0149984D01*
X0239669Y0149964D01*
X0239744Y0149939D01*
X0239818Y0149911D01*
X0239891Y0149879D01*
X0239961Y0149844D01*
X0240030Y0149805D01*
X0240097Y0149762D01*
X0240162Y0149716D01*
X0240224Y0149668D01*
X0240284Y0149616D01*
X0240341Y0149561D01*
X0240395Y0149503D01*
X0240446Y0149443D01*
X0240494Y0149380D01*
X0240539Y0149315D01*
X0240581Y0149247D01*
X0240619Y0149178D01*
X0240653Y0149107D01*
X0240684Y0149034D01*
X0240712Y0148959D01*
X0240735Y0148884D01*
X0240755Y0148807D01*
X0240771Y0148730D01*
X0240783Y0148651D01*
X0240791Y0148573D01*
X0240795Y0148494D01*
X0240795Y0148414D01*
X0240791Y0148335D01*
X0240783Y0148257D01*
X0240771Y0148178D01*
X0240755Y0148101D01*
X0240735Y0148024D01*
X0240712Y0147949D01*
X0240684Y0147874D01*
X0240653Y0147801D01*
X0240619Y0147730D01*
X0240581Y0147661D01*
X0240539Y0147593D01*
X0240494Y0147528D01*
X0240446Y0147465D01*
X0240395Y0147405D01*
X0240341Y0147347D01*
X0240284Y0147292D01*
X0240224Y0147240D01*
X0240162Y0147192D01*
X0240097Y0147146D01*
X0240030Y0147103D01*
X0239961Y0147064D01*
X0239891Y0147029D01*
X0239818Y0146997D01*
X0239744Y0146969D01*
X0239669Y0146944D01*
X0239592Y0146924D01*
X0239515Y0146907D01*
X0239437Y0146894D01*
X0239358Y0146885D01*
X0239279Y0146880D01*
X0239200Y0146879D01*
X0239121Y0146882D01*
X0239042Y0146889D01*
X0238964Y0146900D01*
X0238886Y0146915D01*
X0238809Y0146934D01*
X0238733Y0146956D01*
X0238659Y0146982D01*
X0238585Y0147012D01*
X0238514Y0147046D01*
X0238444Y0147083D01*
X0238376Y0147124D01*
X0238310Y0147168D01*
X0238247Y0147216D01*
X0238186Y0147266D01*
X0238127Y0147320D01*
X0238072Y0147376D01*
X0238019Y0147435D01*
X0237969Y0147497D01*
X0237923Y0147561D01*
X0237880Y0147627D01*
X0237840Y0147695D01*
X0237803Y0147766D01*
X0237771Y0147838D01*
X0237741Y0147911D01*
X0237716Y0147986D01*
X0237694Y0148062D01*
X0237677Y0148139D01*
X0237663Y0148217D01*
X0237653Y0148296D01*
X0237647Y0148375D01*
X0237645Y0148454D01*
X0237645Y0118454D02*
X0237647Y0118533D01*
X0237653Y0118612D01*
X0237663Y0118691D01*
X0237677Y0118769D01*
X0237694Y0118846D01*
X0237716Y0118922D01*
X0237741Y0118997D01*
X0237771Y0119070D01*
X0237803Y0119142D01*
X0237840Y0119213D01*
X0237880Y0119281D01*
X0237923Y0119347D01*
X0237969Y0119411D01*
X0238019Y0119473D01*
X0238072Y0119532D01*
X0238127Y0119588D01*
X0238186Y0119642D01*
X0238247Y0119692D01*
X0238310Y0119740D01*
X0238376Y0119784D01*
X0238444Y0119825D01*
X0238514Y0119862D01*
X0238585Y0119896D01*
X0238659Y0119926D01*
X0238733Y0119952D01*
X0238809Y0119974D01*
X0238886Y0119993D01*
X0238964Y0120008D01*
X0239042Y0120019D01*
X0239121Y0120026D01*
X0239200Y0120029D01*
X0239279Y0120028D01*
X0239358Y0120023D01*
X0239437Y0120014D01*
X0239515Y0120001D01*
X0239592Y0119984D01*
X0239669Y0119964D01*
X0239744Y0119939D01*
X0239818Y0119911D01*
X0239891Y0119879D01*
X0239961Y0119844D01*
X0240030Y0119805D01*
X0240097Y0119762D01*
X0240162Y0119716D01*
X0240224Y0119668D01*
X0240284Y0119616D01*
X0240341Y0119561D01*
X0240395Y0119503D01*
X0240446Y0119443D01*
X0240494Y0119380D01*
X0240539Y0119315D01*
X0240581Y0119247D01*
X0240619Y0119178D01*
X0240653Y0119107D01*
X0240684Y0119034D01*
X0240712Y0118959D01*
X0240735Y0118884D01*
X0240755Y0118807D01*
X0240771Y0118730D01*
X0240783Y0118651D01*
X0240791Y0118573D01*
X0240795Y0118494D01*
X0240795Y0118414D01*
X0240791Y0118335D01*
X0240783Y0118257D01*
X0240771Y0118178D01*
X0240755Y0118101D01*
X0240735Y0118024D01*
X0240712Y0117949D01*
X0240684Y0117874D01*
X0240653Y0117801D01*
X0240619Y0117730D01*
X0240581Y0117661D01*
X0240539Y0117593D01*
X0240494Y0117528D01*
X0240446Y0117465D01*
X0240395Y0117405D01*
X0240341Y0117347D01*
X0240284Y0117292D01*
X0240224Y0117240D01*
X0240162Y0117192D01*
X0240097Y0117146D01*
X0240030Y0117103D01*
X0239961Y0117064D01*
X0239891Y0117029D01*
X0239818Y0116997D01*
X0239744Y0116969D01*
X0239669Y0116944D01*
X0239592Y0116924D01*
X0239515Y0116907D01*
X0239437Y0116894D01*
X0239358Y0116885D01*
X0239279Y0116880D01*
X0239200Y0116879D01*
X0239121Y0116882D01*
X0239042Y0116889D01*
X0238964Y0116900D01*
X0238886Y0116915D01*
X0238809Y0116934D01*
X0238733Y0116956D01*
X0238659Y0116982D01*
X0238585Y0117012D01*
X0238514Y0117046D01*
X0238444Y0117083D01*
X0238376Y0117124D01*
X0238310Y0117168D01*
X0238247Y0117216D01*
X0238186Y0117266D01*
X0238127Y0117320D01*
X0238072Y0117376D01*
X0238019Y0117435D01*
X0237969Y0117497D01*
X0237923Y0117561D01*
X0237880Y0117627D01*
X0237840Y0117695D01*
X0237803Y0117766D01*
X0237771Y0117838D01*
X0237741Y0117911D01*
X0237716Y0117986D01*
X0237694Y0118062D01*
X0237677Y0118139D01*
X0237663Y0118217D01*
X0237653Y0118296D01*
X0237647Y0118375D01*
X0237645Y0118454D01*
X0208708Y0118454D02*
X0208710Y0118533D01*
X0208716Y0118612D01*
X0208726Y0118691D01*
X0208740Y0118769D01*
X0208757Y0118846D01*
X0208779Y0118922D01*
X0208804Y0118997D01*
X0208834Y0119070D01*
X0208866Y0119142D01*
X0208903Y0119213D01*
X0208943Y0119281D01*
X0208986Y0119347D01*
X0209032Y0119411D01*
X0209082Y0119473D01*
X0209135Y0119532D01*
X0209190Y0119588D01*
X0209249Y0119642D01*
X0209310Y0119692D01*
X0209373Y0119740D01*
X0209439Y0119784D01*
X0209507Y0119825D01*
X0209577Y0119862D01*
X0209648Y0119896D01*
X0209722Y0119926D01*
X0209796Y0119952D01*
X0209872Y0119974D01*
X0209949Y0119993D01*
X0210027Y0120008D01*
X0210105Y0120019D01*
X0210184Y0120026D01*
X0210263Y0120029D01*
X0210342Y0120028D01*
X0210421Y0120023D01*
X0210500Y0120014D01*
X0210578Y0120001D01*
X0210655Y0119984D01*
X0210732Y0119964D01*
X0210807Y0119939D01*
X0210881Y0119911D01*
X0210954Y0119879D01*
X0211024Y0119844D01*
X0211093Y0119805D01*
X0211160Y0119762D01*
X0211225Y0119716D01*
X0211287Y0119668D01*
X0211347Y0119616D01*
X0211404Y0119561D01*
X0211458Y0119503D01*
X0211509Y0119443D01*
X0211557Y0119380D01*
X0211602Y0119315D01*
X0211644Y0119247D01*
X0211682Y0119178D01*
X0211716Y0119107D01*
X0211747Y0119034D01*
X0211775Y0118959D01*
X0211798Y0118884D01*
X0211818Y0118807D01*
X0211834Y0118730D01*
X0211846Y0118651D01*
X0211854Y0118573D01*
X0211858Y0118494D01*
X0211858Y0118414D01*
X0211854Y0118335D01*
X0211846Y0118257D01*
X0211834Y0118178D01*
X0211818Y0118101D01*
X0211798Y0118024D01*
X0211775Y0117949D01*
X0211747Y0117874D01*
X0211716Y0117801D01*
X0211682Y0117730D01*
X0211644Y0117661D01*
X0211602Y0117593D01*
X0211557Y0117528D01*
X0211509Y0117465D01*
X0211458Y0117405D01*
X0211404Y0117347D01*
X0211347Y0117292D01*
X0211287Y0117240D01*
X0211225Y0117192D01*
X0211160Y0117146D01*
X0211093Y0117103D01*
X0211024Y0117064D01*
X0210954Y0117029D01*
X0210881Y0116997D01*
X0210807Y0116969D01*
X0210732Y0116944D01*
X0210655Y0116924D01*
X0210578Y0116907D01*
X0210500Y0116894D01*
X0210421Y0116885D01*
X0210342Y0116880D01*
X0210263Y0116879D01*
X0210184Y0116882D01*
X0210105Y0116889D01*
X0210027Y0116900D01*
X0209949Y0116915D01*
X0209872Y0116934D01*
X0209796Y0116956D01*
X0209722Y0116982D01*
X0209648Y0117012D01*
X0209577Y0117046D01*
X0209507Y0117083D01*
X0209439Y0117124D01*
X0209373Y0117168D01*
X0209310Y0117216D01*
X0209249Y0117266D01*
X0209190Y0117320D01*
X0209135Y0117376D01*
X0209082Y0117435D01*
X0209032Y0117497D01*
X0208986Y0117561D01*
X0208943Y0117627D01*
X0208903Y0117695D01*
X0208866Y0117766D01*
X0208834Y0117838D01*
X0208804Y0117911D01*
X0208779Y0117986D01*
X0208757Y0118062D01*
X0208740Y0118139D01*
X0208726Y0118217D01*
X0208716Y0118296D01*
X0208710Y0118375D01*
X0208708Y0118454D01*
X0249816Y0071800D02*
X0249818Y0071961D01*
X0249824Y0072121D01*
X0249834Y0072282D01*
X0249848Y0072442D01*
X0249866Y0072602D01*
X0249887Y0072761D01*
X0249913Y0072920D01*
X0249943Y0073078D01*
X0249976Y0073235D01*
X0250014Y0073392D01*
X0250055Y0073547D01*
X0250100Y0073701D01*
X0250149Y0073854D01*
X0250202Y0074006D01*
X0250258Y0074157D01*
X0250319Y0074306D01*
X0250382Y0074454D01*
X0250450Y0074600D01*
X0250521Y0074744D01*
X0250595Y0074886D01*
X0250673Y0075027D01*
X0250755Y0075165D01*
X0250840Y0075302D01*
X0250928Y0075436D01*
X0251020Y0075568D01*
X0251115Y0075698D01*
X0251213Y0075826D01*
X0251314Y0075951D01*
X0251418Y0076073D01*
X0251525Y0076193D01*
X0251635Y0076310D01*
X0251748Y0076425D01*
X0251864Y0076536D01*
X0251983Y0076645D01*
X0252104Y0076750D01*
X0252228Y0076853D01*
X0252354Y0076953D01*
X0252482Y0077049D01*
X0252613Y0077142D01*
X0252747Y0077232D01*
X0252882Y0077319D01*
X0253020Y0077402D01*
X0253159Y0077482D01*
X0253301Y0077558D01*
X0253444Y0077631D01*
X0253589Y0077700D01*
X0253736Y0077766D01*
X0253884Y0077828D01*
X0254034Y0077886D01*
X0254185Y0077941D01*
X0254338Y0077992D01*
X0254492Y0078039D01*
X0254647Y0078082D01*
X0254803Y0078121D01*
X0254959Y0078157D01*
X0255117Y0078188D01*
X0255275Y0078216D01*
X0255434Y0078240D01*
X0255594Y0078260D01*
X0255754Y0078276D01*
X0255914Y0078288D01*
X0256075Y0078296D01*
X0256236Y0078300D01*
X0256396Y0078300D01*
X0256557Y0078296D01*
X0256718Y0078288D01*
X0256878Y0078276D01*
X0257038Y0078260D01*
X0257198Y0078240D01*
X0257357Y0078216D01*
X0257515Y0078188D01*
X0257673Y0078157D01*
X0257829Y0078121D01*
X0257985Y0078082D01*
X0258140Y0078039D01*
X0258294Y0077992D01*
X0258447Y0077941D01*
X0258598Y0077886D01*
X0258748Y0077828D01*
X0258896Y0077766D01*
X0259043Y0077700D01*
X0259188Y0077631D01*
X0259331Y0077558D01*
X0259473Y0077482D01*
X0259612Y0077402D01*
X0259750Y0077319D01*
X0259885Y0077232D01*
X0260019Y0077142D01*
X0260150Y0077049D01*
X0260278Y0076953D01*
X0260404Y0076853D01*
X0260528Y0076750D01*
X0260649Y0076645D01*
X0260768Y0076536D01*
X0260884Y0076425D01*
X0260997Y0076310D01*
X0261107Y0076193D01*
X0261214Y0076073D01*
X0261318Y0075951D01*
X0261419Y0075826D01*
X0261517Y0075698D01*
X0261612Y0075568D01*
X0261704Y0075436D01*
X0261792Y0075302D01*
X0261877Y0075165D01*
X0261959Y0075027D01*
X0262037Y0074886D01*
X0262111Y0074744D01*
X0262182Y0074600D01*
X0262250Y0074454D01*
X0262313Y0074306D01*
X0262374Y0074157D01*
X0262430Y0074006D01*
X0262483Y0073854D01*
X0262532Y0073701D01*
X0262577Y0073547D01*
X0262618Y0073392D01*
X0262656Y0073235D01*
X0262689Y0073078D01*
X0262719Y0072920D01*
X0262745Y0072761D01*
X0262766Y0072602D01*
X0262784Y0072442D01*
X0262798Y0072282D01*
X0262808Y0072121D01*
X0262814Y0071961D01*
X0262816Y0071800D01*
X0262814Y0071639D01*
X0262808Y0071479D01*
X0262798Y0071318D01*
X0262784Y0071158D01*
X0262766Y0070998D01*
X0262745Y0070839D01*
X0262719Y0070680D01*
X0262689Y0070522D01*
X0262656Y0070365D01*
X0262618Y0070208D01*
X0262577Y0070053D01*
X0262532Y0069899D01*
X0262483Y0069746D01*
X0262430Y0069594D01*
X0262374Y0069443D01*
X0262313Y0069294D01*
X0262250Y0069146D01*
X0262182Y0069000D01*
X0262111Y0068856D01*
X0262037Y0068714D01*
X0261959Y0068573D01*
X0261877Y0068435D01*
X0261792Y0068298D01*
X0261704Y0068164D01*
X0261612Y0068032D01*
X0261517Y0067902D01*
X0261419Y0067774D01*
X0261318Y0067649D01*
X0261214Y0067527D01*
X0261107Y0067407D01*
X0260997Y0067290D01*
X0260884Y0067175D01*
X0260768Y0067064D01*
X0260649Y0066955D01*
X0260528Y0066850D01*
X0260404Y0066747D01*
X0260278Y0066647D01*
X0260150Y0066551D01*
X0260019Y0066458D01*
X0259885Y0066368D01*
X0259750Y0066281D01*
X0259612Y0066198D01*
X0259473Y0066118D01*
X0259331Y0066042D01*
X0259188Y0065969D01*
X0259043Y0065900D01*
X0258896Y0065834D01*
X0258748Y0065772D01*
X0258598Y0065714D01*
X0258447Y0065659D01*
X0258294Y0065608D01*
X0258140Y0065561D01*
X0257985Y0065518D01*
X0257829Y0065479D01*
X0257673Y0065443D01*
X0257515Y0065412D01*
X0257357Y0065384D01*
X0257198Y0065360D01*
X0257038Y0065340D01*
X0256878Y0065324D01*
X0256718Y0065312D01*
X0256557Y0065304D01*
X0256396Y0065300D01*
X0256236Y0065300D01*
X0256075Y0065304D01*
X0255914Y0065312D01*
X0255754Y0065324D01*
X0255594Y0065340D01*
X0255434Y0065360D01*
X0255275Y0065384D01*
X0255117Y0065412D01*
X0254959Y0065443D01*
X0254803Y0065479D01*
X0254647Y0065518D01*
X0254492Y0065561D01*
X0254338Y0065608D01*
X0254185Y0065659D01*
X0254034Y0065714D01*
X0253884Y0065772D01*
X0253736Y0065834D01*
X0253589Y0065900D01*
X0253444Y0065969D01*
X0253301Y0066042D01*
X0253159Y0066118D01*
X0253020Y0066198D01*
X0252882Y0066281D01*
X0252747Y0066368D01*
X0252613Y0066458D01*
X0252482Y0066551D01*
X0252354Y0066647D01*
X0252228Y0066747D01*
X0252104Y0066850D01*
X0251983Y0066955D01*
X0251864Y0067064D01*
X0251748Y0067175D01*
X0251635Y0067290D01*
X0251525Y0067407D01*
X0251418Y0067527D01*
X0251314Y0067649D01*
X0251213Y0067774D01*
X0251115Y0067902D01*
X0251020Y0068032D01*
X0250928Y0068164D01*
X0250840Y0068298D01*
X0250755Y0068435D01*
X0250673Y0068573D01*
X0250595Y0068714D01*
X0250521Y0068856D01*
X0250450Y0069000D01*
X0250382Y0069146D01*
X0250319Y0069294D01*
X0250258Y0069443D01*
X0250202Y0069594D01*
X0250149Y0069746D01*
X0250100Y0069899D01*
X0250055Y0070053D01*
X0250014Y0070208D01*
X0249976Y0070365D01*
X0249943Y0070522D01*
X0249913Y0070680D01*
X0249887Y0070839D01*
X0249866Y0070998D01*
X0249848Y0071158D01*
X0249834Y0071318D01*
X0249824Y0071479D01*
X0249818Y0071639D01*
X0249816Y0071800D01*
X0287645Y0118454D02*
X0287647Y0118533D01*
X0287653Y0118612D01*
X0287663Y0118691D01*
X0287677Y0118769D01*
X0287694Y0118846D01*
X0287716Y0118922D01*
X0287741Y0118997D01*
X0287771Y0119070D01*
X0287803Y0119142D01*
X0287840Y0119213D01*
X0287880Y0119281D01*
X0287923Y0119347D01*
X0287969Y0119411D01*
X0288019Y0119473D01*
X0288072Y0119532D01*
X0288127Y0119588D01*
X0288186Y0119642D01*
X0288247Y0119692D01*
X0288310Y0119740D01*
X0288376Y0119784D01*
X0288444Y0119825D01*
X0288514Y0119862D01*
X0288585Y0119896D01*
X0288659Y0119926D01*
X0288733Y0119952D01*
X0288809Y0119974D01*
X0288886Y0119993D01*
X0288964Y0120008D01*
X0289042Y0120019D01*
X0289121Y0120026D01*
X0289200Y0120029D01*
X0289279Y0120028D01*
X0289358Y0120023D01*
X0289437Y0120014D01*
X0289515Y0120001D01*
X0289592Y0119984D01*
X0289669Y0119964D01*
X0289744Y0119939D01*
X0289818Y0119911D01*
X0289891Y0119879D01*
X0289961Y0119844D01*
X0290030Y0119805D01*
X0290097Y0119762D01*
X0290162Y0119716D01*
X0290224Y0119668D01*
X0290284Y0119616D01*
X0290341Y0119561D01*
X0290395Y0119503D01*
X0290446Y0119443D01*
X0290494Y0119380D01*
X0290539Y0119315D01*
X0290581Y0119247D01*
X0290619Y0119178D01*
X0290653Y0119107D01*
X0290684Y0119034D01*
X0290712Y0118959D01*
X0290735Y0118884D01*
X0290755Y0118807D01*
X0290771Y0118730D01*
X0290783Y0118651D01*
X0290791Y0118573D01*
X0290795Y0118494D01*
X0290795Y0118414D01*
X0290791Y0118335D01*
X0290783Y0118257D01*
X0290771Y0118178D01*
X0290755Y0118101D01*
X0290735Y0118024D01*
X0290712Y0117949D01*
X0290684Y0117874D01*
X0290653Y0117801D01*
X0290619Y0117730D01*
X0290581Y0117661D01*
X0290539Y0117593D01*
X0290494Y0117528D01*
X0290446Y0117465D01*
X0290395Y0117405D01*
X0290341Y0117347D01*
X0290284Y0117292D01*
X0290224Y0117240D01*
X0290162Y0117192D01*
X0290097Y0117146D01*
X0290030Y0117103D01*
X0289961Y0117064D01*
X0289891Y0117029D01*
X0289818Y0116997D01*
X0289744Y0116969D01*
X0289669Y0116944D01*
X0289592Y0116924D01*
X0289515Y0116907D01*
X0289437Y0116894D01*
X0289358Y0116885D01*
X0289279Y0116880D01*
X0289200Y0116879D01*
X0289121Y0116882D01*
X0289042Y0116889D01*
X0288964Y0116900D01*
X0288886Y0116915D01*
X0288809Y0116934D01*
X0288733Y0116956D01*
X0288659Y0116982D01*
X0288585Y0117012D01*
X0288514Y0117046D01*
X0288444Y0117083D01*
X0288376Y0117124D01*
X0288310Y0117168D01*
X0288247Y0117216D01*
X0288186Y0117266D01*
X0288127Y0117320D01*
X0288072Y0117376D01*
X0288019Y0117435D01*
X0287969Y0117497D01*
X0287923Y0117561D01*
X0287880Y0117627D01*
X0287840Y0117695D01*
X0287803Y0117766D01*
X0287771Y0117838D01*
X0287741Y0117911D01*
X0287716Y0117986D01*
X0287694Y0118062D01*
X0287677Y0118139D01*
X0287663Y0118217D01*
X0287653Y0118296D01*
X0287647Y0118375D01*
X0287645Y0118454D01*
X0287645Y0148454D02*
X0287647Y0148533D01*
X0287653Y0148612D01*
X0287663Y0148691D01*
X0287677Y0148769D01*
X0287694Y0148846D01*
X0287716Y0148922D01*
X0287741Y0148997D01*
X0287771Y0149070D01*
X0287803Y0149142D01*
X0287840Y0149213D01*
X0287880Y0149281D01*
X0287923Y0149347D01*
X0287969Y0149411D01*
X0288019Y0149473D01*
X0288072Y0149532D01*
X0288127Y0149588D01*
X0288186Y0149642D01*
X0288247Y0149692D01*
X0288310Y0149740D01*
X0288376Y0149784D01*
X0288444Y0149825D01*
X0288514Y0149862D01*
X0288585Y0149896D01*
X0288659Y0149926D01*
X0288733Y0149952D01*
X0288809Y0149974D01*
X0288886Y0149993D01*
X0288964Y0150008D01*
X0289042Y0150019D01*
X0289121Y0150026D01*
X0289200Y0150029D01*
X0289279Y0150028D01*
X0289358Y0150023D01*
X0289437Y0150014D01*
X0289515Y0150001D01*
X0289592Y0149984D01*
X0289669Y0149964D01*
X0289744Y0149939D01*
X0289818Y0149911D01*
X0289891Y0149879D01*
X0289961Y0149844D01*
X0290030Y0149805D01*
X0290097Y0149762D01*
X0290162Y0149716D01*
X0290224Y0149668D01*
X0290284Y0149616D01*
X0290341Y0149561D01*
X0290395Y0149503D01*
X0290446Y0149443D01*
X0290494Y0149380D01*
X0290539Y0149315D01*
X0290581Y0149247D01*
X0290619Y0149178D01*
X0290653Y0149107D01*
X0290684Y0149034D01*
X0290712Y0148959D01*
X0290735Y0148884D01*
X0290755Y0148807D01*
X0290771Y0148730D01*
X0290783Y0148651D01*
X0290791Y0148573D01*
X0290795Y0148494D01*
X0290795Y0148414D01*
X0290791Y0148335D01*
X0290783Y0148257D01*
X0290771Y0148178D01*
X0290755Y0148101D01*
X0290735Y0148024D01*
X0290712Y0147949D01*
X0290684Y0147874D01*
X0290653Y0147801D01*
X0290619Y0147730D01*
X0290581Y0147661D01*
X0290539Y0147593D01*
X0290494Y0147528D01*
X0290446Y0147465D01*
X0290395Y0147405D01*
X0290341Y0147347D01*
X0290284Y0147292D01*
X0290224Y0147240D01*
X0290162Y0147192D01*
X0290097Y0147146D01*
X0290030Y0147103D01*
X0289961Y0147064D01*
X0289891Y0147029D01*
X0289818Y0146997D01*
X0289744Y0146969D01*
X0289669Y0146944D01*
X0289592Y0146924D01*
X0289515Y0146907D01*
X0289437Y0146894D01*
X0289358Y0146885D01*
X0289279Y0146880D01*
X0289200Y0146879D01*
X0289121Y0146882D01*
X0289042Y0146889D01*
X0288964Y0146900D01*
X0288886Y0146915D01*
X0288809Y0146934D01*
X0288733Y0146956D01*
X0288659Y0146982D01*
X0288585Y0147012D01*
X0288514Y0147046D01*
X0288444Y0147083D01*
X0288376Y0147124D01*
X0288310Y0147168D01*
X0288247Y0147216D01*
X0288186Y0147266D01*
X0288127Y0147320D01*
X0288072Y0147376D01*
X0288019Y0147435D01*
X0287969Y0147497D01*
X0287923Y0147561D01*
X0287880Y0147627D01*
X0287840Y0147695D01*
X0287803Y0147766D01*
X0287771Y0147838D01*
X0287741Y0147911D01*
X0287716Y0147986D01*
X0287694Y0148062D01*
X0287677Y0148139D01*
X0287663Y0148217D01*
X0287653Y0148296D01*
X0287647Y0148375D01*
X0287645Y0148454D01*
X0393827Y0138532D02*
X0393829Y0138711D01*
X0393836Y0138889D01*
X0393847Y0139068D01*
X0393862Y0139246D01*
X0393882Y0139424D01*
X0393906Y0139601D01*
X0393934Y0139777D01*
X0393967Y0139953D01*
X0394004Y0140128D01*
X0394045Y0140302D01*
X0394091Y0140474D01*
X0394141Y0140646D01*
X0394195Y0140817D01*
X0394253Y0140986D01*
X0394315Y0141153D01*
X0394381Y0141319D01*
X0394452Y0141483D01*
X0394526Y0141646D01*
X0394605Y0141807D01*
X0394687Y0141965D01*
X0394773Y0142122D01*
X0394863Y0142276D01*
X0394957Y0142428D01*
X0395054Y0142578D01*
X0395156Y0142726D01*
X0395260Y0142870D01*
X0395368Y0143013D01*
X0395480Y0143152D01*
X0395595Y0143289D01*
X0395714Y0143423D01*
X0395835Y0143554D01*
X0395960Y0143682D01*
X0396088Y0143807D01*
X0396219Y0143928D01*
X0396353Y0144047D01*
X0396490Y0144162D01*
X0396629Y0144274D01*
X0396772Y0144382D01*
X0396916Y0144486D01*
X0397064Y0144588D01*
X0397214Y0144685D01*
X0397366Y0144779D01*
X0397520Y0144869D01*
X0397677Y0144955D01*
X0397835Y0145037D01*
X0397996Y0145116D01*
X0398159Y0145190D01*
X0398323Y0145261D01*
X0398489Y0145327D01*
X0398656Y0145389D01*
X0398825Y0145447D01*
X0398996Y0145501D01*
X0399168Y0145551D01*
X0399340Y0145597D01*
X0399514Y0145638D01*
X0399689Y0145675D01*
X0399865Y0145708D01*
X0400041Y0145736D01*
X0400218Y0145760D01*
X0400396Y0145780D01*
X0400574Y0145795D01*
X0400753Y0145806D01*
X0400931Y0145813D01*
X0401110Y0145815D01*
X0401289Y0145813D01*
X0401467Y0145806D01*
X0401646Y0145795D01*
X0401824Y0145780D01*
X0402002Y0145760D01*
X0402179Y0145736D01*
X0402355Y0145708D01*
X0402531Y0145675D01*
X0402706Y0145638D01*
X0402880Y0145597D01*
X0403052Y0145551D01*
X0403224Y0145501D01*
X0403395Y0145447D01*
X0403564Y0145389D01*
X0403731Y0145327D01*
X0403897Y0145261D01*
X0404061Y0145190D01*
X0404224Y0145116D01*
X0404385Y0145037D01*
X0404543Y0144955D01*
X0404700Y0144869D01*
X0404854Y0144779D01*
X0405006Y0144685D01*
X0405156Y0144588D01*
X0405304Y0144486D01*
X0405448Y0144382D01*
X0405591Y0144274D01*
X0405730Y0144162D01*
X0405867Y0144047D01*
X0406001Y0143928D01*
X0406132Y0143807D01*
X0406260Y0143682D01*
X0406385Y0143554D01*
X0406506Y0143423D01*
X0406625Y0143289D01*
X0406740Y0143152D01*
X0406852Y0143013D01*
X0406960Y0142870D01*
X0407064Y0142726D01*
X0407166Y0142578D01*
X0407263Y0142428D01*
X0407357Y0142276D01*
X0407447Y0142122D01*
X0407533Y0141965D01*
X0407615Y0141807D01*
X0407694Y0141646D01*
X0407768Y0141483D01*
X0407839Y0141319D01*
X0407905Y0141153D01*
X0407967Y0140986D01*
X0408025Y0140817D01*
X0408079Y0140646D01*
X0408129Y0140474D01*
X0408175Y0140302D01*
X0408216Y0140128D01*
X0408253Y0139953D01*
X0408286Y0139777D01*
X0408314Y0139601D01*
X0408338Y0139424D01*
X0408358Y0139246D01*
X0408373Y0139068D01*
X0408384Y0138889D01*
X0408391Y0138711D01*
X0408393Y0138532D01*
X0408391Y0138353D01*
X0408384Y0138175D01*
X0408373Y0137996D01*
X0408358Y0137818D01*
X0408338Y0137640D01*
X0408314Y0137463D01*
X0408286Y0137287D01*
X0408253Y0137111D01*
X0408216Y0136936D01*
X0408175Y0136762D01*
X0408129Y0136590D01*
X0408079Y0136418D01*
X0408025Y0136247D01*
X0407967Y0136078D01*
X0407905Y0135911D01*
X0407839Y0135745D01*
X0407768Y0135581D01*
X0407694Y0135418D01*
X0407615Y0135257D01*
X0407533Y0135099D01*
X0407447Y0134942D01*
X0407357Y0134788D01*
X0407263Y0134636D01*
X0407166Y0134486D01*
X0407064Y0134338D01*
X0406960Y0134194D01*
X0406852Y0134051D01*
X0406740Y0133912D01*
X0406625Y0133775D01*
X0406506Y0133641D01*
X0406385Y0133510D01*
X0406260Y0133382D01*
X0406132Y0133257D01*
X0406001Y0133136D01*
X0405867Y0133017D01*
X0405730Y0132902D01*
X0405591Y0132790D01*
X0405448Y0132682D01*
X0405304Y0132578D01*
X0405156Y0132476D01*
X0405006Y0132379D01*
X0404854Y0132285D01*
X0404700Y0132195D01*
X0404543Y0132109D01*
X0404385Y0132027D01*
X0404224Y0131948D01*
X0404061Y0131874D01*
X0403897Y0131803D01*
X0403731Y0131737D01*
X0403564Y0131675D01*
X0403395Y0131617D01*
X0403224Y0131563D01*
X0403052Y0131513D01*
X0402880Y0131467D01*
X0402706Y0131426D01*
X0402531Y0131389D01*
X0402355Y0131356D01*
X0402179Y0131328D01*
X0402002Y0131304D01*
X0401824Y0131284D01*
X0401646Y0131269D01*
X0401467Y0131258D01*
X0401289Y0131251D01*
X0401110Y0131249D01*
X0400931Y0131251D01*
X0400753Y0131258D01*
X0400574Y0131269D01*
X0400396Y0131284D01*
X0400218Y0131304D01*
X0400041Y0131328D01*
X0399865Y0131356D01*
X0399689Y0131389D01*
X0399514Y0131426D01*
X0399340Y0131467D01*
X0399168Y0131513D01*
X0398996Y0131563D01*
X0398825Y0131617D01*
X0398656Y0131675D01*
X0398489Y0131737D01*
X0398323Y0131803D01*
X0398159Y0131874D01*
X0397996Y0131948D01*
X0397835Y0132027D01*
X0397677Y0132109D01*
X0397520Y0132195D01*
X0397366Y0132285D01*
X0397214Y0132379D01*
X0397064Y0132476D01*
X0396916Y0132578D01*
X0396772Y0132682D01*
X0396629Y0132790D01*
X0396490Y0132902D01*
X0396353Y0133017D01*
X0396219Y0133136D01*
X0396088Y0133257D01*
X0395960Y0133382D01*
X0395835Y0133510D01*
X0395714Y0133641D01*
X0395595Y0133775D01*
X0395480Y0133912D01*
X0395368Y0134051D01*
X0395260Y0134194D01*
X0395156Y0134338D01*
X0395054Y0134486D01*
X0394957Y0134636D01*
X0394863Y0134788D01*
X0394773Y0134942D01*
X0394687Y0135099D01*
X0394605Y0135257D01*
X0394526Y0135418D01*
X0394452Y0135581D01*
X0394381Y0135745D01*
X0394315Y0135911D01*
X0394253Y0136078D01*
X0394195Y0136247D01*
X0394141Y0136418D01*
X0394091Y0136590D01*
X0394045Y0136762D01*
X0394004Y0136936D01*
X0393967Y0137111D01*
X0393934Y0137287D01*
X0393906Y0137463D01*
X0393882Y0137640D01*
X0393862Y0137818D01*
X0393847Y0137996D01*
X0393836Y0138175D01*
X0393829Y0138353D01*
X0393827Y0138532D01*
X0385166Y0050540D02*
X0385168Y0050633D01*
X0385174Y0050725D01*
X0385184Y0050817D01*
X0385198Y0050908D01*
X0385215Y0050999D01*
X0385237Y0051089D01*
X0385262Y0051178D01*
X0385291Y0051266D01*
X0385324Y0051352D01*
X0385361Y0051437D01*
X0385401Y0051521D01*
X0385445Y0051602D01*
X0385492Y0051682D01*
X0385542Y0051760D01*
X0385596Y0051835D01*
X0385653Y0051908D01*
X0385713Y0051978D01*
X0385776Y0052046D01*
X0385842Y0052111D01*
X0385910Y0052173D01*
X0385981Y0052233D01*
X0386055Y0052289D01*
X0386131Y0052342D01*
X0386209Y0052391D01*
X0386289Y0052438D01*
X0386371Y0052480D01*
X0386455Y0052520D01*
X0386540Y0052555D01*
X0386627Y0052587D01*
X0386715Y0052616D01*
X0386804Y0052640D01*
X0386894Y0052661D01*
X0386985Y0052677D01*
X0387077Y0052690D01*
X0387169Y0052699D01*
X0387262Y0052704D01*
X0387354Y0052705D01*
X0387447Y0052702D01*
X0387539Y0052695D01*
X0387631Y0052684D01*
X0387722Y0052669D01*
X0387813Y0052651D01*
X0387903Y0052628D01*
X0387991Y0052602D01*
X0388079Y0052572D01*
X0388165Y0052538D01*
X0388249Y0052501D01*
X0388332Y0052459D01*
X0388413Y0052415D01*
X0388493Y0052367D01*
X0388570Y0052316D01*
X0388644Y0052261D01*
X0388717Y0052203D01*
X0388787Y0052143D01*
X0388854Y0052079D01*
X0388918Y0052013D01*
X0388980Y0051943D01*
X0389038Y0051872D01*
X0389093Y0051798D01*
X0389145Y0051721D01*
X0389194Y0051642D01*
X0389240Y0051562D01*
X0389282Y0051479D01*
X0389320Y0051395D01*
X0389355Y0051309D01*
X0389386Y0051222D01*
X0389413Y0051134D01*
X0389436Y0051044D01*
X0389456Y0050954D01*
X0389472Y0050863D01*
X0389484Y0050771D01*
X0389492Y0050679D01*
X0389496Y0050586D01*
X0389496Y0050494D01*
X0389492Y0050401D01*
X0389484Y0050309D01*
X0389472Y0050217D01*
X0389456Y0050126D01*
X0389436Y0050036D01*
X0389413Y0049946D01*
X0389386Y0049858D01*
X0389355Y0049771D01*
X0389320Y0049685D01*
X0389282Y0049601D01*
X0389240Y0049518D01*
X0389194Y0049438D01*
X0389145Y0049359D01*
X0389093Y0049282D01*
X0389038Y0049208D01*
X0388980Y0049137D01*
X0388918Y0049067D01*
X0388854Y0049001D01*
X0388787Y0048937D01*
X0388717Y0048877D01*
X0388644Y0048819D01*
X0388570Y0048764D01*
X0388493Y0048713D01*
X0388414Y0048665D01*
X0388332Y0048621D01*
X0388249Y0048579D01*
X0388165Y0048542D01*
X0388079Y0048508D01*
X0387991Y0048478D01*
X0387903Y0048452D01*
X0387813Y0048429D01*
X0387722Y0048411D01*
X0387631Y0048396D01*
X0387539Y0048385D01*
X0387447Y0048378D01*
X0387354Y0048375D01*
X0387262Y0048376D01*
X0387169Y0048381D01*
X0387077Y0048390D01*
X0386985Y0048403D01*
X0386894Y0048419D01*
X0386804Y0048440D01*
X0386715Y0048464D01*
X0386627Y0048493D01*
X0386540Y0048525D01*
X0386455Y0048560D01*
X0386371Y0048600D01*
X0386289Y0048642D01*
X0386209Y0048689D01*
X0386131Y0048738D01*
X0386055Y0048791D01*
X0385981Y0048847D01*
X0385910Y0048907D01*
X0385842Y0048969D01*
X0385776Y0049034D01*
X0385713Y0049102D01*
X0385653Y0049172D01*
X0385596Y0049245D01*
X0385542Y0049320D01*
X0385492Y0049398D01*
X0385445Y0049478D01*
X0385401Y0049559D01*
X0385361Y0049643D01*
X0385324Y0049728D01*
X0385291Y0049814D01*
X0385262Y0049902D01*
X0385237Y0049991D01*
X0385215Y0050081D01*
X0385198Y0050172D01*
X0385184Y0050263D01*
X0385174Y0050355D01*
X0385168Y0050447D01*
X0385166Y0050540D01*
X0404851Y0050540D02*
X0404853Y0050633D01*
X0404859Y0050725D01*
X0404869Y0050817D01*
X0404883Y0050908D01*
X0404900Y0050999D01*
X0404922Y0051089D01*
X0404947Y0051178D01*
X0404976Y0051266D01*
X0405009Y0051352D01*
X0405046Y0051437D01*
X0405086Y0051521D01*
X0405130Y0051602D01*
X0405177Y0051682D01*
X0405227Y0051760D01*
X0405281Y0051835D01*
X0405338Y0051908D01*
X0405398Y0051978D01*
X0405461Y0052046D01*
X0405527Y0052111D01*
X0405595Y0052173D01*
X0405666Y0052233D01*
X0405740Y0052289D01*
X0405816Y0052342D01*
X0405894Y0052391D01*
X0405974Y0052438D01*
X0406056Y0052480D01*
X0406140Y0052520D01*
X0406225Y0052555D01*
X0406312Y0052587D01*
X0406400Y0052616D01*
X0406489Y0052640D01*
X0406579Y0052661D01*
X0406670Y0052677D01*
X0406762Y0052690D01*
X0406854Y0052699D01*
X0406947Y0052704D01*
X0407039Y0052705D01*
X0407132Y0052702D01*
X0407224Y0052695D01*
X0407316Y0052684D01*
X0407407Y0052669D01*
X0407498Y0052651D01*
X0407588Y0052628D01*
X0407676Y0052602D01*
X0407764Y0052572D01*
X0407850Y0052538D01*
X0407934Y0052501D01*
X0408017Y0052459D01*
X0408098Y0052415D01*
X0408178Y0052367D01*
X0408255Y0052316D01*
X0408329Y0052261D01*
X0408402Y0052203D01*
X0408472Y0052143D01*
X0408539Y0052079D01*
X0408603Y0052013D01*
X0408665Y0051943D01*
X0408723Y0051872D01*
X0408778Y0051798D01*
X0408830Y0051721D01*
X0408879Y0051642D01*
X0408925Y0051562D01*
X0408967Y0051479D01*
X0409005Y0051395D01*
X0409040Y0051309D01*
X0409071Y0051222D01*
X0409098Y0051134D01*
X0409121Y0051044D01*
X0409141Y0050954D01*
X0409157Y0050863D01*
X0409169Y0050771D01*
X0409177Y0050679D01*
X0409181Y0050586D01*
X0409181Y0050494D01*
X0409177Y0050401D01*
X0409169Y0050309D01*
X0409157Y0050217D01*
X0409141Y0050126D01*
X0409121Y0050036D01*
X0409098Y0049946D01*
X0409071Y0049858D01*
X0409040Y0049771D01*
X0409005Y0049685D01*
X0408967Y0049601D01*
X0408925Y0049518D01*
X0408879Y0049438D01*
X0408830Y0049359D01*
X0408778Y0049282D01*
X0408723Y0049208D01*
X0408665Y0049137D01*
X0408603Y0049067D01*
X0408539Y0049001D01*
X0408472Y0048937D01*
X0408402Y0048877D01*
X0408329Y0048819D01*
X0408255Y0048764D01*
X0408178Y0048713D01*
X0408099Y0048665D01*
X0408017Y0048621D01*
X0407934Y0048579D01*
X0407850Y0048542D01*
X0407764Y0048508D01*
X0407676Y0048478D01*
X0407588Y0048452D01*
X0407498Y0048429D01*
X0407407Y0048411D01*
X0407316Y0048396D01*
X0407224Y0048385D01*
X0407132Y0048378D01*
X0407039Y0048375D01*
X0406947Y0048376D01*
X0406854Y0048381D01*
X0406762Y0048390D01*
X0406670Y0048403D01*
X0406579Y0048419D01*
X0406489Y0048440D01*
X0406400Y0048464D01*
X0406312Y0048493D01*
X0406225Y0048525D01*
X0406140Y0048560D01*
X0406056Y0048600D01*
X0405974Y0048642D01*
X0405894Y0048689D01*
X0405816Y0048738D01*
X0405740Y0048791D01*
X0405666Y0048847D01*
X0405595Y0048907D01*
X0405527Y0048969D01*
X0405461Y0049034D01*
X0405398Y0049102D01*
X0405338Y0049172D01*
X0405281Y0049245D01*
X0405227Y0049320D01*
X0405177Y0049398D01*
X0405130Y0049478D01*
X0405086Y0049559D01*
X0405046Y0049643D01*
X0405009Y0049728D01*
X0404976Y0049814D01*
X0404947Y0049902D01*
X0404922Y0049991D01*
X0404900Y0050081D01*
X0404883Y0050172D01*
X0404869Y0050263D01*
X0404859Y0050355D01*
X0404853Y0050447D01*
X0404851Y0050540D01*
X0011937Y0138532D02*
X0011939Y0138711D01*
X0011946Y0138889D01*
X0011957Y0139068D01*
X0011972Y0139246D01*
X0011992Y0139424D01*
X0012016Y0139601D01*
X0012044Y0139777D01*
X0012077Y0139953D01*
X0012114Y0140128D01*
X0012155Y0140302D01*
X0012201Y0140474D01*
X0012251Y0140646D01*
X0012305Y0140817D01*
X0012363Y0140986D01*
X0012425Y0141153D01*
X0012491Y0141319D01*
X0012562Y0141483D01*
X0012636Y0141646D01*
X0012715Y0141807D01*
X0012797Y0141965D01*
X0012883Y0142122D01*
X0012973Y0142276D01*
X0013067Y0142428D01*
X0013164Y0142578D01*
X0013266Y0142726D01*
X0013370Y0142870D01*
X0013478Y0143013D01*
X0013590Y0143152D01*
X0013705Y0143289D01*
X0013824Y0143423D01*
X0013945Y0143554D01*
X0014070Y0143682D01*
X0014198Y0143807D01*
X0014329Y0143928D01*
X0014463Y0144047D01*
X0014600Y0144162D01*
X0014739Y0144274D01*
X0014882Y0144382D01*
X0015026Y0144486D01*
X0015174Y0144588D01*
X0015324Y0144685D01*
X0015476Y0144779D01*
X0015630Y0144869D01*
X0015787Y0144955D01*
X0015945Y0145037D01*
X0016106Y0145116D01*
X0016269Y0145190D01*
X0016433Y0145261D01*
X0016599Y0145327D01*
X0016766Y0145389D01*
X0016935Y0145447D01*
X0017106Y0145501D01*
X0017278Y0145551D01*
X0017450Y0145597D01*
X0017624Y0145638D01*
X0017799Y0145675D01*
X0017975Y0145708D01*
X0018151Y0145736D01*
X0018328Y0145760D01*
X0018506Y0145780D01*
X0018684Y0145795D01*
X0018863Y0145806D01*
X0019041Y0145813D01*
X0019220Y0145815D01*
X0019399Y0145813D01*
X0019577Y0145806D01*
X0019756Y0145795D01*
X0019934Y0145780D01*
X0020112Y0145760D01*
X0020289Y0145736D01*
X0020465Y0145708D01*
X0020641Y0145675D01*
X0020816Y0145638D01*
X0020990Y0145597D01*
X0021162Y0145551D01*
X0021334Y0145501D01*
X0021505Y0145447D01*
X0021674Y0145389D01*
X0021841Y0145327D01*
X0022007Y0145261D01*
X0022171Y0145190D01*
X0022334Y0145116D01*
X0022495Y0145037D01*
X0022653Y0144955D01*
X0022810Y0144869D01*
X0022964Y0144779D01*
X0023116Y0144685D01*
X0023266Y0144588D01*
X0023414Y0144486D01*
X0023558Y0144382D01*
X0023701Y0144274D01*
X0023840Y0144162D01*
X0023977Y0144047D01*
X0024111Y0143928D01*
X0024242Y0143807D01*
X0024370Y0143682D01*
X0024495Y0143554D01*
X0024616Y0143423D01*
X0024735Y0143289D01*
X0024850Y0143152D01*
X0024962Y0143013D01*
X0025070Y0142870D01*
X0025174Y0142726D01*
X0025276Y0142578D01*
X0025373Y0142428D01*
X0025467Y0142276D01*
X0025557Y0142122D01*
X0025643Y0141965D01*
X0025725Y0141807D01*
X0025804Y0141646D01*
X0025878Y0141483D01*
X0025949Y0141319D01*
X0026015Y0141153D01*
X0026077Y0140986D01*
X0026135Y0140817D01*
X0026189Y0140646D01*
X0026239Y0140474D01*
X0026285Y0140302D01*
X0026326Y0140128D01*
X0026363Y0139953D01*
X0026396Y0139777D01*
X0026424Y0139601D01*
X0026448Y0139424D01*
X0026468Y0139246D01*
X0026483Y0139068D01*
X0026494Y0138889D01*
X0026501Y0138711D01*
X0026503Y0138532D01*
X0026501Y0138353D01*
X0026494Y0138175D01*
X0026483Y0137996D01*
X0026468Y0137818D01*
X0026448Y0137640D01*
X0026424Y0137463D01*
X0026396Y0137287D01*
X0026363Y0137111D01*
X0026326Y0136936D01*
X0026285Y0136762D01*
X0026239Y0136590D01*
X0026189Y0136418D01*
X0026135Y0136247D01*
X0026077Y0136078D01*
X0026015Y0135911D01*
X0025949Y0135745D01*
X0025878Y0135581D01*
X0025804Y0135418D01*
X0025725Y0135257D01*
X0025643Y0135099D01*
X0025557Y0134942D01*
X0025467Y0134788D01*
X0025373Y0134636D01*
X0025276Y0134486D01*
X0025174Y0134338D01*
X0025070Y0134194D01*
X0024962Y0134051D01*
X0024850Y0133912D01*
X0024735Y0133775D01*
X0024616Y0133641D01*
X0024495Y0133510D01*
X0024370Y0133382D01*
X0024242Y0133257D01*
X0024111Y0133136D01*
X0023977Y0133017D01*
X0023840Y0132902D01*
X0023701Y0132790D01*
X0023558Y0132682D01*
X0023414Y0132578D01*
X0023266Y0132476D01*
X0023116Y0132379D01*
X0022964Y0132285D01*
X0022810Y0132195D01*
X0022653Y0132109D01*
X0022495Y0132027D01*
X0022334Y0131948D01*
X0022171Y0131874D01*
X0022007Y0131803D01*
X0021841Y0131737D01*
X0021674Y0131675D01*
X0021505Y0131617D01*
X0021334Y0131563D01*
X0021162Y0131513D01*
X0020990Y0131467D01*
X0020816Y0131426D01*
X0020641Y0131389D01*
X0020465Y0131356D01*
X0020289Y0131328D01*
X0020112Y0131304D01*
X0019934Y0131284D01*
X0019756Y0131269D01*
X0019577Y0131258D01*
X0019399Y0131251D01*
X0019220Y0131249D01*
X0019041Y0131251D01*
X0018863Y0131258D01*
X0018684Y0131269D01*
X0018506Y0131284D01*
X0018328Y0131304D01*
X0018151Y0131328D01*
X0017975Y0131356D01*
X0017799Y0131389D01*
X0017624Y0131426D01*
X0017450Y0131467D01*
X0017278Y0131513D01*
X0017106Y0131563D01*
X0016935Y0131617D01*
X0016766Y0131675D01*
X0016599Y0131737D01*
X0016433Y0131803D01*
X0016269Y0131874D01*
X0016106Y0131948D01*
X0015945Y0132027D01*
X0015787Y0132109D01*
X0015630Y0132195D01*
X0015476Y0132285D01*
X0015324Y0132379D01*
X0015174Y0132476D01*
X0015026Y0132578D01*
X0014882Y0132682D01*
X0014739Y0132790D01*
X0014600Y0132902D01*
X0014463Y0133017D01*
X0014329Y0133136D01*
X0014198Y0133257D01*
X0014070Y0133382D01*
X0013945Y0133510D01*
X0013824Y0133641D01*
X0013705Y0133775D01*
X0013590Y0133912D01*
X0013478Y0134051D01*
X0013370Y0134194D01*
X0013266Y0134338D01*
X0013164Y0134486D01*
X0013067Y0134636D01*
X0012973Y0134788D01*
X0012883Y0134942D01*
X0012797Y0135099D01*
X0012715Y0135257D01*
X0012636Y0135418D01*
X0012562Y0135581D01*
X0012491Y0135745D01*
X0012425Y0135911D01*
X0012363Y0136078D01*
X0012305Y0136247D01*
X0012251Y0136418D01*
X0012201Y0136590D01*
X0012155Y0136762D01*
X0012114Y0136936D01*
X0012077Y0137111D01*
X0012044Y0137287D01*
X0012016Y0137463D01*
X0011992Y0137640D01*
X0011972Y0137818D01*
X0011957Y0137996D01*
X0011946Y0138175D01*
X0011939Y0138353D01*
X0011937Y0138532D01*
D11*
X0072191Y0041635D02*
X0138691Y0041635D01*
M02*
