G75*
%MOIN*%
%OFA0B0*%
%FSLAX25Y25*%
%IPPOS*%
%LPD*%
%AMOC8*
5,1,8,0,0,1.08239X$1,22.5*
%
%ADD10C,0.00400*%
%ADD11C,0.00300*%
%ADD12C,0.00600*%
%ADD13C,0.00800*%
D10*
X0016976Y0027791D02*
X0020046Y0027791D01*
X0016976Y0030861D01*
X0016976Y0031628D01*
X0017744Y0032395D01*
X0019278Y0032395D01*
X0020046Y0031628D01*
X0021580Y0031628D02*
X0022348Y0032395D01*
X0024650Y0032395D01*
X0024650Y0027791D01*
X0022348Y0027791D01*
X0021580Y0028559D01*
X0021580Y0031628D01*
X0015242Y0033591D02*
X0033042Y0033591D01*
X0033042Y0048591D02*
X0015242Y0048591D01*
X0039000Y0073929D02*
X0039000Y0078533D01*
X0041302Y0076231D01*
X0038232Y0076231D01*
X0042836Y0074696D02*
X0043604Y0073929D01*
X0045138Y0073929D01*
X0045905Y0074696D01*
X0045905Y0077766D01*
X0045138Y0078533D01*
X0043604Y0078533D01*
X0042836Y0077766D01*
X0082924Y0112538D02*
X0082924Y0114073D01*
X0083692Y0114840D01*
X0082924Y0116375D02*
X0085994Y0119444D01*
X0086761Y0119444D01*
X0087528Y0118677D01*
X0087528Y0117142D01*
X0086761Y0116375D01*
X0086761Y0114840D02*
X0087528Y0114073D01*
X0087528Y0112538D01*
X0086761Y0111771D01*
X0083692Y0111771D01*
X0082924Y0112538D01*
X0082924Y0116375D02*
X0082924Y0119444D01*
X0085226Y0120979D02*
X0085226Y0124048D01*
X0082924Y0123281D02*
X0087528Y0123281D01*
X0085226Y0120979D01*
X0110003Y0107431D02*
X0110003Y0102827D01*
X0108469Y0102827D02*
X0111538Y0102827D01*
X0113072Y0102827D02*
X0116142Y0102827D01*
X0113072Y0105896D01*
X0113072Y0106663D01*
X0113840Y0107431D01*
X0115374Y0107431D01*
X0116142Y0106663D01*
X0117676Y0106663D02*
X0118444Y0107431D01*
X0119978Y0107431D01*
X0120746Y0106663D01*
X0120746Y0103594D01*
X0119978Y0102827D01*
X0118444Y0102827D01*
X0117676Y0103594D01*
X0111538Y0105896D02*
X0110003Y0107431D01*
X0139578Y0137615D02*
X0144182Y0137615D01*
X0144182Y0139917D01*
X0143415Y0140684D01*
X0141880Y0140684D01*
X0141113Y0139917D01*
X0141113Y0137615D01*
X0141113Y0139150D02*
X0139578Y0140684D01*
X0139578Y0142219D02*
X0142647Y0145288D01*
X0143415Y0145288D01*
X0144182Y0144521D01*
X0144182Y0142986D01*
X0143415Y0142219D01*
X0139578Y0142219D02*
X0139578Y0145288D01*
X0138169Y0153575D02*
X0139703Y0155109D01*
X0138936Y0155109D02*
X0141238Y0155109D01*
X0141238Y0153575D02*
X0141238Y0158179D01*
X0138936Y0158179D01*
X0138169Y0157411D01*
X0138169Y0155877D01*
X0138936Y0155109D01*
X0136634Y0154342D02*
X0135867Y0153575D01*
X0134332Y0153575D01*
X0133565Y0154342D01*
X0133565Y0155109D01*
X0134332Y0155877D01*
X0135099Y0155877D01*
X0134332Y0155877D02*
X0133565Y0156644D01*
X0133565Y0157411D01*
X0134332Y0158179D01*
X0135867Y0158179D01*
X0136634Y0157411D01*
X0132030Y0157411D02*
X0131263Y0158179D01*
X0129728Y0158179D01*
X0128961Y0157411D01*
X0128961Y0156644D01*
X0129728Y0155877D01*
X0128961Y0155109D01*
X0128961Y0154342D01*
X0129728Y0153575D01*
X0131263Y0153575D01*
X0132030Y0154342D01*
X0130495Y0155877D02*
X0129728Y0155877D01*
X0151015Y0128733D02*
X0150247Y0127966D01*
X0150247Y0126431D01*
X0151015Y0125664D01*
X0152549Y0125664D02*
X0153317Y0127198D01*
X0153317Y0127966D01*
X0152549Y0128733D01*
X0151015Y0128733D01*
X0152549Y0125664D02*
X0154851Y0125664D01*
X0154851Y0128733D01*
X0154084Y0124129D02*
X0151015Y0124129D01*
X0150247Y0123362D01*
X0150247Y0121060D01*
X0154851Y0121060D01*
X0154851Y0123362D01*
X0154084Y0124129D01*
X0172583Y0136843D02*
X0175652Y0136843D01*
X0177187Y0136843D02*
X0178721Y0138377D01*
X0177954Y0138377D02*
X0180256Y0138377D01*
X0180256Y0136843D02*
X0180256Y0141446D01*
X0177954Y0141446D01*
X0177187Y0140679D01*
X0177187Y0139144D01*
X0177954Y0138377D01*
X0175652Y0139912D02*
X0174117Y0141446D01*
X0174117Y0136843D01*
X0189734Y0153260D02*
X0189734Y0154027D01*
X0186665Y0157096D01*
X0186665Y0157864D01*
X0189734Y0157864D01*
X0192803Y0157864D02*
X0192803Y0153260D01*
X0191269Y0153260D02*
X0194338Y0153260D01*
X0195872Y0154027D02*
X0196640Y0153260D01*
X0198174Y0153260D01*
X0198942Y0154027D01*
X0198942Y0157096D01*
X0198174Y0157864D01*
X0196640Y0157864D01*
X0195872Y0157096D01*
X0194338Y0156329D02*
X0192803Y0157864D01*
X0189788Y0163850D02*
X0189788Y0168454D01*
X0187486Y0168454D01*
X0186719Y0167687D01*
X0186719Y0166152D01*
X0187486Y0165385D01*
X0189788Y0165385D01*
X0188254Y0165385D02*
X0186719Y0163850D01*
X0185184Y0164618D02*
X0184417Y0163850D01*
X0182882Y0163850D01*
X0182115Y0164618D01*
X0182115Y0166152D01*
X0182882Y0166920D01*
X0183650Y0166920D01*
X0185184Y0166152D01*
X0185184Y0168454D01*
X0182115Y0168454D01*
X0171914Y0168061D02*
X0171914Y0163457D01*
X0171914Y0164991D02*
X0169612Y0164991D01*
X0168845Y0165759D01*
X0168845Y0167293D01*
X0169612Y0168061D01*
X0171914Y0168061D01*
X0170380Y0164991D02*
X0168845Y0163457D01*
X0167310Y0165759D02*
X0164241Y0165759D01*
X0165008Y0168061D02*
X0167310Y0165759D01*
X0165008Y0163457D02*
X0165008Y0168061D01*
X0173003Y0194421D02*
X0177607Y0194421D01*
X0177607Y0196723D01*
X0176840Y0197491D01*
X0175305Y0197491D01*
X0174538Y0196723D01*
X0174538Y0194421D01*
X0174538Y0195956D02*
X0173003Y0197491D01*
X0173770Y0199025D02*
X0173003Y0199792D01*
X0173003Y0201327D01*
X0173770Y0202094D01*
X0174538Y0202094D01*
X0175305Y0201327D01*
X0175305Y0200560D01*
X0175305Y0201327D02*
X0176072Y0202094D01*
X0176840Y0202094D01*
X0177607Y0201327D01*
X0177607Y0199792D01*
X0176840Y0199025D01*
X0134020Y0201665D02*
X0133253Y0200898D01*
X0131719Y0200898D01*
X0130951Y0201665D01*
X0129417Y0200898D02*
X0126347Y0200898D01*
X0125048Y0200570D02*
X0124281Y0199802D01*
X0121211Y0199802D01*
X0120444Y0200570D01*
X0120444Y0202104D01*
X0121211Y0202872D01*
X0121743Y0202432D02*
X0121743Y0201665D01*
X0122511Y0200898D01*
X0124045Y0200898D01*
X0124813Y0201665D01*
X0125048Y0202104D02*
X0125048Y0200570D01*
X0125048Y0202104D02*
X0124281Y0202872D01*
X0123278Y0203200D02*
X0122511Y0203200D01*
X0121743Y0202432D01*
X0122511Y0203200D02*
X0121743Y0203967D01*
X0121743Y0204734D01*
X0122511Y0205502D01*
X0124045Y0205502D01*
X0124813Y0204734D01*
X0125048Y0205941D02*
X0120444Y0205941D01*
X0120444Y0204406D02*
X0120444Y0207476D01*
X0121211Y0209010D02*
X0124281Y0212080D01*
X0121211Y0212080D01*
X0120444Y0211312D01*
X0120444Y0209778D01*
X0121211Y0209010D01*
X0124281Y0209010D01*
X0125048Y0209778D01*
X0125048Y0211312D01*
X0124281Y0212080D01*
X0125048Y0205941D02*
X0123513Y0204406D01*
X0127882Y0205502D02*
X0127882Y0200898D01*
X0129417Y0203967D02*
X0127882Y0205502D01*
X0130951Y0204734D02*
X0131719Y0205502D01*
X0133253Y0205502D01*
X0134020Y0204734D01*
X0134020Y0201665D01*
X0118902Y0202884D02*
X0118902Y0199815D01*
X0118135Y0199047D01*
X0116600Y0199047D01*
X0115833Y0199815D01*
X0114298Y0199047D02*
X0111229Y0199047D01*
X0109695Y0199047D02*
X0106625Y0202117D01*
X0106625Y0202884D01*
X0107393Y0203651D01*
X0108927Y0203651D01*
X0109695Y0202884D01*
X0112764Y0203651D02*
X0112764Y0199047D01*
X0109695Y0199047D02*
X0106625Y0199047D01*
X0103906Y0198167D02*
X0103906Y0196633D01*
X0103139Y0195865D01*
X0100070Y0195865D01*
X0099302Y0196633D01*
X0099302Y0198167D01*
X0100070Y0198935D01*
X0099302Y0200469D02*
X0099302Y0203539D01*
X0099302Y0205073D02*
X0099302Y0208142D01*
X0099302Y0206608D02*
X0103906Y0206608D01*
X0102372Y0205073D01*
X0103906Y0202004D02*
X0099302Y0202004D01*
X0102372Y0200469D02*
X0103906Y0202004D01*
X0103139Y0198935D02*
X0103906Y0198167D01*
X0112764Y0203651D02*
X0114298Y0202117D01*
X0115833Y0202884D02*
X0116600Y0203651D01*
X0118135Y0203651D01*
X0118902Y0202884D01*
X0088666Y0193002D02*
X0088666Y0189933D01*
X0087899Y0189165D01*
X0086364Y0189165D01*
X0085597Y0189933D01*
X0084062Y0189165D02*
X0080993Y0189165D01*
X0082528Y0189165D02*
X0082528Y0193769D01*
X0084062Y0192235D01*
X0085597Y0193002D02*
X0086364Y0193769D01*
X0087899Y0193769D01*
X0088666Y0193002D01*
X0079458Y0191467D02*
X0076389Y0191467D01*
X0077156Y0189165D02*
X0077156Y0193769D01*
X0079458Y0191467D01*
X0068768Y0194539D02*
X0064165Y0194539D01*
X0064165Y0197609D01*
X0064932Y0199143D02*
X0064165Y0199911D01*
X0064165Y0201445D01*
X0064932Y0202213D01*
X0065699Y0202213D01*
X0066467Y0201445D01*
X0066467Y0200678D01*
X0066467Y0201445D02*
X0067234Y0202213D01*
X0068001Y0202213D01*
X0068768Y0201445D01*
X0068768Y0199911D01*
X0068001Y0199143D01*
X0066835Y0183474D02*
X0066835Y0178870D01*
X0063766Y0178870D01*
X0062232Y0178870D02*
X0059162Y0178870D01*
X0060697Y0178870D02*
X0060697Y0183474D01*
X0062232Y0181939D01*
X0064637Y0172355D02*
X0063869Y0171588D01*
X0063869Y0170053D01*
X0064637Y0169286D01*
X0065404Y0169286D01*
X0066171Y0170053D01*
X0066171Y0171588D01*
X0065404Y0172355D01*
X0064637Y0172355D01*
X0066171Y0171588D02*
X0066939Y0172355D01*
X0067706Y0172355D01*
X0068473Y0171588D01*
X0068473Y0170053D01*
X0067706Y0169286D01*
X0066939Y0169286D01*
X0066171Y0170053D01*
X0064637Y0167751D02*
X0063869Y0166984D01*
X0063869Y0165449D01*
X0064637Y0164682D01*
X0067706Y0164682D01*
X0068473Y0165449D01*
X0068473Y0166984D01*
X0067706Y0167751D01*
X0051741Y0177066D02*
X0050974Y0176298D01*
X0047904Y0176298D01*
X0047137Y0177066D01*
X0047137Y0178600D01*
X0047904Y0179368D01*
X0047137Y0180902D02*
X0050206Y0183972D01*
X0050974Y0183972D01*
X0051741Y0183204D01*
X0051741Y0181670D01*
X0050974Y0180902D01*
X0050974Y0179368D02*
X0051741Y0178600D01*
X0051741Y0177066D01*
X0047137Y0180902D02*
X0047137Y0183972D01*
X0047904Y0185506D02*
X0047137Y0186274D01*
X0047137Y0187808D01*
X0047904Y0188576D01*
X0050974Y0188576D01*
X0051741Y0187808D01*
X0051741Y0186274D01*
X0050974Y0185506D01*
X0050206Y0185506D01*
X0049439Y0186274D01*
X0049439Y0188576D01*
X0076841Y0223614D02*
X0078376Y0223614D01*
X0079143Y0224381D01*
X0079143Y0225916D02*
X0077609Y0226683D01*
X0076841Y0226683D01*
X0076074Y0225916D01*
X0076074Y0224381D01*
X0076841Y0223614D01*
X0079143Y0225916D02*
X0079143Y0228218D01*
X0076074Y0228218D01*
X0080678Y0223614D02*
X0083747Y0223614D01*
X0082213Y0223614D02*
X0082213Y0228218D01*
X0083747Y0226683D01*
X0085282Y0227451D02*
X0086049Y0228218D01*
X0087584Y0228218D01*
X0088351Y0227451D01*
X0088351Y0224381D01*
X0087584Y0223614D01*
X0086049Y0223614D01*
X0085282Y0224381D01*
X0062292Y0242617D02*
X0062292Y0244919D01*
X0061525Y0245687D01*
X0059990Y0245687D01*
X0059223Y0244919D01*
X0059223Y0242617D01*
X0057688Y0242617D02*
X0062292Y0242617D01*
X0059223Y0244152D02*
X0057688Y0245687D01*
X0058455Y0247221D02*
X0057688Y0247989D01*
X0057688Y0249523D01*
X0058455Y0250291D01*
X0059223Y0250291D01*
X0059990Y0249523D01*
X0059990Y0248756D01*
X0059990Y0249523D02*
X0060757Y0250291D01*
X0061525Y0250291D01*
X0062292Y0249523D01*
X0062292Y0247989D01*
X0061525Y0247221D01*
X0059990Y0251825D02*
X0059990Y0254894D01*
X0057688Y0254127D02*
X0062292Y0254127D01*
X0059990Y0251825D01*
X0036461Y0278776D02*
X0034159Y0278776D01*
X0033391Y0279543D01*
X0033391Y0282612D01*
X0034159Y0283380D01*
X0036461Y0283380D01*
X0036461Y0278776D01*
X0031857Y0279543D02*
X0031089Y0278776D01*
X0029555Y0278776D01*
X0028787Y0279543D01*
X0028787Y0280310D01*
X0029555Y0281078D01*
X0030322Y0281078D01*
X0029555Y0281078D02*
X0028787Y0281845D01*
X0028787Y0282612D01*
X0029555Y0283380D01*
X0031089Y0283380D01*
X0031857Y0282612D01*
X0027053Y0284576D02*
X0044853Y0284576D01*
X0046192Y0287499D02*
X0050796Y0287499D01*
X0050796Y0289801D01*
X0050029Y0290569D01*
X0048494Y0290569D01*
X0047727Y0289801D01*
X0047727Y0287499D01*
X0047727Y0289034D02*
X0046192Y0290569D01*
X0046192Y0292103D02*
X0046192Y0295172D01*
X0046192Y0293638D02*
X0050796Y0293638D01*
X0049261Y0292103D01*
X0050796Y0296707D02*
X0050796Y0299776D01*
X0050029Y0299776D01*
X0046959Y0296707D01*
X0046192Y0296707D01*
X0044853Y0299576D02*
X0027053Y0299576D01*
X0027147Y0311173D02*
X0030217Y0311173D01*
X0031751Y0311173D02*
X0033286Y0312708D01*
X0032519Y0312708D02*
X0034820Y0312708D01*
X0034820Y0311173D02*
X0034820Y0315777D01*
X0032519Y0315777D01*
X0031751Y0315010D01*
X0031751Y0313475D01*
X0032519Y0312708D01*
X0030217Y0314243D02*
X0028682Y0315777D01*
X0028682Y0311173D01*
X0025613Y0311941D02*
X0024845Y0311173D01*
X0023311Y0311173D01*
X0022543Y0311941D01*
X0022543Y0313475D01*
X0023311Y0314243D01*
X0024078Y0314243D01*
X0025613Y0313475D01*
X0025613Y0315777D01*
X0022543Y0315777D01*
X0031511Y0326017D02*
X0031511Y0328319D01*
X0032278Y0329086D01*
X0035348Y0329086D01*
X0036115Y0328319D01*
X0036115Y0326017D01*
X0031511Y0326017D01*
X0033813Y0330620D02*
X0033813Y0333690D01*
X0031511Y0332922D02*
X0036115Y0332922D01*
X0033813Y0330620D01*
X0037311Y0335424D02*
X0037311Y0317624D01*
X0052311Y0317624D02*
X0052311Y0335424D01*
X0009457Y0293280D02*
X0008690Y0291746D01*
X0007155Y0290211D01*
X0007155Y0292513D01*
X0006388Y0293280D01*
X0005621Y0293280D01*
X0004854Y0292513D01*
X0004854Y0290978D01*
X0005621Y0290211D01*
X0007155Y0290211D01*
X0004854Y0288676D02*
X0004854Y0285607D01*
X0004854Y0284072D02*
X0006388Y0282538D01*
X0006388Y0283305D02*
X0006388Y0281003D01*
X0004854Y0281003D02*
X0009457Y0281003D01*
X0009457Y0283305D01*
X0008690Y0284072D01*
X0007155Y0284072D01*
X0006388Y0283305D01*
X0007923Y0285607D02*
X0009457Y0287142D01*
X0004854Y0287142D01*
X0033653Y0136194D02*
X0033653Y0133124D01*
X0036722Y0136194D01*
X0037489Y0136194D01*
X0038257Y0135426D01*
X0038257Y0133892D01*
X0037489Y0133124D01*
X0033653Y0131590D02*
X0033653Y0128520D01*
X0038257Y0128520D01*
X0214669Y0147570D02*
X0215437Y0146803D01*
X0216971Y0146803D01*
X0217739Y0147570D01*
X0219273Y0146803D02*
X0222343Y0146803D01*
X0223877Y0146803D02*
X0225412Y0148338D01*
X0224644Y0148338D02*
X0226946Y0148338D01*
X0226946Y0146803D02*
X0226946Y0151407D01*
X0224644Y0151407D01*
X0223877Y0150640D01*
X0223877Y0149105D01*
X0224644Y0148338D01*
X0222343Y0149872D02*
X0220808Y0151407D01*
X0220808Y0146803D01*
X0217739Y0150640D02*
X0216971Y0151407D01*
X0215437Y0151407D01*
X0214669Y0150640D01*
X0214669Y0149872D01*
X0215437Y0149105D01*
X0214669Y0148338D01*
X0214669Y0147570D01*
X0215437Y0149105D02*
X0216204Y0149105D01*
X0227130Y0182315D02*
X0226362Y0183082D01*
X0226362Y0183850D01*
X0227130Y0184617D01*
X0229431Y0184617D01*
X0229431Y0183082D01*
X0228664Y0182315D01*
X0227130Y0182315D01*
X0227151Y0184303D02*
X0227151Y0188907D01*
X0225617Y0188907D02*
X0228686Y0188907D01*
X0227897Y0186152D02*
X0229431Y0184617D01*
X0230966Y0184617D02*
X0231733Y0183850D01*
X0234035Y0183850D01*
X0232501Y0183850D02*
X0230966Y0182315D01*
X0230966Y0184617D02*
X0230966Y0186152D01*
X0231733Y0186919D01*
X0234035Y0186919D01*
X0234035Y0182315D01*
X0227897Y0186152D02*
X0226362Y0186919D01*
X0224082Y0187372D02*
X0222547Y0188907D01*
X0222547Y0184303D01*
X0221013Y0184303D02*
X0224082Y0184303D01*
X0283849Y0095249D02*
X0283082Y0094481D01*
X0283082Y0092947D01*
X0283849Y0092180D01*
X0285384Y0092180D02*
X0286151Y0093714D01*
X0286151Y0094481D01*
X0285384Y0095249D01*
X0283849Y0095249D01*
X0285384Y0092180D02*
X0287686Y0092180D01*
X0287686Y0095249D01*
X0286918Y0090645D02*
X0287686Y0089878D01*
X0287686Y0088343D01*
X0286918Y0087576D01*
X0286918Y0086041D02*
X0285384Y0086041D01*
X0284617Y0085274D01*
X0284617Y0082972D01*
X0284617Y0084506D02*
X0283082Y0086041D01*
X0283082Y0087576D02*
X0286151Y0090645D01*
X0286918Y0090645D01*
X0283082Y0090645D02*
X0283082Y0087576D01*
X0286918Y0086041D02*
X0287686Y0085274D01*
X0287686Y0082972D01*
X0283082Y0082972D01*
X0295304Y0077020D02*
X0298373Y0077020D01*
X0296839Y0077020D02*
X0296839Y0081624D01*
X0298373Y0080089D01*
X0299908Y0080856D02*
X0299908Y0077787D01*
X0300675Y0077020D01*
X0302977Y0077020D01*
X0302977Y0081624D01*
X0300675Y0081624D01*
X0299908Y0080856D01*
X0310109Y0073359D02*
X0310109Y0070290D01*
X0313179Y0073359D01*
X0313946Y0073359D01*
X0314713Y0072592D01*
X0314713Y0071057D01*
X0313946Y0070290D01*
X0313946Y0068755D02*
X0310877Y0068755D01*
X0310109Y0067988D01*
X0310109Y0066453D01*
X0310877Y0065686D01*
X0313946Y0065686D01*
X0314713Y0066453D01*
X0314713Y0067988D01*
X0313946Y0068755D01*
X0311644Y0067220D02*
X0310109Y0068755D01*
X0308521Y0042746D02*
X0306219Y0042746D01*
X0305452Y0041978D01*
X0305452Y0040444D01*
X0306219Y0039676D01*
X0308521Y0039676D01*
X0308521Y0038142D02*
X0308521Y0042746D01*
X0306987Y0039676D02*
X0305452Y0038142D01*
X0303917Y0038909D02*
X0303150Y0038142D01*
X0301615Y0038142D01*
X0300848Y0038909D01*
X0300848Y0039676D01*
X0301615Y0040444D01*
X0302383Y0040444D01*
X0301615Y0040444D02*
X0300848Y0041211D01*
X0300848Y0041978D01*
X0301615Y0042746D01*
X0303150Y0042746D01*
X0303917Y0041978D01*
X0299313Y0041978D02*
X0298546Y0042746D01*
X0297011Y0042746D01*
X0296244Y0041978D01*
X0296244Y0041211D01*
X0299313Y0038142D01*
X0296244Y0038142D01*
X0340090Y0062027D02*
X0344694Y0062027D01*
X0344694Y0064329D01*
X0343926Y0065096D01*
X0342392Y0065096D01*
X0341624Y0064329D01*
X0341624Y0062027D01*
X0341624Y0063561D02*
X0340090Y0065096D01*
X0340090Y0066631D02*
X0343159Y0069700D01*
X0343926Y0069700D01*
X0344694Y0068933D01*
X0344694Y0067398D01*
X0343926Y0066631D01*
X0340090Y0066631D02*
X0340090Y0069700D01*
X0342392Y0071235D02*
X0342392Y0074304D01*
X0340090Y0073537D02*
X0344694Y0073537D01*
X0342392Y0071235D01*
X0350995Y0071687D02*
X0350995Y0073222D01*
X0351763Y0073989D01*
X0352530Y0073989D01*
X0353297Y0073222D01*
X0353297Y0070920D01*
X0351763Y0070920D01*
X0350995Y0071687D01*
X0350995Y0069385D02*
X0350995Y0066316D01*
X0354065Y0069385D01*
X0354832Y0069385D01*
X0355599Y0068618D01*
X0355599Y0067083D01*
X0354832Y0066316D01*
X0355263Y0065346D02*
X0354496Y0064579D01*
X0352961Y0064579D01*
X0352194Y0065346D01*
X0352194Y0066113D01*
X0352961Y0066881D01*
X0353728Y0066881D01*
X0352961Y0066881D02*
X0352194Y0067648D01*
X0352194Y0068415D01*
X0352961Y0069183D01*
X0354496Y0069183D01*
X0355263Y0068415D01*
X0356798Y0068415D02*
X0356798Y0065346D01*
X0357565Y0064579D01*
X0359100Y0064579D01*
X0359867Y0065346D01*
X0359867Y0068415D01*
X0359100Y0069183D01*
X0357565Y0069183D01*
X0356798Y0068415D01*
X0358332Y0066113D02*
X0356798Y0064579D01*
X0355599Y0064014D02*
X0354832Y0064781D01*
X0353297Y0064781D01*
X0352530Y0064014D01*
X0352530Y0061712D01*
X0352530Y0063246D02*
X0350995Y0064781D01*
X0350995Y0061712D02*
X0355599Y0061712D01*
X0355599Y0064014D01*
X0353297Y0070920D02*
X0354832Y0072454D01*
X0355599Y0073989D01*
X0361382Y0080465D02*
X0360614Y0081232D01*
X0360614Y0081999D01*
X0361382Y0082767D01*
X0362916Y0082767D01*
X0363683Y0083534D01*
X0363683Y0084301D01*
X0362916Y0085068D01*
X0361382Y0085068D01*
X0360614Y0084301D01*
X0360614Y0083534D01*
X0361382Y0082767D01*
X0362916Y0082767D02*
X0363683Y0081999D01*
X0363683Y0081232D01*
X0362916Y0080465D01*
X0361382Y0080465D01*
X0365218Y0080465D02*
X0368287Y0080465D01*
X0365218Y0083534D01*
X0365218Y0084301D01*
X0365985Y0085068D01*
X0367520Y0085068D01*
X0368287Y0084301D01*
X0369822Y0084301D02*
X0369822Y0082767D01*
X0370589Y0081999D01*
X0372891Y0081999D01*
X0371357Y0081999D02*
X0369822Y0080465D01*
X0372891Y0080465D02*
X0372891Y0085068D01*
X0370589Y0085068D01*
X0369822Y0084301D01*
X0394539Y0096508D02*
X0399143Y0096508D01*
X0399143Y0098810D01*
X0398375Y0099577D01*
X0396841Y0099577D01*
X0396073Y0098810D01*
X0396073Y0096508D01*
X0396073Y0098043D02*
X0394539Y0099577D01*
X0394539Y0101112D02*
X0397608Y0104181D01*
X0398375Y0104181D01*
X0399143Y0103414D01*
X0399143Y0101879D01*
X0398375Y0101112D01*
X0394539Y0101112D02*
X0394539Y0104181D01*
X0394539Y0105716D02*
X0395306Y0105716D01*
X0398375Y0108785D01*
X0399143Y0108785D01*
X0399143Y0105716D01*
X0372104Y0125740D02*
X0372104Y0130344D01*
X0369802Y0130344D01*
X0369035Y0129577D01*
X0369035Y0128042D01*
X0369802Y0127275D01*
X0372104Y0127275D01*
X0370569Y0127275D02*
X0369035Y0125740D01*
X0367500Y0126507D02*
X0366733Y0125740D01*
X0365198Y0125740D01*
X0364431Y0126507D01*
X0364431Y0127275D01*
X0365198Y0128042D01*
X0365965Y0128042D01*
X0365198Y0128042D02*
X0364431Y0128809D01*
X0364431Y0129577D01*
X0365198Y0130344D01*
X0366733Y0130344D01*
X0367500Y0129577D01*
X0362896Y0130344D02*
X0359827Y0130344D01*
X0359827Y0129577D01*
X0362896Y0126507D01*
X0362896Y0125740D01*
X0358650Y0125409D02*
X0358650Y0122339D01*
X0358650Y0123874D02*
X0354046Y0123874D01*
X0354046Y0126943D02*
X0357116Y0130013D01*
X0357883Y0130013D01*
X0358650Y0129245D01*
X0358650Y0127711D01*
X0357883Y0126943D01*
X0354046Y0126943D02*
X0354046Y0130013D01*
X0372819Y0160543D02*
X0374353Y0160543D01*
X0375120Y0161311D01*
X0372051Y0164380D01*
X0372051Y0161311D01*
X0372819Y0160543D01*
X0375120Y0161311D02*
X0375120Y0164380D01*
X0374353Y0165147D01*
X0372819Y0165147D01*
X0372051Y0164380D01*
X0376655Y0164380D02*
X0376655Y0163613D01*
X0377422Y0162845D01*
X0376655Y0162078D01*
X0376655Y0161311D01*
X0377422Y0160543D01*
X0378957Y0160543D01*
X0379724Y0161311D01*
X0381259Y0161311D02*
X0382026Y0160543D01*
X0383561Y0160543D01*
X0384328Y0161311D01*
X0384328Y0164380D01*
X0383561Y0165147D01*
X0382026Y0165147D01*
X0381259Y0164380D01*
X0379724Y0164380D02*
X0378957Y0165147D01*
X0377422Y0165147D01*
X0376655Y0164380D01*
X0377422Y0162845D02*
X0378190Y0162845D01*
X0402078Y0168634D02*
X0402078Y0171703D01*
X0404380Y0173238D02*
X0404380Y0176307D01*
X0402078Y0175540D02*
X0406682Y0175540D01*
X0404380Y0173238D01*
X0406682Y0168634D02*
X0402078Y0168634D01*
X0362623Y0050935D02*
X0360321Y0050935D01*
X0359554Y0050167D01*
X0359554Y0048633D01*
X0360321Y0047865D01*
X0362623Y0047865D01*
X0362623Y0046331D02*
X0362623Y0050935D01*
X0361088Y0047865D02*
X0359554Y0046331D01*
X0358019Y0046331D02*
X0354950Y0049400D01*
X0354950Y0050167D01*
X0355717Y0050935D01*
X0357252Y0050935D01*
X0358019Y0050167D01*
X0358019Y0046331D02*
X0354950Y0046331D01*
X0353415Y0047098D02*
X0352648Y0046331D01*
X0351113Y0046331D01*
X0350346Y0047098D01*
X0350346Y0050167D01*
X0351113Y0050935D01*
X0352648Y0050935D01*
X0353415Y0050167D01*
X0353415Y0049400D01*
X0352648Y0048633D01*
X0350346Y0048633D01*
X0384158Y0033199D02*
X0384158Y0032431D01*
X0384925Y0031664D01*
X0384158Y0030897D01*
X0384158Y0030130D01*
X0384925Y0029362D01*
X0386459Y0029362D01*
X0387227Y0030130D01*
X0388761Y0029362D02*
X0391831Y0029362D01*
X0388761Y0032431D01*
X0388761Y0033199D01*
X0389529Y0033966D01*
X0391063Y0033966D01*
X0391831Y0033199D01*
X0393365Y0033199D02*
X0393365Y0031664D01*
X0394133Y0030897D01*
X0396435Y0030897D01*
X0396435Y0029362D02*
X0396435Y0033966D01*
X0394133Y0033966D01*
X0393365Y0033199D01*
X0394900Y0030897D02*
X0393365Y0029362D01*
X0387227Y0033199D02*
X0386459Y0033966D01*
X0384925Y0033966D01*
X0384158Y0033199D01*
X0384925Y0031664D02*
X0385692Y0031664D01*
D11*
X0081022Y0168528D02*
X0080405Y0167910D01*
X0077936Y0167910D01*
X0077319Y0168528D01*
X0077319Y0169762D01*
X0077936Y0170379D01*
X0077936Y0171594D02*
X0077319Y0172211D01*
X0077319Y0173445D01*
X0077936Y0174062D01*
X0080405Y0174062D01*
X0081022Y0173445D01*
X0081022Y0172211D01*
X0080405Y0171594D01*
X0079788Y0171594D01*
X0079171Y0172211D01*
X0079171Y0174062D01*
X0080405Y0170379D02*
X0081022Y0169762D01*
X0081022Y0168528D01*
X0069511Y0155702D02*
X0068893Y0154468D01*
X0067659Y0153234D01*
X0067659Y0155085D01*
X0067042Y0155702D01*
X0066425Y0155702D01*
X0065807Y0155085D01*
X0065807Y0153851D01*
X0066425Y0153234D01*
X0067659Y0153234D01*
X0068276Y0152019D02*
X0065807Y0149550D01*
X0065807Y0152019D01*
X0068276Y0152019D02*
X0068893Y0152019D01*
X0069511Y0151402D01*
X0069511Y0150168D01*
X0068893Y0149550D01*
X0068893Y0148336D02*
X0069511Y0147719D01*
X0069511Y0146485D01*
X0068893Y0145867D01*
X0066425Y0145867D01*
X0065807Y0146485D01*
X0065807Y0147719D01*
X0066425Y0148336D01*
X0062413Y0194247D02*
X0059944Y0194247D01*
X0059327Y0194864D01*
X0059327Y0196099D01*
X0059944Y0196716D01*
X0059327Y0197930D02*
X0059327Y0200399D01*
X0059944Y0201613D02*
X0059327Y0202230D01*
X0059327Y0203465D01*
X0059944Y0204082D01*
X0060562Y0204082D01*
X0061179Y0203465D01*
X0061179Y0202230D01*
X0061796Y0201613D01*
X0062413Y0201613D01*
X0063030Y0202230D01*
X0063030Y0203465D01*
X0062413Y0204082D01*
X0061796Y0204082D01*
X0061179Y0203465D01*
X0061179Y0202230D02*
X0060562Y0201613D01*
X0059944Y0201613D01*
X0061796Y0200399D02*
X0062413Y0200399D01*
X0063030Y0199782D01*
X0063030Y0198547D01*
X0062413Y0197930D01*
X0062413Y0196716D02*
X0063030Y0196099D01*
X0063030Y0194864D01*
X0062413Y0194247D01*
X0059327Y0197930D02*
X0061796Y0200399D01*
X0066425Y0213466D02*
X0065807Y0214083D01*
X0065807Y0215317D01*
X0066425Y0215935D01*
X0065807Y0217149D02*
X0068276Y0219618D01*
X0068893Y0219618D01*
X0069511Y0219000D01*
X0069511Y0217766D01*
X0068893Y0217149D01*
X0068893Y0215935D02*
X0069511Y0215317D01*
X0069511Y0214083D01*
X0068893Y0213466D01*
X0066425Y0213466D01*
X0065807Y0217149D02*
X0065807Y0219618D01*
X0065807Y0220832D02*
X0066425Y0220832D01*
X0068893Y0223301D01*
X0069511Y0223301D01*
X0069511Y0220832D01*
D12*
X0158984Y0127706D02*
X0160559Y0125343D01*
X0157409Y0125343D01*
X0158984Y0127706D01*
X0290077Y0071920D02*
X0292277Y0071920D01*
X0290077Y0071920D02*
X0290077Y0068720D01*
X0299077Y0071920D02*
X0301277Y0071920D01*
X0301277Y0068720D01*
D13*
X0036713Y0288139D02*
X0036713Y0296013D01*
X0032685Y0292076D01*
X0036713Y0288139D01*
X0040874Y0325765D02*
X0048748Y0325765D01*
X0044811Y0329792D01*
X0040874Y0325765D01*
X0024902Y0045028D02*
X0024902Y0037154D01*
X0020874Y0041091D01*
X0024902Y0045028D01*
M02*
