G75*
%MOIN*%
%OFA0B0*%
%FSLAX25Y25*%
%IPPOS*%
%LPD*%
%AMOC8*
5,1,8,0,0,1.08239X$1,22.5*
%
%ADD10C,0.00300*%
D10*
X0079434Y0039273D02*
X0081902Y0042976D01*
X0083117Y0042359D02*
X0083734Y0042976D01*
X0085585Y0042976D01*
X0085585Y0039273D01*
X0085585Y0040507D02*
X0083734Y0040507D01*
X0083117Y0041124D01*
X0083117Y0042359D01*
X0084351Y0040507D02*
X0083117Y0039273D01*
X0081902Y0039273D02*
X0079434Y0042976D01*
X0079434Y0051273D02*
X0081902Y0054976D01*
X0083117Y0054976D02*
X0085585Y0054976D01*
X0084351Y0054976D02*
X0084351Y0051273D01*
X0081902Y0051273D02*
X0079434Y0054976D01*
X0090483Y0054359D02*
X0091100Y0054976D01*
X0092335Y0054976D01*
X0092952Y0054359D01*
X0094166Y0054359D02*
X0094166Y0053742D01*
X0094783Y0053124D01*
X0094166Y0052507D01*
X0094166Y0051890D01*
X0094783Y0051273D01*
X0096018Y0051273D01*
X0096635Y0051890D01*
X0097849Y0051273D02*
X0100318Y0051273D01*
X0097849Y0053742D01*
X0097849Y0054359D01*
X0098466Y0054976D01*
X0099701Y0054976D01*
X0100318Y0054359D01*
X0101532Y0054359D02*
X0102150Y0054976D01*
X0103384Y0054976D01*
X0104001Y0054359D01*
X0104001Y0053742D01*
X0103384Y0053124D01*
X0102150Y0053124D01*
X0101532Y0052507D01*
X0101532Y0051890D01*
X0102150Y0051273D01*
X0103384Y0051273D01*
X0104001Y0051890D01*
X0105216Y0051273D02*
X0106450Y0052507D01*
X0105833Y0052507D02*
X0107684Y0052507D01*
X0107684Y0051273D02*
X0107684Y0054976D01*
X0105833Y0054976D01*
X0105216Y0054359D01*
X0105216Y0053124D01*
X0105833Y0052507D01*
X0106443Y0047124D02*
X0108912Y0047124D01*
X0107684Y0042976D02*
X0105833Y0042976D01*
X0105216Y0042359D01*
X0105216Y0041124D01*
X0105833Y0040507D01*
X0107684Y0040507D01*
X0106450Y0040507D02*
X0105216Y0039273D01*
X0104001Y0039890D02*
X0103384Y0039273D01*
X0102150Y0039273D01*
X0101532Y0039890D01*
X0101532Y0040507D01*
X0102150Y0041124D01*
X0103384Y0041124D01*
X0104001Y0041742D01*
X0104001Y0042359D01*
X0103384Y0042976D01*
X0102150Y0042976D01*
X0101532Y0042359D01*
X0100318Y0042359D02*
X0099701Y0042976D01*
X0098466Y0042976D01*
X0097849Y0042359D01*
X0097849Y0041742D01*
X0100318Y0039273D01*
X0097849Y0039273D01*
X0096635Y0039890D02*
X0096018Y0039273D01*
X0094783Y0039273D01*
X0094166Y0039890D01*
X0094166Y0040507D01*
X0094783Y0041124D01*
X0095401Y0041124D01*
X0094783Y0041124D02*
X0094166Y0041742D01*
X0094166Y0042359D01*
X0094783Y0042976D01*
X0096018Y0042976D01*
X0096635Y0042359D01*
X0097863Y0045273D02*
X0097863Y0048976D01*
X0095394Y0045273D01*
X0095394Y0048976D01*
X0094179Y0048976D02*
X0092328Y0048976D01*
X0091711Y0048359D01*
X0091711Y0045890D01*
X0092328Y0045273D01*
X0094179Y0045273D01*
X0094179Y0048976D01*
X0092952Y0051273D02*
X0090483Y0053742D01*
X0090483Y0054359D01*
X0090483Y0051273D02*
X0092952Y0051273D01*
X0094783Y0053124D02*
X0095401Y0053124D01*
X0096635Y0054359D02*
X0096018Y0054976D01*
X0094783Y0054976D01*
X0094166Y0054359D01*
X0099694Y0048976D02*
X0100929Y0048976D01*
X0101546Y0048359D01*
X0101546Y0045890D01*
X0100929Y0045273D01*
X0099694Y0045273D01*
X0099077Y0045890D01*
X0099077Y0047124D01*
X0100311Y0047124D01*
X0099077Y0048359D02*
X0099694Y0048976D01*
X0092952Y0042359D02*
X0092335Y0042976D01*
X0091100Y0042976D01*
X0090483Y0042359D01*
X0090483Y0041742D01*
X0092952Y0039273D01*
X0090483Y0039273D01*
X0107684Y0039273D02*
X0107684Y0042976D01*
X0112582Y0041124D02*
X0115051Y0041124D01*
X0115661Y0045273D02*
X0114427Y0045273D01*
X0113810Y0045890D01*
X0113810Y0047124D01*
X0114427Y0047742D01*
X0115044Y0047742D01*
X0116278Y0047124D01*
X0116278Y0048976D01*
X0113810Y0048976D01*
X0116278Y0045890D02*
X0115661Y0045273D01*
X0117499Y0045273D02*
X0118117Y0045273D01*
X0118117Y0045890D01*
X0117499Y0045890D01*
X0117499Y0045273D01*
X0118734Y0044038D01*
X0119948Y0042976D02*
X0121183Y0042359D01*
X0122417Y0041124D01*
X0120565Y0041124D01*
X0119948Y0040507D01*
X0119948Y0039890D01*
X0120565Y0039273D01*
X0121800Y0039273D01*
X0122417Y0039890D01*
X0122417Y0041124D01*
X0120565Y0045273D02*
X0120565Y0048976D01*
X0122417Y0047124D01*
X0119948Y0047124D01*
X0120565Y0051273D02*
X0121800Y0051273D01*
X0122417Y0051890D01*
X0121183Y0053124D02*
X0120565Y0053124D01*
X0119948Y0052507D01*
X0119948Y0051890D01*
X0120565Y0051273D01*
X0120565Y0053124D02*
X0119948Y0053742D01*
X0119948Y0054359D01*
X0120565Y0054976D01*
X0121800Y0054976D01*
X0122417Y0054359D01*
X0115051Y0053124D02*
X0112582Y0053124D01*
X0104001Y0073472D02*
X0104001Y0077175D01*
X0102150Y0077175D01*
X0101532Y0076557D01*
X0101532Y0075323D01*
X0102150Y0074706D01*
X0104001Y0074706D01*
X0105216Y0075323D02*
X0105216Y0076557D01*
X0105833Y0077175D01*
X0107067Y0077175D01*
X0107684Y0076557D01*
X0107684Y0075323D01*
X0107067Y0074706D01*
X0105833Y0074706D01*
X0105216Y0075323D01*
X0100318Y0077175D02*
X0099084Y0077175D01*
X0099701Y0077792D02*
X0099701Y0075323D01*
X0099084Y0074706D01*
X0094179Y0076557D02*
X0091711Y0076557D01*
X0090496Y0076557D02*
X0089262Y0077175D01*
X0088645Y0077175D01*
X0088028Y0076557D01*
X0088028Y0075323D01*
X0088645Y0074706D01*
X0089879Y0074706D01*
X0090496Y0075323D01*
X0090496Y0076557D02*
X0090496Y0078409D01*
X0088028Y0078409D01*
X0086813Y0078409D02*
X0086813Y0075940D01*
X0085579Y0074706D01*
X0084344Y0075940D01*
X0084344Y0078409D01*
X0092945Y0077792D02*
X0092945Y0075323D01*
X0112582Y0076557D02*
X0115051Y0076557D01*
X0119948Y0077792D02*
X0122417Y0075323D01*
X0122417Y0074706D01*
X0122417Y0078409D02*
X0119948Y0078409D01*
X0119948Y0077792D01*
X0169529Y0060359D02*
X0169529Y0057890D01*
X0170146Y0057273D01*
X0171381Y0057273D01*
X0171998Y0057890D01*
X0171998Y0060359D01*
X0171381Y0060976D01*
X0170146Y0060976D01*
X0169529Y0060359D01*
X0173219Y0060976D02*
X0174453Y0060976D01*
X0173836Y0060976D02*
X0173836Y0057273D01*
X0174453Y0057273D02*
X0173219Y0057273D01*
X0175668Y0057890D02*
X0175668Y0060359D01*
X0176285Y0060976D01*
X0178136Y0060976D01*
X0178136Y0057273D01*
X0176285Y0057273D01*
X0175668Y0057890D01*
X0174453Y0054976D02*
X0173219Y0053742D01*
X0173219Y0052507D01*
X0174453Y0051273D01*
X0175668Y0051890D02*
X0175668Y0053742D01*
X0175668Y0051890D02*
X0176285Y0051273D01*
X0176902Y0051890D01*
X0177519Y0051273D01*
X0178136Y0051890D01*
X0178136Y0053742D01*
X0179351Y0053124D02*
X0179351Y0051890D01*
X0179968Y0051273D01*
X0181202Y0051273D01*
X0181820Y0051890D01*
X0181820Y0053124D01*
X0181202Y0053742D01*
X0179968Y0053742D01*
X0179351Y0053124D01*
X0183041Y0051273D02*
X0184275Y0051273D01*
X0183658Y0051273D02*
X0183658Y0054976D01*
X0184275Y0054976D01*
X0185503Y0057273D02*
X0185503Y0060976D01*
X0183651Y0060976D01*
X0183034Y0060359D01*
X0183034Y0059124D01*
X0183651Y0058507D01*
X0185503Y0058507D01*
X0184268Y0058507D02*
X0183034Y0057273D01*
X0181820Y0057273D02*
X0181820Y0059742D01*
X0180585Y0060976D01*
X0179351Y0059742D01*
X0179351Y0057273D01*
X0179351Y0059124D02*
X0181820Y0059124D01*
X0190400Y0060976D02*
X0190400Y0057273D01*
X0192869Y0057273D02*
X0192869Y0060976D01*
X0191635Y0059742D01*
X0190400Y0060976D01*
X0194083Y0060359D02*
X0194083Y0057890D01*
X0194701Y0057273D01*
X0195935Y0057273D01*
X0196552Y0057890D01*
X0196552Y0060359D01*
X0195935Y0060976D01*
X0194701Y0060976D01*
X0194083Y0060359D01*
X0197766Y0060359D02*
X0197766Y0059124D01*
X0198384Y0058507D01*
X0200235Y0058507D01*
X0199001Y0058507D02*
X0197766Y0057273D01*
X0200235Y0057273D02*
X0200235Y0060976D01*
X0198384Y0060976D01*
X0197766Y0060359D01*
X0201450Y0060976D02*
X0203918Y0060976D01*
X0203918Y0057273D01*
X0203918Y0059124D02*
X0202684Y0059124D01*
X0205133Y0054976D02*
X0207602Y0054976D01*
X0208816Y0054976D02*
X0211285Y0054976D01*
X0210050Y0054976D02*
X0210050Y0051273D01*
X0212499Y0053124D02*
X0213116Y0052507D01*
X0214968Y0052507D01*
X0214968Y0051273D02*
X0214968Y0054976D01*
X0213116Y0054976D01*
X0212499Y0054359D01*
X0212499Y0053124D01*
X0212499Y0057273D02*
X0212499Y0059742D01*
X0213733Y0060976D01*
X0214968Y0059742D01*
X0214968Y0057273D01*
X0214968Y0059124D02*
X0212499Y0059124D01*
X0211285Y0059124D02*
X0210050Y0059124D01*
X0211285Y0057273D02*
X0211285Y0060976D01*
X0208816Y0060976D01*
X0206367Y0054976D02*
X0206367Y0051273D01*
X0206367Y0048976D02*
X0206367Y0045273D01*
X0205750Y0042976D02*
X0207602Y0042976D01*
X0207602Y0039273D01*
X0205750Y0039273D01*
X0205133Y0039890D01*
X0205133Y0042359D01*
X0205750Y0042976D01*
X0208816Y0042976D02*
X0208816Y0039273D01*
X0211285Y0042976D01*
X0211285Y0039273D01*
X0212499Y0039890D02*
X0212499Y0041124D01*
X0213733Y0041124D01*
X0212499Y0039890D02*
X0213116Y0039273D01*
X0214351Y0039273D01*
X0214968Y0039890D01*
X0214968Y0042359D01*
X0214351Y0042976D01*
X0213116Y0042976D01*
X0212499Y0042359D01*
X0214968Y0045273D02*
X0214968Y0048976D01*
X0212499Y0048976D01*
X0213733Y0047124D02*
X0214968Y0047124D01*
X0216182Y0047124D02*
X0218651Y0047124D01*
X0218651Y0047742D02*
X0217417Y0048976D01*
X0216182Y0047742D01*
X0216182Y0045273D01*
X0218651Y0045273D02*
X0218651Y0047742D01*
X0223548Y0047124D02*
X0226017Y0047124D01*
X0227232Y0047124D02*
X0227232Y0045890D01*
X0227849Y0045273D01*
X0229083Y0045273D01*
X0229700Y0045890D01*
X0229700Y0047124D02*
X0228466Y0047742D01*
X0227849Y0047742D01*
X0227232Y0047124D01*
X0227232Y0048976D02*
X0229700Y0048976D01*
X0229700Y0047124D01*
X0229700Y0042976D02*
X0227232Y0042976D01*
X0227232Y0042359D01*
X0229700Y0039890D01*
X0229700Y0039273D01*
X0222334Y0041124D02*
X0219865Y0041124D01*
X0227849Y0051273D02*
X0227849Y0054976D01*
X0229700Y0053124D01*
X0227232Y0053124D01*
X0227849Y0057273D02*
X0229083Y0057273D01*
X0229700Y0057890D01*
X0228466Y0059124D02*
X0227849Y0059124D01*
X0227232Y0058507D01*
X0227232Y0057890D01*
X0227849Y0057273D01*
X0227849Y0059124D02*
X0227232Y0059742D01*
X0227232Y0060359D01*
X0227849Y0060976D01*
X0229083Y0060976D01*
X0229700Y0060359D01*
X0222334Y0059124D02*
X0219865Y0059124D01*
X0219865Y0053124D02*
X0222334Y0053124D01*
X0207602Y0048976D02*
X0205133Y0048976D01*
X0203918Y0048359D02*
X0203918Y0045890D01*
X0203301Y0045273D01*
X0202067Y0045273D01*
X0201450Y0045890D01*
X0201450Y0048359D01*
X0202067Y0048976D01*
X0203301Y0048976D01*
X0203918Y0048359D01*
X0200235Y0052507D02*
X0200235Y0053742D01*
X0199001Y0054976D01*
X0197163Y0053742D02*
X0195928Y0053742D01*
X0195311Y0053124D01*
X0195311Y0051273D01*
X0197163Y0051273D01*
X0197780Y0051890D01*
X0197163Y0052507D01*
X0195311Y0052507D01*
X0194097Y0051890D02*
X0193479Y0051273D01*
X0191628Y0051273D01*
X0189796Y0051890D02*
X0189796Y0054359D01*
X0189179Y0053742D02*
X0190414Y0053742D01*
X0191628Y0053742D02*
X0193479Y0053742D01*
X0194097Y0053124D01*
X0194097Y0051890D01*
X0194701Y0048976D02*
X0194083Y0048359D01*
X0194083Y0047124D01*
X0194701Y0046507D01*
X0196552Y0046507D01*
X0196552Y0045273D02*
X0196552Y0048976D01*
X0194701Y0048976D01*
X0192869Y0047742D02*
X0191635Y0048976D01*
X0190400Y0047742D01*
X0190400Y0045273D01*
X0189186Y0045273D02*
X0187334Y0045273D01*
X0186717Y0045890D01*
X0186717Y0048359D01*
X0187334Y0048976D01*
X0189186Y0048976D01*
X0189186Y0045273D01*
X0190400Y0047124D02*
X0192869Y0047124D01*
X0192869Y0047742D02*
X0192869Y0045273D01*
X0194083Y0045273D02*
X0195318Y0046507D01*
X0199001Y0051273D02*
X0200235Y0052507D01*
X0189796Y0051890D02*
X0189179Y0051273D01*
X0185503Y0048976D02*
X0184268Y0048976D01*
X0184885Y0048976D02*
X0184885Y0045273D01*
X0184268Y0045273D02*
X0185503Y0045273D01*
X0183047Y0045890D02*
X0182430Y0045273D01*
X0181196Y0045273D01*
X0180578Y0045890D01*
X0180578Y0048359D01*
X0181196Y0048976D01*
X0182430Y0048976D01*
X0183047Y0048359D01*
X0183047Y0045890D01*
X0158584Y0344391D02*
X0158584Y0348094D01*
X0157350Y0348094D02*
X0159819Y0348094D01*
X0156135Y0348094D02*
X0153667Y0344391D01*
X0152452Y0344391D02*
X0149983Y0346860D01*
X0149983Y0347477D01*
X0150601Y0348094D01*
X0151835Y0348094D01*
X0152452Y0347477D01*
X0153667Y0348094D02*
X0156135Y0344391D01*
X0152452Y0344391D02*
X0149983Y0344391D01*
X0148769Y0345008D02*
X0146300Y0347477D01*
X0146300Y0345008D01*
X0146917Y0344391D01*
X0148152Y0344391D01*
X0148769Y0345008D01*
X0148769Y0347477D01*
X0148152Y0348094D01*
X0146917Y0348094D01*
X0146300Y0347477D01*
X0141403Y0346860D02*
X0141403Y0344391D01*
X0141403Y0346243D02*
X0138934Y0346243D01*
X0138934Y0346860D02*
X0138934Y0344391D01*
X0137720Y0344391D02*
X0137720Y0346860D01*
X0135868Y0346860D01*
X0135251Y0346243D01*
X0135251Y0344391D01*
X0134036Y0345008D02*
X0134036Y0346243D01*
X0133419Y0346860D01*
X0132185Y0346860D01*
X0131568Y0346243D01*
X0131568Y0345625D01*
X0134036Y0345625D01*
X0134036Y0345008D02*
X0133419Y0344391D01*
X0132185Y0344391D01*
X0130353Y0344391D02*
X0130353Y0346860D01*
X0129736Y0346860D01*
X0129119Y0346243D01*
X0128502Y0346860D01*
X0127885Y0346243D01*
X0127885Y0344391D01*
X0129119Y0344391D02*
X0129119Y0346243D01*
X0126670Y0346243D02*
X0126670Y0345008D01*
X0126053Y0344391D01*
X0124819Y0344391D01*
X0124201Y0345008D01*
X0124201Y0346243D01*
X0124819Y0346860D01*
X0126053Y0346860D01*
X0126670Y0346243D01*
X0122987Y0346860D02*
X0122987Y0344391D01*
X0121753Y0344391D02*
X0121753Y0346243D01*
X0121135Y0346860D01*
X0120518Y0346243D01*
X0120518Y0344391D01*
X0119304Y0345008D02*
X0119304Y0346243D01*
X0118687Y0346860D01*
X0117452Y0346860D01*
X0116835Y0346243D01*
X0116835Y0345625D01*
X0119304Y0345625D01*
X0119304Y0345008D02*
X0118687Y0344391D01*
X0117452Y0344391D01*
X0115004Y0345008D02*
X0114386Y0344391D01*
X0115004Y0345008D02*
X0115004Y0347477D01*
X0115621Y0346860D02*
X0114386Y0346860D01*
X0113165Y0346243D02*
X0112548Y0346860D01*
X0111314Y0346860D01*
X0110697Y0346243D01*
X0110697Y0345625D01*
X0113165Y0345625D01*
X0113165Y0345008D02*
X0113165Y0346243D01*
X0113165Y0345008D02*
X0112548Y0344391D01*
X0111314Y0344391D01*
X0109482Y0344391D02*
X0109482Y0346860D01*
X0108248Y0346860D02*
X0107631Y0346860D01*
X0108248Y0346860D02*
X0109482Y0345625D01*
X0121753Y0346243D02*
X0122370Y0346860D01*
X0122987Y0346860D01*
X0138934Y0346860D02*
X0140168Y0348094D01*
X0141403Y0346860D01*
X0093874Y0348094D02*
X0093874Y0344391D01*
X0092022Y0344391D01*
X0091405Y0345008D01*
X0091405Y0347477D01*
X0092022Y0348094D01*
X0093874Y0348094D01*
X0090190Y0347477D02*
X0090190Y0346860D01*
X0089573Y0346243D01*
X0088339Y0346243D01*
X0087722Y0345625D01*
X0087722Y0345008D01*
X0088339Y0344391D01*
X0089573Y0344391D01*
X0090190Y0345008D01*
X0090190Y0347477D02*
X0089573Y0348094D01*
X0088339Y0348094D01*
X0087722Y0347477D01*
X0082824Y0346860D02*
X0081590Y0346860D01*
X0082207Y0347477D02*
X0082207Y0345008D01*
X0081590Y0344391D01*
X0080369Y0344391D02*
X0080369Y0348094D01*
X0079752Y0346860D02*
X0078517Y0346860D01*
X0077900Y0346243D01*
X0077900Y0344391D01*
X0076686Y0345008D02*
X0076686Y0346243D01*
X0076068Y0346860D01*
X0074834Y0346860D01*
X0074217Y0346243D01*
X0074217Y0345625D01*
X0076686Y0345625D01*
X0076686Y0345008D02*
X0076068Y0344391D01*
X0074834Y0344391D01*
X0073002Y0344391D02*
X0073002Y0346860D01*
X0071768Y0346860D02*
X0073002Y0345625D01*
X0071768Y0346860D02*
X0071151Y0346860D01*
X0069933Y0346860D02*
X0069316Y0346860D01*
X0068699Y0346243D01*
X0068082Y0346860D01*
X0067464Y0346243D01*
X0067464Y0344391D01*
X0068699Y0344391D02*
X0068699Y0346243D01*
X0069933Y0346860D02*
X0069933Y0344391D01*
X0066250Y0345008D02*
X0066250Y0346243D01*
X0065633Y0346860D01*
X0064398Y0346860D01*
X0063781Y0346243D01*
X0063781Y0345008D01*
X0064398Y0344391D01*
X0065633Y0344391D01*
X0066250Y0345008D01*
X0062567Y0344391D02*
X0062567Y0346860D01*
X0061950Y0346860D01*
X0061333Y0346243D01*
X0060715Y0346860D01*
X0060098Y0346243D01*
X0060098Y0344391D01*
X0061333Y0344391D02*
X0061333Y0346243D01*
X0058884Y0346243D02*
X0058884Y0345008D01*
X0058267Y0344391D01*
X0057032Y0344391D01*
X0056415Y0345625D02*
X0058884Y0345625D01*
X0058884Y0346243D02*
X0058267Y0346860D01*
X0057032Y0346860D01*
X0056415Y0346243D01*
X0056415Y0345625D01*
X0055201Y0346860D02*
X0053966Y0346860D01*
X0054583Y0347477D02*
X0054583Y0345008D01*
X0053966Y0344391D01*
X0052745Y0345008D02*
X0052745Y0346243D01*
X0052128Y0346860D01*
X0050894Y0346860D01*
X0050276Y0346243D01*
X0050276Y0345625D01*
X0052745Y0345625D01*
X0052745Y0345008D02*
X0052128Y0344391D01*
X0050894Y0344391D01*
X0049062Y0344391D02*
X0049062Y0346860D01*
X0047828Y0346860D02*
X0047210Y0346860D01*
X0047828Y0346860D02*
X0049062Y0345625D01*
X0030881Y0345625D02*
X0029030Y0345625D01*
X0028413Y0346243D01*
X0028413Y0347477D01*
X0029030Y0348094D01*
X0030881Y0348094D01*
X0030881Y0344391D01*
X0029647Y0345625D02*
X0028413Y0344391D01*
X0027198Y0345008D02*
X0026581Y0344391D01*
X0025347Y0344391D01*
X0024730Y0345008D01*
X0024730Y0345625D01*
X0025347Y0346243D01*
X0026581Y0346243D01*
X0027198Y0346860D01*
X0027198Y0347477D01*
X0026581Y0348094D01*
X0025347Y0348094D01*
X0024730Y0347477D01*
X0023515Y0346243D02*
X0021046Y0346243D01*
X0019832Y0346860D02*
X0019832Y0347477D01*
X0019215Y0348094D01*
X0017980Y0348094D01*
X0017363Y0347477D01*
X0017363Y0346860D01*
X0017980Y0346243D01*
X0019215Y0346243D01*
X0019832Y0346860D01*
X0019215Y0346243D02*
X0019832Y0345625D01*
X0019832Y0345008D01*
X0019215Y0344391D01*
X0017980Y0344391D01*
X0017363Y0345008D01*
X0017363Y0345625D01*
X0017980Y0346243D01*
X0016149Y0346243D02*
X0014915Y0346860D01*
X0014297Y0346860D01*
X0013680Y0346243D01*
X0013680Y0345008D01*
X0014297Y0344391D01*
X0015532Y0344391D01*
X0016149Y0345008D01*
X0016149Y0346243D02*
X0016149Y0348094D01*
X0013680Y0348094D01*
X0021664Y0348094D02*
X0021664Y0344391D01*
X0023515Y0346243D02*
X0021664Y0348094D01*
X0079752Y0346860D02*
X0080369Y0346243D01*
M02*
